G04 #@! TF.FileFunction,Copper,L1,Top,Plane*
%FSLAX46Y46*%
G04 Gerber Fmt 4.6, Leading zero omitted, Abs format (unit mm)*
G04 Created by KiCad (PCBNEW 4.0.4-stable) date 02/07/17 14:21:35*
%MOMM*%
%LPD*%
G01*
G04 APERTURE LIST*
%ADD10C,0.100000*%
%ADD11R,0.560000X1.600000*%
%ADD12R,1.600000X0.560000*%
%ADD13R,3.000000X1.600000*%
%ADD14R,0.800000X0.750000*%
%ADD15R,1.600000X1.000000*%
%ADD16R,0.750000X0.800000*%
%ADD17R,0.900000X1.200000*%
%ADD18R,1.000000X1.000000*%
%ADD19R,3.810000X4.240000*%
%ADD20R,1.000000X0.700000*%
%ADD21C,6.000000*%
%ADD22R,1.200000X0.900000*%
%ADD23R,1.550000X0.600000*%
%ADD24R,1.175000X1.175000*%
%ADD25R,1.500000X0.600000*%
%ADD26R,0.650000X1.560000*%
%ADD27R,0.500000X0.250000*%
%ADD28R,0.840000X2.400000*%
%ADD29C,1.700000*%
%ADD30R,1.700000X1.700000*%
%ADD31R,1.100000X0.400000*%
%ADD32R,3.000000X1.000000*%
%ADD33O,1.700000X1.700000*%
%ADD34O,1.501140X1.000000*%
%ADD35R,1.501140X1.000000*%
%ADD36C,0.900000*%
%ADD37C,0.300000*%
%ADD38C,0.400000*%
%ADD39C,0.200000*%
%ADD40C,0.254000*%
G04 APERTURE END LIST*
D10*
D11*
X133990000Y-77875000D03*
X133190000Y-77875000D03*
X132390000Y-77875000D03*
X131590000Y-77875000D03*
X130790000Y-77875000D03*
X129990000Y-77875000D03*
X129190000Y-77875000D03*
X128390000Y-77875000D03*
X127590000Y-77875000D03*
X126790000Y-77875000D03*
X125990000Y-77875000D03*
D12*
X124140000Y-79725000D03*
X124140000Y-80525000D03*
X124140000Y-81325000D03*
X124140000Y-82125000D03*
X124140000Y-82925000D03*
X124140000Y-83725000D03*
X124140000Y-84525000D03*
X124140000Y-85325000D03*
X124140000Y-86125000D03*
X124140000Y-86925000D03*
X124140000Y-87725000D03*
D11*
X125990000Y-89575000D03*
X126790000Y-89575000D03*
X127590000Y-89575000D03*
X128390000Y-89575000D03*
X129190000Y-89575000D03*
X129990000Y-89575000D03*
X130790000Y-89575000D03*
X131590000Y-89575000D03*
X132390000Y-89575000D03*
X133190000Y-89575000D03*
X133990000Y-89575000D03*
D12*
X135840000Y-87725000D03*
X135840000Y-86925000D03*
X135840000Y-86125000D03*
X135840000Y-85325000D03*
X135840000Y-84525000D03*
X135840000Y-83725000D03*
X135840000Y-82925000D03*
X135840000Y-82125000D03*
X135840000Y-81325000D03*
X135840000Y-80525000D03*
X135840000Y-79725000D03*
D13*
X103195000Y-74745000D03*
X98795000Y-74745000D03*
D14*
X98370000Y-79545000D03*
X96870000Y-79545000D03*
X111845000Y-76755000D03*
X113345000Y-76755000D03*
D15*
X120495000Y-72055000D03*
X120495000Y-69055000D03*
D14*
X110315000Y-88825000D03*
X111815000Y-88825000D03*
X109275000Y-92605000D03*
X110775000Y-92605000D03*
X109285000Y-94155000D03*
X110785000Y-94155000D03*
X128340000Y-75590000D03*
X126840000Y-75590000D03*
D16*
X132385000Y-92835000D03*
X132385000Y-91335000D03*
D14*
X120875000Y-85765000D03*
X122375000Y-85765000D03*
X139365000Y-83715000D03*
X137865000Y-83715000D03*
D17*
X135695000Y-91565000D03*
X135695000Y-93765000D03*
X142205000Y-83915000D03*
X142205000Y-86115000D03*
D18*
X111495000Y-67870000D03*
X113995000Y-67870000D03*
D19*
X107820000Y-74740000D03*
X107820000Y-67200000D03*
D20*
X118305000Y-73755000D03*
X118305000Y-72055000D03*
D21*
X91945000Y-102245000D03*
X91945000Y-66245000D03*
D22*
X110175000Y-78595000D03*
X107975000Y-78595000D03*
D17*
X117245000Y-79345000D03*
X117245000Y-77145000D03*
D22*
X110300000Y-87530000D03*
X108100000Y-87530000D03*
X108100000Y-85980000D03*
X110300000Y-85980000D03*
D17*
X112305000Y-93295000D03*
X112305000Y-91095000D03*
X133985000Y-91565000D03*
X133985000Y-93765000D03*
D22*
X138195000Y-86120000D03*
X140395000Y-86120000D03*
X128215000Y-95115000D03*
X126015000Y-95115000D03*
X128225000Y-93455000D03*
X126025000Y-93455000D03*
X121965000Y-74285000D03*
X124165000Y-74285000D03*
X119760000Y-75950000D03*
X121960000Y-75950000D03*
X110180000Y-97890000D03*
X112380000Y-97890000D03*
X117150000Y-97900000D03*
X114950000Y-97900000D03*
D23*
X105945000Y-83350000D03*
X105945000Y-82080000D03*
X105945000Y-80810000D03*
X105945000Y-79540000D03*
X100545000Y-79540000D03*
X100545000Y-80810000D03*
X100545000Y-82080000D03*
X100545000Y-83350000D03*
D24*
X102657500Y-80857500D03*
X102657500Y-82032500D03*
X103832500Y-80857500D03*
X103832500Y-82032500D03*
D25*
X96810000Y-86255000D03*
X96810000Y-87525000D03*
X96810000Y-88795000D03*
X96810000Y-90065000D03*
X96810000Y-91335000D03*
X96810000Y-92605000D03*
X96810000Y-93875000D03*
X96810000Y-95145000D03*
X106110000Y-95145000D03*
X106110000Y-93875000D03*
X106110000Y-92605000D03*
X106110000Y-91335000D03*
X106110000Y-90065000D03*
X106110000Y-88795000D03*
X106110000Y-87525000D03*
X106110000Y-86255000D03*
D26*
X122240000Y-98260000D03*
X121290000Y-98260000D03*
X120340000Y-98260000D03*
X120340000Y-100960000D03*
X122240000Y-100960000D03*
X121290000Y-100960000D03*
X88740000Y-87100000D03*
X89690000Y-87100000D03*
X90640000Y-87100000D03*
X90640000Y-84400000D03*
X88740000Y-84400000D03*
X89690000Y-84400000D03*
D27*
X115065000Y-72615000D03*
X115065000Y-73115000D03*
X115065000Y-74615000D03*
X115065000Y-74115000D03*
X115065000Y-73615000D03*
X113165000Y-74615000D03*
X113165000Y-74115000D03*
X113165000Y-72615000D03*
X113165000Y-73115000D03*
D28*
X114115000Y-73615000D03*
D27*
X113165000Y-73615000D03*
D29*
X102890000Y-100790000D03*
D30*
X100350000Y-100790000D03*
D31*
X119130000Y-93135000D03*
X119130000Y-93785000D03*
X119130000Y-94435000D03*
X119130000Y-95085000D03*
X123430000Y-95085000D03*
X123430000Y-94435000D03*
X123430000Y-93785000D03*
X123430000Y-93135000D03*
D32*
X89120000Y-81050000D03*
X94160000Y-81050000D03*
X89120000Y-78510000D03*
X94160000Y-78510000D03*
X89120000Y-75970000D03*
X94160000Y-75970000D03*
X89120000Y-73430000D03*
X94160000Y-73430000D03*
D29*
X100350000Y-67500000D03*
D30*
X102890000Y-67500000D03*
X106540000Y-105330000D03*
D33*
X109080000Y-105330000D03*
X111620000Y-105330000D03*
X114160000Y-105330000D03*
D21*
X139950000Y-102245000D03*
X139950000Y-66245000D03*
D14*
X117140000Y-91460000D03*
X118640000Y-91460000D03*
X124480000Y-91740000D03*
X122980000Y-91740000D03*
D17*
X133150000Y-73120000D03*
X136450000Y-73120000D03*
D30*
X128360000Y-105280000D03*
D33*
X128360000Y-102740000D03*
X130900000Y-105280000D03*
X130900000Y-102740000D03*
X133440000Y-105280000D03*
X133440000Y-102740000D03*
D30*
X117460000Y-105330000D03*
D33*
X120000000Y-105330000D03*
X122540000Y-105330000D03*
X125080000Y-105330000D03*
D17*
X139970000Y-79490000D03*
X139970000Y-77290000D03*
X144830000Y-84210000D03*
X144830000Y-86410000D03*
D34*
X146210000Y-78400000D03*
X146210000Y-79670000D03*
D35*
X146210000Y-77130000D03*
D36*
X119600000Y-91440000D03*
X119800000Y-85820000D03*
X121640000Y-91740000D03*
X120495000Y-67655000D03*
X123220000Y-64920000D03*
X89800000Y-96480000D03*
X91280000Y-93740000D03*
X88150000Y-93910000D03*
X89690000Y-91200000D03*
X121310000Y-96240000D03*
X128340000Y-74370000D03*
X107515000Y-83355000D03*
X115910000Y-96010000D03*
X98785000Y-76585000D03*
X96525000Y-74745000D03*
X98795000Y-72415000D03*
X105555000Y-98835000D03*
X116105000Y-74935000D03*
X132385000Y-93905000D03*
X142205000Y-82475000D03*
X139365000Y-82575000D03*
X135695000Y-89815000D03*
X131585000Y-87725000D03*
X96865000Y-78475000D03*
X125485000Y-74285000D03*
X115385000Y-67875000D03*
X110765000Y-95385000D03*
X113125000Y-88825000D03*
X111765000Y-85975000D03*
X110175000Y-79795000D03*
X113345000Y-77945000D03*
X114115000Y-73615000D03*
X111645000Y-75555000D03*
X111655000Y-74495000D03*
X111875000Y-72205000D03*
X102657500Y-80857500D03*
X103745000Y-80845000D03*
X98985000Y-82085000D03*
X103832500Y-82032500D03*
X102657500Y-82032500D03*
X126150000Y-68010000D03*
X129390000Y-64920000D03*
X132590000Y-67890000D03*
X135640000Y-64850000D03*
X125500000Y-91980000D03*
X153360000Y-87220000D03*
X149810000Y-88690000D03*
X89680000Y-82750000D03*
X121310000Y-102460000D03*
X125620000Y-75590000D03*
X118510000Y-97900000D03*
X108160000Y-98530000D03*
X126580000Y-84960000D03*
X115725000Y-79345000D03*
X111765000Y-78885000D03*
X121095000Y-86985000D03*
X137855000Y-82475000D03*
X131125000Y-92625000D03*
X129665000Y-95105000D03*
X110315000Y-90165000D03*
X112305000Y-94925000D03*
X120495000Y-73275000D03*
X110615000Y-76755000D03*
X118295000Y-75385000D03*
X96850000Y-77270000D03*
X115835000Y-92045000D03*
X115865000Y-94825000D03*
X89570000Y-77220000D03*
X94210000Y-77100000D03*
X115805000Y-93555000D03*
X120350000Y-89340000D03*
X120340000Y-96820000D03*
X124300000Y-77100000D03*
X129760000Y-75800000D03*
X125840000Y-85840000D03*
X88530000Y-89440000D03*
X88270000Y-79740000D03*
X125860000Y-87010000D03*
X93870000Y-79770000D03*
X96610000Y-73430000D03*
X108225000Y-80315000D03*
X114990000Y-100180000D03*
X119415000Y-83525000D03*
X126885000Y-83005000D03*
X128000000Y-87870000D03*
X118380000Y-82990000D03*
X128035000Y-82095000D03*
X122370000Y-87880000D03*
X122365000Y-82905000D03*
X129300000Y-91320000D03*
X125965000Y-96395000D03*
X154720000Y-81520000D03*
X152850000Y-84260000D03*
X134335000Y-75955000D03*
X108235000Y-91155000D03*
X115040000Y-86810000D03*
X115030000Y-83580000D03*
X133195000Y-87955000D03*
X124310000Y-97600000D03*
X106115000Y-84875000D03*
X113315000Y-85995000D03*
X127145000Y-91175000D03*
X120320000Y-102950000D03*
X122240000Y-103210000D03*
X138690000Y-81430000D03*
X109240000Y-95380000D03*
D37*
X118640000Y-91460000D02*
X118660000Y-91440000D01*
X118660000Y-91440000D02*
X119600000Y-91440000D01*
X120875000Y-85765000D02*
X120820000Y-85820000D01*
X120820000Y-85820000D02*
X119800000Y-85820000D01*
X122980000Y-91740000D02*
X121640000Y-91740000D01*
X120495000Y-67655000D02*
X123220000Y-64930000D01*
X120495000Y-69055000D02*
X120495000Y-67655000D01*
X123220000Y-64930000D02*
X123220000Y-64920000D01*
X89690000Y-87100000D02*
X89690000Y-91200000D01*
X88320000Y-93740000D02*
X91280000Y-93740000D01*
X88150000Y-93910000D02*
X88320000Y-93740000D01*
X121290000Y-98260000D02*
X121290000Y-96260000D01*
X121290000Y-96260000D02*
X121310000Y-96240000D01*
X128340000Y-75590000D02*
X128340000Y-74370000D01*
X128390000Y-77875000D02*
X128390000Y-75640000D01*
X128390000Y-75640000D02*
X128340000Y-75590000D01*
X117910000Y-95590000D02*
X117490000Y-96010000D01*
X118415000Y-95085000D02*
X117910000Y-95590000D01*
X119130000Y-95085000D02*
X118415000Y-95085000D01*
X117490000Y-96010000D02*
X115910000Y-96010000D01*
D38*
X98795000Y-74745000D02*
X98795000Y-76575000D01*
X98795000Y-76575000D02*
X98785000Y-76585000D01*
X98795000Y-74745000D02*
X96525000Y-74745000D01*
X98795000Y-74745000D02*
X98795000Y-72415000D01*
D37*
X106110000Y-97130000D02*
X106110000Y-98280000D01*
X106110000Y-95145000D02*
X106110000Y-96400000D01*
X106110000Y-96400000D02*
X106110000Y-97130000D01*
X106110000Y-98280000D02*
X105555000Y-98835000D01*
D39*
X115065000Y-74615000D02*
X115785000Y-74615000D01*
X115785000Y-74615000D02*
X116105000Y-74935000D01*
D37*
X132385000Y-92835000D02*
X132385000Y-93905000D01*
X124140000Y-84525000D02*
X121095000Y-84525000D01*
X120875000Y-84745000D02*
X120875000Y-85765000D01*
X121095000Y-84525000D02*
X120875000Y-84745000D01*
X142205000Y-83915000D02*
X142205000Y-82475000D01*
X139365000Y-83715000D02*
X139365000Y-82575000D01*
X139365000Y-83715000D02*
X139365000Y-84355000D01*
X137555000Y-84525000D02*
X135840000Y-84525000D01*
X137865000Y-84835000D02*
X137555000Y-84525000D01*
X138885000Y-84835000D02*
X137865000Y-84835000D01*
X139365000Y-84355000D02*
X138885000Y-84835000D01*
X135695000Y-91565000D02*
X135695000Y-89815000D01*
X131590000Y-89575000D02*
X131590000Y-87730000D01*
X131590000Y-87730000D02*
X131585000Y-87725000D01*
X96870000Y-79545000D02*
X96870000Y-78480000D01*
X96870000Y-78480000D02*
X96865000Y-78475000D01*
X124165000Y-74285000D02*
X125485000Y-74285000D01*
X113995000Y-67870000D02*
X115380000Y-67870000D01*
X115380000Y-67870000D02*
X115385000Y-67875000D01*
X110775000Y-92605000D02*
X110775000Y-94145000D01*
X110775000Y-94145000D02*
X110765000Y-94155000D01*
X110765000Y-94155000D02*
X110765000Y-95385000D01*
X111815000Y-88825000D02*
X113125000Y-88825000D01*
X110300000Y-85980000D02*
X111760000Y-85980000D01*
X111760000Y-85980000D02*
X111765000Y-85975000D01*
X105945000Y-83350000D02*
X107510000Y-83350000D01*
X107510000Y-83350000D02*
X107515000Y-83355000D01*
X110175000Y-78595000D02*
X110175000Y-79795000D01*
X113345000Y-76755000D02*
X113345000Y-77945000D01*
D39*
X113165000Y-74615000D02*
X112635000Y-74615000D01*
X111695000Y-75555000D02*
X111645000Y-75555000D01*
X112635000Y-74615000D02*
X111695000Y-75555000D01*
X113165000Y-74115000D02*
X112035000Y-74115000D01*
X112035000Y-74115000D02*
X111655000Y-74495000D01*
X113165000Y-72615000D02*
X112285000Y-72615000D01*
X112285000Y-72615000D02*
X111875000Y-72205000D01*
D37*
X100545000Y-82080000D02*
X98990000Y-82080000D01*
X98990000Y-82080000D02*
X98985000Y-82085000D01*
X103832500Y-82032500D02*
X102657500Y-82032500D01*
X103745000Y-80845000D02*
X103757500Y-80857500D01*
X103757500Y-80857500D02*
X103832500Y-80857500D01*
X126150000Y-68010000D02*
X129240000Y-64920000D01*
X129240000Y-64920000D02*
X129390000Y-64920000D01*
X132590000Y-67890000D02*
X135630000Y-64850000D01*
X135630000Y-64850000D02*
X135640000Y-64850000D01*
X120640000Y-105360000D02*
X120660000Y-105360000D01*
X124480000Y-91740000D02*
X125260000Y-91740000D01*
X125260000Y-91740000D02*
X125500000Y-91980000D01*
X123430000Y-93135000D02*
X124235000Y-93135000D01*
X124480000Y-92890000D02*
X124480000Y-91740000D01*
X124235000Y-93135000D02*
X124480000Y-92890000D01*
X89690000Y-84400000D02*
X89690000Y-82760000D01*
X89690000Y-82760000D02*
X89680000Y-82750000D01*
X121290000Y-100960000D02*
X121290000Y-102440000D01*
X121290000Y-102440000D02*
X121310000Y-102460000D01*
X126840000Y-75590000D02*
X125620000Y-75590000D01*
X127590000Y-77875000D02*
X127590000Y-76930000D01*
X126840000Y-76180000D02*
X126840000Y-75590000D01*
X127590000Y-76930000D02*
X126840000Y-76180000D01*
X117150000Y-97900000D02*
X118510000Y-97900000D01*
X110180000Y-97890000D02*
X108800000Y-97890000D01*
X108800000Y-97890000D02*
X108160000Y-98530000D01*
X126580000Y-84960000D02*
X126590000Y-84970000D01*
X117245000Y-79345000D02*
X115725000Y-79345000D01*
X122375000Y-85765000D02*
X122375000Y-86505000D01*
X121895000Y-86985000D02*
X121095000Y-86985000D01*
X122375000Y-86505000D02*
X121895000Y-86985000D01*
X122375000Y-85765000D02*
X122745000Y-85765000D01*
X122745000Y-85765000D02*
X123185000Y-85325000D01*
X123185000Y-85325000D02*
X124140000Y-85325000D01*
X137865000Y-83715000D02*
X137865000Y-82485000D01*
X137865000Y-82485000D02*
X137855000Y-82475000D01*
X132385000Y-91335000D02*
X131635000Y-91335000D01*
X131125000Y-91845000D02*
X131125000Y-92625000D01*
X131635000Y-91335000D02*
X131125000Y-91845000D01*
X128215000Y-95115000D02*
X128225000Y-95105000D01*
X128225000Y-95105000D02*
X129665000Y-95105000D01*
X128225000Y-93455000D02*
X128215000Y-93465000D01*
X128215000Y-93465000D02*
X128215000Y-95115000D01*
X110315000Y-88825000D02*
X110315000Y-90165000D01*
X112305000Y-93295000D02*
X112305000Y-94925000D01*
X120495000Y-72055000D02*
X120495000Y-73275000D01*
X132385000Y-91335000D02*
X132385000Y-89580000D01*
X132385000Y-89580000D02*
X132390000Y-89575000D01*
X135840000Y-83725000D02*
X137855000Y-83725000D01*
X137855000Y-83725000D02*
X137865000Y-83715000D01*
X106110000Y-88795000D02*
X110285000Y-88795000D01*
X110285000Y-88795000D02*
X110315000Y-88825000D01*
X110315000Y-88825000D02*
X110315000Y-87545000D01*
X110315000Y-87545000D02*
X110300000Y-87530000D01*
D39*
X118305000Y-72055000D02*
X120495000Y-72055000D01*
X115065000Y-72615000D02*
X116215000Y-72615000D01*
X116775000Y-72055000D02*
X118305000Y-72055000D01*
X116215000Y-72615000D02*
X116775000Y-72055000D01*
D37*
X113165000Y-73615000D02*
X113070000Y-73520000D01*
X113070000Y-73520000D02*
X110670000Y-73520000D01*
X110310000Y-76450000D02*
X110615000Y-76755000D01*
X110310000Y-73880000D02*
X110310000Y-76450000D01*
X110670000Y-73520000D02*
X110310000Y-73880000D01*
X115065000Y-73615000D02*
X116525000Y-73615000D01*
X113165000Y-73115000D02*
X113165000Y-73615000D01*
X108995000Y-76135000D02*
X107820000Y-74960000D01*
X107820000Y-74960000D02*
X107820000Y-74740000D01*
X109045000Y-73375000D02*
X107820000Y-74600000D01*
X107820000Y-74600000D02*
X107820000Y-74740000D01*
X106635000Y-76165000D02*
X107820000Y-74980000D01*
X107820000Y-74980000D02*
X107820000Y-74740000D01*
X106645000Y-73325000D02*
X107820000Y-74500000D01*
X107820000Y-74500000D02*
X107820000Y-74740000D01*
X108340000Y-75260000D02*
X107820000Y-74740000D01*
X108945000Y-73615000D02*
X107820000Y-74740000D01*
X109445000Y-73115000D02*
X107820000Y-74740000D01*
X100545000Y-79540000D02*
X98375000Y-79540000D01*
X98375000Y-79540000D02*
X98370000Y-79545000D01*
D39*
X116525000Y-73615000D02*
X116815000Y-73905000D01*
D37*
X118295000Y-75385000D02*
X118855000Y-75945000D01*
X116525000Y-73615000D02*
X118295000Y-75385000D01*
D39*
X116815000Y-73905000D02*
X118295000Y-75385000D01*
X118295000Y-75385000D02*
X118875000Y-75965000D01*
D37*
X118855000Y-75945000D02*
X119755000Y-75945000D01*
D39*
X118875000Y-75965000D02*
X119775000Y-75965000D01*
D37*
X106110000Y-92605000D02*
X109275000Y-92605000D01*
X133985000Y-93765000D02*
X135695000Y-93765000D01*
X142205000Y-86115000D02*
X140400000Y-86115000D01*
X140400000Y-86115000D02*
X140395000Y-86120000D01*
D39*
X118305000Y-73755000D02*
X117735000Y-73755000D01*
X117095000Y-73115000D02*
X115065000Y-73115000D01*
X117735000Y-73755000D02*
X117095000Y-73115000D01*
D37*
X117140000Y-91460000D02*
X117140000Y-92560000D01*
X117470000Y-92890000D02*
X117980000Y-92890000D01*
X117140000Y-92560000D02*
X117470000Y-92890000D01*
X117140000Y-91460000D02*
X116420000Y-91460000D01*
X96850000Y-77270000D02*
X95610000Y-78510000D01*
X115835000Y-92045000D02*
X116370000Y-91510000D01*
X116420000Y-91460000D02*
X116370000Y-91510000D01*
X118225000Y-93135000D02*
X119130000Y-93135000D01*
X117980000Y-92890000D02*
X118225000Y-93135000D01*
X95610000Y-78510000D02*
X94160000Y-78510000D01*
X89120000Y-75970000D02*
X89120000Y-76770000D01*
X118234800Y-94435000D02*
X117847340Y-94822460D01*
X117847340Y-94822460D02*
X115867540Y-94822460D01*
X115867540Y-94822460D02*
X115865000Y-94825000D01*
X118234800Y-94435000D02*
X119130000Y-94435000D01*
X89120000Y-76770000D02*
X89570000Y-77220000D01*
X94160000Y-77050000D02*
X94160000Y-75970000D01*
X94210000Y-77100000D02*
X94160000Y-77050000D01*
X119130000Y-93785000D02*
X118074800Y-93785000D01*
X115807540Y-93557540D02*
X117847340Y-93557540D01*
X115807540Y-93557540D02*
X115805000Y-93555000D01*
X118074800Y-93785000D02*
X117847340Y-93557540D01*
X120340000Y-98260000D02*
X120340000Y-96820000D01*
X123280000Y-89340000D02*
X120350000Y-89340000D01*
X123280000Y-89340000D02*
X123785000Y-88835000D01*
X122540000Y-105330000D02*
X122460000Y-105330000D01*
X122460000Y-105330000D02*
X120980000Y-103850000D01*
X120980000Y-103850000D02*
X119440000Y-103850000D01*
X119440000Y-103850000D02*
X118790000Y-103200000D01*
X118790000Y-103200000D02*
X118790000Y-98990000D01*
X120340000Y-98260000D02*
X119520000Y-98260000D01*
X119520000Y-98260000D02*
X118790000Y-98990000D01*
X120340000Y-98260000D02*
X120420000Y-98180000D01*
X124140000Y-88480000D02*
X123785000Y-88835000D01*
X124140000Y-87725000D02*
X124140000Y-88480000D01*
X123785000Y-88835000D02*
X123745000Y-88875000D01*
X122240000Y-98260000D02*
X123110000Y-98260000D01*
X125080000Y-100230000D02*
X125080000Y-105330000D01*
X123110000Y-98260000D02*
X125080000Y-100230000D01*
X125750000Y-91000000D02*
X124140000Y-91000000D01*
X122240000Y-95870000D02*
X122240000Y-95930000D01*
X120480000Y-94110000D02*
X122240000Y-95870000D01*
X120480000Y-91310000D02*
X120480000Y-94110000D01*
X121040000Y-90750000D02*
X120480000Y-91310000D01*
X123890000Y-90750000D02*
X121040000Y-90750000D01*
X124140000Y-91000000D02*
X123890000Y-90750000D01*
X125990000Y-89575000D02*
X125990000Y-90760000D01*
X125990000Y-90760000D02*
X125750000Y-91000000D01*
X122240000Y-95970000D02*
X122240000Y-98260000D01*
X133990000Y-89575000D02*
X133990000Y-91560000D01*
X133990000Y-91560000D02*
X133985000Y-91565000D01*
X129190000Y-77875000D02*
X129190000Y-76370000D01*
X124295000Y-77105000D02*
X123145000Y-77105000D01*
X124300000Y-77100000D02*
X124295000Y-77105000D01*
X129190000Y-76370000D02*
X129760000Y-75800000D01*
X117245000Y-77145000D02*
X117285000Y-77105000D01*
X117285000Y-77105000D02*
X119015000Y-77105000D01*
X123145000Y-77105000D02*
X119015000Y-77105000D01*
D39*
X117075000Y-74835000D02*
X117245000Y-75005000D01*
X116355000Y-74115000D02*
X117075000Y-74835000D01*
X115065000Y-74115000D02*
X115865000Y-74115000D01*
X115865000Y-74115000D02*
X116355000Y-74115000D01*
X117245000Y-75005000D02*
X117245000Y-77145000D01*
D37*
X146210000Y-79680000D02*
X143930000Y-79680000D01*
X143930000Y-79680000D02*
X143100000Y-78850000D01*
X143100000Y-78850000D02*
X143090000Y-78840000D01*
X143100000Y-78850000D02*
X142610000Y-78360000D01*
X142610000Y-78360000D02*
X135570000Y-78360000D01*
X130590000Y-80020000D02*
X133910000Y-80020000D01*
X129990000Y-79420000D02*
X130590000Y-80020000D01*
X129990000Y-79420000D02*
X129990000Y-77875000D01*
X133910000Y-80020000D02*
X135090000Y-78840000D01*
X135570000Y-78360000D02*
X135090000Y-78840000D01*
X124140000Y-86125000D02*
X125555000Y-86125000D01*
X125555000Y-86125000D02*
X125840000Y-85840000D01*
X88740000Y-87100000D02*
X88740000Y-89230000D01*
X88740000Y-89230000D02*
X88530000Y-89440000D01*
X89120000Y-81050000D02*
X89120000Y-80220000D01*
X88640000Y-79740000D02*
X88270000Y-79740000D01*
X89120000Y-80220000D02*
X88640000Y-79740000D01*
X124140000Y-86925000D02*
X125775000Y-86925000D01*
X125775000Y-86925000D02*
X125860000Y-87010000D01*
X93890000Y-79790000D02*
X93870000Y-79770000D01*
X90640000Y-87100000D02*
X90640000Y-88630000D01*
X92400000Y-81050000D02*
X94160000Y-81050000D01*
X91830000Y-81620000D02*
X92400000Y-81050000D01*
X91830000Y-88630000D02*
X91830000Y-81620000D01*
X91410000Y-89050000D02*
X91830000Y-88630000D01*
X91060000Y-89050000D02*
X91410000Y-89050000D01*
X90640000Y-88630000D02*
X91060000Y-89050000D01*
X94160000Y-80060000D02*
X94160000Y-81050000D01*
X93890000Y-79790000D02*
X94160000Y-80060000D01*
X105945000Y-82080000D02*
X124095000Y-82080000D01*
X105945000Y-80810000D02*
X107360000Y-80810000D01*
X121725000Y-81475000D02*
X122675000Y-80525000D01*
X108025000Y-81475000D02*
X121725000Y-81475000D01*
X107360000Y-80810000D02*
X108025000Y-81475000D01*
X124140000Y-80525000D02*
X122675000Y-80525000D01*
X90640000Y-84400000D02*
X90640000Y-82830000D01*
X91790000Y-73430000D02*
X94160000Y-73430000D01*
X91050000Y-74170000D02*
X91790000Y-73430000D01*
X91050000Y-82420000D02*
X91050000Y-74170000D01*
X90640000Y-82830000D02*
X91050000Y-82420000D01*
X122545000Y-79725000D02*
X121415000Y-80855000D01*
X121415000Y-80855000D02*
X108765000Y-80855000D01*
X108765000Y-80855000D02*
X108225000Y-80315000D01*
X124140000Y-79725000D02*
X122545000Y-79725000D01*
X96610000Y-73430000D02*
X94160000Y-73430000D01*
X95135000Y-73375000D02*
X95115000Y-73355000D01*
X125430000Y-88420000D02*
X126150000Y-88420000D01*
X127395000Y-87175000D02*
X127395000Y-86455000D01*
X126150000Y-88420000D02*
X127395000Y-87175000D01*
X114950000Y-100140000D02*
X114950000Y-99280000D01*
X114990000Y-100180000D02*
X114950000Y-100140000D01*
X114950000Y-97900000D02*
X114950000Y-99280000D01*
X114950000Y-99280000D02*
X114960000Y-99290000D01*
X123995000Y-89855000D02*
X123630000Y-90220000D01*
X126885000Y-83005000D02*
X127055000Y-83005000D01*
X127055000Y-83005000D02*
X127395000Y-83345000D01*
X123995000Y-89855000D02*
X125430000Y-88420000D01*
X127395000Y-83345000D02*
X127395000Y-86455000D01*
X123630000Y-90220000D02*
X116230000Y-90220000D01*
X114950000Y-97900000D02*
X114950000Y-91500000D01*
X114950000Y-91500000D02*
X114995000Y-91455000D01*
X114995000Y-91455000D02*
X116240000Y-90210000D01*
X126885000Y-83005000D02*
X126885000Y-80905000D01*
X126875000Y-80895000D02*
X126875000Y-80905000D01*
X126885000Y-80905000D02*
X126875000Y-80895000D01*
X125990000Y-80020000D02*
X126875000Y-80905000D01*
X125990000Y-80020000D02*
X125990000Y-77875000D01*
X128005000Y-83625000D02*
X128005000Y-87085000D01*
X128005000Y-82125000D02*
X128005000Y-83625000D01*
X128005000Y-82125000D02*
X128035000Y-82095000D01*
X128005000Y-87865000D02*
X128005000Y-87085000D01*
X128000000Y-87870000D02*
X128005000Y-87865000D01*
X112380000Y-97890000D02*
X112380000Y-103550000D01*
X112380000Y-103550000D02*
X114160000Y-105330000D01*
X114425000Y-94305000D02*
X114425000Y-95965000D01*
X116355000Y-89225000D02*
X114425000Y-91155000D01*
X114425000Y-91155000D02*
X114425000Y-94305000D01*
X117700000Y-87880000D02*
X122370000Y-87880000D01*
X116355000Y-89225000D02*
X117700000Y-87880000D01*
X112380000Y-97010000D02*
X113030000Y-96360000D01*
X113030000Y-96360000D02*
X113750000Y-96360000D01*
X112380000Y-97010000D02*
X112380000Y-97890000D01*
X114030000Y-96360000D02*
X113750000Y-96360000D01*
X114425000Y-95965000D02*
X114030000Y-96360000D01*
X112380000Y-97890000D02*
X112380000Y-98020000D01*
X128035000Y-82095000D02*
X128035000Y-81175000D01*
X128035000Y-81175000D02*
X127995000Y-81135000D01*
X128035000Y-82095000D02*
X127995000Y-82055000D01*
X126790000Y-79930000D02*
X127995000Y-81135000D01*
X126790000Y-79930000D02*
X126790000Y-77875000D01*
X127995000Y-81135000D02*
X128005000Y-81145000D01*
X126840000Y-77925000D02*
X126790000Y-77875000D01*
X126785000Y-77880000D02*
X126790000Y-77875000D01*
X105945000Y-79540000D02*
X107580000Y-79540000D01*
X107975000Y-79145000D02*
X107975000Y-78595000D01*
X107580000Y-79540000D02*
X107975000Y-79145000D01*
D39*
X105945000Y-79540000D02*
X105950000Y-79545000D01*
D37*
X106110000Y-87525000D02*
X108095000Y-87525000D01*
X108095000Y-87525000D02*
X108100000Y-87520000D01*
X108100000Y-87520000D02*
X108100000Y-85980000D01*
X115775000Y-88525000D02*
X120575000Y-83725000D01*
X112305000Y-91095000D02*
X113205000Y-91095000D01*
X120575000Y-83725000D02*
X124140000Y-83725000D01*
X113205000Y-91095000D02*
X115775000Y-88525000D01*
X110525000Y-91095000D02*
X109625000Y-91095000D01*
X109625000Y-91095000D02*
X108595000Y-90065000D01*
X106110000Y-90065000D02*
X108595000Y-90065000D01*
X110525000Y-91095000D02*
X112305000Y-91095000D01*
X122385000Y-82925000D02*
X124140000Y-82925000D01*
X122385000Y-82925000D02*
X122365000Y-82905000D01*
X129755000Y-91185000D02*
X129620000Y-91320000D01*
X129990000Y-90950000D02*
X129755000Y-91185000D01*
X129990000Y-89575000D02*
X129990000Y-90950000D01*
X129620000Y-91320000D02*
X129300000Y-91320000D01*
X123430000Y-94435000D02*
X124155000Y-94435000D01*
X124835000Y-95115000D02*
X126015000Y-95115000D01*
X124155000Y-94435000D02*
X124835000Y-95115000D01*
X125965000Y-95165000D02*
X125965000Y-96395000D01*
X125965000Y-95165000D02*
X126015000Y-95115000D01*
X125722460Y-94822460D02*
X126015000Y-95115000D01*
X130615000Y-91625000D02*
X129830000Y-92410000D01*
X126470000Y-92430000D02*
X126470000Y-92440000D01*
X126490000Y-92410000D02*
X126470000Y-92430000D01*
X129830000Y-92410000D02*
X126490000Y-92410000D01*
X126025000Y-93455000D02*
X126025000Y-92885000D01*
X126025000Y-92885000D02*
X126470000Y-92440000D01*
X123430000Y-93785000D02*
X124435000Y-93785000D01*
X124765000Y-93455000D02*
X126025000Y-93455000D01*
X124435000Y-93785000D02*
X124765000Y-93455000D01*
X130790000Y-91450000D02*
X130790000Y-89575000D01*
X130615000Y-91625000D02*
X130790000Y-91450000D01*
X125922460Y-93557540D02*
X126025000Y-93455000D01*
X143105000Y-79750000D02*
X142845000Y-79490000D01*
X142845000Y-79490000D02*
X141540000Y-79490000D01*
X139970000Y-79490000D02*
X141540000Y-79490000D01*
X135840000Y-79725000D02*
X138535000Y-79725000D01*
X138770000Y-79490000D02*
X139970000Y-79490000D01*
X138535000Y-79725000D02*
X138770000Y-79490000D01*
X143080000Y-79725000D02*
X143105000Y-79750000D01*
X143105000Y-79750000D02*
X146925000Y-83570000D01*
X146925000Y-83570000D02*
X151990000Y-83570000D01*
X151990000Y-83570000D02*
X154040000Y-81520000D01*
X154040000Y-81520000D02*
X154720000Y-81520000D01*
X144830000Y-84210000D02*
X144830000Y-82555000D01*
X142800000Y-80525000D02*
X135840000Y-80525000D01*
X144830000Y-82555000D02*
X142800000Y-80525000D01*
X146610000Y-84260000D02*
X144880000Y-84260000D01*
X144880000Y-84260000D02*
X144830000Y-84210000D01*
X146535000Y-84260000D02*
X146610000Y-84260000D01*
X146610000Y-84260000D02*
X152850000Y-84260000D01*
X152850000Y-84260000D02*
X152730000Y-84260000D01*
X133990000Y-76300000D02*
X133990000Y-77875000D01*
X134335000Y-75955000D02*
X133990000Y-76300000D01*
X115035000Y-85770000D02*
X115035000Y-86805000D01*
X108055000Y-91335000D02*
X106110000Y-91335000D01*
X108055000Y-91335000D02*
X108235000Y-91155000D01*
X115035000Y-86805000D02*
X115040000Y-86810000D01*
X115035000Y-85770000D02*
X115035000Y-83585000D01*
X115035000Y-83585000D02*
X115030000Y-83580000D01*
X115035000Y-85770000D02*
X115035000Y-85745000D01*
X123582660Y-96120000D02*
X123582660Y-96872660D01*
X133190000Y-87960000D02*
X133190000Y-89575000D01*
X133190000Y-87960000D02*
X133195000Y-87955000D01*
X123582660Y-96872660D02*
X124310000Y-97600000D01*
X123582660Y-96120000D02*
X123582660Y-95237660D01*
X123582660Y-95237660D02*
X123430000Y-95085000D01*
X123582660Y-96092460D02*
X123582660Y-96120000D01*
X126815000Y-90845000D02*
X126815000Y-89600000D01*
X126815000Y-89600000D02*
X126790000Y-89575000D01*
X106110000Y-86255000D02*
X106110000Y-84880000D01*
X112195000Y-84875000D02*
X106115000Y-84875000D01*
X113315000Y-85995000D02*
X112195000Y-84875000D01*
X106110000Y-84880000D02*
X106115000Y-84875000D01*
X127145000Y-91175000D02*
X126815000Y-90845000D01*
X126815000Y-90845000D02*
X126790000Y-90820000D01*
X135840000Y-86125000D02*
X138190000Y-86125000D01*
X138190000Y-86125000D02*
X138195000Y-86120000D01*
X133440000Y-105280000D02*
X132180000Y-104020000D01*
X132180000Y-98790000D02*
X133110000Y-97860000D01*
X132180000Y-104020000D02*
X132180000Y-98790000D01*
X120320000Y-102950000D02*
X120340000Y-102930000D01*
X120340000Y-102930000D02*
X120340000Y-100960000D01*
X136290000Y-97860000D02*
X139000000Y-95150000D01*
X139000000Y-92250000D02*
X139000000Y-93100000D01*
X137675000Y-86925000D02*
X139000000Y-88250000D01*
X137675000Y-86925000D02*
X135840000Y-86925000D01*
X139000000Y-88250000D02*
X139000000Y-92250000D01*
X139000000Y-95150000D02*
X139000000Y-93100000D01*
X133110000Y-97860000D02*
X136290000Y-97860000D01*
X128360000Y-105280000D02*
X128650000Y-105280000D01*
X128650000Y-105280000D02*
X129660000Y-104270000D01*
X129660000Y-104270000D02*
X129660000Y-99720000D01*
X122240000Y-103210000D02*
X122240000Y-100960000D01*
X132110000Y-97270000D02*
X135890000Y-97270000D01*
X129640000Y-99740000D02*
X132110000Y-97270000D01*
X138300000Y-94550000D02*
X138300000Y-88380000D01*
X138300000Y-88380000D02*
X137645000Y-87725000D01*
X137645000Y-87725000D02*
X135840000Y-87725000D01*
X135890000Y-97270000D02*
X138300000Y-94860000D01*
X138300000Y-94860000D02*
X138300000Y-94550000D01*
X141770000Y-65230000D02*
X141880000Y-65230000D01*
X138950000Y-68050000D02*
X141770000Y-65230000D01*
X137825000Y-81325000D02*
X135840000Y-81325000D01*
X137850000Y-81350000D02*
X137825000Y-81325000D01*
X138610000Y-81350000D02*
X137850000Y-81350000D01*
X138690000Y-81430000D02*
X138610000Y-81350000D01*
X109285000Y-95335000D02*
X109240000Y-95380000D01*
X109285000Y-95335000D02*
X109285000Y-94155000D01*
X106110000Y-93875000D02*
X107755000Y-93875000D01*
X108035000Y-94155000D02*
X109285000Y-94155000D01*
X107755000Y-93875000D02*
X108035000Y-94155000D01*
X133150000Y-73120000D02*
X133150000Y-77835000D01*
X133150000Y-77835000D02*
X133190000Y-77875000D01*
X132120000Y-73125000D02*
X133145000Y-73125000D01*
X133145000Y-73125000D02*
X133150000Y-73120000D01*
D39*
X121955000Y-74295000D02*
X121955000Y-75945000D01*
D37*
X133190000Y-77875000D02*
X133200000Y-77865000D01*
X121965000Y-73465000D02*
X121965000Y-74285000D01*
X122305000Y-73125000D02*
X121965000Y-73465000D01*
X132265000Y-73125000D02*
X132120000Y-73125000D01*
X132120000Y-73125000D02*
X122305000Y-73125000D01*
D39*
X121965000Y-74285000D02*
X121955000Y-74295000D01*
D40*
G36*
X104618000Y-102118000D02*
X101872000Y-102118000D01*
X101872000Y-95645000D01*
X101861994Y-95595590D01*
X101833553Y-95553965D01*
X101791159Y-95526685D01*
X101745000Y-95518000D01*
X98195000Y-95518000D01*
X98195000Y-95430750D01*
X98036250Y-95272000D01*
X96937000Y-95272000D01*
X96937000Y-95292000D01*
X96683000Y-95292000D01*
X96683000Y-95272000D01*
X96663000Y-95272000D01*
X96663000Y-95018000D01*
X96683000Y-95018000D01*
X96683000Y-94002000D01*
X96937000Y-94002000D01*
X96937000Y-95018000D01*
X98036250Y-95018000D01*
X98195000Y-94859250D01*
X98195000Y-94718690D01*
X98108558Y-94510000D01*
X98195000Y-94301310D01*
X98195000Y-94160750D01*
X98036250Y-94002000D01*
X96937000Y-94002000D01*
X96683000Y-94002000D01*
X96663000Y-94002000D01*
X96663000Y-93748000D01*
X96683000Y-93748000D01*
X96683000Y-92732000D01*
X96937000Y-92732000D01*
X96937000Y-93748000D01*
X98036250Y-93748000D01*
X98195000Y-93589250D01*
X98195000Y-93448690D01*
X98108558Y-93240000D01*
X98195000Y-93031310D01*
X98195000Y-92890750D01*
X98036250Y-92732000D01*
X96937000Y-92732000D01*
X96683000Y-92732000D01*
X96663000Y-92732000D01*
X96663000Y-92478000D01*
X96683000Y-92478000D01*
X96683000Y-91462000D01*
X96937000Y-91462000D01*
X96937000Y-92478000D01*
X98036250Y-92478000D01*
X98195000Y-92319250D01*
X98195000Y-92178690D01*
X98108558Y-91970000D01*
X98195000Y-91761310D01*
X98195000Y-91620750D01*
X98036250Y-91462000D01*
X96937000Y-91462000D01*
X96683000Y-91462000D01*
X96663000Y-91462000D01*
X96663000Y-91208000D01*
X96683000Y-91208000D01*
X96683000Y-91188000D01*
X96937000Y-91188000D01*
X96937000Y-91208000D01*
X98036250Y-91208000D01*
X98195000Y-91049250D01*
X98195000Y-90908690D01*
X98138381Y-90772000D01*
X104618000Y-90772000D01*
X104618000Y-102118000D01*
X104618000Y-102118000D01*
G37*
X104618000Y-102118000D02*
X101872000Y-102118000D01*
X101872000Y-95645000D01*
X101861994Y-95595590D01*
X101833553Y-95553965D01*
X101791159Y-95526685D01*
X101745000Y-95518000D01*
X98195000Y-95518000D01*
X98195000Y-95430750D01*
X98036250Y-95272000D01*
X96937000Y-95272000D01*
X96937000Y-95292000D01*
X96683000Y-95292000D01*
X96683000Y-95272000D01*
X96663000Y-95272000D01*
X96663000Y-95018000D01*
X96683000Y-95018000D01*
X96683000Y-94002000D01*
X96937000Y-94002000D01*
X96937000Y-95018000D01*
X98036250Y-95018000D01*
X98195000Y-94859250D01*
X98195000Y-94718690D01*
X98108558Y-94510000D01*
X98195000Y-94301310D01*
X98195000Y-94160750D01*
X98036250Y-94002000D01*
X96937000Y-94002000D01*
X96683000Y-94002000D01*
X96663000Y-94002000D01*
X96663000Y-93748000D01*
X96683000Y-93748000D01*
X96683000Y-92732000D01*
X96937000Y-92732000D01*
X96937000Y-93748000D01*
X98036250Y-93748000D01*
X98195000Y-93589250D01*
X98195000Y-93448690D01*
X98108558Y-93240000D01*
X98195000Y-93031310D01*
X98195000Y-92890750D01*
X98036250Y-92732000D01*
X96937000Y-92732000D01*
X96683000Y-92732000D01*
X96663000Y-92732000D01*
X96663000Y-92478000D01*
X96683000Y-92478000D01*
X96683000Y-91462000D01*
X96937000Y-91462000D01*
X96937000Y-92478000D01*
X98036250Y-92478000D01*
X98195000Y-92319250D01*
X98195000Y-92178690D01*
X98108558Y-91970000D01*
X98195000Y-91761310D01*
X98195000Y-91620750D01*
X98036250Y-91462000D01*
X96937000Y-91462000D01*
X96683000Y-91462000D01*
X96663000Y-91462000D01*
X96663000Y-91208000D01*
X96683000Y-91208000D01*
X96683000Y-91188000D01*
X96937000Y-91188000D01*
X96937000Y-91208000D01*
X98036250Y-91208000D01*
X98195000Y-91049250D01*
X98195000Y-90908690D01*
X98138381Y-90772000D01*
X104618000Y-90772000D01*
X104618000Y-102118000D01*
G36*
X101418000Y-81318000D02*
X99424753Y-81318000D01*
X99160211Y-81208153D01*
X98811319Y-81207849D01*
X98544474Y-81318106D01*
X98495590Y-81328006D01*
X98453965Y-81356447D01*
X98426685Y-81398841D01*
X98425685Y-81404156D01*
X98241949Y-81587571D01*
X98108153Y-81909789D01*
X98107849Y-82258681D01*
X98241082Y-82581131D01*
X98349451Y-82689690D01*
X98318000Y-82845000D01*
X98318000Y-84618000D01*
X95745000Y-84618000D01*
X95589804Y-84647202D01*
X95447265Y-84738923D01*
X95351642Y-84878873D01*
X95318000Y-85045000D01*
X95318000Y-90445000D01*
X95337507Y-90548672D01*
X95318000Y-90645000D01*
X95318000Y-95645000D01*
X95347202Y-95800196D01*
X95438923Y-95942735D01*
X95578873Y-96038358D01*
X95745000Y-96072000D01*
X101318000Y-96072000D01*
X101318000Y-102118000D01*
X95372112Y-102118000D01*
X95372594Y-101566318D01*
X94851963Y-100306296D01*
X93888774Y-99341425D01*
X92629663Y-98818596D01*
X92472000Y-98818458D01*
X92472000Y-83372000D01*
X96145000Y-83372000D01*
X96194410Y-83361994D01*
X96236035Y-83333553D01*
X96263315Y-83291159D01*
X96272000Y-83245000D01*
X96272000Y-80572000D01*
X101418000Y-80572000D01*
X101418000Y-81318000D01*
X101418000Y-81318000D01*
G37*
X101418000Y-81318000D02*
X99424753Y-81318000D01*
X99160211Y-81208153D01*
X98811319Y-81207849D01*
X98544474Y-81318106D01*
X98495590Y-81328006D01*
X98453965Y-81356447D01*
X98426685Y-81398841D01*
X98425685Y-81404156D01*
X98241949Y-81587571D01*
X98108153Y-81909789D01*
X98107849Y-82258681D01*
X98241082Y-82581131D01*
X98349451Y-82689690D01*
X98318000Y-82845000D01*
X98318000Y-84618000D01*
X95745000Y-84618000D01*
X95589804Y-84647202D01*
X95447265Y-84738923D01*
X95351642Y-84878873D01*
X95318000Y-85045000D01*
X95318000Y-90445000D01*
X95337507Y-90548672D01*
X95318000Y-90645000D01*
X95318000Y-95645000D01*
X95347202Y-95800196D01*
X95438923Y-95942735D01*
X95578873Y-96038358D01*
X95745000Y-96072000D01*
X101318000Y-96072000D01*
X101318000Y-102118000D01*
X95372112Y-102118000D01*
X95372594Y-101566318D01*
X94851963Y-100306296D01*
X93888774Y-99341425D01*
X92629663Y-98818596D01*
X92472000Y-98818458D01*
X92472000Y-83372000D01*
X96145000Y-83372000D01*
X96194410Y-83361994D01*
X96236035Y-83333553D01*
X96263315Y-83291159D01*
X96272000Y-83245000D01*
X96272000Y-80572000D01*
X101418000Y-80572000D01*
X101418000Y-81318000D01*
G36*
X99135000Y-83064250D02*
X99293750Y-83223000D01*
X100418000Y-83223000D01*
X100418000Y-83203000D01*
X100672000Y-83203000D01*
X100672000Y-83223000D01*
X101796250Y-83223000D01*
X101847250Y-83172000D01*
X104618000Y-83172000D01*
X104618000Y-90218000D01*
X98062250Y-90218000D01*
X98036250Y-90192000D01*
X96937000Y-90192000D01*
X96937000Y-90212000D01*
X96683000Y-90212000D01*
X96683000Y-90192000D01*
X96663000Y-90192000D01*
X96663000Y-89938000D01*
X96683000Y-89938000D01*
X96683000Y-88922000D01*
X96937000Y-88922000D01*
X96937000Y-89938000D01*
X98036250Y-89938000D01*
X98195000Y-89779250D01*
X98195000Y-89638690D01*
X98108558Y-89430000D01*
X98195000Y-89221310D01*
X98195000Y-89080750D01*
X98036250Y-88922000D01*
X96937000Y-88922000D01*
X96683000Y-88922000D01*
X96663000Y-88922000D01*
X96663000Y-88668000D01*
X96683000Y-88668000D01*
X96683000Y-87652000D01*
X96937000Y-87652000D01*
X96937000Y-88668000D01*
X98036250Y-88668000D01*
X98195000Y-88509250D01*
X98195000Y-88368690D01*
X98108558Y-88160000D01*
X98195000Y-87951310D01*
X98195000Y-87810750D01*
X98036250Y-87652000D01*
X96937000Y-87652000D01*
X96683000Y-87652000D01*
X96663000Y-87652000D01*
X96663000Y-87398000D01*
X96683000Y-87398000D01*
X96683000Y-86382000D01*
X96937000Y-86382000D01*
X96937000Y-87398000D01*
X98036250Y-87398000D01*
X98195000Y-87239250D01*
X98195000Y-87098690D01*
X98108558Y-86890000D01*
X98195000Y-86681310D01*
X98195000Y-86540750D01*
X98036250Y-86382000D01*
X96937000Y-86382000D01*
X96683000Y-86382000D01*
X96663000Y-86382000D01*
X96663000Y-86128000D01*
X96683000Y-86128000D01*
X96683000Y-85478750D01*
X96937000Y-85478750D01*
X96937000Y-86128000D01*
X98036250Y-86128000D01*
X98195000Y-85969250D01*
X98195000Y-85828690D01*
X98098327Y-85595301D01*
X97919698Y-85416673D01*
X97686309Y-85320000D01*
X97095750Y-85320000D01*
X96937000Y-85478750D01*
X96683000Y-85478750D01*
X96524250Y-85320000D01*
X95933691Y-85320000D01*
X95872000Y-85345553D01*
X95872000Y-85172000D01*
X98745000Y-85172000D01*
X98794410Y-85161994D01*
X98836035Y-85133553D01*
X98863315Y-85091159D01*
X98872000Y-85045000D01*
X98872000Y-83635750D01*
X99135000Y-83635750D01*
X99135000Y-83776310D01*
X99231673Y-84009699D01*
X99410302Y-84188327D01*
X99643691Y-84285000D01*
X100259250Y-84285000D01*
X100418000Y-84126250D01*
X100418000Y-83477000D01*
X100672000Y-83477000D01*
X100672000Y-84126250D01*
X100830750Y-84285000D01*
X101446309Y-84285000D01*
X101679698Y-84188327D01*
X101858327Y-84009699D01*
X101955000Y-83776310D01*
X101955000Y-83635750D01*
X101796250Y-83477000D01*
X100672000Y-83477000D01*
X100418000Y-83477000D01*
X99293750Y-83477000D01*
X99135000Y-83635750D01*
X98872000Y-83635750D01*
X98872000Y-82972000D01*
X99135000Y-82972000D01*
X99135000Y-83064250D01*
X99135000Y-83064250D01*
G37*
X99135000Y-83064250D02*
X99293750Y-83223000D01*
X100418000Y-83223000D01*
X100418000Y-83203000D01*
X100672000Y-83203000D01*
X100672000Y-83223000D01*
X101796250Y-83223000D01*
X101847250Y-83172000D01*
X104618000Y-83172000D01*
X104618000Y-90218000D01*
X98062250Y-90218000D01*
X98036250Y-90192000D01*
X96937000Y-90192000D01*
X96937000Y-90212000D01*
X96683000Y-90212000D01*
X96683000Y-90192000D01*
X96663000Y-90192000D01*
X96663000Y-89938000D01*
X96683000Y-89938000D01*
X96683000Y-88922000D01*
X96937000Y-88922000D01*
X96937000Y-89938000D01*
X98036250Y-89938000D01*
X98195000Y-89779250D01*
X98195000Y-89638690D01*
X98108558Y-89430000D01*
X98195000Y-89221310D01*
X98195000Y-89080750D01*
X98036250Y-88922000D01*
X96937000Y-88922000D01*
X96683000Y-88922000D01*
X96663000Y-88922000D01*
X96663000Y-88668000D01*
X96683000Y-88668000D01*
X96683000Y-87652000D01*
X96937000Y-87652000D01*
X96937000Y-88668000D01*
X98036250Y-88668000D01*
X98195000Y-88509250D01*
X98195000Y-88368690D01*
X98108558Y-88160000D01*
X98195000Y-87951310D01*
X98195000Y-87810750D01*
X98036250Y-87652000D01*
X96937000Y-87652000D01*
X96683000Y-87652000D01*
X96663000Y-87652000D01*
X96663000Y-87398000D01*
X96683000Y-87398000D01*
X96683000Y-86382000D01*
X96937000Y-86382000D01*
X96937000Y-87398000D01*
X98036250Y-87398000D01*
X98195000Y-87239250D01*
X98195000Y-87098690D01*
X98108558Y-86890000D01*
X98195000Y-86681310D01*
X98195000Y-86540750D01*
X98036250Y-86382000D01*
X96937000Y-86382000D01*
X96683000Y-86382000D01*
X96663000Y-86382000D01*
X96663000Y-86128000D01*
X96683000Y-86128000D01*
X96683000Y-85478750D01*
X96937000Y-85478750D01*
X96937000Y-86128000D01*
X98036250Y-86128000D01*
X98195000Y-85969250D01*
X98195000Y-85828690D01*
X98098327Y-85595301D01*
X97919698Y-85416673D01*
X97686309Y-85320000D01*
X97095750Y-85320000D01*
X96937000Y-85478750D01*
X96683000Y-85478750D01*
X96524250Y-85320000D01*
X95933691Y-85320000D01*
X95872000Y-85345553D01*
X95872000Y-85172000D01*
X98745000Y-85172000D01*
X98794410Y-85161994D01*
X98836035Y-85133553D01*
X98863315Y-85091159D01*
X98872000Y-85045000D01*
X98872000Y-83635750D01*
X99135000Y-83635750D01*
X99135000Y-83776310D01*
X99231673Y-84009699D01*
X99410302Y-84188327D01*
X99643691Y-84285000D01*
X100259250Y-84285000D01*
X100418000Y-84126250D01*
X100418000Y-83477000D01*
X100672000Y-83477000D01*
X100672000Y-84126250D01*
X100830750Y-84285000D01*
X101446309Y-84285000D01*
X101679698Y-84188327D01*
X101858327Y-84009699D01*
X101955000Y-83776310D01*
X101955000Y-83635750D01*
X101796250Y-83477000D01*
X100672000Y-83477000D01*
X100418000Y-83477000D01*
X99293750Y-83477000D01*
X99135000Y-83635750D01*
X98872000Y-83635750D01*
X98872000Y-82972000D01*
X99135000Y-82972000D01*
X99135000Y-83064250D01*
G36*
X110997849Y-72378681D02*
X111131082Y-72701131D01*
X111377571Y-72948051D01*
X111699789Y-73081847D01*
X112048681Y-73082151D01*
X112051839Y-73080846D01*
X112053337Y-73081847D01*
X112083326Y-73101885D01*
X112285000Y-73142000D01*
X112750241Y-73142000D01*
X112915000Y-73175365D01*
X113259635Y-73175365D01*
X113259635Y-73388054D01*
X113238153Y-73439789D01*
X113238053Y-73554635D01*
X112915000Y-73554635D01*
X112756763Y-73584409D01*
X112751182Y-73588000D01*
X112035000Y-73588000D01*
X111847441Y-73625307D01*
X111830211Y-73618153D01*
X111481319Y-73617849D01*
X111158869Y-73751082D01*
X110911949Y-73997571D01*
X110778153Y-74319789D01*
X110777849Y-74668681D01*
X110911082Y-74991131D01*
X110939743Y-75019843D01*
X110901949Y-75057571D01*
X110768153Y-75379789D01*
X110767849Y-75728681D01*
X110901082Y-76051131D01*
X111147571Y-76298051D01*
X111469789Y-76431847D01*
X111818681Y-76432151D01*
X112141131Y-76298918D01*
X112388051Y-76052429D01*
X112405505Y-76010395D01*
X112744270Y-76001753D01*
X112641433Y-76067927D01*
X112543936Y-76210619D01*
X112509635Y-76380000D01*
X112509635Y-77130000D01*
X112539409Y-77288237D01*
X112626298Y-77423265D01*
X112601949Y-77447571D01*
X112580756Y-77498609D01*
X106964788Y-77508000D01*
X106915394Y-77518089D01*
X106873817Y-77546599D01*
X106846608Y-77589039D01*
X106838026Y-77637591D01*
X106862432Y-78833479D01*
X106720000Y-78804635D01*
X105170000Y-78804635D01*
X105011763Y-78834409D01*
X104866433Y-78927927D01*
X104768936Y-79070619D01*
X104734635Y-79240000D01*
X104734635Y-79318000D01*
X101665000Y-79318000D01*
X101618841Y-79326685D01*
X101576447Y-79353965D01*
X101548006Y-79395590D01*
X101538000Y-79445000D01*
X101538000Y-79963940D01*
X97916090Y-79967869D01*
X97878191Y-79172000D01*
X99745000Y-79172000D01*
X99794410Y-79161994D01*
X99836035Y-79133553D01*
X99863315Y-79091159D01*
X99872000Y-79045000D01*
X99872000Y-76372000D01*
X101545000Y-76372000D01*
X101594410Y-76361994D01*
X101636035Y-76333553D01*
X101663315Y-76291159D01*
X101672000Y-76245000D01*
X101672000Y-72371947D01*
X110997858Y-72368066D01*
X110997849Y-72378681D01*
X110997849Y-72378681D01*
G37*
X110997849Y-72378681D02*
X111131082Y-72701131D01*
X111377571Y-72948051D01*
X111699789Y-73081847D01*
X112048681Y-73082151D01*
X112051839Y-73080846D01*
X112053337Y-73081847D01*
X112083326Y-73101885D01*
X112285000Y-73142000D01*
X112750241Y-73142000D01*
X112915000Y-73175365D01*
X113259635Y-73175365D01*
X113259635Y-73388054D01*
X113238153Y-73439789D01*
X113238053Y-73554635D01*
X112915000Y-73554635D01*
X112756763Y-73584409D01*
X112751182Y-73588000D01*
X112035000Y-73588000D01*
X111847441Y-73625307D01*
X111830211Y-73618153D01*
X111481319Y-73617849D01*
X111158869Y-73751082D01*
X110911949Y-73997571D01*
X110778153Y-74319789D01*
X110777849Y-74668681D01*
X110911082Y-74991131D01*
X110939743Y-75019843D01*
X110901949Y-75057571D01*
X110768153Y-75379789D01*
X110767849Y-75728681D01*
X110901082Y-76051131D01*
X111147571Y-76298051D01*
X111469789Y-76431847D01*
X111818681Y-76432151D01*
X112141131Y-76298918D01*
X112388051Y-76052429D01*
X112405505Y-76010395D01*
X112744270Y-76001753D01*
X112641433Y-76067927D01*
X112543936Y-76210619D01*
X112509635Y-76380000D01*
X112509635Y-77130000D01*
X112539409Y-77288237D01*
X112626298Y-77423265D01*
X112601949Y-77447571D01*
X112580756Y-77498609D01*
X106964788Y-77508000D01*
X106915394Y-77518089D01*
X106873817Y-77546599D01*
X106846608Y-77589039D01*
X106838026Y-77637591D01*
X106862432Y-78833479D01*
X106720000Y-78804635D01*
X105170000Y-78804635D01*
X105011763Y-78834409D01*
X104866433Y-78927927D01*
X104768936Y-79070619D01*
X104734635Y-79240000D01*
X104734635Y-79318000D01*
X101665000Y-79318000D01*
X101618841Y-79326685D01*
X101576447Y-79353965D01*
X101548006Y-79395590D01*
X101538000Y-79445000D01*
X101538000Y-79963940D01*
X97916090Y-79967869D01*
X97878191Y-79172000D01*
X99745000Y-79172000D01*
X99794410Y-79161994D01*
X99836035Y-79133553D01*
X99863315Y-79091159D01*
X99872000Y-79045000D01*
X99872000Y-76372000D01*
X101545000Y-76372000D01*
X101594410Y-76361994D01*
X101636035Y-76333553D01*
X101663315Y-76291159D01*
X101672000Y-76245000D01*
X101672000Y-72371947D01*
X110997858Y-72368066D01*
X110997849Y-72378681D01*
G36*
X112218000Y-71397825D02*
X112050211Y-71328153D01*
X111701319Y-71327849D01*
X111378869Y-71461082D01*
X111131949Y-71707571D01*
X111127619Y-71718000D01*
X101872000Y-71718000D01*
X101872000Y-63772000D01*
X112218000Y-63772000D01*
X112218000Y-71397825D01*
X112218000Y-71397825D01*
G37*
X112218000Y-71397825D02*
X112050211Y-71328153D01*
X111701319Y-71327849D01*
X111378869Y-71461082D01*
X111131949Y-71707571D01*
X111127619Y-71718000D01*
X101872000Y-71718000D01*
X101872000Y-63772000D01*
X112218000Y-63772000D01*
X112218000Y-71397825D01*
G36*
X87450619Y-81951064D02*
X87620000Y-81985365D01*
X89234008Y-81985365D01*
X89183869Y-82006082D01*
X88936949Y-82252571D01*
X88803153Y-82574789D01*
X88802849Y-82923681D01*
X88910672Y-83184635D01*
X88415000Y-83184635D01*
X88256763Y-83214409D01*
X88111433Y-83307927D01*
X88013936Y-83450619D01*
X87979635Y-83620000D01*
X87979635Y-85180000D01*
X88009409Y-85338237D01*
X88102927Y-85483567D01*
X88245619Y-85581064D01*
X88415000Y-85615365D01*
X89065000Y-85615365D01*
X89220509Y-85586104D01*
X89365000Y-85615365D01*
X90015000Y-85615365D01*
X90170509Y-85586104D01*
X90315000Y-85615365D01*
X90965000Y-85615365D01*
X91123237Y-85585591D01*
X91253000Y-85502090D01*
X91253000Y-85999985D01*
X91134381Y-85918936D01*
X90965000Y-85884635D01*
X90477660Y-85884635D01*
X90374699Y-85781673D01*
X90141310Y-85685000D01*
X89975750Y-85685000D01*
X89817000Y-85843750D01*
X89817000Y-86973000D01*
X89837000Y-86973000D01*
X89837000Y-87227000D01*
X89817000Y-87227000D01*
X89817000Y-88356250D01*
X89975750Y-88515000D01*
X90063000Y-88515000D01*
X90063000Y-88629995D01*
X90062999Y-88630000D01*
X90106922Y-88850808D01*
X90231999Y-89038001D01*
X90651997Y-89457998D01*
X90651999Y-89458001D01*
X90805862Y-89560808D01*
X90839192Y-89583078D01*
X91060000Y-89627001D01*
X91060005Y-89627000D01*
X91409995Y-89627000D01*
X91410000Y-89627001D01*
X91630808Y-89583078D01*
X91818001Y-89458001D01*
X91918000Y-89358002D01*
X91918000Y-98817975D01*
X91266318Y-98817406D01*
X90006296Y-99338037D01*
X89041425Y-100301226D01*
X88518596Y-101560337D01*
X88517406Y-102923682D01*
X89038037Y-104183704D01*
X90001226Y-105148575D01*
X91260337Y-105671404D01*
X92623682Y-105672594D01*
X93883704Y-105151963D01*
X94848575Y-104188774D01*
X95371404Y-102929663D01*
X95371629Y-102672000D01*
X101545000Y-102672000D01*
X101648672Y-102652493D01*
X101745000Y-102672000D01*
X104745000Y-102672000D01*
X104900196Y-102642798D01*
X105042735Y-102551077D01*
X105138358Y-102411127D01*
X105172000Y-102245000D01*
X105172000Y-98703681D01*
X107282849Y-98703681D01*
X107416082Y-99026131D01*
X107662571Y-99273051D01*
X107984789Y-99406847D01*
X108333681Y-99407151D01*
X108656131Y-99273918D01*
X108903051Y-99027429D01*
X109036847Y-98705211D01*
X109037053Y-98468948D01*
X109039001Y-98467000D01*
X109168531Y-98467000D01*
X109174409Y-98498237D01*
X109267927Y-98643567D01*
X109410619Y-98741064D01*
X109580000Y-98775365D01*
X110780000Y-98775365D01*
X110938237Y-98745591D01*
X111083567Y-98652073D01*
X111181064Y-98509381D01*
X111215365Y-98340000D01*
X111215365Y-97440000D01*
X111185591Y-97281763D01*
X111092073Y-97136433D01*
X110949381Y-97038936D01*
X110780000Y-97004635D01*
X109580000Y-97004635D01*
X109421763Y-97034409D01*
X109276433Y-97127927D01*
X109178936Y-97270619D01*
X109170354Y-97313000D01*
X108800005Y-97313000D01*
X108800000Y-97312999D01*
X108595435Y-97353691D01*
X108579192Y-97356922D01*
X108391999Y-97481999D01*
X108391997Y-97482002D01*
X108220945Y-97653053D01*
X107986319Y-97652849D01*
X107663869Y-97786082D01*
X107416949Y-98032571D01*
X107283153Y-98354789D01*
X107282849Y-98703681D01*
X105172000Y-98703681D01*
X105172000Y-96054447D01*
X105233691Y-96080000D01*
X105824250Y-96080000D01*
X105983000Y-95921250D01*
X105983000Y-95272000D01*
X106237000Y-95272000D01*
X106237000Y-95921250D01*
X106395750Y-96080000D01*
X106986309Y-96080000D01*
X107219698Y-95983327D01*
X107398327Y-95804699D01*
X107495000Y-95571310D01*
X107495000Y-95430750D01*
X107336250Y-95272000D01*
X106237000Y-95272000D01*
X105983000Y-95272000D01*
X105963000Y-95272000D01*
X105963000Y-95018000D01*
X105983000Y-95018000D01*
X105983000Y-94998000D01*
X106237000Y-94998000D01*
X106237000Y-95018000D01*
X107336250Y-95018000D01*
X107495000Y-94859250D01*
X107495000Y-94718690D01*
X107398327Y-94485301D01*
X107365026Y-94452000D01*
X107515999Y-94452000D01*
X107626997Y-94562998D01*
X107626999Y-94563001D01*
X107795546Y-94675619D01*
X107814192Y-94688078D01*
X108035000Y-94732001D01*
X108035005Y-94732000D01*
X108507570Y-94732000D01*
X108562410Y-94817224D01*
X108496949Y-94882571D01*
X108363153Y-95204789D01*
X108362849Y-95553681D01*
X108496082Y-95876131D01*
X108742571Y-96123051D01*
X109064789Y-96256847D01*
X109413681Y-96257151D01*
X109736131Y-96123918D01*
X109983051Y-95877429D01*
X110116847Y-95555211D01*
X110117151Y-95206319D01*
X110067327Y-95085734D01*
X110258691Y-95165000D01*
X110499250Y-95165000D01*
X110658000Y-95006250D01*
X110658000Y-94282000D01*
X110638000Y-94282000D01*
X110638000Y-94028000D01*
X110658000Y-94028000D01*
X110658000Y-93303750D01*
X110648000Y-93293750D01*
X110648000Y-92732000D01*
X110628000Y-92732000D01*
X110628000Y-92478000D01*
X110648000Y-92478000D01*
X110648000Y-92458000D01*
X110902000Y-92458000D01*
X110902000Y-92478000D01*
X110922000Y-92478000D01*
X110922000Y-92732000D01*
X110902000Y-92732000D01*
X110902000Y-93456250D01*
X110912000Y-93466250D01*
X110912000Y-94028000D01*
X110932000Y-94028000D01*
X110932000Y-94282000D01*
X110912000Y-94282000D01*
X110912000Y-95006250D01*
X111070750Y-95165000D01*
X111311309Y-95165000D01*
X111434216Y-95114090D01*
X111561082Y-95421131D01*
X111807571Y-95668051D01*
X112129789Y-95801847D01*
X112478681Y-95802151D01*
X112801131Y-95668918D01*
X113048051Y-95422429D01*
X113181847Y-95100211D01*
X113182151Y-94751319D01*
X113048918Y-94428869D01*
X112917881Y-94297603D01*
X113058567Y-94207073D01*
X113156064Y-94064381D01*
X113190365Y-93895000D01*
X113190365Y-92695000D01*
X113160591Y-92536763D01*
X113067073Y-92391433D01*
X112924381Y-92293936D01*
X112755000Y-92259635D01*
X111855000Y-92259635D01*
X111810000Y-92268102D01*
X111810000Y-92121252D01*
X111855000Y-92130365D01*
X112755000Y-92130365D01*
X112913237Y-92100591D01*
X113058567Y-92007073D01*
X113156064Y-91864381D01*
X113190365Y-91695000D01*
X113190365Y-91672000D01*
X113204995Y-91672000D01*
X113205000Y-91672001D01*
X113425808Y-91628078D01*
X113613001Y-91503001D01*
X113848000Y-91268002D01*
X113848000Y-95725999D01*
X113790998Y-95783000D01*
X113030005Y-95783000D01*
X113030000Y-95782999D01*
X112827265Y-95823327D01*
X112809192Y-95826922D01*
X112621999Y-95951999D01*
X112621997Y-95952002D01*
X111971999Y-96601999D01*
X111846922Y-96789192D01*
X111804066Y-97004635D01*
X111780000Y-97004635D01*
X111621763Y-97034409D01*
X111476433Y-97127927D01*
X111378936Y-97270619D01*
X111344635Y-97440000D01*
X111344635Y-98340000D01*
X111374409Y-98498237D01*
X111467927Y-98643567D01*
X111610619Y-98741064D01*
X111780000Y-98775365D01*
X111803000Y-98775365D01*
X111803000Y-103549995D01*
X111802999Y-103550000D01*
X111846922Y-103770808D01*
X111971999Y-103958001D01*
X112200601Y-104186603D01*
X112108687Y-104125188D01*
X111620000Y-104027982D01*
X111131313Y-104125188D01*
X110717025Y-104402007D01*
X110444691Y-104809583D01*
X110275183Y-104448642D01*
X109846924Y-104058355D01*
X109436890Y-103888524D01*
X109207000Y-104009845D01*
X109207000Y-105203000D01*
X109227000Y-105203000D01*
X109227000Y-105457000D01*
X109207000Y-105457000D01*
X109207000Y-105477000D01*
X108953000Y-105477000D01*
X108953000Y-105457000D01*
X108933000Y-105457000D01*
X108933000Y-105203000D01*
X108953000Y-105203000D01*
X108953000Y-104009845D01*
X108723110Y-103888524D01*
X108313076Y-104058355D01*
X107884817Y-104448642D01*
X107825365Y-104575236D01*
X107825365Y-104480000D01*
X107795591Y-104321763D01*
X107702073Y-104176433D01*
X107559381Y-104078936D01*
X107390000Y-104044635D01*
X105690000Y-104044635D01*
X105531763Y-104074409D01*
X105386433Y-104167927D01*
X105288936Y-104310619D01*
X105254635Y-104480000D01*
X105254635Y-106180000D01*
X105284409Y-106338237D01*
X105377927Y-106483567D01*
X105520619Y-106581064D01*
X105690000Y-106615365D01*
X107390000Y-106615365D01*
X107548237Y-106585591D01*
X107693567Y-106492073D01*
X107791064Y-106349381D01*
X107825365Y-106180000D01*
X107825365Y-106084764D01*
X107884817Y-106211358D01*
X108313076Y-106601645D01*
X108654359Y-106743000D01*
X87447000Y-106743000D01*
X87447000Y-89613681D01*
X87652849Y-89613681D01*
X87786082Y-89936131D01*
X88032571Y-90183051D01*
X88354789Y-90316847D01*
X88703681Y-90317151D01*
X89026131Y-90183918D01*
X89273051Y-89937429D01*
X89406847Y-89615211D01*
X89407151Y-89266319D01*
X89317000Y-89048136D01*
X89317000Y-88515000D01*
X89404250Y-88515000D01*
X89563000Y-88356250D01*
X89563000Y-87227000D01*
X89543000Y-87227000D01*
X89543000Y-86973000D01*
X89563000Y-86973000D01*
X89563000Y-85843750D01*
X89404250Y-85685000D01*
X89238690Y-85685000D01*
X89005301Y-85781673D01*
X88902340Y-85884635D01*
X88415000Y-85884635D01*
X88256763Y-85914409D01*
X88111433Y-86007927D01*
X88013936Y-86150619D01*
X87979635Y-86320000D01*
X87979635Y-87880000D01*
X88009409Y-88038237D01*
X88102927Y-88183567D01*
X88163000Y-88224613D01*
X88163000Y-88642726D01*
X88033869Y-88696082D01*
X87786949Y-88942571D01*
X87653153Y-89264789D01*
X87652849Y-89613681D01*
X87447000Y-89613681D01*
X87447000Y-81948591D01*
X87450619Y-81951064D01*
X87450619Y-81951064D01*
G37*
X87450619Y-81951064D02*
X87620000Y-81985365D01*
X89234008Y-81985365D01*
X89183869Y-82006082D01*
X88936949Y-82252571D01*
X88803153Y-82574789D01*
X88802849Y-82923681D01*
X88910672Y-83184635D01*
X88415000Y-83184635D01*
X88256763Y-83214409D01*
X88111433Y-83307927D01*
X88013936Y-83450619D01*
X87979635Y-83620000D01*
X87979635Y-85180000D01*
X88009409Y-85338237D01*
X88102927Y-85483567D01*
X88245619Y-85581064D01*
X88415000Y-85615365D01*
X89065000Y-85615365D01*
X89220509Y-85586104D01*
X89365000Y-85615365D01*
X90015000Y-85615365D01*
X90170509Y-85586104D01*
X90315000Y-85615365D01*
X90965000Y-85615365D01*
X91123237Y-85585591D01*
X91253000Y-85502090D01*
X91253000Y-85999985D01*
X91134381Y-85918936D01*
X90965000Y-85884635D01*
X90477660Y-85884635D01*
X90374699Y-85781673D01*
X90141310Y-85685000D01*
X89975750Y-85685000D01*
X89817000Y-85843750D01*
X89817000Y-86973000D01*
X89837000Y-86973000D01*
X89837000Y-87227000D01*
X89817000Y-87227000D01*
X89817000Y-88356250D01*
X89975750Y-88515000D01*
X90063000Y-88515000D01*
X90063000Y-88629995D01*
X90062999Y-88630000D01*
X90106922Y-88850808D01*
X90231999Y-89038001D01*
X90651997Y-89457998D01*
X90651999Y-89458001D01*
X90805862Y-89560808D01*
X90839192Y-89583078D01*
X91060000Y-89627001D01*
X91060005Y-89627000D01*
X91409995Y-89627000D01*
X91410000Y-89627001D01*
X91630808Y-89583078D01*
X91818001Y-89458001D01*
X91918000Y-89358002D01*
X91918000Y-98817975D01*
X91266318Y-98817406D01*
X90006296Y-99338037D01*
X89041425Y-100301226D01*
X88518596Y-101560337D01*
X88517406Y-102923682D01*
X89038037Y-104183704D01*
X90001226Y-105148575D01*
X91260337Y-105671404D01*
X92623682Y-105672594D01*
X93883704Y-105151963D01*
X94848575Y-104188774D01*
X95371404Y-102929663D01*
X95371629Y-102672000D01*
X101545000Y-102672000D01*
X101648672Y-102652493D01*
X101745000Y-102672000D01*
X104745000Y-102672000D01*
X104900196Y-102642798D01*
X105042735Y-102551077D01*
X105138358Y-102411127D01*
X105172000Y-102245000D01*
X105172000Y-98703681D01*
X107282849Y-98703681D01*
X107416082Y-99026131D01*
X107662571Y-99273051D01*
X107984789Y-99406847D01*
X108333681Y-99407151D01*
X108656131Y-99273918D01*
X108903051Y-99027429D01*
X109036847Y-98705211D01*
X109037053Y-98468948D01*
X109039001Y-98467000D01*
X109168531Y-98467000D01*
X109174409Y-98498237D01*
X109267927Y-98643567D01*
X109410619Y-98741064D01*
X109580000Y-98775365D01*
X110780000Y-98775365D01*
X110938237Y-98745591D01*
X111083567Y-98652073D01*
X111181064Y-98509381D01*
X111215365Y-98340000D01*
X111215365Y-97440000D01*
X111185591Y-97281763D01*
X111092073Y-97136433D01*
X110949381Y-97038936D01*
X110780000Y-97004635D01*
X109580000Y-97004635D01*
X109421763Y-97034409D01*
X109276433Y-97127927D01*
X109178936Y-97270619D01*
X109170354Y-97313000D01*
X108800005Y-97313000D01*
X108800000Y-97312999D01*
X108595435Y-97353691D01*
X108579192Y-97356922D01*
X108391999Y-97481999D01*
X108391997Y-97482002D01*
X108220945Y-97653053D01*
X107986319Y-97652849D01*
X107663869Y-97786082D01*
X107416949Y-98032571D01*
X107283153Y-98354789D01*
X107282849Y-98703681D01*
X105172000Y-98703681D01*
X105172000Y-96054447D01*
X105233691Y-96080000D01*
X105824250Y-96080000D01*
X105983000Y-95921250D01*
X105983000Y-95272000D01*
X106237000Y-95272000D01*
X106237000Y-95921250D01*
X106395750Y-96080000D01*
X106986309Y-96080000D01*
X107219698Y-95983327D01*
X107398327Y-95804699D01*
X107495000Y-95571310D01*
X107495000Y-95430750D01*
X107336250Y-95272000D01*
X106237000Y-95272000D01*
X105983000Y-95272000D01*
X105963000Y-95272000D01*
X105963000Y-95018000D01*
X105983000Y-95018000D01*
X105983000Y-94998000D01*
X106237000Y-94998000D01*
X106237000Y-95018000D01*
X107336250Y-95018000D01*
X107495000Y-94859250D01*
X107495000Y-94718690D01*
X107398327Y-94485301D01*
X107365026Y-94452000D01*
X107515999Y-94452000D01*
X107626997Y-94562998D01*
X107626999Y-94563001D01*
X107795546Y-94675619D01*
X107814192Y-94688078D01*
X108035000Y-94732001D01*
X108035005Y-94732000D01*
X108507570Y-94732000D01*
X108562410Y-94817224D01*
X108496949Y-94882571D01*
X108363153Y-95204789D01*
X108362849Y-95553681D01*
X108496082Y-95876131D01*
X108742571Y-96123051D01*
X109064789Y-96256847D01*
X109413681Y-96257151D01*
X109736131Y-96123918D01*
X109983051Y-95877429D01*
X110116847Y-95555211D01*
X110117151Y-95206319D01*
X110067327Y-95085734D01*
X110258691Y-95165000D01*
X110499250Y-95165000D01*
X110658000Y-95006250D01*
X110658000Y-94282000D01*
X110638000Y-94282000D01*
X110638000Y-94028000D01*
X110658000Y-94028000D01*
X110658000Y-93303750D01*
X110648000Y-93293750D01*
X110648000Y-92732000D01*
X110628000Y-92732000D01*
X110628000Y-92478000D01*
X110648000Y-92478000D01*
X110648000Y-92458000D01*
X110902000Y-92458000D01*
X110902000Y-92478000D01*
X110922000Y-92478000D01*
X110922000Y-92732000D01*
X110902000Y-92732000D01*
X110902000Y-93456250D01*
X110912000Y-93466250D01*
X110912000Y-94028000D01*
X110932000Y-94028000D01*
X110932000Y-94282000D01*
X110912000Y-94282000D01*
X110912000Y-95006250D01*
X111070750Y-95165000D01*
X111311309Y-95165000D01*
X111434216Y-95114090D01*
X111561082Y-95421131D01*
X111807571Y-95668051D01*
X112129789Y-95801847D01*
X112478681Y-95802151D01*
X112801131Y-95668918D01*
X113048051Y-95422429D01*
X113181847Y-95100211D01*
X113182151Y-94751319D01*
X113048918Y-94428869D01*
X112917881Y-94297603D01*
X113058567Y-94207073D01*
X113156064Y-94064381D01*
X113190365Y-93895000D01*
X113190365Y-92695000D01*
X113160591Y-92536763D01*
X113067073Y-92391433D01*
X112924381Y-92293936D01*
X112755000Y-92259635D01*
X111855000Y-92259635D01*
X111810000Y-92268102D01*
X111810000Y-92121252D01*
X111855000Y-92130365D01*
X112755000Y-92130365D01*
X112913237Y-92100591D01*
X113058567Y-92007073D01*
X113156064Y-91864381D01*
X113190365Y-91695000D01*
X113190365Y-91672000D01*
X113204995Y-91672000D01*
X113205000Y-91672001D01*
X113425808Y-91628078D01*
X113613001Y-91503001D01*
X113848000Y-91268002D01*
X113848000Y-95725999D01*
X113790998Y-95783000D01*
X113030005Y-95783000D01*
X113030000Y-95782999D01*
X112827265Y-95823327D01*
X112809192Y-95826922D01*
X112621999Y-95951999D01*
X112621997Y-95952002D01*
X111971999Y-96601999D01*
X111846922Y-96789192D01*
X111804066Y-97004635D01*
X111780000Y-97004635D01*
X111621763Y-97034409D01*
X111476433Y-97127927D01*
X111378936Y-97270619D01*
X111344635Y-97440000D01*
X111344635Y-98340000D01*
X111374409Y-98498237D01*
X111467927Y-98643567D01*
X111610619Y-98741064D01*
X111780000Y-98775365D01*
X111803000Y-98775365D01*
X111803000Y-103549995D01*
X111802999Y-103550000D01*
X111846922Y-103770808D01*
X111971999Y-103958001D01*
X112200601Y-104186603D01*
X112108687Y-104125188D01*
X111620000Y-104027982D01*
X111131313Y-104125188D01*
X110717025Y-104402007D01*
X110444691Y-104809583D01*
X110275183Y-104448642D01*
X109846924Y-104058355D01*
X109436890Y-103888524D01*
X109207000Y-104009845D01*
X109207000Y-105203000D01*
X109227000Y-105203000D01*
X109227000Y-105457000D01*
X109207000Y-105457000D01*
X109207000Y-105477000D01*
X108953000Y-105477000D01*
X108953000Y-105457000D01*
X108933000Y-105457000D01*
X108933000Y-105203000D01*
X108953000Y-105203000D01*
X108953000Y-104009845D01*
X108723110Y-103888524D01*
X108313076Y-104058355D01*
X107884817Y-104448642D01*
X107825365Y-104575236D01*
X107825365Y-104480000D01*
X107795591Y-104321763D01*
X107702073Y-104176433D01*
X107559381Y-104078936D01*
X107390000Y-104044635D01*
X105690000Y-104044635D01*
X105531763Y-104074409D01*
X105386433Y-104167927D01*
X105288936Y-104310619D01*
X105254635Y-104480000D01*
X105254635Y-106180000D01*
X105284409Y-106338237D01*
X105377927Y-106483567D01*
X105520619Y-106581064D01*
X105690000Y-106615365D01*
X107390000Y-106615365D01*
X107548237Y-106585591D01*
X107693567Y-106492073D01*
X107791064Y-106349381D01*
X107825365Y-106180000D01*
X107825365Y-106084764D01*
X107884817Y-106211358D01*
X108313076Y-106601645D01*
X108654359Y-106743000D01*
X87447000Y-106743000D01*
X87447000Y-89613681D01*
X87652849Y-89613681D01*
X87786082Y-89936131D01*
X88032571Y-90183051D01*
X88354789Y-90316847D01*
X88703681Y-90317151D01*
X89026131Y-90183918D01*
X89273051Y-89937429D01*
X89406847Y-89615211D01*
X89407151Y-89266319D01*
X89317000Y-89048136D01*
X89317000Y-88515000D01*
X89404250Y-88515000D01*
X89563000Y-88356250D01*
X89563000Y-87227000D01*
X89543000Y-87227000D01*
X89543000Y-86973000D01*
X89563000Y-86973000D01*
X89563000Y-85843750D01*
X89404250Y-85685000D01*
X89238690Y-85685000D01*
X89005301Y-85781673D01*
X88902340Y-85884635D01*
X88415000Y-85884635D01*
X88256763Y-85914409D01*
X88111433Y-86007927D01*
X88013936Y-86150619D01*
X87979635Y-86320000D01*
X87979635Y-87880000D01*
X88009409Y-88038237D01*
X88102927Y-88183567D01*
X88163000Y-88224613D01*
X88163000Y-88642726D01*
X88033869Y-88696082D01*
X87786949Y-88942571D01*
X87653153Y-89264789D01*
X87652849Y-89613681D01*
X87447000Y-89613681D01*
X87447000Y-81948591D01*
X87450619Y-81951064D01*
G36*
X121663000Y-96109002D02*
X121663000Y-96845000D01*
X121575750Y-96845000D01*
X121417000Y-97003750D01*
X121417000Y-98133000D01*
X121437000Y-98133000D01*
X121437000Y-98387000D01*
X121417000Y-98387000D01*
X121417000Y-99516250D01*
X121575750Y-99675000D01*
X121741310Y-99675000D01*
X121974699Y-99578327D01*
X122077660Y-99475365D01*
X122565000Y-99475365D01*
X122723237Y-99445591D01*
X122868567Y-99352073D01*
X122966064Y-99209381D01*
X123000365Y-99040000D01*
X123000365Y-98966367D01*
X124503000Y-100469001D01*
X124503000Y-104184197D01*
X124177025Y-104402007D01*
X123900206Y-104816295D01*
X123810000Y-105269791D01*
X123719794Y-104816295D01*
X123442975Y-104402007D01*
X123028687Y-104125188D01*
X122551396Y-104030249D01*
X122736131Y-103953918D01*
X122983051Y-103707429D01*
X123116847Y-103385211D01*
X123117151Y-103036319D01*
X122983918Y-102713869D01*
X122817000Y-102546659D01*
X122817000Y-102085256D01*
X122868567Y-102052073D01*
X122966064Y-101909381D01*
X123000365Y-101740000D01*
X123000365Y-100180000D01*
X122970591Y-100021763D01*
X122877073Y-99876433D01*
X122734381Y-99778936D01*
X122565000Y-99744635D01*
X121915000Y-99744635D01*
X121759491Y-99773896D01*
X121615000Y-99744635D01*
X120965000Y-99744635D01*
X120809491Y-99773896D01*
X120665000Y-99744635D01*
X120015000Y-99744635D01*
X119856763Y-99774409D01*
X119711433Y-99867927D01*
X119613936Y-100010619D01*
X119579635Y-100180000D01*
X119579635Y-101740000D01*
X119609409Y-101898237D01*
X119702927Y-102043567D01*
X119763000Y-102084613D01*
X119763000Y-102266845D01*
X119576949Y-102452571D01*
X119443153Y-102774789D01*
X119442925Y-103036923D01*
X119367000Y-102960998D01*
X119367000Y-99229002D01*
X119579635Y-99016367D01*
X119579635Y-99040000D01*
X119609409Y-99198237D01*
X119702927Y-99343567D01*
X119845619Y-99441064D01*
X120015000Y-99475365D01*
X120502340Y-99475365D01*
X120605301Y-99578327D01*
X120838690Y-99675000D01*
X121004250Y-99675000D01*
X121163000Y-99516250D01*
X121163000Y-98387000D01*
X121143000Y-98387000D01*
X121143000Y-98133000D01*
X121163000Y-98133000D01*
X121163000Y-97124890D01*
X121216847Y-96995211D01*
X121217151Y-96646319D01*
X121083918Y-96323869D01*
X120837429Y-96076949D01*
X120515211Y-95943153D01*
X120166319Y-95942849D01*
X119843869Y-96076082D01*
X119596949Y-96322571D01*
X119463153Y-96644789D01*
X119462849Y-96993681D01*
X119596082Y-97316131D01*
X119609997Y-97330070D01*
X119579635Y-97480000D01*
X119579635Y-97683000D01*
X119520005Y-97683000D01*
X119520000Y-97682999D01*
X119380701Y-97710708D01*
X119253918Y-97403869D01*
X119007429Y-97156949D01*
X118685211Y-97023153D01*
X118336319Y-97022849D01*
X118052708Y-97140034D01*
X117919381Y-97048936D01*
X117750000Y-97014635D01*
X116550000Y-97014635D01*
X116391763Y-97044409D01*
X116246433Y-97137927D01*
X116148936Y-97280619D01*
X116114635Y-97450000D01*
X116114635Y-98350000D01*
X116144409Y-98508237D01*
X116237927Y-98653567D01*
X116380619Y-98751064D01*
X116550000Y-98785365D01*
X117750000Y-98785365D01*
X117908237Y-98755591D01*
X118053567Y-98662073D01*
X118054631Y-98660516D01*
X118269830Y-98749874D01*
X118256922Y-98769192D01*
X118212999Y-98990000D01*
X118213000Y-98990005D01*
X118213000Y-103199995D01*
X118212999Y-103200000D01*
X118256922Y-103420808D01*
X118381999Y-103608001D01*
X119023420Y-104249421D01*
X118804817Y-104448642D01*
X118745365Y-104575236D01*
X118745365Y-104480000D01*
X118715591Y-104321763D01*
X118622073Y-104176433D01*
X118479381Y-104078936D01*
X118310000Y-104044635D01*
X116610000Y-104044635D01*
X116451763Y-104074409D01*
X116306433Y-104167927D01*
X116208936Y-104310619D01*
X116174635Y-104480000D01*
X116174635Y-106180000D01*
X116204409Y-106338237D01*
X116297927Y-106483567D01*
X116440619Y-106581064D01*
X116610000Y-106615365D01*
X118310000Y-106615365D01*
X118468237Y-106585591D01*
X118613567Y-106492073D01*
X118711064Y-106349381D01*
X118745365Y-106180000D01*
X118745365Y-106084764D01*
X118804817Y-106211358D01*
X119233076Y-106601645D01*
X119574359Y-106743000D01*
X109505641Y-106743000D01*
X109846924Y-106601645D01*
X110275183Y-106211358D01*
X110444691Y-105850417D01*
X110717025Y-106257993D01*
X111131313Y-106534812D01*
X111620000Y-106632018D01*
X112108687Y-106534812D01*
X112522975Y-106257993D01*
X112799794Y-105843705D01*
X112890000Y-105390209D01*
X112980206Y-105843705D01*
X113257025Y-106257993D01*
X113671313Y-106534812D01*
X114160000Y-106632018D01*
X114648687Y-106534812D01*
X115062975Y-106257993D01*
X115339794Y-105843705D01*
X115437000Y-105355018D01*
X115437000Y-105304982D01*
X115339794Y-104816295D01*
X115062975Y-104402007D01*
X114648687Y-104125188D01*
X114160000Y-104027982D01*
X113754619Y-104108617D01*
X112957000Y-103310998D01*
X112957000Y-98775365D01*
X112980000Y-98775365D01*
X113138237Y-98745591D01*
X113283567Y-98652073D01*
X113381064Y-98509381D01*
X113415365Y-98340000D01*
X113415365Y-97440000D01*
X113385591Y-97281763D01*
X113292073Y-97136433D01*
X113159887Y-97046114D01*
X113269001Y-96937000D01*
X114029995Y-96937000D01*
X114030000Y-96937001D01*
X114250808Y-96893078D01*
X114373000Y-96811433D01*
X114373000Y-97014635D01*
X114350000Y-97014635D01*
X114191763Y-97044409D01*
X114046433Y-97137927D01*
X113948936Y-97280619D01*
X113914635Y-97450000D01*
X113914635Y-98350000D01*
X113944409Y-98508237D01*
X114037927Y-98653567D01*
X114180619Y-98751064D01*
X114350000Y-98785365D01*
X114373000Y-98785365D01*
X114373000Y-99279995D01*
X114372999Y-99280000D01*
X114373000Y-99280005D01*
X114373000Y-99556740D01*
X114246949Y-99682571D01*
X114113153Y-100004789D01*
X114112849Y-100353681D01*
X114246082Y-100676131D01*
X114492571Y-100923051D01*
X114814789Y-101056847D01*
X115163681Y-101057151D01*
X115486131Y-100923918D01*
X115733051Y-100677429D01*
X115866847Y-100355211D01*
X115867151Y-100006319D01*
X115733918Y-99683869D01*
X115527000Y-99476589D01*
X115527000Y-99340273D01*
X115537000Y-99290000D01*
X115527000Y-99239727D01*
X115527000Y-98785365D01*
X115550000Y-98785365D01*
X115708237Y-98755591D01*
X115853567Y-98662073D01*
X115951064Y-98519381D01*
X115985365Y-98350000D01*
X115985365Y-97450000D01*
X115955591Y-97291763D01*
X115862073Y-97146433D01*
X115719381Y-97048936D01*
X115550000Y-97014635D01*
X115527000Y-97014635D01*
X115527000Y-95634251D01*
X115689789Y-95701847D01*
X116038681Y-95702151D01*
X116361131Y-95568918D01*
X116530885Y-95399460D01*
X117847335Y-95399460D01*
X117847340Y-95399461D01*
X117945000Y-95380035D01*
X117945000Y-95411310D01*
X118041673Y-95644699D01*
X118220302Y-95823327D01*
X118453691Y-95920000D01*
X118844250Y-95920000D01*
X119003000Y-95761250D01*
X119003000Y-95185000D01*
X119257000Y-95185000D01*
X119257000Y-95761250D01*
X119415750Y-95920000D01*
X119806309Y-95920000D01*
X120039698Y-95823327D01*
X120218327Y-95644699D01*
X120315000Y-95411310D01*
X120315000Y-95343750D01*
X120156250Y-95185000D01*
X119257000Y-95185000D01*
X119003000Y-95185000D01*
X118983000Y-95185000D01*
X118983000Y-95070365D01*
X119680000Y-95070365D01*
X119838237Y-95040591D01*
X119924627Y-94985000D01*
X120156250Y-94985000D01*
X120315000Y-94826250D01*
X120315000Y-94761002D01*
X121663000Y-96109002D01*
X121663000Y-96109002D01*
G37*
X121663000Y-96109002D02*
X121663000Y-96845000D01*
X121575750Y-96845000D01*
X121417000Y-97003750D01*
X121417000Y-98133000D01*
X121437000Y-98133000D01*
X121437000Y-98387000D01*
X121417000Y-98387000D01*
X121417000Y-99516250D01*
X121575750Y-99675000D01*
X121741310Y-99675000D01*
X121974699Y-99578327D01*
X122077660Y-99475365D01*
X122565000Y-99475365D01*
X122723237Y-99445591D01*
X122868567Y-99352073D01*
X122966064Y-99209381D01*
X123000365Y-99040000D01*
X123000365Y-98966367D01*
X124503000Y-100469001D01*
X124503000Y-104184197D01*
X124177025Y-104402007D01*
X123900206Y-104816295D01*
X123810000Y-105269791D01*
X123719794Y-104816295D01*
X123442975Y-104402007D01*
X123028687Y-104125188D01*
X122551396Y-104030249D01*
X122736131Y-103953918D01*
X122983051Y-103707429D01*
X123116847Y-103385211D01*
X123117151Y-103036319D01*
X122983918Y-102713869D01*
X122817000Y-102546659D01*
X122817000Y-102085256D01*
X122868567Y-102052073D01*
X122966064Y-101909381D01*
X123000365Y-101740000D01*
X123000365Y-100180000D01*
X122970591Y-100021763D01*
X122877073Y-99876433D01*
X122734381Y-99778936D01*
X122565000Y-99744635D01*
X121915000Y-99744635D01*
X121759491Y-99773896D01*
X121615000Y-99744635D01*
X120965000Y-99744635D01*
X120809491Y-99773896D01*
X120665000Y-99744635D01*
X120015000Y-99744635D01*
X119856763Y-99774409D01*
X119711433Y-99867927D01*
X119613936Y-100010619D01*
X119579635Y-100180000D01*
X119579635Y-101740000D01*
X119609409Y-101898237D01*
X119702927Y-102043567D01*
X119763000Y-102084613D01*
X119763000Y-102266845D01*
X119576949Y-102452571D01*
X119443153Y-102774789D01*
X119442925Y-103036923D01*
X119367000Y-102960998D01*
X119367000Y-99229002D01*
X119579635Y-99016367D01*
X119579635Y-99040000D01*
X119609409Y-99198237D01*
X119702927Y-99343567D01*
X119845619Y-99441064D01*
X120015000Y-99475365D01*
X120502340Y-99475365D01*
X120605301Y-99578327D01*
X120838690Y-99675000D01*
X121004250Y-99675000D01*
X121163000Y-99516250D01*
X121163000Y-98387000D01*
X121143000Y-98387000D01*
X121143000Y-98133000D01*
X121163000Y-98133000D01*
X121163000Y-97124890D01*
X121216847Y-96995211D01*
X121217151Y-96646319D01*
X121083918Y-96323869D01*
X120837429Y-96076949D01*
X120515211Y-95943153D01*
X120166319Y-95942849D01*
X119843869Y-96076082D01*
X119596949Y-96322571D01*
X119463153Y-96644789D01*
X119462849Y-96993681D01*
X119596082Y-97316131D01*
X119609997Y-97330070D01*
X119579635Y-97480000D01*
X119579635Y-97683000D01*
X119520005Y-97683000D01*
X119520000Y-97682999D01*
X119380701Y-97710708D01*
X119253918Y-97403869D01*
X119007429Y-97156949D01*
X118685211Y-97023153D01*
X118336319Y-97022849D01*
X118052708Y-97140034D01*
X117919381Y-97048936D01*
X117750000Y-97014635D01*
X116550000Y-97014635D01*
X116391763Y-97044409D01*
X116246433Y-97137927D01*
X116148936Y-97280619D01*
X116114635Y-97450000D01*
X116114635Y-98350000D01*
X116144409Y-98508237D01*
X116237927Y-98653567D01*
X116380619Y-98751064D01*
X116550000Y-98785365D01*
X117750000Y-98785365D01*
X117908237Y-98755591D01*
X118053567Y-98662073D01*
X118054631Y-98660516D01*
X118269830Y-98749874D01*
X118256922Y-98769192D01*
X118212999Y-98990000D01*
X118213000Y-98990005D01*
X118213000Y-103199995D01*
X118212999Y-103200000D01*
X118256922Y-103420808D01*
X118381999Y-103608001D01*
X119023420Y-104249421D01*
X118804817Y-104448642D01*
X118745365Y-104575236D01*
X118745365Y-104480000D01*
X118715591Y-104321763D01*
X118622073Y-104176433D01*
X118479381Y-104078936D01*
X118310000Y-104044635D01*
X116610000Y-104044635D01*
X116451763Y-104074409D01*
X116306433Y-104167927D01*
X116208936Y-104310619D01*
X116174635Y-104480000D01*
X116174635Y-106180000D01*
X116204409Y-106338237D01*
X116297927Y-106483567D01*
X116440619Y-106581064D01*
X116610000Y-106615365D01*
X118310000Y-106615365D01*
X118468237Y-106585591D01*
X118613567Y-106492073D01*
X118711064Y-106349381D01*
X118745365Y-106180000D01*
X118745365Y-106084764D01*
X118804817Y-106211358D01*
X119233076Y-106601645D01*
X119574359Y-106743000D01*
X109505641Y-106743000D01*
X109846924Y-106601645D01*
X110275183Y-106211358D01*
X110444691Y-105850417D01*
X110717025Y-106257993D01*
X111131313Y-106534812D01*
X111620000Y-106632018D01*
X112108687Y-106534812D01*
X112522975Y-106257993D01*
X112799794Y-105843705D01*
X112890000Y-105390209D01*
X112980206Y-105843705D01*
X113257025Y-106257993D01*
X113671313Y-106534812D01*
X114160000Y-106632018D01*
X114648687Y-106534812D01*
X115062975Y-106257993D01*
X115339794Y-105843705D01*
X115437000Y-105355018D01*
X115437000Y-105304982D01*
X115339794Y-104816295D01*
X115062975Y-104402007D01*
X114648687Y-104125188D01*
X114160000Y-104027982D01*
X113754619Y-104108617D01*
X112957000Y-103310998D01*
X112957000Y-98775365D01*
X112980000Y-98775365D01*
X113138237Y-98745591D01*
X113283567Y-98652073D01*
X113381064Y-98509381D01*
X113415365Y-98340000D01*
X113415365Y-97440000D01*
X113385591Y-97281763D01*
X113292073Y-97136433D01*
X113159887Y-97046114D01*
X113269001Y-96937000D01*
X114029995Y-96937000D01*
X114030000Y-96937001D01*
X114250808Y-96893078D01*
X114373000Y-96811433D01*
X114373000Y-97014635D01*
X114350000Y-97014635D01*
X114191763Y-97044409D01*
X114046433Y-97137927D01*
X113948936Y-97280619D01*
X113914635Y-97450000D01*
X113914635Y-98350000D01*
X113944409Y-98508237D01*
X114037927Y-98653567D01*
X114180619Y-98751064D01*
X114350000Y-98785365D01*
X114373000Y-98785365D01*
X114373000Y-99279995D01*
X114372999Y-99280000D01*
X114373000Y-99280005D01*
X114373000Y-99556740D01*
X114246949Y-99682571D01*
X114113153Y-100004789D01*
X114112849Y-100353681D01*
X114246082Y-100676131D01*
X114492571Y-100923051D01*
X114814789Y-101056847D01*
X115163681Y-101057151D01*
X115486131Y-100923918D01*
X115733051Y-100677429D01*
X115866847Y-100355211D01*
X115867151Y-100006319D01*
X115733918Y-99683869D01*
X115527000Y-99476589D01*
X115527000Y-99340273D01*
X115537000Y-99290000D01*
X115527000Y-99239727D01*
X115527000Y-98785365D01*
X115550000Y-98785365D01*
X115708237Y-98755591D01*
X115853567Y-98662073D01*
X115951064Y-98519381D01*
X115985365Y-98350000D01*
X115985365Y-97450000D01*
X115955591Y-97291763D01*
X115862073Y-97146433D01*
X115719381Y-97048936D01*
X115550000Y-97014635D01*
X115527000Y-97014635D01*
X115527000Y-95634251D01*
X115689789Y-95701847D01*
X116038681Y-95702151D01*
X116361131Y-95568918D01*
X116530885Y-95399460D01*
X117847335Y-95399460D01*
X117847340Y-95399461D01*
X117945000Y-95380035D01*
X117945000Y-95411310D01*
X118041673Y-95644699D01*
X118220302Y-95823327D01*
X118453691Y-95920000D01*
X118844250Y-95920000D01*
X119003000Y-95761250D01*
X119003000Y-95185000D01*
X119257000Y-95185000D01*
X119257000Y-95761250D01*
X119415750Y-95920000D01*
X119806309Y-95920000D01*
X120039698Y-95823327D01*
X120218327Y-95644699D01*
X120315000Y-95411310D01*
X120315000Y-95343750D01*
X120156250Y-95185000D01*
X119257000Y-95185000D01*
X119003000Y-95185000D01*
X118983000Y-95185000D01*
X118983000Y-95070365D01*
X119680000Y-95070365D01*
X119838237Y-95040591D01*
X119924627Y-94985000D01*
X120156250Y-94985000D01*
X120315000Y-94826250D01*
X120315000Y-94761002D01*
X121663000Y-96109002D01*
G36*
X144253000Y-82794001D02*
X144253000Y-83198531D01*
X144221763Y-83204409D01*
X144076433Y-83297927D01*
X143978936Y-83440619D01*
X143944635Y-83610000D01*
X143944635Y-84810000D01*
X143974409Y-84968237D01*
X144067927Y-85113567D01*
X144194014Y-85199719D01*
X144020301Y-85271673D01*
X143841673Y-85450302D01*
X143745000Y-85683691D01*
X143745000Y-86124250D01*
X143903750Y-86283000D01*
X144703000Y-86283000D01*
X144703000Y-86263000D01*
X144957000Y-86263000D01*
X144957000Y-86283000D01*
X145756250Y-86283000D01*
X145915000Y-86124250D01*
X145915000Y-85683691D01*
X145818327Y-85450302D01*
X145639699Y-85271673D01*
X145464110Y-85198942D01*
X145583567Y-85122073D01*
X145681064Y-84979381D01*
X145709897Y-84837000D01*
X152186810Y-84837000D01*
X152352571Y-85003051D01*
X152674789Y-85136847D01*
X153023681Y-85137151D01*
X153346131Y-85003918D01*
X153593051Y-84757429D01*
X153726847Y-84435211D01*
X153727151Y-84086319D01*
X153593918Y-83763869D01*
X153347429Y-83516949D01*
X153025211Y-83383153D01*
X152992877Y-83383125D01*
X154167808Y-82208193D01*
X154222571Y-82263051D01*
X154544789Y-82396847D01*
X154893681Y-82397151D01*
X155216131Y-82263918D01*
X155443000Y-82037445D01*
X155443000Y-92369723D01*
X144535136Y-92358000D01*
X144485716Y-92367953D01*
X144444061Y-92396349D01*
X144416735Y-92438714D01*
X144408000Y-92485063D01*
X144409989Y-96492482D01*
X144376402Y-96526010D01*
X144273118Y-96774746D01*
X144272883Y-97044073D01*
X144375733Y-97292989D01*
X144410403Y-97327720D01*
X144415076Y-106743000D01*
X120425641Y-106743000D01*
X120766924Y-106601645D01*
X121195183Y-106211358D01*
X121364691Y-105850417D01*
X121637025Y-106257993D01*
X122051313Y-106534812D01*
X122540000Y-106632018D01*
X123028687Y-106534812D01*
X123442975Y-106257993D01*
X123719794Y-105843705D01*
X123810000Y-105390209D01*
X123900206Y-105843705D01*
X124177025Y-106257993D01*
X124591313Y-106534812D01*
X125080000Y-106632018D01*
X125568687Y-106534812D01*
X125982975Y-106257993D01*
X126259794Y-105843705D01*
X126357000Y-105355018D01*
X126357000Y-105304982D01*
X126259794Y-104816295D01*
X125982975Y-104402007D01*
X125657000Y-104184197D01*
X125657000Y-100230005D01*
X125657001Y-100230000D01*
X125613078Y-100009192D01*
X125566846Y-99940000D01*
X125488001Y-99821999D01*
X125487998Y-99821997D01*
X124142856Y-98476854D01*
X124483681Y-98477151D01*
X124806131Y-98343918D01*
X125053051Y-98097429D01*
X125186847Y-97775211D01*
X125187151Y-97426319D01*
X125053918Y-97103869D01*
X124807429Y-96856949D01*
X124485211Y-96723153D01*
X124248949Y-96722947D01*
X124159660Y-96633658D01*
X124159660Y-95676806D01*
X124283567Y-95597073D01*
X124371856Y-95467857D01*
X124426997Y-95522998D01*
X124426999Y-95523001D01*
X124599226Y-95638078D01*
X124614192Y-95648078D01*
X124835000Y-95692000D01*
X125003531Y-95692000D01*
X125009409Y-95723237D01*
X125102927Y-95868567D01*
X125205025Y-95938328D01*
X125088153Y-96219789D01*
X125087849Y-96568681D01*
X125221082Y-96891131D01*
X125467571Y-97138051D01*
X125789789Y-97271847D01*
X126138681Y-97272151D01*
X126461131Y-97138918D01*
X126708051Y-96892429D01*
X126841847Y-96570211D01*
X126842151Y-96221319D01*
X126741055Y-95976646D01*
X126773237Y-95970591D01*
X126918567Y-95877073D01*
X127016064Y-95734381D01*
X127050365Y-95565000D01*
X127050365Y-94665000D01*
X127020591Y-94506763D01*
X126927073Y-94361433D01*
X126818991Y-94287584D01*
X126928567Y-94217073D01*
X127026064Y-94074381D01*
X127060365Y-93905000D01*
X127060365Y-93005000D01*
X127056978Y-92987000D01*
X127193280Y-92987000D01*
X127189635Y-93005000D01*
X127189635Y-93905000D01*
X127219409Y-94063237D01*
X127312927Y-94208567D01*
X127421009Y-94282416D01*
X127311433Y-94352927D01*
X127213936Y-94495619D01*
X127179635Y-94665000D01*
X127179635Y-95565000D01*
X127209409Y-95723237D01*
X127302927Y-95868567D01*
X127445619Y-95966064D01*
X127615000Y-96000365D01*
X128815000Y-96000365D01*
X128973237Y-95970591D01*
X129118567Y-95877073D01*
X129150251Y-95830701D01*
X129167571Y-95848051D01*
X129489789Y-95981847D01*
X129838681Y-95982151D01*
X130161131Y-95848918D01*
X130408051Y-95602429D01*
X130541847Y-95280211D01*
X130542151Y-94931319D01*
X130408918Y-94608869D01*
X130162429Y-94361949D01*
X129840211Y-94228153D01*
X129491319Y-94227849D01*
X129168869Y-94361082D01*
X129143283Y-94386624D01*
X129127073Y-94361433D01*
X129018991Y-94287584D01*
X129128567Y-94217073D01*
X129226064Y-94074381D01*
X129260365Y-93905000D01*
X129260365Y-93005000D01*
X129256978Y-92987000D01*
X129829995Y-92987000D01*
X129830000Y-92987001D01*
X130050808Y-92943078D01*
X130238001Y-92818001D01*
X130250618Y-92805384D01*
X130381082Y-93121131D01*
X130627571Y-93368051D01*
X130949789Y-93501847D01*
X131298681Y-93502151D01*
X131413660Y-93454643D01*
X131471673Y-93594698D01*
X131650301Y-93773327D01*
X131883690Y-93870000D01*
X132099250Y-93870000D01*
X132258000Y-93711250D01*
X132258000Y-92962000D01*
X132238000Y-92962000D01*
X132238000Y-92708000D01*
X132258000Y-92708000D01*
X132258000Y-92688000D01*
X132512000Y-92688000D01*
X132512000Y-92708000D01*
X132532000Y-92708000D01*
X132532000Y-92962000D01*
X132512000Y-92962000D01*
X132512000Y-93711250D01*
X132670750Y-93870000D01*
X132886310Y-93870000D01*
X133099635Y-93781638D01*
X133099635Y-94365000D01*
X133129409Y-94523237D01*
X133222927Y-94668567D01*
X133365619Y-94766064D01*
X133535000Y-94800365D01*
X134435000Y-94800365D01*
X134593237Y-94770591D01*
X134738567Y-94677073D01*
X134836064Y-94534381D01*
X134838885Y-94520451D01*
X134839409Y-94523237D01*
X134932927Y-94668567D01*
X135075619Y-94766064D01*
X135245000Y-94800365D01*
X136145000Y-94800365D01*
X136303237Y-94770591D01*
X136448567Y-94677073D01*
X136546064Y-94534381D01*
X136580365Y-94365000D01*
X136580365Y-93165000D01*
X136550591Y-93006763D01*
X136457073Y-92861433D01*
X136330986Y-92775281D01*
X136504699Y-92703327D01*
X136683327Y-92524698D01*
X136780000Y-92291309D01*
X136780000Y-91850750D01*
X136621250Y-91692000D01*
X135822000Y-91692000D01*
X135822000Y-91712000D01*
X135568000Y-91712000D01*
X135568000Y-91692000D01*
X135548000Y-91692000D01*
X135548000Y-91438000D01*
X135568000Y-91438000D01*
X135568000Y-90488750D01*
X135822000Y-90488750D01*
X135822000Y-91438000D01*
X136621250Y-91438000D01*
X136780000Y-91279250D01*
X136780000Y-90838691D01*
X136683327Y-90605302D01*
X136504699Y-90426673D01*
X136271310Y-90330000D01*
X135980750Y-90330000D01*
X135822000Y-90488750D01*
X135568000Y-90488750D01*
X135409250Y-90330000D01*
X135118690Y-90330000D01*
X134885301Y-90426673D01*
X134706673Y-90605302D01*
X134697463Y-90627536D01*
X134640732Y-90588773D01*
X134671064Y-90544381D01*
X134705365Y-90375000D01*
X134705365Y-88877000D01*
X135000000Y-88877000D01*
X135046159Y-88868315D01*
X135088553Y-88841035D01*
X135116994Y-88799410D01*
X135127000Y-88750000D01*
X135127000Y-88440365D01*
X136640000Y-88440365D01*
X136798237Y-88410591D01*
X136943567Y-88317073D01*
X136953866Y-88302000D01*
X137405998Y-88302000D01*
X137723000Y-88619002D01*
X137723000Y-94620999D01*
X135650998Y-96693000D01*
X132110000Y-96693000D01*
X131889191Y-96736922D01*
X131842680Y-96768000D01*
X131701999Y-96861999D01*
X131701997Y-96862002D01*
X129231999Y-99331999D01*
X129106922Y-99519192D01*
X129062999Y-99740000D01*
X129083000Y-99840548D01*
X129083000Y-101691751D01*
X128848687Y-101535188D01*
X128360000Y-101437982D01*
X127871313Y-101535188D01*
X127457025Y-101812007D01*
X127180206Y-102226295D01*
X127083000Y-102714982D01*
X127083000Y-102765018D01*
X127180206Y-103253705D01*
X127457025Y-103667993D01*
X127871313Y-103944812D01*
X128121790Y-103994635D01*
X127510000Y-103994635D01*
X127351763Y-104024409D01*
X127206433Y-104117927D01*
X127108936Y-104260619D01*
X127074635Y-104430000D01*
X127074635Y-106130000D01*
X127104409Y-106288237D01*
X127197927Y-106433567D01*
X127340619Y-106531064D01*
X127510000Y-106565365D01*
X129210000Y-106565365D01*
X129368237Y-106535591D01*
X129513567Y-106442073D01*
X129611064Y-106299381D01*
X129645365Y-106130000D01*
X129645365Y-105417454D01*
X129720206Y-105793705D01*
X129997025Y-106207993D01*
X130411313Y-106484812D01*
X130900000Y-106582018D01*
X131388687Y-106484812D01*
X131802975Y-106207993D01*
X132079794Y-105793705D01*
X132170000Y-105340209D01*
X132260206Y-105793705D01*
X132537025Y-106207993D01*
X132951313Y-106484812D01*
X133440000Y-106582018D01*
X133928687Y-106484812D01*
X134342975Y-106207993D01*
X134619794Y-105793705D01*
X134717000Y-105305018D01*
X134717000Y-105254982D01*
X134619794Y-104766295D01*
X134342975Y-104352007D01*
X133976452Y-104107104D01*
X134206924Y-104011645D01*
X134635183Y-103621358D01*
X134881486Y-103096892D01*
X134790571Y-102923682D01*
X136522406Y-102923682D01*
X137043037Y-104183704D01*
X138006226Y-105148575D01*
X139265337Y-105671404D01*
X140628682Y-105672594D01*
X141888704Y-105151963D01*
X142853575Y-104188774D01*
X143376404Y-102929663D01*
X143377594Y-101566318D01*
X142856963Y-100306296D01*
X141893774Y-99341425D01*
X140634663Y-98818596D01*
X139271318Y-98817406D01*
X138011296Y-99338037D01*
X137046425Y-100301226D01*
X136523596Y-101560337D01*
X136522406Y-102923682D01*
X134790571Y-102923682D01*
X134760819Y-102867000D01*
X133567000Y-102867000D01*
X133567000Y-102887000D01*
X133313000Y-102887000D01*
X133313000Y-102867000D01*
X133293000Y-102867000D01*
X133293000Y-102613000D01*
X133313000Y-102613000D01*
X133313000Y-101419845D01*
X133567000Y-101419845D01*
X133567000Y-102613000D01*
X134760819Y-102613000D01*
X134881486Y-102383108D01*
X134635183Y-101858642D01*
X134206924Y-101468355D01*
X133796890Y-101298524D01*
X133567000Y-101419845D01*
X133313000Y-101419845D01*
X133083110Y-101298524D01*
X132757000Y-101433595D01*
X132757000Y-99029002D01*
X133349001Y-98437000D01*
X136289995Y-98437000D01*
X136290000Y-98437001D01*
X136510808Y-98393078D01*
X136698001Y-98268001D01*
X139407998Y-95558003D01*
X139408001Y-95558001D01*
X139533078Y-95370808D01*
X139538460Y-95343750D01*
X139577001Y-95150000D01*
X139577000Y-95149995D01*
X139577000Y-88863681D01*
X148932849Y-88863681D01*
X149066082Y-89186131D01*
X149312571Y-89433051D01*
X149634789Y-89566847D01*
X149983681Y-89567151D01*
X150306131Y-89433918D01*
X150553051Y-89187429D01*
X150686847Y-88865211D01*
X150687151Y-88516319D01*
X150553918Y-88193869D01*
X150307429Y-87946949D01*
X149985211Y-87813153D01*
X149636319Y-87812849D01*
X149313869Y-87946082D01*
X149066949Y-88192571D01*
X148933153Y-88514789D01*
X148932849Y-88863681D01*
X139577000Y-88863681D01*
X139577000Y-88250005D01*
X139577001Y-88250000D01*
X139533078Y-88029192D01*
X139408001Y-87841999D01*
X138571367Y-87005365D01*
X138795000Y-87005365D01*
X138953237Y-86975591D01*
X139098567Y-86882073D01*
X139196064Y-86739381D01*
X139230365Y-86570000D01*
X139230365Y-85670000D01*
X139359635Y-85670000D01*
X139359635Y-86570000D01*
X139389409Y-86728237D01*
X139482927Y-86873567D01*
X139625619Y-86971064D01*
X139795000Y-87005365D01*
X140995000Y-87005365D01*
X141153237Y-86975591D01*
X141298567Y-86882073D01*
X141339735Y-86821822D01*
X141349409Y-86873237D01*
X141442927Y-87018567D01*
X141585619Y-87116064D01*
X141755000Y-87150365D01*
X142655000Y-87150365D01*
X142813237Y-87120591D01*
X142958567Y-87027073D01*
X143056064Y-86884381D01*
X143090365Y-86715000D01*
X143090365Y-86695750D01*
X143745000Y-86695750D01*
X143745000Y-87136309D01*
X143841673Y-87369698D01*
X144020301Y-87548327D01*
X144253690Y-87645000D01*
X144544250Y-87645000D01*
X144703000Y-87486250D01*
X144703000Y-86537000D01*
X144957000Y-86537000D01*
X144957000Y-87486250D01*
X145115750Y-87645000D01*
X145406310Y-87645000D01*
X145639699Y-87548327D01*
X145794344Y-87393681D01*
X152482849Y-87393681D01*
X152616082Y-87716131D01*
X152862571Y-87963051D01*
X153184789Y-88096847D01*
X153533681Y-88097151D01*
X153856131Y-87963918D01*
X154103051Y-87717429D01*
X154236847Y-87395211D01*
X154237151Y-87046319D01*
X154103918Y-86723869D01*
X153857429Y-86476949D01*
X153535211Y-86343153D01*
X153186319Y-86342849D01*
X152863869Y-86476082D01*
X152616949Y-86722571D01*
X152483153Y-87044789D01*
X152482849Y-87393681D01*
X145794344Y-87393681D01*
X145818327Y-87369698D01*
X145915000Y-87136309D01*
X145915000Y-86695750D01*
X145756250Y-86537000D01*
X144957000Y-86537000D01*
X144703000Y-86537000D01*
X143903750Y-86537000D01*
X143745000Y-86695750D01*
X143090365Y-86695750D01*
X143090365Y-85515000D01*
X143060591Y-85356763D01*
X142967073Y-85211433D01*
X142840986Y-85125281D01*
X143014699Y-85053327D01*
X143193327Y-84874698D01*
X143290000Y-84641309D01*
X143290000Y-84200750D01*
X143131250Y-84042000D01*
X142332000Y-84042000D01*
X142332000Y-84062000D01*
X142078000Y-84062000D01*
X142078000Y-84042000D01*
X141278750Y-84042000D01*
X141120000Y-84200750D01*
X141120000Y-84641309D01*
X141216673Y-84874698D01*
X141395301Y-85053327D01*
X141570890Y-85126058D01*
X141451433Y-85202927D01*
X141353936Y-85345619D01*
X141339512Y-85416845D01*
X141307073Y-85366433D01*
X141164381Y-85268936D01*
X140995000Y-85234635D01*
X139795000Y-85234635D01*
X139636763Y-85264409D01*
X139491433Y-85357927D01*
X139393936Y-85500619D01*
X139359635Y-85670000D01*
X139230365Y-85670000D01*
X139200591Y-85511763D01*
X139107073Y-85366433D01*
X138964381Y-85268936D01*
X138795000Y-85234635D01*
X137595000Y-85234635D01*
X137436763Y-85264409D01*
X137291433Y-85357927D01*
X137193936Y-85500619D01*
X137184341Y-85548000D01*
X137075365Y-85548000D01*
X137075365Y-85267660D01*
X137178327Y-85164699D01*
X137275000Y-84931310D01*
X137275000Y-84810750D01*
X137116250Y-84652000D01*
X136821183Y-84652000D01*
X136809381Y-84643936D01*
X136640000Y-84609635D01*
X135693000Y-84609635D01*
X135693000Y-84440365D01*
X136640000Y-84440365D01*
X136798237Y-84410591D01*
X136817804Y-84398000D01*
X137116250Y-84398000D01*
X137140302Y-84373948D01*
X137152927Y-84393567D01*
X137295619Y-84491064D01*
X137465000Y-84525365D01*
X138265000Y-84525365D01*
X138423237Y-84495591D01*
X138453251Y-84476277D01*
X138605302Y-84628327D01*
X138838691Y-84725000D01*
X139079250Y-84725000D01*
X139238000Y-84566250D01*
X139238000Y-83842000D01*
X139492000Y-83842000D01*
X139492000Y-84566250D01*
X139650750Y-84725000D01*
X139891309Y-84725000D01*
X140124698Y-84628327D01*
X140303327Y-84449699D01*
X140400000Y-84216310D01*
X140400000Y-84000750D01*
X140241250Y-83842000D01*
X139492000Y-83842000D01*
X139238000Y-83842000D01*
X139218000Y-83842000D01*
X139218000Y-83588000D01*
X139238000Y-83588000D01*
X139238000Y-82863750D01*
X139492000Y-82863750D01*
X139492000Y-83588000D01*
X140241250Y-83588000D01*
X140400000Y-83429250D01*
X140400000Y-83213690D01*
X140389646Y-83188691D01*
X141120000Y-83188691D01*
X141120000Y-83629250D01*
X141278750Y-83788000D01*
X142078000Y-83788000D01*
X142078000Y-82838750D01*
X142332000Y-82838750D01*
X142332000Y-83788000D01*
X143131250Y-83788000D01*
X143290000Y-83629250D01*
X143290000Y-83188691D01*
X143193327Y-82955302D01*
X143014699Y-82776673D01*
X142781310Y-82680000D01*
X142490750Y-82680000D01*
X142332000Y-82838750D01*
X142078000Y-82838750D01*
X141919250Y-82680000D01*
X141628690Y-82680000D01*
X141395301Y-82776673D01*
X141216673Y-82955302D01*
X141120000Y-83188691D01*
X140389646Y-83188691D01*
X140303327Y-82980301D01*
X140124698Y-82801673D01*
X139891309Y-82705000D01*
X139650750Y-82705000D01*
X139492000Y-82863750D01*
X139238000Y-82863750D01*
X139079250Y-82705000D01*
X138838691Y-82705000D01*
X138682177Y-82769830D01*
X138731847Y-82650211D01*
X138732146Y-82307036D01*
X138863681Y-82307151D01*
X139186131Y-82173918D01*
X139433051Y-81927429D01*
X139566847Y-81605211D01*
X139567151Y-81256319D01*
X139503388Y-81102000D01*
X142560998Y-81102000D01*
X144253000Y-82794001D01*
X144253000Y-82794001D01*
G37*
X144253000Y-82794001D02*
X144253000Y-83198531D01*
X144221763Y-83204409D01*
X144076433Y-83297927D01*
X143978936Y-83440619D01*
X143944635Y-83610000D01*
X143944635Y-84810000D01*
X143974409Y-84968237D01*
X144067927Y-85113567D01*
X144194014Y-85199719D01*
X144020301Y-85271673D01*
X143841673Y-85450302D01*
X143745000Y-85683691D01*
X143745000Y-86124250D01*
X143903750Y-86283000D01*
X144703000Y-86283000D01*
X144703000Y-86263000D01*
X144957000Y-86263000D01*
X144957000Y-86283000D01*
X145756250Y-86283000D01*
X145915000Y-86124250D01*
X145915000Y-85683691D01*
X145818327Y-85450302D01*
X145639699Y-85271673D01*
X145464110Y-85198942D01*
X145583567Y-85122073D01*
X145681064Y-84979381D01*
X145709897Y-84837000D01*
X152186810Y-84837000D01*
X152352571Y-85003051D01*
X152674789Y-85136847D01*
X153023681Y-85137151D01*
X153346131Y-85003918D01*
X153593051Y-84757429D01*
X153726847Y-84435211D01*
X153727151Y-84086319D01*
X153593918Y-83763869D01*
X153347429Y-83516949D01*
X153025211Y-83383153D01*
X152992877Y-83383125D01*
X154167808Y-82208193D01*
X154222571Y-82263051D01*
X154544789Y-82396847D01*
X154893681Y-82397151D01*
X155216131Y-82263918D01*
X155443000Y-82037445D01*
X155443000Y-92369723D01*
X144535136Y-92358000D01*
X144485716Y-92367953D01*
X144444061Y-92396349D01*
X144416735Y-92438714D01*
X144408000Y-92485063D01*
X144409989Y-96492482D01*
X144376402Y-96526010D01*
X144273118Y-96774746D01*
X144272883Y-97044073D01*
X144375733Y-97292989D01*
X144410403Y-97327720D01*
X144415076Y-106743000D01*
X120425641Y-106743000D01*
X120766924Y-106601645D01*
X121195183Y-106211358D01*
X121364691Y-105850417D01*
X121637025Y-106257993D01*
X122051313Y-106534812D01*
X122540000Y-106632018D01*
X123028687Y-106534812D01*
X123442975Y-106257993D01*
X123719794Y-105843705D01*
X123810000Y-105390209D01*
X123900206Y-105843705D01*
X124177025Y-106257993D01*
X124591313Y-106534812D01*
X125080000Y-106632018D01*
X125568687Y-106534812D01*
X125982975Y-106257993D01*
X126259794Y-105843705D01*
X126357000Y-105355018D01*
X126357000Y-105304982D01*
X126259794Y-104816295D01*
X125982975Y-104402007D01*
X125657000Y-104184197D01*
X125657000Y-100230005D01*
X125657001Y-100230000D01*
X125613078Y-100009192D01*
X125566846Y-99940000D01*
X125488001Y-99821999D01*
X125487998Y-99821997D01*
X124142856Y-98476854D01*
X124483681Y-98477151D01*
X124806131Y-98343918D01*
X125053051Y-98097429D01*
X125186847Y-97775211D01*
X125187151Y-97426319D01*
X125053918Y-97103869D01*
X124807429Y-96856949D01*
X124485211Y-96723153D01*
X124248949Y-96722947D01*
X124159660Y-96633658D01*
X124159660Y-95676806D01*
X124283567Y-95597073D01*
X124371856Y-95467857D01*
X124426997Y-95522998D01*
X124426999Y-95523001D01*
X124599226Y-95638078D01*
X124614192Y-95648078D01*
X124835000Y-95692000D01*
X125003531Y-95692000D01*
X125009409Y-95723237D01*
X125102927Y-95868567D01*
X125205025Y-95938328D01*
X125088153Y-96219789D01*
X125087849Y-96568681D01*
X125221082Y-96891131D01*
X125467571Y-97138051D01*
X125789789Y-97271847D01*
X126138681Y-97272151D01*
X126461131Y-97138918D01*
X126708051Y-96892429D01*
X126841847Y-96570211D01*
X126842151Y-96221319D01*
X126741055Y-95976646D01*
X126773237Y-95970591D01*
X126918567Y-95877073D01*
X127016064Y-95734381D01*
X127050365Y-95565000D01*
X127050365Y-94665000D01*
X127020591Y-94506763D01*
X126927073Y-94361433D01*
X126818991Y-94287584D01*
X126928567Y-94217073D01*
X127026064Y-94074381D01*
X127060365Y-93905000D01*
X127060365Y-93005000D01*
X127056978Y-92987000D01*
X127193280Y-92987000D01*
X127189635Y-93005000D01*
X127189635Y-93905000D01*
X127219409Y-94063237D01*
X127312927Y-94208567D01*
X127421009Y-94282416D01*
X127311433Y-94352927D01*
X127213936Y-94495619D01*
X127179635Y-94665000D01*
X127179635Y-95565000D01*
X127209409Y-95723237D01*
X127302927Y-95868567D01*
X127445619Y-95966064D01*
X127615000Y-96000365D01*
X128815000Y-96000365D01*
X128973237Y-95970591D01*
X129118567Y-95877073D01*
X129150251Y-95830701D01*
X129167571Y-95848051D01*
X129489789Y-95981847D01*
X129838681Y-95982151D01*
X130161131Y-95848918D01*
X130408051Y-95602429D01*
X130541847Y-95280211D01*
X130542151Y-94931319D01*
X130408918Y-94608869D01*
X130162429Y-94361949D01*
X129840211Y-94228153D01*
X129491319Y-94227849D01*
X129168869Y-94361082D01*
X129143283Y-94386624D01*
X129127073Y-94361433D01*
X129018991Y-94287584D01*
X129128567Y-94217073D01*
X129226064Y-94074381D01*
X129260365Y-93905000D01*
X129260365Y-93005000D01*
X129256978Y-92987000D01*
X129829995Y-92987000D01*
X129830000Y-92987001D01*
X130050808Y-92943078D01*
X130238001Y-92818001D01*
X130250618Y-92805384D01*
X130381082Y-93121131D01*
X130627571Y-93368051D01*
X130949789Y-93501847D01*
X131298681Y-93502151D01*
X131413660Y-93454643D01*
X131471673Y-93594698D01*
X131650301Y-93773327D01*
X131883690Y-93870000D01*
X132099250Y-93870000D01*
X132258000Y-93711250D01*
X132258000Y-92962000D01*
X132238000Y-92962000D01*
X132238000Y-92708000D01*
X132258000Y-92708000D01*
X132258000Y-92688000D01*
X132512000Y-92688000D01*
X132512000Y-92708000D01*
X132532000Y-92708000D01*
X132532000Y-92962000D01*
X132512000Y-92962000D01*
X132512000Y-93711250D01*
X132670750Y-93870000D01*
X132886310Y-93870000D01*
X133099635Y-93781638D01*
X133099635Y-94365000D01*
X133129409Y-94523237D01*
X133222927Y-94668567D01*
X133365619Y-94766064D01*
X133535000Y-94800365D01*
X134435000Y-94800365D01*
X134593237Y-94770591D01*
X134738567Y-94677073D01*
X134836064Y-94534381D01*
X134838885Y-94520451D01*
X134839409Y-94523237D01*
X134932927Y-94668567D01*
X135075619Y-94766064D01*
X135245000Y-94800365D01*
X136145000Y-94800365D01*
X136303237Y-94770591D01*
X136448567Y-94677073D01*
X136546064Y-94534381D01*
X136580365Y-94365000D01*
X136580365Y-93165000D01*
X136550591Y-93006763D01*
X136457073Y-92861433D01*
X136330986Y-92775281D01*
X136504699Y-92703327D01*
X136683327Y-92524698D01*
X136780000Y-92291309D01*
X136780000Y-91850750D01*
X136621250Y-91692000D01*
X135822000Y-91692000D01*
X135822000Y-91712000D01*
X135568000Y-91712000D01*
X135568000Y-91692000D01*
X135548000Y-91692000D01*
X135548000Y-91438000D01*
X135568000Y-91438000D01*
X135568000Y-90488750D01*
X135822000Y-90488750D01*
X135822000Y-91438000D01*
X136621250Y-91438000D01*
X136780000Y-91279250D01*
X136780000Y-90838691D01*
X136683327Y-90605302D01*
X136504699Y-90426673D01*
X136271310Y-90330000D01*
X135980750Y-90330000D01*
X135822000Y-90488750D01*
X135568000Y-90488750D01*
X135409250Y-90330000D01*
X135118690Y-90330000D01*
X134885301Y-90426673D01*
X134706673Y-90605302D01*
X134697463Y-90627536D01*
X134640732Y-90588773D01*
X134671064Y-90544381D01*
X134705365Y-90375000D01*
X134705365Y-88877000D01*
X135000000Y-88877000D01*
X135046159Y-88868315D01*
X135088553Y-88841035D01*
X135116994Y-88799410D01*
X135127000Y-88750000D01*
X135127000Y-88440365D01*
X136640000Y-88440365D01*
X136798237Y-88410591D01*
X136943567Y-88317073D01*
X136953866Y-88302000D01*
X137405998Y-88302000D01*
X137723000Y-88619002D01*
X137723000Y-94620999D01*
X135650998Y-96693000D01*
X132110000Y-96693000D01*
X131889191Y-96736922D01*
X131842680Y-96768000D01*
X131701999Y-96861999D01*
X131701997Y-96862002D01*
X129231999Y-99331999D01*
X129106922Y-99519192D01*
X129062999Y-99740000D01*
X129083000Y-99840548D01*
X129083000Y-101691751D01*
X128848687Y-101535188D01*
X128360000Y-101437982D01*
X127871313Y-101535188D01*
X127457025Y-101812007D01*
X127180206Y-102226295D01*
X127083000Y-102714982D01*
X127083000Y-102765018D01*
X127180206Y-103253705D01*
X127457025Y-103667993D01*
X127871313Y-103944812D01*
X128121790Y-103994635D01*
X127510000Y-103994635D01*
X127351763Y-104024409D01*
X127206433Y-104117927D01*
X127108936Y-104260619D01*
X127074635Y-104430000D01*
X127074635Y-106130000D01*
X127104409Y-106288237D01*
X127197927Y-106433567D01*
X127340619Y-106531064D01*
X127510000Y-106565365D01*
X129210000Y-106565365D01*
X129368237Y-106535591D01*
X129513567Y-106442073D01*
X129611064Y-106299381D01*
X129645365Y-106130000D01*
X129645365Y-105417454D01*
X129720206Y-105793705D01*
X129997025Y-106207993D01*
X130411313Y-106484812D01*
X130900000Y-106582018D01*
X131388687Y-106484812D01*
X131802975Y-106207993D01*
X132079794Y-105793705D01*
X132170000Y-105340209D01*
X132260206Y-105793705D01*
X132537025Y-106207993D01*
X132951313Y-106484812D01*
X133440000Y-106582018D01*
X133928687Y-106484812D01*
X134342975Y-106207993D01*
X134619794Y-105793705D01*
X134717000Y-105305018D01*
X134717000Y-105254982D01*
X134619794Y-104766295D01*
X134342975Y-104352007D01*
X133976452Y-104107104D01*
X134206924Y-104011645D01*
X134635183Y-103621358D01*
X134881486Y-103096892D01*
X134790571Y-102923682D01*
X136522406Y-102923682D01*
X137043037Y-104183704D01*
X138006226Y-105148575D01*
X139265337Y-105671404D01*
X140628682Y-105672594D01*
X141888704Y-105151963D01*
X142853575Y-104188774D01*
X143376404Y-102929663D01*
X143377594Y-101566318D01*
X142856963Y-100306296D01*
X141893774Y-99341425D01*
X140634663Y-98818596D01*
X139271318Y-98817406D01*
X138011296Y-99338037D01*
X137046425Y-100301226D01*
X136523596Y-101560337D01*
X136522406Y-102923682D01*
X134790571Y-102923682D01*
X134760819Y-102867000D01*
X133567000Y-102867000D01*
X133567000Y-102887000D01*
X133313000Y-102887000D01*
X133313000Y-102867000D01*
X133293000Y-102867000D01*
X133293000Y-102613000D01*
X133313000Y-102613000D01*
X133313000Y-101419845D01*
X133567000Y-101419845D01*
X133567000Y-102613000D01*
X134760819Y-102613000D01*
X134881486Y-102383108D01*
X134635183Y-101858642D01*
X134206924Y-101468355D01*
X133796890Y-101298524D01*
X133567000Y-101419845D01*
X133313000Y-101419845D01*
X133083110Y-101298524D01*
X132757000Y-101433595D01*
X132757000Y-99029002D01*
X133349001Y-98437000D01*
X136289995Y-98437000D01*
X136290000Y-98437001D01*
X136510808Y-98393078D01*
X136698001Y-98268001D01*
X139407998Y-95558003D01*
X139408001Y-95558001D01*
X139533078Y-95370808D01*
X139538460Y-95343750D01*
X139577001Y-95150000D01*
X139577000Y-95149995D01*
X139577000Y-88863681D01*
X148932849Y-88863681D01*
X149066082Y-89186131D01*
X149312571Y-89433051D01*
X149634789Y-89566847D01*
X149983681Y-89567151D01*
X150306131Y-89433918D01*
X150553051Y-89187429D01*
X150686847Y-88865211D01*
X150687151Y-88516319D01*
X150553918Y-88193869D01*
X150307429Y-87946949D01*
X149985211Y-87813153D01*
X149636319Y-87812849D01*
X149313869Y-87946082D01*
X149066949Y-88192571D01*
X148933153Y-88514789D01*
X148932849Y-88863681D01*
X139577000Y-88863681D01*
X139577000Y-88250005D01*
X139577001Y-88250000D01*
X139533078Y-88029192D01*
X139408001Y-87841999D01*
X138571367Y-87005365D01*
X138795000Y-87005365D01*
X138953237Y-86975591D01*
X139098567Y-86882073D01*
X139196064Y-86739381D01*
X139230365Y-86570000D01*
X139230365Y-85670000D01*
X139359635Y-85670000D01*
X139359635Y-86570000D01*
X139389409Y-86728237D01*
X139482927Y-86873567D01*
X139625619Y-86971064D01*
X139795000Y-87005365D01*
X140995000Y-87005365D01*
X141153237Y-86975591D01*
X141298567Y-86882073D01*
X141339735Y-86821822D01*
X141349409Y-86873237D01*
X141442927Y-87018567D01*
X141585619Y-87116064D01*
X141755000Y-87150365D01*
X142655000Y-87150365D01*
X142813237Y-87120591D01*
X142958567Y-87027073D01*
X143056064Y-86884381D01*
X143090365Y-86715000D01*
X143090365Y-86695750D01*
X143745000Y-86695750D01*
X143745000Y-87136309D01*
X143841673Y-87369698D01*
X144020301Y-87548327D01*
X144253690Y-87645000D01*
X144544250Y-87645000D01*
X144703000Y-87486250D01*
X144703000Y-86537000D01*
X144957000Y-86537000D01*
X144957000Y-87486250D01*
X145115750Y-87645000D01*
X145406310Y-87645000D01*
X145639699Y-87548327D01*
X145794344Y-87393681D01*
X152482849Y-87393681D01*
X152616082Y-87716131D01*
X152862571Y-87963051D01*
X153184789Y-88096847D01*
X153533681Y-88097151D01*
X153856131Y-87963918D01*
X154103051Y-87717429D01*
X154236847Y-87395211D01*
X154237151Y-87046319D01*
X154103918Y-86723869D01*
X153857429Y-86476949D01*
X153535211Y-86343153D01*
X153186319Y-86342849D01*
X152863869Y-86476082D01*
X152616949Y-86722571D01*
X152483153Y-87044789D01*
X152482849Y-87393681D01*
X145794344Y-87393681D01*
X145818327Y-87369698D01*
X145915000Y-87136309D01*
X145915000Y-86695750D01*
X145756250Y-86537000D01*
X144957000Y-86537000D01*
X144703000Y-86537000D01*
X143903750Y-86537000D01*
X143745000Y-86695750D01*
X143090365Y-86695750D01*
X143090365Y-85515000D01*
X143060591Y-85356763D01*
X142967073Y-85211433D01*
X142840986Y-85125281D01*
X143014699Y-85053327D01*
X143193327Y-84874698D01*
X143290000Y-84641309D01*
X143290000Y-84200750D01*
X143131250Y-84042000D01*
X142332000Y-84042000D01*
X142332000Y-84062000D01*
X142078000Y-84062000D01*
X142078000Y-84042000D01*
X141278750Y-84042000D01*
X141120000Y-84200750D01*
X141120000Y-84641309D01*
X141216673Y-84874698D01*
X141395301Y-85053327D01*
X141570890Y-85126058D01*
X141451433Y-85202927D01*
X141353936Y-85345619D01*
X141339512Y-85416845D01*
X141307073Y-85366433D01*
X141164381Y-85268936D01*
X140995000Y-85234635D01*
X139795000Y-85234635D01*
X139636763Y-85264409D01*
X139491433Y-85357927D01*
X139393936Y-85500619D01*
X139359635Y-85670000D01*
X139230365Y-85670000D01*
X139200591Y-85511763D01*
X139107073Y-85366433D01*
X138964381Y-85268936D01*
X138795000Y-85234635D01*
X137595000Y-85234635D01*
X137436763Y-85264409D01*
X137291433Y-85357927D01*
X137193936Y-85500619D01*
X137184341Y-85548000D01*
X137075365Y-85548000D01*
X137075365Y-85267660D01*
X137178327Y-85164699D01*
X137275000Y-84931310D01*
X137275000Y-84810750D01*
X137116250Y-84652000D01*
X136821183Y-84652000D01*
X136809381Y-84643936D01*
X136640000Y-84609635D01*
X135693000Y-84609635D01*
X135693000Y-84440365D01*
X136640000Y-84440365D01*
X136798237Y-84410591D01*
X136817804Y-84398000D01*
X137116250Y-84398000D01*
X137140302Y-84373948D01*
X137152927Y-84393567D01*
X137295619Y-84491064D01*
X137465000Y-84525365D01*
X138265000Y-84525365D01*
X138423237Y-84495591D01*
X138453251Y-84476277D01*
X138605302Y-84628327D01*
X138838691Y-84725000D01*
X139079250Y-84725000D01*
X139238000Y-84566250D01*
X139238000Y-83842000D01*
X139492000Y-83842000D01*
X139492000Y-84566250D01*
X139650750Y-84725000D01*
X139891309Y-84725000D01*
X140124698Y-84628327D01*
X140303327Y-84449699D01*
X140400000Y-84216310D01*
X140400000Y-84000750D01*
X140241250Y-83842000D01*
X139492000Y-83842000D01*
X139238000Y-83842000D01*
X139218000Y-83842000D01*
X139218000Y-83588000D01*
X139238000Y-83588000D01*
X139238000Y-82863750D01*
X139492000Y-82863750D01*
X139492000Y-83588000D01*
X140241250Y-83588000D01*
X140400000Y-83429250D01*
X140400000Y-83213690D01*
X140389646Y-83188691D01*
X141120000Y-83188691D01*
X141120000Y-83629250D01*
X141278750Y-83788000D01*
X142078000Y-83788000D01*
X142078000Y-82838750D01*
X142332000Y-82838750D01*
X142332000Y-83788000D01*
X143131250Y-83788000D01*
X143290000Y-83629250D01*
X143290000Y-83188691D01*
X143193327Y-82955302D01*
X143014699Y-82776673D01*
X142781310Y-82680000D01*
X142490750Y-82680000D01*
X142332000Y-82838750D01*
X142078000Y-82838750D01*
X141919250Y-82680000D01*
X141628690Y-82680000D01*
X141395301Y-82776673D01*
X141216673Y-82955302D01*
X141120000Y-83188691D01*
X140389646Y-83188691D01*
X140303327Y-82980301D01*
X140124698Y-82801673D01*
X139891309Y-82705000D01*
X139650750Y-82705000D01*
X139492000Y-82863750D01*
X139238000Y-82863750D01*
X139079250Y-82705000D01*
X138838691Y-82705000D01*
X138682177Y-82769830D01*
X138731847Y-82650211D01*
X138732146Y-82307036D01*
X138863681Y-82307151D01*
X139186131Y-82173918D01*
X139433051Y-81927429D01*
X139566847Y-81605211D01*
X139567151Y-81256319D01*
X139503388Y-81102000D01*
X142560998Y-81102000D01*
X144253000Y-82794001D01*
G36*
X120127000Y-105203000D02*
X120147000Y-105203000D01*
X120147000Y-105457000D01*
X120127000Y-105457000D01*
X120127000Y-105477000D01*
X119873000Y-105477000D01*
X119873000Y-105457000D01*
X119853000Y-105457000D01*
X119853000Y-105203000D01*
X119873000Y-105203000D01*
X119873000Y-105183000D01*
X120127000Y-105183000D01*
X120127000Y-105203000D01*
X120127000Y-105203000D01*
G37*
X120127000Y-105203000D02*
X120147000Y-105203000D01*
X120147000Y-105457000D01*
X120127000Y-105457000D01*
X120127000Y-105477000D01*
X119873000Y-105477000D01*
X119873000Y-105457000D01*
X119853000Y-105457000D01*
X119853000Y-105203000D01*
X119873000Y-105203000D01*
X119873000Y-105183000D01*
X120127000Y-105183000D01*
X120127000Y-105203000D01*
G36*
X121945000Y-91454250D02*
X122103750Y-91613000D01*
X122853000Y-91613000D01*
X122853000Y-91593000D01*
X123107000Y-91593000D01*
X123107000Y-91613000D01*
X123127000Y-91613000D01*
X123127000Y-91867000D01*
X123107000Y-91867000D01*
X123107000Y-91887000D01*
X122853000Y-91887000D01*
X122853000Y-91867000D01*
X122103750Y-91867000D01*
X121945000Y-92025750D01*
X121945000Y-92241310D01*
X122041673Y-92474699D01*
X122220302Y-92653327D01*
X122453691Y-92750000D01*
X122489608Y-92750000D01*
X122478936Y-92765619D01*
X122444635Y-92935000D01*
X122444635Y-93335000D01*
X122469019Y-93464591D01*
X122444635Y-93585000D01*
X122444635Y-93985000D01*
X122469019Y-94114591D01*
X122444635Y-94235000D01*
X122444635Y-94635000D01*
X122469019Y-94764591D01*
X122444635Y-94885000D01*
X122444635Y-95258633D01*
X121057000Y-93870998D01*
X121057000Y-91549002D01*
X121279001Y-91327000D01*
X121945000Y-91327000D01*
X121945000Y-91454250D01*
X121945000Y-91454250D01*
G37*
X121945000Y-91454250D02*
X122103750Y-91613000D01*
X122853000Y-91613000D01*
X122853000Y-91593000D01*
X123107000Y-91593000D01*
X123107000Y-91613000D01*
X123127000Y-91613000D01*
X123127000Y-91867000D01*
X123107000Y-91867000D01*
X123107000Y-91887000D01*
X122853000Y-91887000D01*
X122853000Y-91867000D01*
X122103750Y-91867000D01*
X121945000Y-92025750D01*
X121945000Y-92241310D01*
X122041673Y-92474699D01*
X122220302Y-92653327D01*
X122453691Y-92750000D01*
X122489608Y-92750000D01*
X122478936Y-92765619D01*
X122444635Y-92935000D01*
X122444635Y-93335000D01*
X122469019Y-93464591D01*
X122444635Y-93585000D01*
X122444635Y-93985000D01*
X122469019Y-94114591D01*
X122444635Y-94235000D01*
X122444635Y-94635000D01*
X122469019Y-94764591D01*
X122444635Y-94885000D01*
X122444635Y-95258633D01*
X121057000Y-93870998D01*
X121057000Y-91549002D01*
X121279001Y-91327000D01*
X121945000Y-91327000D01*
X121945000Y-91454250D01*
G36*
X120071999Y-90901999D02*
X119946922Y-91089192D01*
X119902999Y-91310000D01*
X119903000Y-91310005D01*
X119903000Y-92570572D01*
X119849381Y-92533936D01*
X119680000Y-92499635D01*
X118580000Y-92499635D01*
X118433250Y-92527248D01*
X118388001Y-92481999D01*
X118360576Y-92463674D01*
X118513000Y-92311250D01*
X118513000Y-91587000D01*
X118767000Y-91587000D01*
X118767000Y-92311250D01*
X118925750Y-92470000D01*
X119166309Y-92470000D01*
X119399698Y-92373327D01*
X119578327Y-92194699D01*
X119675000Y-91961310D01*
X119675000Y-91745750D01*
X119516250Y-91587000D01*
X118767000Y-91587000D01*
X118513000Y-91587000D01*
X118493000Y-91587000D01*
X118493000Y-91333000D01*
X118513000Y-91333000D01*
X118513000Y-91313000D01*
X118767000Y-91313000D01*
X118767000Y-91333000D01*
X119516250Y-91333000D01*
X119675000Y-91174250D01*
X119675000Y-90958690D01*
X119608026Y-90797000D01*
X120176998Y-90797000D01*
X120071999Y-90901999D01*
X120071999Y-90901999D01*
G37*
X120071999Y-90901999D02*
X119946922Y-91089192D01*
X119902999Y-91310000D01*
X119903000Y-91310005D01*
X119903000Y-92570572D01*
X119849381Y-92533936D01*
X119680000Y-92499635D01*
X118580000Y-92499635D01*
X118433250Y-92527248D01*
X118388001Y-92481999D01*
X118360576Y-92463674D01*
X118513000Y-92311250D01*
X118513000Y-91587000D01*
X118767000Y-91587000D01*
X118767000Y-92311250D01*
X118925750Y-92470000D01*
X119166309Y-92470000D01*
X119399698Y-92373327D01*
X119578327Y-92194699D01*
X119675000Y-91961310D01*
X119675000Y-91745750D01*
X119516250Y-91587000D01*
X118767000Y-91587000D01*
X118513000Y-91587000D01*
X118493000Y-91587000D01*
X118493000Y-91333000D01*
X118513000Y-91333000D01*
X118513000Y-91313000D01*
X118767000Y-91313000D01*
X118767000Y-91333000D01*
X119516250Y-91333000D01*
X119675000Y-91174250D01*
X119675000Y-90958690D01*
X119608026Y-90797000D01*
X120176998Y-90797000D01*
X120071999Y-90901999D01*
G36*
X117503153Y-82814789D02*
X117502849Y-83163681D01*
X117636082Y-83486131D01*
X117882571Y-83733051D01*
X118204789Y-83866847D01*
X118553681Y-83867151D01*
X118599617Y-83848171D01*
X118671082Y-84021131D01*
X118917571Y-84268051D01*
X119128403Y-84355595D01*
X113155362Y-90328636D01*
X113067073Y-90191433D01*
X112924381Y-90093936D01*
X112755000Y-90059635D01*
X111855000Y-90059635D01*
X111696763Y-90089409D01*
X111551433Y-90182927D01*
X111453936Y-90325619D01*
X111419635Y-90495000D01*
X111419635Y-90518000D01*
X111118023Y-90518000D01*
X111191847Y-90340211D01*
X111192151Y-89991319D01*
X111094290Y-89754476D01*
X111288691Y-89835000D01*
X111529250Y-89835000D01*
X111688000Y-89676250D01*
X111688000Y-88952000D01*
X111942000Y-88952000D01*
X111942000Y-89676250D01*
X112100750Y-89835000D01*
X112341309Y-89835000D01*
X112574698Y-89738327D01*
X112753327Y-89559699D01*
X112850000Y-89326310D01*
X112850000Y-89110750D01*
X112691250Y-88952000D01*
X111942000Y-88952000D01*
X111688000Y-88952000D01*
X111668000Y-88952000D01*
X111668000Y-88698000D01*
X111688000Y-88698000D01*
X111688000Y-87973750D01*
X111942000Y-87973750D01*
X111942000Y-88698000D01*
X112691250Y-88698000D01*
X112850000Y-88539250D01*
X112850000Y-88323690D01*
X112753327Y-88090301D01*
X112574698Y-87911673D01*
X112341309Y-87815000D01*
X112100750Y-87815000D01*
X111942000Y-87973750D01*
X111688000Y-87973750D01*
X111529250Y-87815000D01*
X111335365Y-87815000D01*
X111335365Y-87080000D01*
X111305697Y-86922328D01*
X111438327Y-86789699D01*
X111535000Y-86556310D01*
X111535000Y-86265750D01*
X111376250Y-86107000D01*
X110427000Y-86107000D01*
X110427000Y-86127000D01*
X110173000Y-86127000D01*
X110173000Y-86107000D01*
X110153000Y-86107000D01*
X110153000Y-85853000D01*
X110173000Y-85853000D01*
X110173000Y-85833000D01*
X110427000Y-85833000D01*
X110427000Y-85853000D01*
X111376250Y-85853000D01*
X111535000Y-85694250D01*
X111535000Y-85452000D01*
X111955998Y-85452000D01*
X112438053Y-85934055D01*
X112437849Y-86168681D01*
X112571082Y-86491131D01*
X112817571Y-86738051D01*
X113139789Y-86871847D01*
X113488681Y-86872151D01*
X113811131Y-86738918D01*
X114058051Y-86492429D01*
X114191847Y-86170211D01*
X114192151Y-85821319D01*
X114058918Y-85498869D01*
X113812429Y-85251949D01*
X113490211Y-85118153D01*
X113253949Y-85117947D01*
X112603001Y-84466999D01*
X112415808Y-84341922D01*
X112195000Y-84297999D01*
X112194995Y-84298000D01*
X106778190Y-84298000D01*
X106765213Y-84285000D01*
X106846309Y-84285000D01*
X107079698Y-84188327D01*
X107258327Y-84009699D01*
X107355000Y-83776310D01*
X107355000Y-83753681D01*
X114152849Y-83753681D01*
X114286082Y-84076131D01*
X114458000Y-84248350D01*
X114458000Y-86151801D01*
X114296949Y-86312571D01*
X114163153Y-86634789D01*
X114162849Y-86983681D01*
X114296082Y-87306131D01*
X114542571Y-87553051D01*
X114864789Y-87686847D01*
X115213681Y-87687151D01*
X115536131Y-87553918D01*
X115783051Y-87307429D01*
X115916847Y-86985211D01*
X115917151Y-86636319D01*
X115783918Y-86313869D01*
X115612000Y-86141650D01*
X115612000Y-84238199D01*
X115773051Y-84077429D01*
X115906847Y-83755211D01*
X115907151Y-83406319D01*
X115773918Y-83083869D01*
X115527429Y-82836949D01*
X115205211Y-82703153D01*
X114856319Y-82702849D01*
X114533869Y-82836082D01*
X114286949Y-83082571D01*
X114153153Y-83404789D01*
X114152849Y-83753681D01*
X107355000Y-83753681D01*
X107355000Y-83635750D01*
X107196250Y-83477000D01*
X106072000Y-83477000D01*
X106072000Y-83497000D01*
X105818000Y-83497000D01*
X105818000Y-83477000D01*
X105798000Y-83477000D01*
X105798000Y-83223000D01*
X105818000Y-83223000D01*
X105818000Y-83203000D01*
X106072000Y-83203000D01*
X106072000Y-83223000D01*
X107196250Y-83223000D01*
X107355000Y-83064250D01*
X107355000Y-82923690D01*
X107258327Y-82690301D01*
X107225026Y-82657000D01*
X117568672Y-82657000D01*
X117503153Y-82814789D01*
X117503153Y-82814789D01*
G37*
X117503153Y-82814789D02*
X117502849Y-83163681D01*
X117636082Y-83486131D01*
X117882571Y-83733051D01*
X118204789Y-83866847D01*
X118553681Y-83867151D01*
X118599617Y-83848171D01*
X118671082Y-84021131D01*
X118917571Y-84268051D01*
X119128403Y-84355595D01*
X113155362Y-90328636D01*
X113067073Y-90191433D01*
X112924381Y-90093936D01*
X112755000Y-90059635D01*
X111855000Y-90059635D01*
X111696763Y-90089409D01*
X111551433Y-90182927D01*
X111453936Y-90325619D01*
X111419635Y-90495000D01*
X111419635Y-90518000D01*
X111118023Y-90518000D01*
X111191847Y-90340211D01*
X111192151Y-89991319D01*
X111094290Y-89754476D01*
X111288691Y-89835000D01*
X111529250Y-89835000D01*
X111688000Y-89676250D01*
X111688000Y-88952000D01*
X111942000Y-88952000D01*
X111942000Y-89676250D01*
X112100750Y-89835000D01*
X112341309Y-89835000D01*
X112574698Y-89738327D01*
X112753327Y-89559699D01*
X112850000Y-89326310D01*
X112850000Y-89110750D01*
X112691250Y-88952000D01*
X111942000Y-88952000D01*
X111688000Y-88952000D01*
X111668000Y-88952000D01*
X111668000Y-88698000D01*
X111688000Y-88698000D01*
X111688000Y-87973750D01*
X111942000Y-87973750D01*
X111942000Y-88698000D01*
X112691250Y-88698000D01*
X112850000Y-88539250D01*
X112850000Y-88323690D01*
X112753327Y-88090301D01*
X112574698Y-87911673D01*
X112341309Y-87815000D01*
X112100750Y-87815000D01*
X111942000Y-87973750D01*
X111688000Y-87973750D01*
X111529250Y-87815000D01*
X111335365Y-87815000D01*
X111335365Y-87080000D01*
X111305697Y-86922328D01*
X111438327Y-86789699D01*
X111535000Y-86556310D01*
X111535000Y-86265750D01*
X111376250Y-86107000D01*
X110427000Y-86107000D01*
X110427000Y-86127000D01*
X110173000Y-86127000D01*
X110173000Y-86107000D01*
X110153000Y-86107000D01*
X110153000Y-85853000D01*
X110173000Y-85853000D01*
X110173000Y-85833000D01*
X110427000Y-85833000D01*
X110427000Y-85853000D01*
X111376250Y-85853000D01*
X111535000Y-85694250D01*
X111535000Y-85452000D01*
X111955998Y-85452000D01*
X112438053Y-85934055D01*
X112437849Y-86168681D01*
X112571082Y-86491131D01*
X112817571Y-86738051D01*
X113139789Y-86871847D01*
X113488681Y-86872151D01*
X113811131Y-86738918D01*
X114058051Y-86492429D01*
X114191847Y-86170211D01*
X114192151Y-85821319D01*
X114058918Y-85498869D01*
X113812429Y-85251949D01*
X113490211Y-85118153D01*
X113253949Y-85117947D01*
X112603001Y-84466999D01*
X112415808Y-84341922D01*
X112195000Y-84297999D01*
X112194995Y-84298000D01*
X106778190Y-84298000D01*
X106765213Y-84285000D01*
X106846309Y-84285000D01*
X107079698Y-84188327D01*
X107258327Y-84009699D01*
X107355000Y-83776310D01*
X107355000Y-83753681D01*
X114152849Y-83753681D01*
X114286082Y-84076131D01*
X114458000Y-84248350D01*
X114458000Y-86151801D01*
X114296949Y-86312571D01*
X114163153Y-86634789D01*
X114162849Y-86983681D01*
X114296082Y-87306131D01*
X114542571Y-87553051D01*
X114864789Y-87686847D01*
X115213681Y-87687151D01*
X115536131Y-87553918D01*
X115783051Y-87307429D01*
X115916847Y-86985211D01*
X115917151Y-86636319D01*
X115783918Y-86313869D01*
X115612000Y-86141650D01*
X115612000Y-84238199D01*
X115773051Y-84077429D01*
X115906847Y-83755211D01*
X115907151Y-83406319D01*
X115773918Y-83083869D01*
X115527429Y-82836949D01*
X115205211Y-82703153D01*
X114856319Y-82702849D01*
X114533869Y-82836082D01*
X114286949Y-83082571D01*
X114153153Y-83404789D01*
X114152849Y-83753681D01*
X107355000Y-83753681D01*
X107355000Y-83635750D01*
X107196250Y-83477000D01*
X106072000Y-83477000D01*
X106072000Y-83497000D01*
X105818000Y-83497000D01*
X105818000Y-83477000D01*
X105798000Y-83477000D01*
X105798000Y-83223000D01*
X105818000Y-83223000D01*
X105818000Y-83203000D01*
X106072000Y-83203000D01*
X106072000Y-83223000D01*
X107196250Y-83223000D01*
X107355000Y-83064250D01*
X107355000Y-82923690D01*
X107258327Y-82690301D01*
X107225026Y-82657000D01*
X117568672Y-82657000D01*
X117503153Y-82814789D01*
G36*
X131674635Y-89722000D02*
X131505365Y-89722000D01*
X131505365Y-89428000D01*
X131674635Y-89428000D01*
X131674635Y-89722000D01*
X131674635Y-89722000D01*
G37*
X131674635Y-89722000D02*
X131505365Y-89722000D01*
X131505365Y-89428000D01*
X131674635Y-89428000D01*
X131674635Y-89722000D01*
G36*
X122863750Y-84398000D02*
X123158817Y-84398000D01*
X123170619Y-84406064D01*
X123340000Y-84440365D01*
X124287000Y-84440365D01*
X124287000Y-84609635D01*
X123340000Y-84609635D01*
X123181763Y-84639409D01*
X123162196Y-84652000D01*
X122863750Y-84652000D01*
X122705000Y-84810750D01*
X122705000Y-84931310D01*
X122714662Y-84954635D01*
X121975000Y-84954635D01*
X121816763Y-84984409D01*
X121786749Y-85003723D01*
X121634698Y-84851673D01*
X121401309Y-84755000D01*
X121160750Y-84755000D01*
X121002000Y-84913750D01*
X121002000Y-85638000D01*
X121022000Y-85638000D01*
X121022000Y-85892000D01*
X121002000Y-85892000D01*
X121002000Y-85912000D01*
X120748000Y-85912000D01*
X120748000Y-85892000D01*
X119998750Y-85892000D01*
X119840000Y-86050750D01*
X119840000Y-86266310D01*
X119936673Y-86499699D01*
X120115302Y-86678327D01*
X120249636Y-86733970D01*
X120218153Y-86809789D01*
X120217849Y-87158681D01*
X120277480Y-87303000D01*
X117813002Y-87303000D01*
X119840000Y-85276002D01*
X119840000Y-85479250D01*
X119998750Y-85638000D01*
X120748000Y-85638000D01*
X120748000Y-84913750D01*
X120589250Y-84755000D01*
X120361002Y-84755000D01*
X120814002Y-84302000D01*
X122767750Y-84302000D01*
X122863750Y-84398000D01*
X122863750Y-84398000D01*
G37*
X122863750Y-84398000D02*
X123158817Y-84398000D01*
X123170619Y-84406064D01*
X123340000Y-84440365D01*
X124287000Y-84440365D01*
X124287000Y-84609635D01*
X123340000Y-84609635D01*
X123181763Y-84639409D01*
X123162196Y-84652000D01*
X122863750Y-84652000D01*
X122705000Y-84810750D01*
X122705000Y-84931310D01*
X122714662Y-84954635D01*
X121975000Y-84954635D01*
X121816763Y-84984409D01*
X121786749Y-85003723D01*
X121634698Y-84851673D01*
X121401309Y-84755000D01*
X121160750Y-84755000D01*
X121002000Y-84913750D01*
X121002000Y-85638000D01*
X121022000Y-85638000D01*
X121022000Y-85892000D01*
X121002000Y-85892000D01*
X121002000Y-85912000D01*
X120748000Y-85912000D01*
X120748000Y-85892000D01*
X119998750Y-85892000D01*
X119840000Y-86050750D01*
X119840000Y-86266310D01*
X119936673Y-86499699D01*
X120115302Y-86678327D01*
X120249636Y-86733970D01*
X120218153Y-86809789D01*
X120217849Y-87158681D01*
X120277480Y-87303000D01*
X117813002Y-87303000D01*
X119840000Y-85276002D01*
X119840000Y-85479250D01*
X119998750Y-85638000D01*
X120748000Y-85638000D01*
X120748000Y-84913750D01*
X120589250Y-84755000D01*
X120361002Y-84755000D01*
X120814002Y-84302000D01*
X122767750Y-84302000D01*
X122863750Y-84398000D01*
G36*
X144355338Y-71284904D02*
X144293118Y-71434746D01*
X144292883Y-71704073D01*
X144355646Y-71855972D01*
X144358000Y-76215069D01*
X144368033Y-76264473D01*
X144396496Y-76306082D01*
X144438905Y-76333339D01*
X144485478Y-76341999D01*
X145141101Y-76339532D01*
X145058366Y-76460619D01*
X145024065Y-76630000D01*
X145024065Y-77630000D01*
X145044024Y-77736072D01*
X144877947Y-78013277D01*
X144865311Y-78098126D01*
X144991476Y-78273000D01*
X146083000Y-78273000D01*
X146083000Y-78253000D01*
X146337000Y-78253000D01*
X146337000Y-78273000D01*
X147428524Y-78273000D01*
X147554689Y-78098126D01*
X147542053Y-78013277D01*
X147374839Y-77734173D01*
X147395935Y-77630000D01*
X147395935Y-76630000D01*
X147366161Y-76471763D01*
X147275902Y-76331497D01*
X155443000Y-76300761D01*
X155443000Y-81002914D01*
X155217429Y-80776949D01*
X154895211Y-80643153D01*
X154546319Y-80642849D01*
X154223869Y-80776082D01*
X154056659Y-80943000D01*
X154040005Y-80943000D01*
X154040000Y-80942999D01*
X153831368Y-80984500D01*
X153819192Y-80986922D01*
X153631999Y-81111999D01*
X153631997Y-81112002D01*
X151750998Y-82993000D01*
X147164001Y-82993000D01*
X144428002Y-80257000D01*
X145235110Y-80257000D01*
X145280872Y-80325488D01*
X145581612Y-80526436D01*
X145936360Y-80597000D01*
X146483640Y-80597000D01*
X146838388Y-80526436D01*
X147139128Y-80325488D01*
X147340076Y-80024748D01*
X147410640Y-79670000D01*
X147340076Y-79315252D01*
X147266311Y-79204855D01*
X147311738Y-79171151D01*
X147542053Y-78786723D01*
X147554689Y-78701874D01*
X147428524Y-78527000D01*
X146337000Y-78527000D01*
X146337000Y-78547000D01*
X146083000Y-78547000D01*
X146083000Y-78527000D01*
X144991476Y-78527000D01*
X144865311Y-78701874D01*
X144877947Y-78786723D01*
X145067432Y-79103000D01*
X144169001Y-79103000D01*
X143508001Y-78441999D01*
X143498001Y-78431999D01*
X143497998Y-78431997D01*
X143018001Y-77951999D01*
X142830808Y-77826922D01*
X142610000Y-77782999D01*
X142609995Y-77783000D01*
X141055000Y-77783000D01*
X141055000Y-77575750D01*
X140896250Y-77417000D01*
X140097000Y-77417000D01*
X140097000Y-77437000D01*
X139843000Y-77437000D01*
X139843000Y-77417000D01*
X139043750Y-77417000D01*
X138885000Y-77575750D01*
X138885000Y-77783000D01*
X135570005Y-77783000D01*
X135570000Y-77782999D01*
X135349192Y-77826922D01*
X135161999Y-77951999D01*
X135161997Y-77952002D01*
X134705365Y-78408633D01*
X134705365Y-77075000D01*
X134675591Y-76916763D01*
X134597523Y-76795442D01*
X134831131Y-76698918D01*
X134966594Y-76563691D01*
X138885000Y-76563691D01*
X138885000Y-77004250D01*
X139043750Y-77163000D01*
X139843000Y-77163000D01*
X139843000Y-76213750D01*
X140097000Y-76213750D01*
X140097000Y-77163000D01*
X140896250Y-77163000D01*
X141055000Y-77004250D01*
X141055000Y-76563691D01*
X140958327Y-76330302D01*
X140779699Y-76151673D01*
X140546310Y-76055000D01*
X140255750Y-76055000D01*
X140097000Y-76213750D01*
X139843000Y-76213750D01*
X139684250Y-76055000D01*
X139393690Y-76055000D01*
X139160301Y-76151673D01*
X138981673Y-76330302D01*
X138885000Y-76563691D01*
X134966594Y-76563691D01*
X135078051Y-76452429D01*
X135211847Y-76130211D01*
X135212151Y-75781319D01*
X135078918Y-75458869D01*
X134832429Y-75211949D01*
X134510211Y-75078153D01*
X134161319Y-75077849D01*
X133838869Y-75211082D01*
X133727000Y-75322756D01*
X133727000Y-74131469D01*
X133758237Y-74125591D01*
X133903567Y-74032073D01*
X134001064Y-73889381D01*
X134035365Y-73720000D01*
X134035365Y-73405750D01*
X135365000Y-73405750D01*
X135365000Y-73846310D01*
X135461673Y-74079699D01*
X135640302Y-74258327D01*
X135873691Y-74355000D01*
X136164250Y-74355000D01*
X136323000Y-74196250D01*
X136323000Y-73247000D01*
X136577000Y-73247000D01*
X136577000Y-74196250D01*
X136735750Y-74355000D01*
X137026309Y-74355000D01*
X137259698Y-74258327D01*
X137438327Y-74079699D01*
X137535000Y-73846310D01*
X137535000Y-73405750D01*
X137376250Y-73247000D01*
X136577000Y-73247000D01*
X136323000Y-73247000D01*
X135523750Y-73247000D01*
X135365000Y-73405750D01*
X134035365Y-73405750D01*
X134035365Y-72520000D01*
X134011599Y-72393690D01*
X135365000Y-72393690D01*
X135365000Y-72834250D01*
X135523750Y-72993000D01*
X136323000Y-72993000D01*
X136323000Y-72043750D01*
X136577000Y-72043750D01*
X136577000Y-72993000D01*
X137376250Y-72993000D01*
X137535000Y-72834250D01*
X137535000Y-72393690D01*
X137438327Y-72160301D01*
X137259698Y-71981673D01*
X137026309Y-71885000D01*
X136735750Y-71885000D01*
X136577000Y-72043750D01*
X136323000Y-72043750D01*
X136164250Y-71885000D01*
X135873691Y-71885000D01*
X135640302Y-71981673D01*
X135461673Y-72160301D01*
X135365000Y-72393690D01*
X134011599Y-72393690D01*
X134005591Y-72361763D01*
X133912073Y-72216433D01*
X133769381Y-72118936D01*
X133600000Y-72084635D01*
X132700000Y-72084635D01*
X132541763Y-72114409D01*
X132396433Y-72207927D01*
X132298936Y-72350619D01*
X132264635Y-72520000D01*
X132264635Y-72548000D01*
X122305005Y-72548000D01*
X122305000Y-72547999D01*
X122109328Y-72586922D01*
X122084192Y-72591922D01*
X121896999Y-72716999D01*
X121896997Y-72717002D01*
X121556999Y-73056999D01*
X121431922Y-73244192D01*
X121401001Y-73399635D01*
X121371891Y-73399635D01*
X121372151Y-73101319D01*
X121324048Y-72984899D01*
X121453237Y-72960591D01*
X121598567Y-72867073D01*
X121696064Y-72724381D01*
X121730365Y-72555000D01*
X121730365Y-71555000D01*
X121700591Y-71396763D01*
X121607073Y-71251433D01*
X121464381Y-71153936D01*
X121295000Y-71119635D01*
X119695000Y-71119635D01*
X119536763Y-71149409D01*
X119391433Y-71242927D01*
X119293936Y-71385619D01*
X119265103Y-71528000D01*
X119198517Y-71528000D01*
X119117073Y-71401433D01*
X118974381Y-71303936D01*
X118805000Y-71269635D01*
X117805000Y-71269635D01*
X117646763Y-71299409D01*
X117501433Y-71392927D01*
X117409142Y-71528000D01*
X116775000Y-71528000D01*
X116573326Y-71568115D01*
X116402355Y-71682354D01*
X115996710Y-72088000D01*
X115479759Y-72088000D01*
X115315000Y-72054635D01*
X115072661Y-72054635D01*
X114894698Y-71876673D01*
X114661309Y-71780000D01*
X114400750Y-71780000D01*
X114242000Y-71938750D01*
X114242000Y-73488000D01*
X114262000Y-73488000D01*
X114262000Y-73742000D01*
X114242000Y-73742000D01*
X114242000Y-74214009D01*
X114180000Y-74363690D01*
X114180000Y-74393750D01*
X114242000Y-74455750D01*
X114242000Y-74774250D01*
X114180000Y-74836250D01*
X114180000Y-74866310D01*
X114242000Y-75015991D01*
X114242000Y-75291250D01*
X114400750Y-75450000D01*
X114661309Y-75450000D01*
X114894698Y-75353327D01*
X115073327Y-75174699D01*
X115170000Y-74941310D01*
X115170000Y-74675365D01*
X115212000Y-74675365D01*
X115212000Y-74677500D01*
X115190000Y-74677500D01*
X115190000Y-75216250D01*
X115348750Y-75375000D01*
X115441309Y-75375000D01*
X115674698Y-75278327D01*
X115853327Y-75099699D01*
X115950000Y-74866310D01*
X115950000Y-74836250D01*
X115855752Y-74742002D01*
X115950000Y-74742002D01*
X115950000Y-74642000D01*
X116136710Y-74642000D01*
X116718000Y-75223290D01*
X116718000Y-76124123D01*
X116636763Y-76139409D01*
X116491433Y-76232927D01*
X116393936Y-76375619D01*
X116359635Y-76545000D01*
X116359635Y-77745000D01*
X116389409Y-77903237D01*
X116482927Y-78048567D01*
X116625619Y-78146064D01*
X116795000Y-78180365D01*
X117695000Y-78180365D01*
X117853237Y-78150591D01*
X117998567Y-78057073D01*
X118096064Y-77914381D01*
X118130365Y-77745000D01*
X118130365Y-77682000D01*
X123641801Y-77682000D01*
X123802571Y-77843051D01*
X124124789Y-77976847D01*
X124473681Y-77977151D01*
X124796131Y-77843918D01*
X125043051Y-77597429D01*
X125176847Y-77275211D01*
X125177151Y-76926319D01*
X125043918Y-76603869D01*
X124797429Y-76356949D01*
X124475211Y-76223153D01*
X124126319Y-76222849D01*
X123803869Y-76356082D01*
X123631650Y-76528000D01*
X122969444Y-76528000D01*
X122995365Y-76400000D01*
X122995365Y-75500000D01*
X122965591Y-75341763D01*
X122872073Y-75196433D01*
X122757797Y-75118352D01*
X122868567Y-75047073D01*
X122954719Y-74920986D01*
X123026673Y-75094699D01*
X123205302Y-75273327D01*
X123438691Y-75370000D01*
X123879250Y-75370000D01*
X124038000Y-75211250D01*
X124038000Y-74412000D01*
X124018000Y-74412000D01*
X124018000Y-74158000D01*
X124038000Y-74158000D01*
X124038000Y-74138000D01*
X124292000Y-74138000D01*
X124292000Y-74158000D01*
X125241250Y-74158000D01*
X125400000Y-73999250D01*
X125400000Y-73708690D01*
X125397229Y-73702000D01*
X132264635Y-73702000D01*
X132264635Y-73720000D01*
X132294409Y-73878237D01*
X132387927Y-74023567D01*
X132530619Y-74121064D01*
X132573000Y-74129646D01*
X132573000Y-76639635D01*
X132110000Y-76639635D01*
X131985593Y-76663044D01*
X131870000Y-76639635D01*
X131310000Y-76639635D01*
X131185593Y-76663044D01*
X131070000Y-76639635D01*
X130510000Y-76639635D01*
X130385593Y-76663044D01*
X130270000Y-76639635D01*
X130024477Y-76639635D01*
X130256131Y-76543918D01*
X130503051Y-76297429D01*
X130636847Y-75975211D01*
X130637151Y-75626319D01*
X130503918Y-75303869D01*
X130257429Y-75056949D01*
X129935211Y-74923153D01*
X129586319Y-74922849D01*
X129347227Y-75021639D01*
X129278327Y-74855301D01*
X129099698Y-74676673D01*
X128866309Y-74580000D01*
X128625750Y-74580000D01*
X128467000Y-74738750D01*
X128467000Y-75463000D01*
X128487000Y-75463000D01*
X128487000Y-75717000D01*
X128467000Y-75717000D01*
X128467000Y-76441250D01*
X128570750Y-76545000D01*
X128517000Y-76598750D01*
X128517000Y-76893817D01*
X128508936Y-76905619D01*
X128474635Y-77075000D01*
X128474635Y-78022000D01*
X128305365Y-78022000D01*
X128305365Y-77075000D01*
X128275591Y-76916763D01*
X128263000Y-76897196D01*
X128263000Y-76598750D01*
X128159250Y-76495000D01*
X128213000Y-76441250D01*
X128213000Y-75717000D01*
X128193000Y-75717000D01*
X128193000Y-75463000D01*
X128213000Y-75463000D01*
X128213000Y-74738750D01*
X128054250Y-74580000D01*
X127813691Y-74580000D01*
X127580302Y-74676673D01*
X127429376Y-74827598D01*
X127409381Y-74813936D01*
X127240000Y-74779635D01*
X126440000Y-74779635D01*
X126281763Y-74809409D01*
X126158886Y-74888479D01*
X126117429Y-74846949D01*
X125795211Y-74713153D01*
X125446319Y-74712849D01*
X125400000Y-74731988D01*
X125400000Y-74570750D01*
X125241250Y-74412000D01*
X124292000Y-74412000D01*
X124292000Y-75211250D01*
X124450750Y-75370000D01*
X124761751Y-75370000D01*
X124743153Y-75414789D01*
X124742849Y-75763681D01*
X124876082Y-76086131D01*
X125122571Y-76333051D01*
X125444789Y-76466847D01*
X125793681Y-76467151D01*
X126116131Y-76333918D01*
X126159788Y-76290337D01*
X126270619Y-76366064D01*
X126301244Y-76372266D01*
X126306922Y-76400808D01*
X126431999Y-76588001D01*
X126487809Y-76643811D01*
X126385593Y-76663044D01*
X126270000Y-76639635D01*
X125710000Y-76639635D01*
X125551763Y-76669409D01*
X125406433Y-76762927D01*
X125308936Y-76905619D01*
X125274635Y-77075000D01*
X125274635Y-78623000D01*
X125000000Y-78623000D01*
X124953841Y-78631685D01*
X124911447Y-78658965D01*
X124883006Y-78700590D01*
X124873000Y-78750000D01*
X124873000Y-79009635D01*
X123340000Y-79009635D01*
X123181763Y-79039409D01*
X123036433Y-79132927D01*
X123026134Y-79148000D01*
X122545000Y-79148000D01*
X122324192Y-79191922D01*
X122136999Y-79316999D01*
X122136997Y-79317002D01*
X121175998Y-80278000D01*
X117966046Y-80278000D01*
X117998567Y-80257073D01*
X118096064Y-80114381D01*
X118130365Y-79945000D01*
X118130365Y-78745000D01*
X118100591Y-78586763D01*
X118007073Y-78441433D01*
X117864381Y-78343936D01*
X117695000Y-78309635D01*
X116795000Y-78309635D01*
X116636763Y-78339409D01*
X116491433Y-78432927D01*
X116393936Y-78575619D01*
X116360579Y-78740340D01*
X116222429Y-78601949D01*
X115900211Y-78468153D01*
X115551319Y-78467849D01*
X115228869Y-78601082D01*
X114981949Y-78847571D01*
X114848153Y-79169789D01*
X114847849Y-79518681D01*
X114981082Y-79841131D01*
X115227571Y-80088051D01*
X115549789Y-80221847D01*
X115898681Y-80222151D01*
X116221131Y-80088918D01*
X116360531Y-79949761D01*
X116389409Y-80103237D01*
X116482927Y-80248567D01*
X116526004Y-80278000D01*
X109102032Y-80278000D01*
X109102151Y-80141319D01*
X108968918Y-79818869D01*
X108722429Y-79571949D01*
X108501869Y-79480365D01*
X108575000Y-79480365D01*
X108733237Y-79450591D01*
X108878567Y-79357073D01*
X108964719Y-79230986D01*
X109036673Y-79404699D01*
X109215302Y-79583327D01*
X109448691Y-79680000D01*
X109889250Y-79680000D01*
X110048000Y-79521250D01*
X110048000Y-78722000D01*
X110028000Y-78722000D01*
X110028000Y-78468000D01*
X110048000Y-78468000D01*
X110048000Y-78448000D01*
X110302000Y-78448000D01*
X110302000Y-78468000D01*
X110322000Y-78468000D01*
X110322000Y-78722000D01*
X110302000Y-78722000D01*
X110302000Y-79521250D01*
X110460750Y-79680000D01*
X110901309Y-79680000D01*
X111134698Y-79583327D01*
X111178850Y-79539175D01*
X111267571Y-79628051D01*
X111589789Y-79761847D01*
X111938681Y-79762151D01*
X112261131Y-79628918D01*
X112508051Y-79382429D01*
X112641847Y-79060211D01*
X112642151Y-78711319D01*
X112508918Y-78388869D01*
X112262429Y-78141949D01*
X112049414Y-78053498D01*
X112945714Y-78051999D01*
X113100196Y-78022798D01*
X113242735Y-77931077D01*
X113338358Y-77791127D01*
X113372000Y-77625000D01*
X113372000Y-76882000D01*
X113472000Y-76882000D01*
X113472000Y-77606250D01*
X113630750Y-77765000D01*
X113871309Y-77765000D01*
X114104698Y-77668327D01*
X114283327Y-77489699D01*
X114380000Y-77256310D01*
X114380000Y-77040750D01*
X114221250Y-76882000D01*
X113472000Y-76882000D01*
X113372000Y-76882000D01*
X113372000Y-76608000D01*
X113472000Y-76608000D01*
X113472000Y-76628000D01*
X114221250Y-76628000D01*
X114380000Y-76469250D01*
X114380000Y-76253690D01*
X114283327Y-76020301D01*
X114104698Y-75841673D01*
X113871309Y-75745000D01*
X113630750Y-75745000D01*
X113472002Y-75903748D01*
X113472002Y-75745000D01*
X113346908Y-75745000D01*
X113338711Y-75704300D01*
X113243384Y-75564147D01*
X113101041Y-75472124D01*
X112934110Y-75442730D01*
X111594218Y-75476912D01*
X111599836Y-74364681D01*
X112280000Y-74368959D01*
X112280000Y-74393750D01*
X112299403Y-74413153D01*
X112376673Y-74599699D01*
X112454474Y-74677500D01*
X112438750Y-74677500D01*
X112280000Y-74836250D01*
X112280000Y-74866310D01*
X112376673Y-75099699D01*
X112555302Y-75278327D01*
X112788691Y-75375000D01*
X112881250Y-75375000D01*
X113040000Y-75216250D01*
X113040000Y-74875000D01*
X113060000Y-74875000D01*
X113060000Y-74941310D01*
X113156673Y-75174699D01*
X113335302Y-75353327D01*
X113568691Y-75450000D01*
X113829250Y-75450000D01*
X113988000Y-75291250D01*
X113988000Y-75015991D01*
X114050000Y-74866310D01*
X114050000Y-74836250D01*
X113988000Y-74774250D01*
X113988000Y-74515991D01*
X114030597Y-74413153D01*
X114050000Y-74393750D01*
X114050000Y-74336250D01*
X114030597Y-74316847D01*
X113988000Y-74214009D01*
X113988000Y-73955750D01*
X114050000Y-73893750D01*
X114050000Y-73863690D01*
X113987000Y-73711595D01*
X113987000Y-73488000D01*
X113988000Y-73488000D01*
X113988000Y-73015991D01*
X114050000Y-72866310D01*
X114050000Y-72836250D01*
X113988000Y-72774250D01*
X113988000Y-72455750D01*
X114050000Y-72393750D01*
X114050000Y-72363690D01*
X113988000Y-72214009D01*
X113988000Y-71938750D01*
X113829250Y-71780000D01*
X113568691Y-71780000D01*
X113488951Y-71813029D01*
X112772000Y-71813328D01*
X112772000Y-69340750D01*
X119060000Y-69340750D01*
X119060000Y-69681309D01*
X119156673Y-69914698D01*
X119335301Y-70093327D01*
X119568690Y-70190000D01*
X120209250Y-70190000D01*
X120368000Y-70031250D01*
X120368000Y-69182000D01*
X120622000Y-69182000D01*
X120622000Y-70031250D01*
X120780750Y-70190000D01*
X121421310Y-70190000D01*
X121654699Y-70093327D01*
X121833327Y-69914698D01*
X121930000Y-69681309D01*
X121930000Y-69340750D01*
X121771250Y-69182000D01*
X120622000Y-69182000D01*
X120368000Y-69182000D01*
X119218750Y-69182000D01*
X119060000Y-69340750D01*
X112772000Y-69340750D01*
X112772000Y-68155750D01*
X112860000Y-68155750D01*
X112860000Y-68496310D01*
X112956673Y-68729699D01*
X113135302Y-68908327D01*
X113368691Y-69005000D01*
X113709250Y-69005000D01*
X113868000Y-68846250D01*
X113868000Y-67997000D01*
X114122000Y-67997000D01*
X114122000Y-68846250D01*
X114280750Y-69005000D01*
X114621309Y-69005000D01*
X114854698Y-68908327D01*
X115033327Y-68729699D01*
X115130000Y-68496310D01*
X115130000Y-68428691D01*
X119060000Y-68428691D01*
X119060000Y-68769250D01*
X119218750Y-68928000D01*
X120368000Y-68928000D01*
X120368000Y-68078750D01*
X120622000Y-68078750D01*
X120622000Y-68928000D01*
X121771250Y-68928000D01*
X121930000Y-68769250D01*
X121930000Y-68428691D01*
X121833327Y-68195302D01*
X121654699Y-68016673D01*
X121421310Y-67920000D01*
X120780750Y-67920000D01*
X120622000Y-68078750D01*
X120368000Y-68078750D01*
X120209250Y-67920000D01*
X119568690Y-67920000D01*
X119335301Y-68016673D01*
X119156673Y-68195302D01*
X119060000Y-68428691D01*
X115130000Y-68428691D01*
X115130000Y-68155750D01*
X114971250Y-67997000D01*
X114122000Y-67997000D01*
X113868000Y-67997000D01*
X113018750Y-67997000D01*
X112860000Y-68155750D01*
X112772000Y-68155750D01*
X112772000Y-67243690D01*
X112860000Y-67243690D01*
X112860000Y-67584250D01*
X113018750Y-67743000D01*
X113868000Y-67743000D01*
X113868000Y-66893750D01*
X114122000Y-66893750D01*
X114122000Y-67743000D01*
X114971250Y-67743000D01*
X115130000Y-67584250D01*
X115130000Y-67243690D01*
X115033327Y-67010301D01*
X114946708Y-66923682D01*
X136522406Y-66923682D01*
X137043037Y-68183704D01*
X138006226Y-69148575D01*
X139265337Y-69671404D01*
X140628682Y-69672594D01*
X141888704Y-69151963D01*
X142853575Y-68188774D01*
X143376404Y-66929663D01*
X143377594Y-65566318D01*
X142856963Y-64306296D01*
X141893774Y-63341425D01*
X140634663Y-62818596D01*
X139271318Y-62817406D01*
X138011296Y-63338037D01*
X137046425Y-64301226D01*
X136523596Y-65560337D01*
X136522406Y-66923682D01*
X114946708Y-66923682D01*
X114854698Y-66831673D01*
X114621309Y-66735000D01*
X114280750Y-66735000D01*
X114122000Y-66893750D01*
X113868000Y-66893750D01*
X113709250Y-66735000D01*
X113368691Y-66735000D01*
X113135302Y-66831673D01*
X112956673Y-67010301D01*
X112860000Y-67243690D01*
X112772000Y-67243690D01*
X112772000Y-63645000D01*
X112742798Y-63489804D01*
X112651077Y-63347265D01*
X112511127Y-63251642D01*
X112345000Y-63218000D01*
X101745000Y-63218000D01*
X101589804Y-63247202D01*
X101447265Y-63338923D01*
X101351642Y-63478873D01*
X101318000Y-63645000D01*
X101318000Y-71845000D01*
X101326125Y-71888178D01*
X101247265Y-71938923D01*
X101151642Y-72078873D01*
X101118000Y-72245000D01*
X101118000Y-75818000D01*
X100869239Y-75818000D01*
X100930000Y-75671310D01*
X100930000Y-75030750D01*
X100771250Y-74872000D01*
X98922000Y-74872000D01*
X98922000Y-76021250D01*
X99080750Y-76180000D01*
X99331163Y-76180000D01*
X99318000Y-76245000D01*
X99318000Y-78618000D01*
X97745000Y-78618000D01*
X97638665Y-78640640D01*
X97629698Y-78631673D01*
X97396309Y-78535000D01*
X97155750Y-78535000D01*
X96997000Y-78693750D01*
X96997000Y-79418000D01*
X97017000Y-79418000D01*
X97017000Y-79672000D01*
X96997000Y-79672000D01*
X96997000Y-79692000D01*
X96743000Y-79692000D01*
X96743000Y-79672000D01*
X95993750Y-79672000D01*
X95835000Y-79830750D01*
X95835000Y-80046310D01*
X95867870Y-80125664D01*
X95847265Y-80138923D01*
X95836909Y-80154080D01*
X95829381Y-80148936D01*
X95660000Y-80114635D01*
X94737000Y-80114635D01*
X94737000Y-80060005D01*
X94737001Y-80060000D01*
X94724752Y-79998422D01*
X94746847Y-79945211D01*
X94747151Y-79596319D01*
X94684778Y-79445365D01*
X95660000Y-79445365D01*
X95818237Y-79415591D01*
X95923564Y-79347814D01*
X95993750Y-79418000D01*
X96743000Y-79418000D01*
X96743000Y-78693750D01*
X96584250Y-78535000D01*
X96401002Y-78535000D01*
X96789055Y-78146947D01*
X97023681Y-78147151D01*
X97346131Y-78013918D01*
X97593051Y-77767429D01*
X97726847Y-77445211D01*
X97727151Y-77096319D01*
X97593918Y-76773869D01*
X97347429Y-76526949D01*
X97025211Y-76393153D01*
X96676319Y-76392849D01*
X96353869Y-76526082D01*
X96106949Y-76772571D01*
X95973153Y-77094789D01*
X95972947Y-77331051D01*
X95717682Y-77586316D01*
X95660000Y-77574635D01*
X94962516Y-77574635D01*
X95086847Y-77275211D01*
X95087151Y-76926319D01*
X95078493Y-76905365D01*
X95660000Y-76905365D01*
X95818237Y-76875591D01*
X95963567Y-76782073D01*
X96061064Y-76639381D01*
X96095365Y-76470000D01*
X96095365Y-75470000D01*
X96065591Y-75311763D01*
X95972073Y-75166433D01*
X95829381Y-75068936D01*
X95660000Y-75034635D01*
X92660000Y-75034635D01*
X92501763Y-75064409D01*
X92356433Y-75157927D01*
X92258936Y-75300619D01*
X92224635Y-75470000D01*
X92224635Y-76470000D01*
X92254409Y-76628237D01*
X92347927Y-76773567D01*
X92490619Y-76871064D01*
X92660000Y-76905365D01*
X93341219Y-76905365D01*
X93333153Y-76924789D01*
X93332849Y-77273681D01*
X93457200Y-77574635D01*
X92660000Y-77574635D01*
X92501763Y-77604409D01*
X92356433Y-77697927D01*
X92258936Y-77840619D01*
X92224635Y-78010000D01*
X92224635Y-79010000D01*
X92254409Y-79168237D01*
X92347927Y-79313567D01*
X92490619Y-79411064D01*
X92660000Y-79445365D01*
X93055199Y-79445365D01*
X92993153Y-79594789D01*
X92992849Y-79943681D01*
X93063485Y-80114635D01*
X92660000Y-80114635D01*
X92501763Y-80144409D01*
X92356433Y-80237927D01*
X92258936Y-80380619D01*
X92233522Y-80506115D01*
X92194294Y-80513918D01*
X92179192Y-80516922D01*
X91991999Y-80641999D01*
X91991997Y-80642002D01*
X91627000Y-81006998D01*
X91627000Y-75030750D01*
X96660000Y-75030750D01*
X96660000Y-75671310D01*
X96756673Y-75904699D01*
X96935302Y-76083327D01*
X97168691Y-76180000D01*
X98509250Y-76180000D01*
X98668000Y-76021250D01*
X98668000Y-74872000D01*
X96818750Y-74872000D01*
X96660000Y-75030750D01*
X91627000Y-75030750D01*
X91627000Y-74409002D01*
X92029002Y-74007000D01*
X92239123Y-74007000D01*
X92254409Y-74088237D01*
X92347927Y-74233567D01*
X92490619Y-74331064D01*
X92660000Y-74365365D01*
X95660000Y-74365365D01*
X95818237Y-74335591D01*
X95963567Y-74242073D01*
X96052111Y-74112485D01*
X96112571Y-74173051D01*
X96434789Y-74306847D01*
X96660000Y-74307043D01*
X96660000Y-74459250D01*
X96818750Y-74618000D01*
X98668000Y-74618000D01*
X98668000Y-73468750D01*
X98922000Y-73468750D01*
X98922000Y-74618000D01*
X100771250Y-74618000D01*
X100930000Y-74459250D01*
X100930000Y-73818690D01*
X100833327Y-73585301D01*
X100654698Y-73406673D01*
X100421309Y-73310000D01*
X99080750Y-73310000D01*
X98922000Y-73468750D01*
X98668000Y-73468750D01*
X98509250Y-73310000D01*
X97487104Y-73310000D01*
X97487151Y-73256319D01*
X97353918Y-72933869D01*
X97107429Y-72686949D01*
X96785211Y-72553153D01*
X96436319Y-72552849D01*
X96113869Y-72686082D01*
X96050903Y-72748938D01*
X95972073Y-72626433D01*
X95829381Y-72528936D01*
X95660000Y-72494635D01*
X92660000Y-72494635D01*
X92501763Y-72524409D01*
X92356433Y-72617927D01*
X92258936Y-72760619D01*
X92240228Y-72853000D01*
X91790005Y-72853000D01*
X91790000Y-72852999D01*
X91569192Y-72896922D01*
X91381999Y-73021999D01*
X91101000Y-73302998D01*
X91096252Y-73302998D01*
X91255000Y-73144250D01*
X91255000Y-72803690D01*
X91158327Y-72570301D01*
X90979698Y-72391673D01*
X90746309Y-72295000D01*
X89405750Y-72295000D01*
X89247000Y-72453750D01*
X89247000Y-73303000D01*
X89267000Y-73303000D01*
X89267000Y-73557000D01*
X89247000Y-73557000D01*
X89247000Y-74406250D01*
X89405750Y-74565000D01*
X90473000Y-74565000D01*
X90473000Y-75034635D01*
X87620000Y-75034635D01*
X87461763Y-75064409D01*
X87447000Y-75073909D01*
X87447000Y-74545660D01*
X87493691Y-74565000D01*
X88834250Y-74565000D01*
X88993000Y-74406250D01*
X88993000Y-73557000D01*
X88973000Y-73557000D01*
X88973000Y-73303000D01*
X88993000Y-73303000D01*
X88993000Y-72453750D01*
X88834250Y-72295000D01*
X87493691Y-72295000D01*
X87447000Y-72314340D01*
X87447000Y-66923682D01*
X88517406Y-66923682D01*
X89038037Y-68183704D01*
X90001226Y-69148575D01*
X91260337Y-69671404D01*
X92623682Y-69672594D01*
X93883704Y-69151963D01*
X94848575Y-68188774D01*
X95371404Y-66929663D01*
X95372594Y-65566318D01*
X94851963Y-64306296D01*
X93888774Y-63341425D01*
X92629663Y-62818596D01*
X91266318Y-62817406D01*
X90006296Y-63338037D01*
X89041425Y-64301226D01*
X88518596Y-65560337D01*
X88517406Y-66923682D01*
X87447000Y-66923682D01*
X87447000Y-61747000D01*
X144350188Y-61747000D01*
X144355338Y-71284904D01*
X144355338Y-71284904D01*
G37*
X144355338Y-71284904D02*
X144293118Y-71434746D01*
X144292883Y-71704073D01*
X144355646Y-71855972D01*
X144358000Y-76215069D01*
X144368033Y-76264473D01*
X144396496Y-76306082D01*
X144438905Y-76333339D01*
X144485478Y-76341999D01*
X145141101Y-76339532D01*
X145058366Y-76460619D01*
X145024065Y-76630000D01*
X145024065Y-77630000D01*
X145044024Y-77736072D01*
X144877947Y-78013277D01*
X144865311Y-78098126D01*
X144991476Y-78273000D01*
X146083000Y-78273000D01*
X146083000Y-78253000D01*
X146337000Y-78253000D01*
X146337000Y-78273000D01*
X147428524Y-78273000D01*
X147554689Y-78098126D01*
X147542053Y-78013277D01*
X147374839Y-77734173D01*
X147395935Y-77630000D01*
X147395935Y-76630000D01*
X147366161Y-76471763D01*
X147275902Y-76331497D01*
X155443000Y-76300761D01*
X155443000Y-81002914D01*
X155217429Y-80776949D01*
X154895211Y-80643153D01*
X154546319Y-80642849D01*
X154223869Y-80776082D01*
X154056659Y-80943000D01*
X154040005Y-80943000D01*
X154040000Y-80942999D01*
X153831368Y-80984500D01*
X153819192Y-80986922D01*
X153631999Y-81111999D01*
X153631997Y-81112002D01*
X151750998Y-82993000D01*
X147164001Y-82993000D01*
X144428002Y-80257000D01*
X145235110Y-80257000D01*
X145280872Y-80325488D01*
X145581612Y-80526436D01*
X145936360Y-80597000D01*
X146483640Y-80597000D01*
X146838388Y-80526436D01*
X147139128Y-80325488D01*
X147340076Y-80024748D01*
X147410640Y-79670000D01*
X147340076Y-79315252D01*
X147266311Y-79204855D01*
X147311738Y-79171151D01*
X147542053Y-78786723D01*
X147554689Y-78701874D01*
X147428524Y-78527000D01*
X146337000Y-78527000D01*
X146337000Y-78547000D01*
X146083000Y-78547000D01*
X146083000Y-78527000D01*
X144991476Y-78527000D01*
X144865311Y-78701874D01*
X144877947Y-78786723D01*
X145067432Y-79103000D01*
X144169001Y-79103000D01*
X143508001Y-78441999D01*
X143498001Y-78431999D01*
X143497998Y-78431997D01*
X143018001Y-77951999D01*
X142830808Y-77826922D01*
X142610000Y-77782999D01*
X142609995Y-77783000D01*
X141055000Y-77783000D01*
X141055000Y-77575750D01*
X140896250Y-77417000D01*
X140097000Y-77417000D01*
X140097000Y-77437000D01*
X139843000Y-77437000D01*
X139843000Y-77417000D01*
X139043750Y-77417000D01*
X138885000Y-77575750D01*
X138885000Y-77783000D01*
X135570005Y-77783000D01*
X135570000Y-77782999D01*
X135349192Y-77826922D01*
X135161999Y-77951999D01*
X135161997Y-77952002D01*
X134705365Y-78408633D01*
X134705365Y-77075000D01*
X134675591Y-76916763D01*
X134597523Y-76795442D01*
X134831131Y-76698918D01*
X134966594Y-76563691D01*
X138885000Y-76563691D01*
X138885000Y-77004250D01*
X139043750Y-77163000D01*
X139843000Y-77163000D01*
X139843000Y-76213750D01*
X140097000Y-76213750D01*
X140097000Y-77163000D01*
X140896250Y-77163000D01*
X141055000Y-77004250D01*
X141055000Y-76563691D01*
X140958327Y-76330302D01*
X140779699Y-76151673D01*
X140546310Y-76055000D01*
X140255750Y-76055000D01*
X140097000Y-76213750D01*
X139843000Y-76213750D01*
X139684250Y-76055000D01*
X139393690Y-76055000D01*
X139160301Y-76151673D01*
X138981673Y-76330302D01*
X138885000Y-76563691D01*
X134966594Y-76563691D01*
X135078051Y-76452429D01*
X135211847Y-76130211D01*
X135212151Y-75781319D01*
X135078918Y-75458869D01*
X134832429Y-75211949D01*
X134510211Y-75078153D01*
X134161319Y-75077849D01*
X133838869Y-75211082D01*
X133727000Y-75322756D01*
X133727000Y-74131469D01*
X133758237Y-74125591D01*
X133903567Y-74032073D01*
X134001064Y-73889381D01*
X134035365Y-73720000D01*
X134035365Y-73405750D01*
X135365000Y-73405750D01*
X135365000Y-73846310D01*
X135461673Y-74079699D01*
X135640302Y-74258327D01*
X135873691Y-74355000D01*
X136164250Y-74355000D01*
X136323000Y-74196250D01*
X136323000Y-73247000D01*
X136577000Y-73247000D01*
X136577000Y-74196250D01*
X136735750Y-74355000D01*
X137026309Y-74355000D01*
X137259698Y-74258327D01*
X137438327Y-74079699D01*
X137535000Y-73846310D01*
X137535000Y-73405750D01*
X137376250Y-73247000D01*
X136577000Y-73247000D01*
X136323000Y-73247000D01*
X135523750Y-73247000D01*
X135365000Y-73405750D01*
X134035365Y-73405750D01*
X134035365Y-72520000D01*
X134011599Y-72393690D01*
X135365000Y-72393690D01*
X135365000Y-72834250D01*
X135523750Y-72993000D01*
X136323000Y-72993000D01*
X136323000Y-72043750D01*
X136577000Y-72043750D01*
X136577000Y-72993000D01*
X137376250Y-72993000D01*
X137535000Y-72834250D01*
X137535000Y-72393690D01*
X137438327Y-72160301D01*
X137259698Y-71981673D01*
X137026309Y-71885000D01*
X136735750Y-71885000D01*
X136577000Y-72043750D01*
X136323000Y-72043750D01*
X136164250Y-71885000D01*
X135873691Y-71885000D01*
X135640302Y-71981673D01*
X135461673Y-72160301D01*
X135365000Y-72393690D01*
X134011599Y-72393690D01*
X134005591Y-72361763D01*
X133912073Y-72216433D01*
X133769381Y-72118936D01*
X133600000Y-72084635D01*
X132700000Y-72084635D01*
X132541763Y-72114409D01*
X132396433Y-72207927D01*
X132298936Y-72350619D01*
X132264635Y-72520000D01*
X132264635Y-72548000D01*
X122305005Y-72548000D01*
X122305000Y-72547999D01*
X122109328Y-72586922D01*
X122084192Y-72591922D01*
X121896999Y-72716999D01*
X121896997Y-72717002D01*
X121556999Y-73056999D01*
X121431922Y-73244192D01*
X121401001Y-73399635D01*
X121371891Y-73399635D01*
X121372151Y-73101319D01*
X121324048Y-72984899D01*
X121453237Y-72960591D01*
X121598567Y-72867073D01*
X121696064Y-72724381D01*
X121730365Y-72555000D01*
X121730365Y-71555000D01*
X121700591Y-71396763D01*
X121607073Y-71251433D01*
X121464381Y-71153936D01*
X121295000Y-71119635D01*
X119695000Y-71119635D01*
X119536763Y-71149409D01*
X119391433Y-71242927D01*
X119293936Y-71385619D01*
X119265103Y-71528000D01*
X119198517Y-71528000D01*
X119117073Y-71401433D01*
X118974381Y-71303936D01*
X118805000Y-71269635D01*
X117805000Y-71269635D01*
X117646763Y-71299409D01*
X117501433Y-71392927D01*
X117409142Y-71528000D01*
X116775000Y-71528000D01*
X116573326Y-71568115D01*
X116402355Y-71682354D01*
X115996710Y-72088000D01*
X115479759Y-72088000D01*
X115315000Y-72054635D01*
X115072661Y-72054635D01*
X114894698Y-71876673D01*
X114661309Y-71780000D01*
X114400750Y-71780000D01*
X114242000Y-71938750D01*
X114242000Y-73488000D01*
X114262000Y-73488000D01*
X114262000Y-73742000D01*
X114242000Y-73742000D01*
X114242000Y-74214009D01*
X114180000Y-74363690D01*
X114180000Y-74393750D01*
X114242000Y-74455750D01*
X114242000Y-74774250D01*
X114180000Y-74836250D01*
X114180000Y-74866310D01*
X114242000Y-75015991D01*
X114242000Y-75291250D01*
X114400750Y-75450000D01*
X114661309Y-75450000D01*
X114894698Y-75353327D01*
X115073327Y-75174699D01*
X115170000Y-74941310D01*
X115170000Y-74675365D01*
X115212000Y-74675365D01*
X115212000Y-74677500D01*
X115190000Y-74677500D01*
X115190000Y-75216250D01*
X115348750Y-75375000D01*
X115441309Y-75375000D01*
X115674698Y-75278327D01*
X115853327Y-75099699D01*
X115950000Y-74866310D01*
X115950000Y-74836250D01*
X115855752Y-74742002D01*
X115950000Y-74742002D01*
X115950000Y-74642000D01*
X116136710Y-74642000D01*
X116718000Y-75223290D01*
X116718000Y-76124123D01*
X116636763Y-76139409D01*
X116491433Y-76232927D01*
X116393936Y-76375619D01*
X116359635Y-76545000D01*
X116359635Y-77745000D01*
X116389409Y-77903237D01*
X116482927Y-78048567D01*
X116625619Y-78146064D01*
X116795000Y-78180365D01*
X117695000Y-78180365D01*
X117853237Y-78150591D01*
X117998567Y-78057073D01*
X118096064Y-77914381D01*
X118130365Y-77745000D01*
X118130365Y-77682000D01*
X123641801Y-77682000D01*
X123802571Y-77843051D01*
X124124789Y-77976847D01*
X124473681Y-77977151D01*
X124796131Y-77843918D01*
X125043051Y-77597429D01*
X125176847Y-77275211D01*
X125177151Y-76926319D01*
X125043918Y-76603869D01*
X124797429Y-76356949D01*
X124475211Y-76223153D01*
X124126319Y-76222849D01*
X123803869Y-76356082D01*
X123631650Y-76528000D01*
X122969444Y-76528000D01*
X122995365Y-76400000D01*
X122995365Y-75500000D01*
X122965591Y-75341763D01*
X122872073Y-75196433D01*
X122757797Y-75118352D01*
X122868567Y-75047073D01*
X122954719Y-74920986D01*
X123026673Y-75094699D01*
X123205302Y-75273327D01*
X123438691Y-75370000D01*
X123879250Y-75370000D01*
X124038000Y-75211250D01*
X124038000Y-74412000D01*
X124018000Y-74412000D01*
X124018000Y-74158000D01*
X124038000Y-74158000D01*
X124038000Y-74138000D01*
X124292000Y-74138000D01*
X124292000Y-74158000D01*
X125241250Y-74158000D01*
X125400000Y-73999250D01*
X125400000Y-73708690D01*
X125397229Y-73702000D01*
X132264635Y-73702000D01*
X132264635Y-73720000D01*
X132294409Y-73878237D01*
X132387927Y-74023567D01*
X132530619Y-74121064D01*
X132573000Y-74129646D01*
X132573000Y-76639635D01*
X132110000Y-76639635D01*
X131985593Y-76663044D01*
X131870000Y-76639635D01*
X131310000Y-76639635D01*
X131185593Y-76663044D01*
X131070000Y-76639635D01*
X130510000Y-76639635D01*
X130385593Y-76663044D01*
X130270000Y-76639635D01*
X130024477Y-76639635D01*
X130256131Y-76543918D01*
X130503051Y-76297429D01*
X130636847Y-75975211D01*
X130637151Y-75626319D01*
X130503918Y-75303869D01*
X130257429Y-75056949D01*
X129935211Y-74923153D01*
X129586319Y-74922849D01*
X129347227Y-75021639D01*
X129278327Y-74855301D01*
X129099698Y-74676673D01*
X128866309Y-74580000D01*
X128625750Y-74580000D01*
X128467000Y-74738750D01*
X128467000Y-75463000D01*
X128487000Y-75463000D01*
X128487000Y-75717000D01*
X128467000Y-75717000D01*
X128467000Y-76441250D01*
X128570750Y-76545000D01*
X128517000Y-76598750D01*
X128517000Y-76893817D01*
X128508936Y-76905619D01*
X128474635Y-77075000D01*
X128474635Y-78022000D01*
X128305365Y-78022000D01*
X128305365Y-77075000D01*
X128275591Y-76916763D01*
X128263000Y-76897196D01*
X128263000Y-76598750D01*
X128159250Y-76495000D01*
X128213000Y-76441250D01*
X128213000Y-75717000D01*
X128193000Y-75717000D01*
X128193000Y-75463000D01*
X128213000Y-75463000D01*
X128213000Y-74738750D01*
X128054250Y-74580000D01*
X127813691Y-74580000D01*
X127580302Y-74676673D01*
X127429376Y-74827598D01*
X127409381Y-74813936D01*
X127240000Y-74779635D01*
X126440000Y-74779635D01*
X126281763Y-74809409D01*
X126158886Y-74888479D01*
X126117429Y-74846949D01*
X125795211Y-74713153D01*
X125446319Y-74712849D01*
X125400000Y-74731988D01*
X125400000Y-74570750D01*
X125241250Y-74412000D01*
X124292000Y-74412000D01*
X124292000Y-75211250D01*
X124450750Y-75370000D01*
X124761751Y-75370000D01*
X124743153Y-75414789D01*
X124742849Y-75763681D01*
X124876082Y-76086131D01*
X125122571Y-76333051D01*
X125444789Y-76466847D01*
X125793681Y-76467151D01*
X126116131Y-76333918D01*
X126159788Y-76290337D01*
X126270619Y-76366064D01*
X126301244Y-76372266D01*
X126306922Y-76400808D01*
X126431999Y-76588001D01*
X126487809Y-76643811D01*
X126385593Y-76663044D01*
X126270000Y-76639635D01*
X125710000Y-76639635D01*
X125551763Y-76669409D01*
X125406433Y-76762927D01*
X125308936Y-76905619D01*
X125274635Y-77075000D01*
X125274635Y-78623000D01*
X125000000Y-78623000D01*
X124953841Y-78631685D01*
X124911447Y-78658965D01*
X124883006Y-78700590D01*
X124873000Y-78750000D01*
X124873000Y-79009635D01*
X123340000Y-79009635D01*
X123181763Y-79039409D01*
X123036433Y-79132927D01*
X123026134Y-79148000D01*
X122545000Y-79148000D01*
X122324192Y-79191922D01*
X122136999Y-79316999D01*
X122136997Y-79317002D01*
X121175998Y-80278000D01*
X117966046Y-80278000D01*
X117998567Y-80257073D01*
X118096064Y-80114381D01*
X118130365Y-79945000D01*
X118130365Y-78745000D01*
X118100591Y-78586763D01*
X118007073Y-78441433D01*
X117864381Y-78343936D01*
X117695000Y-78309635D01*
X116795000Y-78309635D01*
X116636763Y-78339409D01*
X116491433Y-78432927D01*
X116393936Y-78575619D01*
X116360579Y-78740340D01*
X116222429Y-78601949D01*
X115900211Y-78468153D01*
X115551319Y-78467849D01*
X115228869Y-78601082D01*
X114981949Y-78847571D01*
X114848153Y-79169789D01*
X114847849Y-79518681D01*
X114981082Y-79841131D01*
X115227571Y-80088051D01*
X115549789Y-80221847D01*
X115898681Y-80222151D01*
X116221131Y-80088918D01*
X116360531Y-79949761D01*
X116389409Y-80103237D01*
X116482927Y-80248567D01*
X116526004Y-80278000D01*
X109102032Y-80278000D01*
X109102151Y-80141319D01*
X108968918Y-79818869D01*
X108722429Y-79571949D01*
X108501869Y-79480365D01*
X108575000Y-79480365D01*
X108733237Y-79450591D01*
X108878567Y-79357073D01*
X108964719Y-79230986D01*
X109036673Y-79404699D01*
X109215302Y-79583327D01*
X109448691Y-79680000D01*
X109889250Y-79680000D01*
X110048000Y-79521250D01*
X110048000Y-78722000D01*
X110028000Y-78722000D01*
X110028000Y-78468000D01*
X110048000Y-78468000D01*
X110048000Y-78448000D01*
X110302000Y-78448000D01*
X110302000Y-78468000D01*
X110322000Y-78468000D01*
X110322000Y-78722000D01*
X110302000Y-78722000D01*
X110302000Y-79521250D01*
X110460750Y-79680000D01*
X110901309Y-79680000D01*
X111134698Y-79583327D01*
X111178850Y-79539175D01*
X111267571Y-79628051D01*
X111589789Y-79761847D01*
X111938681Y-79762151D01*
X112261131Y-79628918D01*
X112508051Y-79382429D01*
X112641847Y-79060211D01*
X112642151Y-78711319D01*
X112508918Y-78388869D01*
X112262429Y-78141949D01*
X112049414Y-78053498D01*
X112945714Y-78051999D01*
X113100196Y-78022798D01*
X113242735Y-77931077D01*
X113338358Y-77791127D01*
X113372000Y-77625000D01*
X113372000Y-76882000D01*
X113472000Y-76882000D01*
X113472000Y-77606250D01*
X113630750Y-77765000D01*
X113871309Y-77765000D01*
X114104698Y-77668327D01*
X114283327Y-77489699D01*
X114380000Y-77256310D01*
X114380000Y-77040750D01*
X114221250Y-76882000D01*
X113472000Y-76882000D01*
X113372000Y-76882000D01*
X113372000Y-76608000D01*
X113472000Y-76608000D01*
X113472000Y-76628000D01*
X114221250Y-76628000D01*
X114380000Y-76469250D01*
X114380000Y-76253690D01*
X114283327Y-76020301D01*
X114104698Y-75841673D01*
X113871309Y-75745000D01*
X113630750Y-75745000D01*
X113472002Y-75903748D01*
X113472002Y-75745000D01*
X113346908Y-75745000D01*
X113338711Y-75704300D01*
X113243384Y-75564147D01*
X113101041Y-75472124D01*
X112934110Y-75442730D01*
X111594218Y-75476912D01*
X111599836Y-74364681D01*
X112280000Y-74368959D01*
X112280000Y-74393750D01*
X112299403Y-74413153D01*
X112376673Y-74599699D01*
X112454474Y-74677500D01*
X112438750Y-74677500D01*
X112280000Y-74836250D01*
X112280000Y-74866310D01*
X112376673Y-75099699D01*
X112555302Y-75278327D01*
X112788691Y-75375000D01*
X112881250Y-75375000D01*
X113040000Y-75216250D01*
X113040000Y-74875000D01*
X113060000Y-74875000D01*
X113060000Y-74941310D01*
X113156673Y-75174699D01*
X113335302Y-75353327D01*
X113568691Y-75450000D01*
X113829250Y-75450000D01*
X113988000Y-75291250D01*
X113988000Y-75015991D01*
X114050000Y-74866310D01*
X114050000Y-74836250D01*
X113988000Y-74774250D01*
X113988000Y-74515991D01*
X114030597Y-74413153D01*
X114050000Y-74393750D01*
X114050000Y-74336250D01*
X114030597Y-74316847D01*
X113988000Y-74214009D01*
X113988000Y-73955750D01*
X114050000Y-73893750D01*
X114050000Y-73863690D01*
X113987000Y-73711595D01*
X113987000Y-73488000D01*
X113988000Y-73488000D01*
X113988000Y-73015991D01*
X114050000Y-72866310D01*
X114050000Y-72836250D01*
X113988000Y-72774250D01*
X113988000Y-72455750D01*
X114050000Y-72393750D01*
X114050000Y-72363690D01*
X113988000Y-72214009D01*
X113988000Y-71938750D01*
X113829250Y-71780000D01*
X113568691Y-71780000D01*
X113488951Y-71813029D01*
X112772000Y-71813328D01*
X112772000Y-69340750D01*
X119060000Y-69340750D01*
X119060000Y-69681309D01*
X119156673Y-69914698D01*
X119335301Y-70093327D01*
X119568690Y-70190000D01*
X120209250Y-70190000D01*
X120368000Y-70031250D01*
X120368000Y-69182000D01*
X120622000Y-69182000D01*
X120622000Y-70031250D01*
X120780750Y-70190000D01*
X121421310Y-70190000D01*
X121654699Y-70093327D01*
X121833327Y-69914698D01*
X121930000Y-69681309D01*
X121930000Y-69340750D01*
X121771250Y-69182000D01*
X120622000Y-69182000D01*
X120368000Y-69182000D01*
X119218750Y-69182000D01*
X119060000Y-69340750D01*
X112772000Y-69340750D01*
X112772000Y-68155750D01*
X112860000Y-68155750D01*
X112860000Y-68496310D01*
X112956673Y-68729699D01*
X113135302Y-68908327D01*
X113368691Y-69005000D01*
X113709250Y-69005000D01*
X113868000Y-68846250D01*
X113868000Y-67997000D01*
X114122000Y-67997000D01*
X114122000Y-68846250D01*
X114280750Y-69005000D01*
X114621309Y-69005000D01*
X114854698Y-68908327D01*
X115033327Y-68729699D01*
X115130000Y-68496310D01*
X115130000Y-68428691D01*
X119060000Y-68428691D01*
X119060000Y-68769250D01*
X119218750Y-68928000D01*
X120368000Y-68928000D01*
X120368000Y-68078750D01*
X120622000Y-68078750D01*
X120622000Y-68928000D01*
X121771250Y-68928000D01*
X121930000Y-68769250D01*
X121930000Y-68428691D01*
X121833327Y-68195302D01*
X121654699Y-68016673D01*
X121421310Y-67920000D01*
X120780750Y-67920000D01*
X120622000Y-68078750D01*
X120368000Y-68078750D01*
X120209250Y-67920000D01*
X119568690Y-67920000D01*
X119335301Y-68016673D01*
X119156673Y-68195302D01*
X119060000Y-68428691D01*
X115130000Y-68428691D01*
X115130000Y-68155750D01*
X114971250Y-67997000D01*
X114122000Y-67997000D01*
X113868000Y-67997000D01*
X113018750Y-67997000D01*
X112860000Y-68155750D01*
X112772000Y-68155750D01*
X112772000Y-67243690D01*
X112860000Y-67243690D01*
X112860000Y-67584250D01*
X113018750Y-67743000D01*
X113868000Y-67743000D01*
X113868000Y-66893750D01*
X114122000Y-66893750D01*
X114122000Y-67743000D01*
X114971250Y-67743000D01*
X115130000Y-67584250D01*
X115130000Y-67243690D01*
X115033327Y-67010301D01*
X114946708Y-66923682D01*
X136522406Y-66923682D01*
X137043037Y-68183704D01*
X138006226Y-69148575D01*
X139265337Y-69671404D01*
X140628682Y-69672594D01*
X141888704Y-69151963D01*
X142853575Y-68188774D01*
X143376404Y-66929663D01*
X143377594Y-65566318D01*
X142856963Y-64306296D01*
X141893774Y-63341425D01*
X140634663Y-62818596D01*
X139271318Y-62817406D01*
X138011296Y-63338037D01*
X137046425Y-64301226D01*
X136523596Y-65560337D01*
X136522406Y-66923682D01*
X114946708Y-66923682D01*
X114854698Y-66831673D01*
X114621309Y-66735000D01*
X114280750Y-66735000D01*
X114122000Y-66893750D01*
X113868000Y-66893750D01*
X113709250Y-66735000D01*
X113368691Y-66735000D01*
X113135302Y-66831673D01*
X112956673Y-67010301D01*
X112860000Y-67243690D01*
X112772000Y-67243690D01*
X112772000Y-63645000D01*
X112742798Y-63489804D01*
X112651077Y-63347265D01*
X112511127Y-63251642D01*
X112345000Y-63218000D01*
X101745000Y-63218000D01*
X101589804Y-63247202D01*
X101447265Y-63338923D01*
X101351642Y-63478873D01*
X101318000Y-63645000D01*
X101318000Y-71845000D01*
X101326125Y-71888178D01*
X101247265Y-71938923D01*
X101151642Y-72078873D01*
X101118000Y-72245000D01*
X101118000Y-75818000D01*
X100869239Y-75818000D01*
X100930000Y-75671310D01*
X100930000Y-75030750D01*
X100771250Y-74872000D01*
X98922000Y-74872000D01*
X98922000Y-76021250D01*
X99080750Y-76180000D01*
X99331163Y-76180000D01*
X99318000Y-76245000D01*
X99318000Y-78618000D01*
X97745000Y-78618000D01*
X97638665Y-78640640D01*
X97629698Y-78631673D01*
X97396309Y-78535000D01*
X97155750Y-78535000D01*
X96997000Y-78693750D01*
X96997000Y-79418000D01*
X97017000Y-79418000D01*
X97017000Y-79672000D01*
X96997000Y-79672000D01*
X96997000Y-79692000D01*
X96743000Y-79692000D01*
X96743000Y-79672000D01*
X95993750Y-79672000D01*
X95835000Y-79830750D01*
X95835000Y-80046310D01*
X95867870Y-80125664D01*
X95847265Y-80138923D01*
X95836909Y-80154080D01*
X95829381Y-80148936D01*
X95660000Y-80114635D01*
X94737000Y-80114635D01*
X94737000Y-80060005D01*
X94737001Y-80060000D01*
X94724752Y-79998422D01*
X94746847Y-79945211D01*
X94747151Y-79596319D01*
X94684778Y-79445365D01*
X95660000Y-79445365D01*
X95818237Y-79415591D01*
X95923564Y-79347814D01*
X95993750Y-79418000D01*
X96743000Y-79418000D01*
X96743000Y-78693750D01*
X96584250Y-78535000D01*
X96401002Y-78535000D01*
X96789055Y-78146947D01*
X97023681Y-78147151D01*
X97346131Y-78013918D01*
X97593051Y-77767429D01*
X97726847Y-77445211D01*
X97727151Y-77096319D01*
X97593918Y-76773869D01*
X97347429Y-76526949D01*
X97025211Y-76393153D01*
X96676319Y-76392849D01*
X96353869Y-76526082D01*
X96106949Y-76772571D01*
X95973153Y-77094789D01*
X95972947Y-77331051D01*
X95717682Y-77586316D01*
X95660000Y-77574635D01*
X94962516Y-77574635D01*
X95086847Y-77275211D01*
X95087151Y-76926319D01*
X95078493Y-76905365D01*
X95660000Y-76905365D01*
X95818237Y-76875591D01*
X95963567Y-76782073D01*
X96061064Y-76639381D01*
X96095365Y-76470000D01*
X96095365Y-75470000D01*
X96065591Y-75311763D01*
X95972073Y-75166433D01*
X95829381Y-75068936D01*
X95660000Y-75034635D01*
X92660000Y-75034635D01*
X92501763Y-75064409D01*
X92356433Y-75157927D01*
X92258936Y-75300619D01*
X92224635Y-75470000D01*
X92224635Y-76470000D01*
X92254409Y-76628237D01*
X92347927Y-76773567D01*
X92490619Y-76871064D01*
X92660000Y-76905365D01*
X93341219Y-76905365D01*
X93333153Y-76924789D01*
X93332849Y-77273681D01*
X93457200Y-77574635D01*
X92660000Y-77574635D01*
X92501763Y-77604409D01*
X92356433Y-77697927D01*
X92258936Y-77840619D01*
X92224635Y-78010000D01*
X92224635Y-79010000D01*
X92254409Y-79168237D01*
X92347927Y-79313567D01*
X92490619Y-79411064D01*
X92660000Y-79445365D01*
X93055199Y-79445365D01*
X92993153Y-79594789D01*
X92992849Y-79943681D01*
X93063485Y-80114635D01*
X92660000Y-80114635D01*
X92501763Y-80144409D01*
X92356433Y-80237927D01*
X92258936Y-80380619D01*
X92233522Y-80506115D01*
X92194294Y-80513918D01*
X92179192Y-80516922D01*
X91991999Y-80641999D01*
X91991997Y-80642002D01*
X91627000Y-81006998D01*
X91627000Y-75030750D01*
X96660000Y-75030750D01*
X96660000Y-75671310D01*
X96756673Y-75904699D01*
X96935302Y-76083327D01*
X97168691Y-76180000D01*
X98509250Y-76180000D01*
X98668000Y-76021250D01*
X98668000Y-74872000D01*
X96818750Y-74872000D01*
X96660000Y-75030750D01*
X91627000Y-75030750D01*
X91627000Y-74409002D01*
X92029002Y-74007000D01*
X92239123Y-74007000D01*
X92254409Y-74088237D01*
X92347927Y-74233567D01*
X92490619Y-74331064D01*
X92660000Y-74365365D01*
X95660000Y-74365365D01*
X95818237Y-74335591D01*
X95963567Y-74242073D01*
X96052111Y-74112485D01*
X96112571Y-74173051D01*
X96434789Y-74306847D01*
X96660000Y-74307043D01*
X96660000Y-74459250D01*
X96818750Y-74618000D01*
X98668000Y-74618000D01*
X98668000Y-73468750D01*
X98922000Y-73468750D01*
X98922000Y-74618000D01*
X100771250Y-74618000D01*
X100930000Y-74459250D01*
X100930000Y-73818690D01*
X100833327Y-73585301D01*
X100654698Y-73406673D01*
X100421309Y-73310000D01*
X99080750Y-73310000D01*
X98922000Y-73468750D01*
X98668000Y-73468750D01*
X98509250Y-73310000D01*
X97487104Y-73310000D01*
X97487151Y-73256319D01*
X97353918Y-72933869D01*
X97107429Y-72686949D01*
X96785211Y-72553153D01*
X96436319Y-72552849D01*
X96113869Y-72686082D01*
X96050903Y-72748938D01*
X95972073Y-72626433D01*
X95829381Y-72528936D01*
X95660000Y-72494635D01*
X92660000Y-72494635D01*
X92501763Y-72524409D01*
X92356433Y-72617927D01*
X92258936Y-72760619D01*
X92240228Y-72853000D01*
X91790005Y-72853000D01*
X91790000Y-72852999D01*
X91569192Y-72896922D01*
X91381999Y-73021999D01*
X91101000Y-73302998D01*
X91096252Y-73302998D01*
X91255000Y-73144250D01*
X91255000Y-72803690D01*
X91158327Y-72570301D01*
X90979698Y-72391673D01*
X90746309Y-72295000D01*
X89405750Y-72295000D01*
X89247000Y-72453750D01*
X89247000Y-73303000D01*
X89267000Y-73303000D01*
X89267000Y-73557000D01*
X89247000Y-73557000D01*
X89247000Y-74406250D01*
X89405750Y-74565000D01*
X90473000Y-74565000D01*
X90473000Y-75034635D01*
X87620000Y-75034635D01*
X87461763Y-75064409D01*
X87447000Y-75073909D01*
X87447000Y-74545660D01*
X87493691Y-74565000D01*
X88834250Y-74565000D01*
X88993000Y-74406250D01*
X88993000Y-73557000D01*
X88973000Y-73557000D01*
X88973000Y-73303000D01*
X88993000Y-73303000D01*
X88993000Y-72453750D01*
X88834250Y-72295000D01*
X87493691Y-72295000D01*
X87447000Y-72314340D01*
X87447000Y-66923682D01*
X88517406Y-66923682D01*
X89038037Y-68183704D01*
X90001226Y-69148575D01*
X91260337Y-69671404D01*
X92623682Y-69672594D01*
X93883704Y-69151963D01*
X94848575Y-68188774D01*
X95371404Y-66929663D01*
X95372594Y-65566318D01*
X94851963Y-64306296D01*
X93888774Y-63341425D01*
X92629663Y-62818596D01*
X91266318Y-62817406D01*
X90006296Y-63338037D01*
X89041425Y-64301226D01*
X88518596Y-65560337D01*
X88517406Y-66923682D01*
X87447000Y-66923682D01*
X87447000Y-61747000D01*
X144350188Y-61747000D01*
X144355338Y-71284904D01*
G36*
X99293750Y-81953000D02*
X100418000Y-81953000D01*
X100418000Y-81933000D01*
X100672000Y-81933000D01*
X100672000Y-81953000D01*
X100692000Y-81953000D01*
X100692000Y-82207000D01*
X100672000Y-82207000D01*
X100672000Y-82227000D01*
X100418000Y-82227000D01*
X100418000Y-82207000D01*
X99293750Y-82207000D01*
X99135000Y-82365750D01*
X99135000Y-82418000D01*
X98972000Y-82418000D01*
X98972000Y-81872000D01*
X99212750Y-81872000D01*
X99293750Y-81953000D01*
X99293750Y-81953000D01*
G37*
X99293750Y-81953000D02*
X100418000Y-81953000D01*
X100418000Y-81933000D01*
X100672000Y-81933000D01*
X100672000Y-81953000D01*
X100692000Y-81953000D01*
X100692000Y-82207000D01*
X100672000Y-82207000D01*
X100672000Y-82227000D01*
X100418000Y-82227000D01*
X100418000Y-82207000D01*
X99293750Y-82207000D01*
X99135000Y-82365750D01*
X99135000Y-82418000D01*
X98972000Y-82418000D01*
X98972000Y-81872000D01*
X99212750Y-81872000D01*
X99293750Y-81953000D01*
M02*
