G04 #@! TF.FileFunction,Other,Fab,Top*
%FSLAX46Y46*%
G04 Gerber Fmt 4.6, Leading zero omitted, Abs format (unit mm)*
G04 Created by KiCad (PCBNEW 4.0.4-stable) date 02/07/17 14:21:35*
%MOMM*%
%LPD*%
G01*
G04 APERTURE LIST*
%ADD10C,0.100000*%
%ADD11C,0.150000*%
G04 APERTURE END LIST*
D10*
D11*
X134990000Y-79725000D02*
X134990000Y-88725000D01*
X134990000Y-88725000D02*
X124990000Y-88725000D01*
X124990000Y-88725000D02*
X124990000Y-78725000D01*
X124990000Y-78725000D02*
X133990000Y-78725000D01*
X133990000Y-78725000D02*
X134990000Y-79725000D01*
D10*
X98485000Y-72255000D02*
X98485000Y-77285000D01*
X102835000Y-72255000D02*
X98485000Y-72255000D01*
X103505000Y-72925000D02*
X102835000Y-72255000D01*
X103505000Y-76615000D02*
X103505000Y-72925000D01*
X102835000Y-77285000D02*
X103505000Y-76615000D01*
X98485000Y-77285000D02*
X102835000Y-77285000D01*
X98420000Y-79145000D02*
X98420000Y-79945000D01*
X96820000Y-79145000D02*
X98420000Y-79145000D01*
X96820000Y-79945000D02*
X96820000Y-79145000D01*
X98420000Y-79945000D02*
X96820000Y-79945000D01*
X111795000Y-77155000D02*
X111795000Y-76355000D01*
X113395000Y-77155000D02*
X111795000Y-77155000D01*
X113395000Y-76355000D02*
X113395000Y-77155000D01*
X111795000Y-76355000D02*
X113395000Y-76355000D01*
X121295000Y-72155000D02*
X119695000Y-72155000D01*
X121295000Y-68955000D02*
X121295000Y-72155000D01*
X119695000Y-68955000D02*
X121295000Y-68955000D01*
X119695000Y-72155000D02*
X119695000Y-68955000D01*
X110265000Y-89225000D02*
X110265000Y-88425000D01*
X111865000Y-89225000D02*
X110265000Y-89225000D01*
X111865000Y-88425000D02*
X111865000Y-89225000D01*
X110265000Y-88425000D02*
X111865000Y-88425000D01*
X109225000Y-93005000D02*
X109225000Y-92205000D01*
X110825000Y-93005000D02*
X109225000Y-93005000D01*
X110825000Y-92205000D02*
X110825000Y-93005000D01*
X109225000Y-92205000D02*
X110825000Y-92205000D01*
X109235000Y-94555000D02*
X109235000Y-93755000D01*
X110835000Y-94555000D02*
X109235000Y-94555000D01*
X110835000Y-93755000D02*
X110835000Y-94555000D01*
X109235000Y-93755000D02*
X110835000Y-93755000D01*
X128390000Y-75190000D02*
X128390000Y-75990000D01*
X126790000Y-75190000D02*
X128390000Y-75190000D01*
X126790000Y-75990000D02*
X126790000Y-75190000D01*
X128390000Y-75990000D02*
X126790000Y-75990000D01*
X132785000Y-92885000D02*
X131985000Y-92885000D01*
X132785000Y-91285000D02*
X132785000Y-92885000D01*
X131985000Y-91285000D02*
X132785000Y-91285000D01*
X131985000Y-92885000D02*
X131985000Y-91285000D01*
X120825000Y-86165000D02*
X120825000Y-85365000D01*
X122425000Y-86165000D02*
X120825000Y-86165000D01*
X122425000Y-85365000D02*
X122425000Y-86165000D01*
X120825000Y-85365000D02*
X122425000Y-85365000D01*
X139415000Y-83315000D02*
X139415000Y-84115000D01*
X137815000Y-83315000D02*
X139415000Y-83315000D01*
X137815000Y-84115000D02*
X137815000Y-83315000D01*
X139415000Y-84115000D02*
X137815000Y-84115000D01*
X135295000Y-91865000D02*
X136095000Y-91865000D01*
X135295000Y-93465000D02*
X135295000Y-91865000D01*
X136095000Y-93465000D02*
X135295000Y-93465000D01*
X136095000Y-91865000D02*
X136095000Y-93465000D01*
X141805000Y-84215000D02*
X142605000Y-84215000D01*
X141805000Y-85815000D02*
X141805000Y-84215000D01*
X142605000Y-85815000D02*
X141805000Y-85815000D01*
X142605000Y-84215000D02*
X142605000Y-85815000D01*
X112945000Y-67870000D02*
X113195000Y-67870000D01*
X112945000Y-68220000D02*
X112445000Y-67870000D01*
X112945000Y-67520000D02*
X112945000Y-68220000D01*
X112445000Y-67870000D02*
X112945000Y-67520000D01*
X112445000Y-67870000D02*
X112245000Y-67870000D01*
X112445000Y-67520000D02*
X112445000Y-68220000D01*
X111845000Y-68570000D02*
X111845000Y-67170000D01*
X113645000Y-68570000D02*
X111845000Y-68570000D01*
X113645000Y-67170000D02*
X113645000Y-68570000D01*
X111845000Y-67170000D02*
X113645000Y-67170000D01*
X109875000Y-78195000D02*
X109875000Y-78995000D01*
X108275000Y-78195000D02*
X109875000Y-78195000D01*
X108275000Y-78995000D02*
X108275000Y-78195000D01*
X109875000Y-78995000D02*
X108275000Y-78995000D01*
X117645000Y-79045000D02*
X116845000Y-79045000D01*
X117645000Y-77445000D02*
X117645000Y-79045000D01*
X116845000Y-77445000D02*
X117645000Y-77445000D01*
X116845000Y-79045000D02*
X116845000Y-77445000D01*
X110000000Y-87130000D02*
X110000000Y-87930000D01*
X108400000Y-87130000D02*
X110000000Y-87130000D01*
X108400000Y-87930000D02*
X108400000Y-87130000D01*
X110000000Y-87930000D02*
X108400000Y-87930000D01*
X108400000Y-86380000D02*
X108400000Y-85580000D01*
X110000000Y-86380000D02*
X108400000Y-86380000D01*
X110000000Y-85580000D02*
X110000000Y-86380000D01*
X108400000Y-85580000D02*
X110000000Y-85580000D01*
X112705000Y-92995000D02*
X111905000Y-92995000D01*
X112705000Y-91395000D02*
X112705000Y-92995000D01*
X111905000Y-91395000D02*
X112705000Y-91395000D01*
X111905000Y-92995000D02*
X111905000Y-91395000D01*
X133585000Y-91865000D02*
X134385000Y-91865000D01*
X133585000Y-93465000D02*
X133585000Y-91865000D01*
X134385000Y-93465000D02*
X133585000Y-93465000D01*
X134385000Y-91865000D02*
X134385000Y-93465000D01*
X138495000Y-86520000D02*
X138495000Y-85720000D01*
X140095000Y-86520000D02*
X138495000Y-86520000D01*
X140095000Y-85720000D02*
X140095000Y-86520000D01*
X138495000Y-85720000D02*
X140095000Y-85720000D01*
X127915000Y-94715000D02*
X127915000Y-95515000D01*
X126315000Y-94715000D02*
X127915000Y-94715000D01*
X126315000Y-95515000D02*
X126315000Y-94715000D01*
X127915000Y-95515000D02*
X126315000Y-95515000D01*
X127925000Y-93055000D02*
X127925000Y-93855000D01*
X126325000Y-93055000D02*
X127925000Y-93055000D01*
X126325000Y-93855000D02*
X126325000Y-93055000D01*
X127925000Y-93855000D02*
X126325000Y-93855000D01*
X122265000Y-74685000D02*
X122265000Y-73885000D01*
X123865000Y-74685000D02*
X122265000Y-74685000D01*
X123865000Y-73885000D02*
X123865000Y-74685000D01*
X122265000Y-73885000D02*
X123865000Y-73885000D01*
X120060000Y-76350000D02*
X120060000Y-75550000D01*
X121660000Y-76350000D02*
X120060000Y-76350000D01*
X121660000Y-75550000D02*
X121660000Y-76350000D01*
X120060000Y-75550000D02*
X121660000Y-75550000D01*
X110480000Y-98290000D02*
X110480000Y-97490000D01*
X112080000Y-98290000D02*
X110480000Y-98290000D01*
X112080000Y-97490000D02*
X112080000Y-98290000D01*
X110480000Y-97490000D02*
X112080000Y-97490000D01*
X116850000Y-97500000D02*
X116850000Y-98300000D01*
X115250000Y-97500000D02*
X116850000Y-97500000D01*
X115250000Y-98300000D02*
X115250000Y-97500000D01*
X116850000Y-98300000D02*
X115250000Y-98300000D01*
D11*
X104195000Y-83895000D02*
X101295000Y-83895000D01*
X101295000Y-83895000D02*
X101295000Y-78995000D01*
X101295000Y-78995000D02*
X105195000Y-78995000D01*
X105195000Y-78995000D02*
X105195000Y-82895000D01*
X105195000Y-82895000D02*
X104195000Y-83895000D01*
X98710000Y-85550000D02*
X105210000Y-85550000D01*
X105210000Y-85550000D02*
X105210000Y-95850000D01*
X105210000Y-95850000D02*
X97710000Y-95850000D01*
X97710000Y-95850000D02*
X97710000Y-86550000D01*
X97710000Y-86550000D02*
X98710000Y-85550000D01*
D10*
X122840000Y-99210000D02*
X122340000Y-98710000D01*
X122840000Y-100510000D02*
X122840000Y-99210000D01*
X122340000Y-98710000D02*
X119740000Y-98710000D01*
X119740000Y-100510000D02*
X119740000Y-98710000D01*
X122840000Y-100510000D02*
X119740000Y-100510000D01*
X88140000Y-86150000D02*
X88640000Y-86650000D01*
X88140000Y-84850000D02*
X88140000Y-86150000D01*
X88640000Y-86650000D02*
X91240000Y-86650000D01*
X91240000Y-84850000D02*
X91240000Y-86650000D01*
X88140000Y-84850000D02*
X91240000Y-84850000D01*
X115615000Y-71865000D02*
X115615000Y-75365000D01*
X115615000Y-75365000D02*
X112615000Y-75365000D01*
X112615000Y-75365000D02*
X112615000Y-71865000D01*
X112615000Y-71865000D02*
X115615000Y-71865000D01*
D11*
X120780000Y-92610000D02*
X122780000Y-92610000D01*
X122780000Y-92610000D02*
X122780000Y-95610000D01*
X122780000Y-95610000D02*
X119780000Y-95610000D01*
X119780000Y-95610000D02*
X119780000Y-93610000D01*
X119780000Y-93610000D02*
X120780000Y-92610000D01*
D10*
X94180000Y-82320000D02*
X94180000Y-72160000D01*
X94180000Y-72160000D02*
X89100000Y-72160000D01*
X89100000Y-72160000D02*
X89100000Y-82320000D01*
X89100000Y-82320000D02*
X94180000Y-82320000D01*
X94180000Y-81370000D02*
X94180000Y-80730000D01*
X94180000Y-80730000D02*
X95560000Y-80730000D01*
X95560000Y-80730000D02*
X95560000Y-81370000D01*
X95560000Y-81370000D02*
X94180000Y-81370000D01*
X89100000Y-81370000D02*
X89100000Y-80730000D01*
X89100000Y-80730000D02*
X87720000Y-80730000D01*
X87720000Y-80730000D02*
X87720000Y-81370000D01*
X87720000Y-81370000D02*
X89100000Y-81370000D01*
X94180000Y-78830000D02*
X94180000Y-78190000D01*
X94180000Y-78190000D02*
X95560000Y-78190000D01*
X95560000Y-78190000D02*
X95560000Y-78830000D01*
X95560000Y-78830000D02*
X94180000Y-78830000D01*
X89100000Y-78830000D02*
X89100000Y-78190000D01*
X89100000Y-78190000D02*
X87720000Y-78190000D01*
X87720000Y-78190000D02*
X87720000Y-78830000D01*
X87720000Y-78830000D02*
X89100000Y-78830000D01*
X94180000Y-76290000D02*
X94180000Y-75650000D01*
X94180000Y-75650000D02*
X95560000Y-75650000D01*
X95560000Y-75650000D02*
X95560000Y-76290000D01*
X95560000Y-76290000D02*
X94180000Y-76290000D01*
X89100000Y-76290000D02*
X89100000Y-75650000D01*
X89100000Y-75650000D02*
X87720000Y-75650000D01*
X87720000Y-75650000D02*
X87720000Y-76290000D01*
X87720000Y-76290000D02*
X89100000Y-76290000D01*
X94180000Y-73750000D02*
X94180000Y-73110000D01*
X94180000Y-73110000D02*
X95560000Y-73110000D01*
X95560000Y-73110000D02*
X95560000Y-73750000D01*
X95560000Y-73750000D02*
X94180000Y-73750000D01*
X89100000Y-73750000D02*
X89100000Y-73110000D01*
X89100000Y-73110000D02*
X87720000Y-73110000D01*
X87720000Y-73110000D02*
X87720000Y-73750000D01*
X87720000Y-73750000D02*
X89100000Y-73750000D01*
X105270000Y-106600000D02*
X115430000Y-106600000D01*
X115430000Y-106600000D02*
X115430000Y-104060000D01*
X115430000Y-104060000D02*
X105270000Y-104060000D01*
X105270000Y-104060000D02*
X105270000Y-106600000D01*
X117090000Y-91860000D02*
X117090000Y-91060000D01*
X118690000Y-91860000D02*
X117090000Y-91860000D01*
X118690000Y-91060000D02*
X118690000Y-91860000D01*
X117090000Y-91060000D02*
X118690000Y-91060000D01*
X124530000Y-91340000D02*
X124530000Y-92140000D01*
X122930000Y-91340000D02*
X124530000Y-91340000D01*
X122930000Y-92140000D02*
X122930000Y-91340000D01*
X124530000Y-92140000D02*
X122930000Y-92140000D01*
X135050000Y-73120000D02*
X135550000Y-73120000D01*
X135050000Y-73520000D02*
X134450000Y-73120000D01*
X135050000Y-72720000D02*
X135050000Y-73520000D01*
X134450000Y-73120000D02*
X135050000Y-72720000D01*
X134450000Y-73120000D02*
X134450000Y-73670000D01*
X134450000Y-73120000D02*
X134450000Y-72570000D01*
X134050000Y-73120000D02*
X134450000Y-73120000D01*
X133400000Y-74020000D02*
X133400000Y-72220000D01*
X136200000Y-74020000D02*
X133400000Y-74020000D01*
X136200000Y-72220000D02*
X136200000Y-74020000D01*
X133400000Y-72220000D02*
X136200000Y-72220000D01*
X127090000Y-106550000D02*
X134710000Y-106550000D01*
X134710000Y-106550000D02*
X134710000Y-101470000D01*
X134710000Y-101470000D02*
X127090000Y-101470000D01*
X127090000Y-101470000D02*
X127090000Y-106550000D01*
X116190000Y-106600000D02*
X126350000Y-106600000D01*
X126350000Y-106600000D02*
X126350000Y-104060000D01*
X126350000Y-104060000D02*
X116190000Y-104060000D01*
X116190000Y-104060000D02*
X116190000Y-106600000D01*
X140370000Y-79190000D02*
X139570000Y-79190000D01*
X140370000Y-77590000D02*
X140370000Y-79190000D01*
X139570000Y-77590000D02*
X140370000Y-77590000D01*
X139570000Y-79190000D02*
X139570000Y-77590000D01*
X144430000Y-84510000D02*
X145230000Y-84510000D01*
X144430000Y-86110000D02*
X144430000Y-84510000D01*
X145230000Y-86110000D02*
X144430000Y-86110000D01*
X145230000Y-84510000D02*
X145230000Y-86110000D01*
X150147000Y-79670000D02*
X147226000Y-79670000D01*
X150147000Y-78400000D02*
X147226000Y-78400000D01*
X150147000Y-77130000D02*
X147226000Y-77130000D01*
X155100000Y-76114000D02*
X150147000Y-76114000D01*
X150147000Y-76114000D02*
X150147000Y-80686000D01*
X150147000Y-80686000D02*
X155100000Y-80686000D01*
X155100000Y-80686000D02*
X155100000Y-76114000D01*
D11*
X144426191Y-95535714D02*
X144426191Y-96345238D01*
X144378572Y-96440476D01*
X144330953Y-96488095D01*
X144235714Y-96535714D01*
X144092857Y-96535714D01*
X143997619Y-96488095D01*
X144426191Y-96154762D02*
X144330953Y-96202381D01*
X144140476Y-96202381D01*
X144045238Y-96154762D01*
X143997619Y-96107143D01*
X143950000Y-96011905D01*
X143950000Y-95726190D01*
X143997619Y-95630952D01*
X144045238Y-95583333D01*
X144140476Y-95535714D01*
X144330953Y-95535714D01*
X144426191Y-95583333D01*
X145330953Y-96202381D02*
X145330953Y-95678571D01*
X145283334Y-95583333D01*
X145188096Y-95535714D01*
X144997619Y-95535714D01*
X144902381Y-95583333D01*
X145330953Y-96154762D02*
X145235715Y-96202381D01*
X144997619Y-96202381D01*
X144902381Y-96154762D01*
X144854762Y-96059524D01*
X144854762Y-95964286D01*
X144902381Y-95869048D01*
X144997619Y-95821429D01*
X145235715Y-95821429D01*
X145330953Y-95773810D01*
X145664286Y-95535714D02*
X146045238Y-95535714D01*
X145807143Y-95202381D02*
X145807143Y-96059524D01*
X145854762Y-96154762D01*
X145950000Y-96202381D01*
X146045238Y-96202381D01*
X122506667Y-89748810D02*
X122506667Y-89272619D01*
X122792381Y-89844048D02*
X121792381Y-89510715D01*
X122792381Y-89177381D01*
X121792381Y-88986905D02*
X121792381Y-88415476D01*
X122792381Y-88701191D02*
X121792381Y-88701191D01*
X121792381Y-88177381D02*
X122792381Y-87510714D01*
X121792381Y-87510714D02*
X122792381Y-88177381D01*
X122792381Y-87129762D02*
X121792381Y-87129762D01*
X122506667Y-86796428D01*
X121792381Y-86463095D01*
X122792381Y-86463095D01*
X122268571Y-85986905D02*
X122268571Y-85653571D01*
X122792381Y-85510714D02*
X122792381Y-85986905D01*
X121792381Y-85986905D01*
X121792381Y-85510714D01*
X121840000Y-84558333D02*
X121792381Y-84653571D01*
X121792381Y-84796428D01*
X121840000Y-84939286D01*
X121935238Y-85034524D01*
X122030476Y-85082143D01*
X122220952Y-85129762D01*
X122363810Y-85129762D01*
X122554286Y-85082143D01*
X122649524Y-85034524D01*
X122744762Y-84939286D01*
X122792381Y-84796428D01*
X122792381Y-84701190D01*
X122744762Y-84558333D01*
X122697143Y-84510714D01*
X122363810Y-84510714D01*
X122363810Y-84701190D01*
X122506667Y-84129762D02*
X122506667Y-83653571D01*
X122792381Y-84225000D02*
X121792381Y-83891667D01*
X122792381Y-83558333D01*
X121792381Y-83320238D02*
X121792381Y-82701190D01*
X122173333Y-83034524D01*
X122173333Y-82891666D01*
X122220952Y-82796428D01*
X122268571Y-82748809D01*
X122363810Y-82701190D01*
X122601905Y-82701190D01*
X122697143Y-82748809D01*
X122744762Y-82796428D01*
X122792381Y-82891666D01*
X122792381Y-83177381D01*
X122744762Y-83272619D01*
X122697143Y-83320238D01*
X121887619Y-82320238D02*
X121840000Y-82272619D01*
X121792381Y-82177381D01*
X121792381Y-81939285D01*
X121840000Y-81844047D01*
X121887619Y-81796428D01*
X121982857Y-81748809D01*
X122078095Y-81748809D01*
X122220952Y-81796428D01*
X122792381Y-82367857D01*
X122792381Y-81748809D01*
X122792381Y-81320238D02*
X121792381Y-81320238D01*
X121792381Y-81082143D01*
X121840000Y-80939285D01*
X121935238Y-80844047D01*
X122030476Y-80796428D01*
X122220952Y-80748809D01*
X122363810Y-80748809D01*
X122554286Y-80796428D01*
X122649524Y-80844047D01*
X122744762Y-80939285D01*
X122792381Y-81082143D01*
X122792381Y-81320238D01*
X122125714Y-79891666D02*
X122792381Y-79891666D01*
X121744762Y-80129762D02*
X122459048Y-80367857D01*
X122459048Y-79748809D01*
X122411429Y-79367857D02*
X122411429Y-78605952D01*
X122506667Y-78177381D02*
X122506667Y-77701190D01*
X122792381Y-78272619D02*
X121792381Y-77939286D01*
X122792381Y-77605952D01*
X129147381Y-86206905D02*
X129956905Y-86206905D01*
X130052143Y-86159286D01*
X130099762Y-86111667D01*
X130147381Y-86016429D01*
X130147381Y-85825952D01*
X130099762Y-85730714D01*
X130052143Y-85683095D01*
X129956905Y-85635476D01*
X129147381Y-85635476D01*
X129147381Y-85254524D02*
X129147381Y-84587857D01*
X130147381Y-85016429D01*
X99066429Y-78593571D02*
X99209286Y-78641190D01*
X99256905Y-78688810D01*
X99304524Y-78784048D01*
X99304524Y-78926905D01*
X99256905Y-79022143D01*
X99209286Y-79069762D01*
X99114048Y-79117381D01*
X98733095Y-79117381D01*
X98733095Y-78117381D01*
X99066429Y-78117381D01*
X99161667Y-78165000D01*
X99209286Y-78212619D01*
X99256905Y-78307857D01*
X99256905Y-78403095D01*
X99209286Y-78498333D01*
X99161667Y-78545952D01*
X99066429Y-78593571D01*
X98733095Y-78593571D01*
X100161667Y-78450714D02*
X100161667Y-79117381D01*
X99733095Y-78450714D02*
X99733095Y-78974524D01*
X99780714Y-79069762D01*
X99875952Y-79117381D01*
X100018810Y-79117381D01*
X100114048Y-79069762D01*
X100161667Y-79022143D01*
X100780714Y-79117381D02*
X100685476Y-79069762D01*
X100637857Y-78974524D01*
X100637857Y-78117381D01*
X101161667Y-79117381D02*
X101161667Y-78117381D01*
X101256905Y-78736429D02*
X101542620Y-79117381D01*
X101542620Y-78450714D02*
X101161667Y-78831667D01*
X103304525Y-79022143D02*
X103256906Y-79069762D01*
X103114049Y-79117381D01*
X103018811Y-79117381D01*
X102875953Y-79069762D01*
X102780715Y-78974524D01*
X102733096Y-78879286D01*
X102685477Y-78688810D01*
X102685477Y-78545952D01*
X102733096Y-78355476D01*
X102780715Y-78260238D01*
X102875953Y-78165000D01*
X103018811Y-78117381D01*
X103114049Y-78117381D01*
X103256906Y-78165000D01*
X103304525Y-78212619D01*
X101984048Y-74896429D02*
X102745953Y-74896429D01*
X102365001Y-75277381D02*
X102365001Y-74515476D01*
X97453334Y-78097381D02*
X96881905Y-78097381D01*
X97167619Y-78097381D02*
X97167619Y-77097381D01*
X97072381Y-77240238D01*
X96977143Y-77335476D01*
X96881905Y-77383095D01*
X98310477Y-77430714D02*
X98310477Y-78097381D01*
X97881905Y-77430714D02*
X97881905Y-77954524D01*
X97929524Y-78049762D01*
X98024762Y-78097381D01*
X98167620Y-78097381D01*
X98262858Y-78049762D01*
X98310477Y-78002143D01*
X110714048Y-78202619D02*
X110761667Y-78155000D01*
X110856905Y-78107381D01*
X111095001Y-78107381D01*
X111190239Y-78155000D01*
X111237858Y-78202619D01*
X111285477Y-78297857D01*
X111285477Y-78393095D01*
X111237858Y-78535952D01*
X110666429Y-79107381D01*
X111285477Y-79107381D01*
X111714048Y-79012143D02*
X111761667Y-79059762D01*
X111714048Y-79107381D01*
X111666429Y-79059762D01*
X111714048Y-79012143D01*
X111714048Y-79107381D01*
X112142619Y-78202619D02*
X112190238Y-78155000D01*
X112285476Y-78107381D01*
X112523572Y-78107381D01*
X112618810Y-78155000D01*
X112666429Y-78202619D01*
X112714048Y-78297857D01*
X112714048Y-78393095D01*
X112666429Y-78535952D01*
X112095000Y-79107381D01*
X112714048Y-79107381D01*
X113571191Y-78440714D02*
X113571191Y-79107381D01*
X113142619Y-78440714D02*
X113142619Y-78964524D01*
X113190238Y-79059762D01*
X113285476Y-79107381D01*
X113428334Y-79107381D01*
X113523572Y-79059762D01*
X113571191Y-79012143D01*
X114380715Y-78583571D02*
X114047381Y-78583571D01*
X114047381Y-79107381D02*
X114047381Y-78107381D01*
X114523572Y-78107381D01*
X122342619Y-72197857D02*
X122295000Y-72150238D01*
X122247381Y-72055000D01*
X122247381Y-71816904D01*
X122295000Y-71721666D01*
X122342619Y-71674047D01*
X122437857Y-71626428D01*
X122533095Y-71626428D01*
X122675952Y-71674047D01*
X123247381Y-72245476D01*
X123247381Y-71626428D01*
X122342619Y-71245476D02*
X122295000Y-71197857D01*
X122247381Y-71102619D01*
X122247381Y-70864523D01*
X122295000Y-70769285D01*
X122342619Y-70721666D01*
X122437857Y-70674047D01*
X122533095Y-70674047D01*
X122675952Y-70721666D01*
X123247381Y-71293095D01*
X123247381Y-70674047D01*
X122580714Y-69816904D02*
X123247381Y-69816904D01*
X122580714Y-70245476D02*
X123104524Y-70245476D01*
X123199762Y-70197857D01*
X123247381Y-70102619D01*
X123247381Y-69959761D01*
X123199762Y-69864523D01*
X123152143Y-69816904D01*
X122723571Y-69007380D02*
X122723571Y-69340714D01*
X123247381Y-69340714D02*
X122247381Y-69340714D01*
X122247381Y-68864523D01*
X109945953Y-91177381D02*
X109374524Y-91177381D01*
X109660238Y-91177381D02*
X109660238Y-90177381D01*
X109565000Y-90320238D01*
X109469762Y-90415476D01*
X109374524Y-90463095D01*
X110565000Y-90177381D02*
X110660239Y-90177381D01*
X110755477Y-90225000D01*
X110803096Y-90272619D01*
X110850715Y-90367857D01*
X110898334Y-90558333D01*
X110898334Y-90796429D01*
X110850715Y-90986905D01*
X110803096Y-91082143D01*
X110755477Y-91129762D01*
X110660239Y-91177381D01*
X110565000Y-91177381D01*
X110469762Y-91129762D01*
X110422143Y-91082143D01*
X110374524Y-90986905D01*
X110326905Y-90796429D01*
X110326905Y-90558333D01*
X110374524Y-90367857D01*
X110422143Y-90272619D01*
X110469762Y-90225000D01*
X110565000Y-90177381D01*
X111517381Y-90177381D02*
X111612620Y-90177381D01*
X111707858Y-90225000D01*
X111755477Y-90272619D01*
X111803096Y-90367857D01*
X111850715Y-90558333D01*
X111850715Y-90796429D01*
X111803096Y-90986905D01*
X111755477Y-91082143D01*
X111707858Y-91129762D01*
X111612620Y-91177381D01*
X111517381Y-91177381D01*
X111422143Y-91129762D01*
X111374524Y-91082143D01*
X111326905Y-90986905D01*
X111279286Y-90796429D01*
X111279286Y-90558333D01*
X111326905Y-90367857D01*
X111374524Y-90272619D01*
X111422143Y-90225000D01*
X111517381Y-90177381D01*
X112279286Y-90510714D02*
X112279286Y-91177381D01*
X112279286Y-90605952D02*
X112326905Y-90558333D01*
X112422143Y-90510714D01*
X112565001Y-90510714D01*
X112660239Y-90558333D01*
X112707858Y-90653571D01*
X112707858Y-91177381D01*
X109858334Y-94957381D02*
X109286905Y-94957381D01*
X109572619Y-94957381D02*
X109572619Y-93957381D01*
X109477381Y-94100238D01*
X109382143Y-94195476D01*
X109286905Y-94243095D01*
X110286905Y-94290714D02*
X110286905Y-94957381D01*
X110286905Y-94385952D02*
X110334524Y-94338333D01*
X110429762Y-94290714D01*
X110572620Y-94290714D01*
X110667858Y-94338333D01*
X110715477Y-94433571D01*
X110715477Y-94957381D01*
X109868334Y-96507381D02*
X109296905Y-96507381D01*
X109582619Y-96507381D02*
X109582619Y-95507381D01*
X109487381Y-95650238D01*
X109392143Y-95745476D01*
X109296905Y-95793095D01*
X110296905Y-95840714D02*
X110296905Y-96507381D01*
X110296905Y-95935952D02*
X110344524Y-95888333D01*
X110439762Y-95840714D01*
X110582620Y-95840714D01*
X110677858Y-95888333D01*
X110725477Y-95983571D01*
X110725477Y-96507381D01*
X126470953Y-74142381D02*
X125899524Y-74142381D01*
X126185238Y-74142381D02*
X126185238Y-73142381D01*
X126090000Y-73285238D01*
X125994762Y-73380476D01*
X125899524Y-73428095D01*
X127090000Y-73142381D02*
X127185239Y-73142381D01*
X127280477Y-73190000D01*
X127328096Y-73237619D01*
X127375715Y-73332857D01*
X127423334Y-73523333D01*
X127423334Y-73761429D01*
X127375715Y-73951905D01*
X127328096Y-74047143D01*
X127280477Y-74094762D01*
X127185239Y-74142381D01*
X127090000Y-74142381D01*
X126994762Y-74094762D01*
X126947143Y-74047143D01*
X126899524Y-73951905D01*
X126851905Y-73761429D01*
X126851905Y-73523333D01*
X126899524Y-73332857D01*
X126947143Y-73237619D01*
X126994762Y-73190000D01*
X127090000Y-73142381D01*
X128042381Y-73142381D02*
X128137620Y-73142381D01*
X128232858Y-73190000D01*
X128280477Y-73237619D01*
X128328096Y-73332857D01*
X128375715Y-73523333D01*
X128375715Y-73761429D01*
X128328096Y-73951905D01*
X128280477Y-74047143D01*
X128232858Y-74094762D01*
X128137620Y-74142381D01*
X128042381Y-74142381D01*
X127947143Y-74094762D01*
X127899524Y-74047143D01*
X127851905Y-73951905D01*
X127804286Y-73761429D01*
X127804286Y-73523333D01*
X127851905Y-73332857D01*
X127899524Y-73237619D01*
X127947143Y-73190000D01*
X128042381Y-73142381D01*
X128804286Y-73475714D02*
X128804286Y-74142381D01*
X128804286Y-73570952D02*
X128851905Y-73523333D01*
X128947143Y-73475714D01*
X129090001Y-73475714D01*
X129185239Y-73523333D01*
X129232858Y-73618571D01*
X129232858Y-74142381D01*
X134737381Y-93204047D02*
X134737381Y-93775476D01*
X134737381Y-93489762D02*
X133737381Y-93489762D01*
X133880238Y-93585000D01*
X133975476Y-93680238D01*
X134023095Y-93775476D01*
X133737381Y-92585000D02*
X133737381Y-92489761D01*
X133785000Y-92394523D01*
X133832619Y-92346904D01*
X133927857Y-92299285D01*
X134118333Y-92251666D01*
X134356429Y-92251666D01*
X134546905Y-92299285D01*
X134642143Y-92346904D01*
X134689762Y-92394523D01*
X134737381Y-92489761D01*
X134737381Y-92585000D01*
X134689762Y-92680238D01*
X134642143Y-92727857D01*
X134546905Y-92775476D01*
X134356429Y-92823095D01*
X134118333Y-92823095D01*
X133927857Y-92775476D01*
X133832619Y-92727857D01*
X133785000Y-92680238D01*
X133737381Y-92585000D01*
X133737381Y-91632619D02*
X133737381Y-91537380D01*
X133785000Y-91442142D01*
X133832619Y-91394523D01*
X133927857Y-91346904D01*
X134118333Y-91299285D01*
X134356429Y-91299285D01*
X134546905Y-91346904D01*
X134642143Y-91394523D01*
X134689762Y-91442142D01*
X134737381Y-91537380D01*
X134737381Y-91632619D01*
X134689762Y-91727857D01*
X134642143Y-91775476D01*
X134546905Y-91823095D01*
X134356429Y-91870714D01*
X134118333Y-91870714D01*
X133927857Y-91823095D01*
X133832619Y-91775476D01*
X133785000Y-91727857D01*
X133737381Y-91632619D01*
X134070714Y-90870714D02*
X134737381Y-90870714D01*
X134165952Y-90870714D02*
X134118333Y-90823095D01*
X134070714Y-90727857D01*
X134070714Y-90584999D01*
X134118333Y-90489761D01*
X134213571Y-90442142D01*
X134737381Y-90442142D01*
X120505953Y-88117381D02*
X119934524Y-88117381D01*
X120220238Y-88117381D02*
X120220238Y-87117381D01*
X120125000Y-87260238D01*
X120029762Y-87355476D01*
X119934524Y-87403095D01*
X121125000Y-87117381D02*
X121220239Y-87117381D01*
X121315477Y-87165000D01*
X121363096Y-87212619D01*
X121410715Y-87307857D01*
X121458334Y-87498333D01*
X121458334Y-87736429D01*
X121410715Y-87926905D01*
X121363096Y-88022143D01*
X121315477Y-88069762D01*
X121220239Y-88117381D01*
X121125000Y-88117381D01*
X121029762Y-88069762D01*
X120982143Y-88022143D01*
X120934524Y-87926905D01*
X120886905Y-87736429D01*
X120886905Y-87498333D01*
X120934524Y-87307857D01*
X120982143Y-87212619D01*
X121029762Y-87165000D01*
X121125000Y-87117381D01*
X122077381Y-87117381D02*
X122172620Y-87117381D01*
X122267858Y-87165000D01*
X122315477Y-87212619D01*
X122363096Y-87307857D01*
X122410715Y-87498333D01*
X122410715Y-87736429D01*
X122363096Y-87926905D01*
X122315477Y-88022143D01*
X122267858Y-88069762D01*
X122172620Y-88117381D01*
X122077381Y-88117381D01*
X121982143Y-88069762D01*
X121934524Y-88022143D01*
X121886905Y-87926905D01*
X121839286Y-87736429D01*
X121839286Y-87498333D01*
X121886905Y-87307857D01*
X121934524Y-87212619D01*
X121982143Y-87165000D01*
X122077381Y-87117381D01*
X122839286Y-87450714D02*
X122839286Y-88117381D01*
X122839286Y-87545952D02*
X122886905Y-87498333D01*
X122982143Y-87450714D01*
X123125001Y-87450714D01*
X123220239Y-87498333D01*
X123267858Y-87593571D01*
X123267858Y-88117381D01*
X137495953Y-82267381D02*
X136924524Y-82267381D01*
X137210238Y-82267381D02*
X137210238Y-81267381D01*
X137115000Y-81410238D01*
X137019762Y-81505476D01*
X136924524Y-81553095D01*
X138115000Y-81267381D02*
X138210239Y-81267381D01*
X138305477Y-81315000D01*
X138353096Y-81362619D01*
X138400715Y-81457857D01*
X138448334Y-81648333D01*
X138448334Y-81886429D01*
X138400715Y-82076905D01*
X138353096Y-82172143D01*
X138305477Y-82219762D01*
X138210239Y-82267381D01*
X138115000Y-82267381D01*
X138019762Y-82219762D01*
X137972143Y-82172143D01*
X137924524Y-82076905D01*
X137876905Y-81886429D01*
X137876905Y-81648333D01*
X137924524Y-81457857D01*
X137972143Y-81362619D01*
X138019762Y-81315000D01*
X138115000Y-81267381D01*
X139067381Y-81267381D02*
X139162620Y-81267381D01*
X139257858Y-81315000D01*
X139305477Y-81362619D01*
X139353096Y-81457857D01*
X139400715Y-81648333D01*
X139400715Y-81886429D01*
X139353096Y-82076905D01*
X139305477Y-82172143D01*
X139257858Y-82219762D01*
X139162620Y-82267381D01*
X139067381Y-82267381D01*
X138972143Y-82219762D01*
X138924524Y-82172143D01*
X138876905Y-82076905D01*
X138829286Y-81886429D01*
X138829286Y-81648333D01*
X138876905Y-81457857D01*
X138924524Y-81362619D01*
X138972143Y-81315000D01*
X139067381Y-81267381D01*
X139829286Y-81600714D02*
X139829286Y-82267381D01*
X139829286Y-81695952D02*
X139876905Y-81648333D01*
X139972143Y-81600714D01*
X140115001Y-81600714D01*
X140210239Y-81648333D01*
X140257858Y-81743571D01*
X140257858Y-82267381D01*
X134247381Y-93307857D02*
X134247381Y-93784048D01*
X133247381Y-93784048D01*
X133723571Y-92974524D02*
X133723571Y-92641190D01*
X134247381Y-92498333D02*
X134247381Y-92974524D01*
X133247381Y-92974524D01*
X133247381Y-92498333D01*
X134247381Y-92069762D02*
X133247381Y-92069762D01*
X133247381Y-91831667D01*
X133295000Y-91688809D01*
X133390238Y-91593571D01*
X133485476Y-91545952D01*
X133675952Y-91498333D01*
X133818810Y-91498333D01*
X134009286Y-91545952D01*
X134104524Y-91593571D01*
X134199762Y-91688809D01*
X134247381Y-91831667D01*
X134247381Y-92069762D01*
X140757381Y-85657857D02*
X140757381Y-86134048D01*
X139757381Y-86134048D01*
X140233571Y-85324524D02*
X140233571Y-84991190D01*
X140757381Y-84848333D02*
X140757381Y-85324524D01*
X139757381Y-85324524D01*
X139757381Y-84848333D01*
X140757381Y-84419762D02*
X139757381Y-84419762D01*
X139757381Y-84181667D01*
X139805000Y-84038809D01*
X139900238Y-83943571D01*
X139995476Y-83895952D01*
X140185952Y-83848333D01*
X140328810Y-83848333D01*
X140519286Y-83895952D01*
X140614524Y-83943571D01*
X140709762Y-84038809D01*
X140757381Y-84181667D01*
X140757381Y-84419762D01*
X110059286Y-69222381D02*
X110630715Y-69222381D01*
X110345000Y-70222381D02*
X110345000Y-69222381D01*
X110821191Y-69222381D02*
X111154524Y-70222381D01*
X111487858Y-69222381D01*
X111773572Y-70174762D02*
X111916429Y-70222381D01*
X112154525Y-70222381D01*
X112249763Y-70174762D01*
X112297382Y-70127143D01*
X112345001Y-70031905D01*
X112345001Y-69936667D01*
X112297382Y-69841429D01*
X112249763Y-69793810D01*
X112154525Y-69746190D01*
X111964048Y-69698571D01*
X111868810Y-69650952D01*
X111821191Y-69603333D01*
X111773572Y-69508095D01*
X111773572Y-69412857D01*
X111821191Y-69317619D01*
X111868810Y-69270000D01*
X111964048Y-69222381D01*
X112202144Y-69222381D01*
X112345001Y-69270000D01*
X112535477Y-70317619D02*
X113297382Y-70317619D01*
X113535477Y-69222381D02*
X113535477Y-70031905D01*
X113583096Y-70127143D01*
X113630715Y-70174762D01*
X113725953Y-70222381D01*
X113916430Y-70222381D01*
X114011668Y-70174762D01*
X114059287Y-70127143D01*
X114106906Y-70031905D01*
X114106906Y-69222381D01*
X114583096Y-69555714D02*
X114583096Y-70222381D01*
X114583096Y-69650952D02*
X114630715Y-69603333D01*
X114725953Y-69555714D01*
X114868811Y-69555714D01*
X114964049Y-69603333D01*
X115011668Y-69698571D01*
X115011668Y-70222381D01*
X115487858Y-70222381D02*
X115487858Y-69555714D01*
X115487858Y-69222381D02*
X115440239Y-69270000D01*
X115487858Y-69317619D01*
X115535477Y-69270000D01*
X115487858Y-69222381D01*
X115487858Y-69317619D01*
X103938571Y-72279523D02*
X103938571Y-72612857D01*
X104462381Y-72612857D02*
X103462381Y-72612857D01*
X103462381Y-72136666D01*
X103462381Y-71755714D02*
X104271905Y-71755714D01*
X104367143Y-71708095D01*
X104414762Y-71660476D01*
X104462381Y-71565238D01*
X104462381Y-71374761D01*
X104414762Y-71279523D01*
X104367143Y-71231904D01*
X104271905Y-71184285D01*
X103462381Y-71184285D01*
X104414762Y-70755714D02*
X104462381Y-70612857D01*
X104462381Y-70374761D01*
X104414762Y-70279523D01*
X104367143Y-70231904D01*
X104271905Y-70184285D01*
X104176667Y-70184285D01*
X104081429Y-70231904D01*
X104033810Y-70279523D01*
X103986190Y-70374761D01*
X103938571Y-70565238D01*
X103890952Y-70660476D01*
X103843333Y-70708095D01*
X103748095Y-70755714D01*
X103652857Y-70755714D01*
X103557619Y-70708095D01*
X103510000Y-70660476D01*
X103462381Y-70565238D01*
X103462381Y-70327142D01*
X103510000Y-70184285D01*
X103938571Y-69755714D02*
X103938571Y-69422380D01*
X104462381Y-69279523D02*
X104462381Y-69755714D01*
X103462381Y-69755714D01*
X103462381Y-69279523D01*
X120667381Y-74091666D02*
X120667381Y-74663095D01*
X120667381Y-74377381D02*
X119667381Y-74377381D01*
X119810238Y-74472619D01*
X119905476Y-74567857D01*
X119953095Y-74663095D01*
X119667381Y-73472619D02*
X119667381Y-73377380D01*
X119715000Y-73282142D01*
X119762619Y-73234523D01*
X119857857Y-73186904D01*
X120048333Y-73139285D01*
X120286429Y-73139285D01*
X120476905Y-73186904D01*
X120572143Y-73234523D01*
X120619762Y-73282142D01*
X120667381Y-73377380D01*
X120667381Y-73472619D01*
X120619762Y-73567857D01*
X120572143Y-73615476D01*
X120476905Y-73663095D01*
X120286429Y-73710714D01*
X120048333Y-73710714D01*
X119857857Y-73663095D01*
X119762619Y-73615476D01*
X119715000Y-73567857D01*
X119667381Y-73472619D01*
X120000714Y-72282142D02*
X120667381Y-72282142D01*
X120000714Y-72710714D02*
X120524524Y-72710714D01*
X120619762Y-72663095D01*
X120667381Y-72567857D01*
X120667381Y-72424999D01*
X120619762Y-72329761D01*
X120572143Y-72282142D01*
X120667381Y-71805952D02*
X119667381Y-71805952D01*
X120143571Y-71805952D02*
X120143571Y-71234523D01*
X120667381Y-71234523D02*
X119667381Y-71234523D01*
X107765477Y-77147381D02*
X107194048Y-77147381D01*
X107479762Y-77147381D02*
X107479762Y-76147381D01*
X107384524Y-76290238D01*
X107289286Y-76385476D01*
X107194048Y-76433095D01*
X108622620Y-76147381D02*
X108432143Y-76147381D01*
X108336905Y-76195000D01*
X108289286Y-76242619D01*
X108194048Y-76385476D01*
X108146429Y-76575952D01*
X108146429Y-76956905D01*
X108194048Y-77052143D01*
X108241667Y-77099762D01*
X108336905Y-77147381D01*
X108527382Y-77147381D01*
X108622620Y-77099762D01*
X108670239Y-77052143D01*
X108717858Y-76956905D01*
X108717858Y-76718810D01*
X108670239Y-76623571D01*
X108622620Y-76575952D01*
X108527382Y-76528333D01*
X108336905Y-76528333D01*
X108241667Y-76575952D01*
X108194048Y-76623571D01*
X108146429Y-76718810D01*
X109146429Y-77052143D02*
X109194048Y-77099762D01*
X109146429Y-77147381D01*
X109098810Y-77099762D01*
X109146429Y-77052143D01*
X109146429Y-77147381D01*
X109670238Y-77147381D02*
X109860714Y-77147381D01*
X109955953Y-77099762D01*
X110003572Y-77052143D01*
X110098810Y-76909286D01*
X110146429Y-76718810D01*
X110146429Y-76337857D01*
X110098810Y-76242619D01*
X110051191Y-76195000D01*
X109955953Y-76147381D01*
X109765476Y-76147381D01*
X109670238Y-76195000D01*
X109622619Y-76242619D01*
X109575000Y-76337857D01*
X109575000Y-76575952D01*
X109622619Y-76671190D01*
X109670238Y-76718810D01*
X109765476Y-76766429D01*
X109955953Y-76766429D01*
X110051191Y-76718810D01*
X110098810Y-76671190D01*
X110146429Y-76575952D01*
X110575000Y-77147381D02*
X110575000Y-76147381D01*
X110670238Y-76766429D02*
X110955953Y-77147381D01*
X110955953Y-76480714D02*
X110575000Y-76861667D01*
X119597381Y-79316428D02*
X119597381Y-79887857D01*
X119597381Y-79602143D02*
X118597381Y-79602143D01*
X118740238Y-79697381D01*
X118835476Y-79792619D01*
X118883095Y-79887857D01*
X118597381Y-78697381D02*
X118597381Y-78602142D01*
X118645000Y-78506904D01*
X118692619Y-78459285D01*
X118787857Y-78411666D01*
X118978333Y-78364047D01*
X119216429Y-78364047D01*
X119406905Y-78411666D01*
X119502143Y-78459285D01*
X119549762Y-78506904D01*
X119597381Y-78602142D01*
X119597381Y-78697381D01*
X119549762Y-78792619D01*
X119502143Y-78840238D01*
X119406905Y-78887857D01*
X119216429Y-78935476D01*
X118978333Y-78935476D01*
X118787857Y-78887857D01*
X118692619Y-78840238D01*
X118645000Y-78792619D01*
X118597381Y-78697381D01*
X118597381Y-77745000D02*
X118597381Y-77649761D01*
X118645000Y-77554523D01*
X118692619Y-77506904D01*
X118787857Y-77459285D01*
X118978333Y-77411666D01*
X119216429Y-77411666D01*
X119406905Y-77459285D01*
X119502143Y-77506904D01*
X119549762Y-77554523D01*
X119597381Y-77649761D01*
X119597381Y-77745000D01*
X119549762Y-77840238D01*
X119502143Y-77887857D01*
X119406905Y-77935476D01*
X119216429Y-77983095D01*
X118978333Y-77983095D01*
X118787857Y-77935476D01*
X118692619Y-77887857D01*
X118645000Y-77840238D01*
X118597381Y-77745000D01*
X119597381Y-76983095D02*
X118597381Y-76983095D01*
X119216429Y-76887857D02*
X119597381Y-76602142D01*
X118930714Y-76602142D02*
X119311667Y-76983095D01*
X108604762Y-86082381D02*
X108033333Y-86082381D01*
X108319047Y-86082381D02*
X108319047Y-85082381D01*
X108223809Y-85225238D01*
X108128571Y-85320476D01*
X108033333Y-85368095D01*
X109223809Y-85082381D02*
X109319048Y-85082381D01*
X109414286Y-85130000D01*
X109461905Y-85177619D01*
X109509524Y-85272857D01*
X109557143Y-85463333D01*
X109557143Y-85701429D01*
X109509524Y-85891905D01*
X109461905Y-85987143D01*
X109414286Y-86034762D01*
X109319048Y-86082381D01*
X109223809Y-86082381D01*
X109128571Y-86034762D01*
X109080952Y-85987143D01*
X109033333Y-85891905D01*
X108985714Y-85701429D01*
X108985714Y-85463333D01*
X109033333Y-85272857D01*
X109080952Y-85177619D01*
X109128571Y-85130000D01*
X109223809Y-85082381D01*
X109985714Y-86082381D02*
X109985714Y-85082381D01*
X110080952Y-85701429D02*
X110366667Y-86082381D01*
X110366667Y-85415714D02*
X109985714Y-85796667D01*
X108033333Y-87427619D02*
X108080952Y-87380000D01*
X108176190Y-87332381D01*
X108414286Y-87332381D01*
X108509524Y-87380000D01*
X108557143Y-87427619D01*
X108604762Y-87522857D01*
X108604762Y-87618095D01*
X108557143Y-87760952D01*
X107985714Y-88332381D01*
X108604762Y-88332381D01*
X108985714Y-87427619D02*
X109033333Y-87380000D01*
X109128571Y-87332381D01*
X109366667Y-87332381D01*
X109461905Y-87380000D01*
X109509524Y-87427619D01*
X109557143Y-87522857D01*
X109557143Y-87618095D01*
X109509524Y-87760952D01*
X108938095Y-88332381D01*
X109557143Y-88332381D01*
X109985714Y-88332381D02*
X109985714Y-87332381D01*
X110080952Y-87951429D02*
X110366667Y-88332381D01*
X110366667Y-87665714D02*
X109985714Y-88046667D01*
X113657381Y-93885476D02*
X113657381Y-93266428D01*
X114038333Y-93599762D01*
X114038333Y-93456904D01*
X114085952Y-93361666D01*
X114133571Y-93314047D01*
X114228810Y-93266428D01*
X114466905Y-93266428D01*
X114562143Y-93314047D01*
X114609762Y-93361666D01*
X114657381Y-93456904D01*
X114657381Y-93742619D01*
X114609762Y-93837857D01*
X114562143Y-93885476D01*
X113657381Y-92933095D02*
X113657381Y-92314047D01*
X114038333Y-92647381D01*
X114038333Y-92504523D01*
X114085952Y-92409285D01*
X114133571Y-92361666D01*
X114228810Y-92314047D01*
X114466905Y-92314047D01*
X114562143Y-92361666D01*
X114609762Y-92409285D01*
X114657381Y-92504523D01*
X114657381Y-92790238D01*
X114609762Y-92885476D01*
X114562143Y-92933095D01*
X113657381Y-91695000D02*
X113657381Y-91599761D01*
X113705000Y-91504523D01*
X113752619Y-91456904D01*
X113847857Y-91409285D01*
X114038333Y-91361666D01*
X114276429Y-91361666D01*
X114466905Y-91409285D01*
X114562143Y-91456904D01*
X114609762Y-91504523D01*
X114657381Y-91599761D01*
X114657381Y-91695000D01*
X114609762Y-91790238D01*
X114562143Y-91837857D01*
X114466905Y-91885476D01*
X114276429Y-91933095D01*
X114038333Y-91933095D01*
X113847857Y-91885476D01*
X113752619Y-91837857D01*
X113705000Y-91790238D01*
X113657381Y-91695000D01*
X114657381Y-90933095D02*
X113657381Y-90933095D01*
X114276429Y-90837857D02*
X114657381Y-90552142D01*
X113990714Y-90552142D02*
X114371667Y-90933095D01*
X132537381Y-93331666D02*
X132537381Y-93903095D01*
X132537381Y-93617381D02*
X131537381Y-93617381D01*
X131680238Y-93712619D01*
X131775476Y-93807857D01*
X131823095Y-93903095D01*
X131632619Y-92950714D02*
X131585000Y-92903095D01*
X131537381Y-92807857D01*
X131537381Y-92569761D01*
X131585000Y-92474523D01*
X131632619Y-92426904D01*
X131727857Y-92379285D01*
X131823095Y-92379285D01*
X131965952Y-92426904D01*
X132537381Y-92998333D01*
X132537381Y-92379285D01*
X131537381Y-91760238D02*
X131537381Y-91664999D01*
X131585000Y-91569761D01*
X131632619Y-91522142D01*
X131727857Y-91474523D01*
X131918333Y-91426904D01*
X132156429Y-91426904D01*
X132346905Y-91474523D01*
X132442143Y-91522142D01*
X132489762Y-91569761D01*
X132537381Y-91664999D01*
X132537381Y-91760238D01*
X132489762Y-91855476D01*
X132442143Y-91903095D01*
X132346905Y-91950714D01*
X132156429Y-91998333D01*
X131918333Y-91998333D01*
X131727857Y-91950714D01*
X131632619Y-91903095D01*
X131585000Y-91855476D01*
X131537381Y-91760238D01*
X138628334Y-88472381D02*
X138056905Y-88472381D01*
X138342619Y-88472381D02*
X138342619Y-87472381D01*
X138247381Y-87615238D01*
X138152143Y-87710476D01*
X138056905Y-87758095D01*
X139009286Y-87567619D02*
X139056905Y-87520000D01*
X139152143Y-87472381D01*
X139390239Y-87472381D01*
X139485477Y-87520000D01*
X139533096Y-87567619D01*
X139580715Y-87662857D01*
X139580715Y-87758095D01*
X139533096Y-87900952D01*
X138961667Y-88472381D01*
X139580715Y-88472381D01*
X140199762Y-87472381D02*
X140295001Y-87472381D01*
X140390239Y-87520000D01*
X140437858Y-87567619D01*
X140485477Y-87662857D01*
X140533096Y-87853333D01*
X140533096Y-88091429D01*
X140485477Y-88281905D01*
X140437858Y-88377143D01*
X140390239Y-88424762D01*
X140295001Y-88472381D01*
X140199762Y-88472381D01*
X140104524Y-88424762D01*
X140056905Y-88377143D01*
X140009286Y-88281905D01*
X139961667Y-88091429D01*
X139961667Y-87853333D01*
X140009286Y-87662857D01*
X140056905Y-87567619D01*
X140104524Y-87520000D01*
X140199762Y-87472381D01*
X125948333Y-92762619D02*
X125995952Y-92715000D01*
X126091190Y-92667381D01*
X126329286Y-92667381D01*
X126424524Y-92715000D01*
X126472143Y-92762619D01*
X126519762Y-92857857D01*
X126519762Y-92953095D01*
X126472143Y-93095952D01*
X125900714Y-93667381D01*
X126519762Y-93667381D01*
X126948333Y-93667381D02*
X126948333Y-92667381D01*
X127043571Y-93286429D02*
X127329286Y-93667381D01*
X127329286Y-93000714D02*
X126948333Y-93381667D01*
X127662619Y-92667381D02*
X128329286Y-92667381D01*
X127900714Y-93667381D01*
X125958333Y-91102619D02*
X126005952Y-91055000D01*
X126101190Y-91007381D01*
X126339286Y-91007381D01*
X126434524Y-91055000D01*
X126482143Y-91102619D01*
X126529762Y-91197857D01*
X126529762Y-91293095D01*
X126482143Y-91435952D01*
X125910714Y-92007381D01*
X126529762Y-92007381D01*
X126958333Y-92007381D02*
X126958333Y-91007381D01*
X127053571Y-91626429D02*
X127339286Y-92007381D01*
X127339286Y-91340714D02*
X126958333Y-91721667D01*
X127672619Y-91007381D02*
X128339286Y-91007381D01*
X127910714Y-92007381D01*
X122374524Y-75970714D02*
X122374524Y-76637381D01*
X122136428Y-75589762D02*
X121898333Y-76304048D01*
X122517381Y-76304048D01*
X122803095Y-75637381D02*
X123469762Y-75637381D01*
X123041190Y-76637381D01*
X123850714Y-76637381D02*
X123850714Y-75637381D01*
X123945952Y-76256429D02*
X124231667Y-76637381D01*
X124231667Y-75970714D02*
X123850714Y-76351667D01*
X120169524Y-77302381D02*
X119979047Y-77302381D01*
X119883809Y-77350000D01*
X119836190Y-77397619D01*
X119740952Y-77540476D01*
X119693333Y-77730952D01*
X119693333Y-78111905D01*
X119740952Y-78207143D01*
X119788571Y-78254762D01*
X119883809Y-78302381D01*
X120074286Y-78302381D01*
X120169524Y-78254762D01*
X120217143Y-78207143D01*
X120264762Y-78111905D01*
X120264762Y-77873810D01*
X120217143Y-77778571D01*
X120169524Y-77730952D01*
X120074286Y-77683333D01*
X119883809Y-77683333D01*
X119788571Y-77730952D01*
X119740952Y-77778571D01*
X119693333Y-77873810D01*
X120836190Y-77730952D02*
X120740952Y-77683333D01*
X120693333Y-77635714D01*
X120645714Y-77540476D01*
X120645714Y-77492857D01*
X120693333Y-77397619D01*
X120740952Y-77350000D01*
X120836190Y-77302381D01*
X121026667Y-77302381D01*
X121121905Y-77350000D01*
X121169524Y-77397619D01*
X121217143Y-77492857D01*
X121217143Y-77540476D01*
X121169524Y-77635714D01*
X121121905Y-77683333D01*
X121026667Y-77730952D01*
X120836190Y-77730952D01*
X120740952Y-77778571D01*
X120693333Y-77826190D01*
X120645714Y-77921429D01*
X120645714Y-78111905D01*
X120693333Y-78207143D01*
X120740952Y-78254762D01*
X120836190Y-78302381D01*
X121026667Y-78302381D01*
X121121905Y-78254762D01*
X121169524Y-78207143D01*
X121217143Y-78111905D01*
X121217143Y-77921429D01*
X121169524Y-77826190D01*
X121121905Y-77778571D01*
X121026667Y-77730952D01*
X121645714Y-78302381D02*
X121645714Y-77302381D01*
X121740952Y-77921429D02*
X122026667Y-78302381D01*
X122026667Y-77635714D02*
X121645714Y-78016667D01*
X110113333Y-99337619D02*
X110160952Y-99290000D01*
X110256190Y-99242381D01*
X110494286Y-99242381D01*
X110589524Y-99290000D01*
X110637143Y-99337619D01*
X110684762Y-99432857D01*
X110684762Y-99528095D01*
X110637143Y-99670952D01*
X110065714Y-100242381D01*
X110684762Y-100242381D01*
X111113333Y-100242381D02*
X111113333Y-99242381D01*
X111208571Y-99861429D02*
X111494286Y-100242381D01*
X111494286Y-99575714D02*
X111113333Y-99956667D01*
X111827619Y-99242381D02*
X112494286Y-99242381D01*
X112065714Y-100242381D01*
X114883333Y-95547619D02*
X114930952Y-95500000D01*
X115026190Y-95452381D01*
X115264286Y-95452381D01*
X115359524Y-95500000D01*
X115407143Y-95547619D01*
X115454762Y-95642857D01*
X115454762Y-95738095D01*
X115407143Y-95880952D01*
X114835714Y-96452381D01*
X115454762Y-96452381D01*
X115883333Y-96452381D02*
X115883333Y-95452381D01*
X115978571Y-96071429D02*
X116264286Y-96452381D01*
X116264286Y-95785714D02*
X115883333Y-96166667D01*
X116597619Y-95452381D02*
X117264286Y-95452381D01*
X116835714Y-96452381D01*
X100149762Y-78397381D02*
X100149762Y-77397381D01*
X100387857Y-77397381D01*
X100530715Y-77445000D01*
X100625953Y-77540238D01*
X100673572Y-77635476D01*
X100721191Y-77825952D01*
X100721191Y-77968810D01*
X100673572Y-78159286D01*
X100625953Y-78254524D01*
X100530715Y-78349762D01*
X100387857Y-78397381D01*
X100149762Y-78397381D01*
X101721191Y-78397381D02*
X101387857Y-77921190D01*
X101149762Y-78397381D02*
X101149762Y-77397381D01*
X101530715Y-77397381D01*
X101625953Y-77445000D01*
X101673572Y-77492619D01*
X101721191Y-77587857D01*
X101721191Y-77730714D01*
X101673572Y-77825952D01*
X101625953Y-77873571D01*
X101530715Y-77921190D01*
X101149762Y-77921190D01*
X102006905Y-77397381D02*
X102340238Y-78397381D01*
X102673572Y-77397381D01*
X103149762Y-77825952D02*
X103054524Y-77778333D01*
X103006905Y-77730714D01*
X102959286Y-77635476D01*
X102959286Y-77587857D01*
X103006905Y-77492619D01*
X103054524Y-77445000D01*
X103149762Y-77397381D01*
X103340239Y-77397381D01*
X103435477Y-77445000D01*
X103483096Y-77492619D01*
X103530715Y-77587857D01*
X103530715Y-77635476D01*
X103483096Y-77730714D01*
X103435477Y-77778333D01*
X103340239Y-77825952D01*
X103149762Y-77825952D01*
X103054524Y-77873571D01*
X103006905Y-77921190D01*
X102959286Y-78016429D01*
X102959286Y-78206905D01*
X103006905Y-78302143D01*
X103054524Y-78349762D01*
X103149762Y-78397381D01*
X103340239Y-78397381D01*
X103435477Y-78349762D01*
X103483096Y-78302143D01*
X103530715Y-78206905D01*
X103530715Y-78016429D01*
X103483096Y-77921190D01*
X103435477Y-77873571D01*
X103340239Y-77825952D01*
X104102143Y-77825952D02*
X104006905Y-77778333D01*
X103959286Y-77730714D01*
X103911667Y-77635476D01*
X103911667Y-77587857D01*
X103959286Y-77492619D01*
X104006905Y-77445000D01*
X104102143Y-77397381D01*
X104292620Y-77397381D01*
X104387858Y-77445000D01*
X104435477Y-77492619D01*
X104483096Y-77587857D01*
X104483096Y-77635476D01*
X104435477Y-77730714D01*
X104387858Y-77778333D01*
X104292620Y-77825952D01*
X104102143Y-77825952D01*
X104006905Y-77873571D01*
X103959286Y-77921190D01*
X103911667Y-78016429D01*
X103911667Y-78206905D01*
X103959286Y-78302143D01*
X104006905Y-78349762D01*
X104102143Y-78397381D01*
X104292620Y-78397381D01*
X104387858Y-78349762D01*
X104435477Y-78302143D01*
X104483096Y-78206905D01*
X104483096Y-78016429D01*
X104435477Y-77921190D01*
X104387858Y-77873571D01*
X104292620Y-77825952D01*
X104816429Y-77397381D02*
X105483096Y-77397381D01*
X105054524Y-78397381D01*
X106387858Y-78397381D02*
X105816429Y-78397381D01*
X106102143Y-78397381D02*
X106102143Y-77397381D01*
X106006905Y-77540238D01*
X105911667Y-77635476D01*
X105816429Y-77683095D01*
X98817143Y-97116667D02*
X99293334Y-97116667D01*
X98721905Y-97402381D02*
X99055238Y-96402381D01*
X99388572Y-97402381D01*
X100293334Y-97307143D02*
X100245715Y-97354762D01*
X100102858Y-97402381D01*
X100007620Y-97402381D01*
X99864762Y-97354762D01*
X99769524Y-97259524D01*
X99721905Y-97164286D01*
X99674286Y-96973810D01*
X99674286Y-96830952D01*
X99721905Y-96640476D01*
X99769524Y-96545238D01*
X99864762Y-96450000D01*
X100007620Y-96402381D01*
X100102858Y-96402381D01*
X100245715Y-96450000D01*
X100293334Y-96497619D01*
X100674286Y-97354762D02*
X100817143Y-97402381D01*
X101055239Y-97402381D01*
X101150477Y-97354762D01*
X101198096Y-97307143D01*
X101245715Y-97211905D01*
X101245715Y-97116667D01*
X101198096Y-97021429D01*
X101150477Y-96973810D01*
X101055239Y-96926190D01*
X100864762Y-96878571D01*
X100769524Y-96830952D01*
X100721905Y-96783333D01*
X100674286Y-96688095D01*
X100674286Y-96592857D01*
X100721905Y-96497619D01*
X100769524Y-96450000D01*
X100864762Y-96402381D01*
X101102858Y-96402381D01*
X101245715Y-96450000D01*
X101579048Y-96402381D02*
X102245715Y-96402381D01*
X101817143Y-97402381D01*
X103150477Y-97402381D02*
X102579048Y-97402381D01*
X102864762Y-97402381D02*
X102864762Y-96402381D01*
X102769524Y-96545238D01*
X102674286Y-96640476D01*
X102579048Y-96688095D01*
X103769524Y-96402381D02*
X103864763Y-96402381D01*
X103960001Y-96450000D01*
X104007620Y-96497619D01*
X104055239Y-96592857D01*
X104102858Y-96783333D01*
X104102858Y-97021429D01*
X104055239Y-97211905D01*
X104007620Y-97307143D01*
X103960001Y-97354762D01*
X103864763Y-97402381D01*
X103769524Y-97402381D01*
X103674286Y-97354762D01*
X103626667Y-97307143D01*
X103579048Y-97211905D01*
X103531429Y-97021429D01*
X103531429Y-96783333D01*
X103579048Y-96592857D01*
X103626667Y-96497619D01*
X103674286Y-96450000D01*
X103769524Y-96402381D01*
X117842381Y-103324286D02*
X117842381Y-102752857D01*
X118842381Y-103038572D02*
X117842381Y-103038572D01*
X117842381Y-102562381D02*
X118842381Y-102229048D01*
X117842381Y-101895714D01*
X118794762Y-101610000D02*
X118842381Y-101467143D01*
X118842381Y-101229047D01*
X118794762Y-101133809D01*
X118747143Y-101086190D01*
X118651905Y-101038571D01*
X118556667Y-101038571D01*
X118461429Y-101086190D01*
X118413810Y-101133809D01*
X118366190Y-101229047D01*
X118318571Y-101419524D01*
X118270952Y-101514762D01*
X118223333Y-101562381D01*
X118128095Y-101610000D01*
X118032857Y-101610000D01*
X117937619Y-101562381D01*
X117890000Y-101514762D01*
X117842381Y-101419524D01*
X117842381Y-101181428D01*
X117890000Y-101038571D01*
X118937619Y-100848095D02*
X118937619Y-100086190D01*
X118175714Y-99419523D02*
X118842381Y-99419523D01*
X117794762Y-99657619D02*
X118509048Y-99895714D01*
X118509048Y-99276666D01*
X118937619Y-99133809D02*
X118937619Y-98371904D01*
X118842381Y-98133809D02*
X117842381Y-98133809D01*
X117794762Y-96943333D02*
X119080476Y-97800476D01*
X117842381Y-96419524D02*
X117842381Y-96229047D01*
X117890000Y-96133809D01*
X117985238Y-96038571D01*
X118175714Y-95990952D01*
X118509048Y-95990952D01*
X118699524Y-96038571D01*
X118794762Y-96133809D01*
X118842381Y-96229047D01*
X118842381Y-96419524D01*
X118794762Y-96514762D01*
X118699524Y-96610000D01*
X118509048Y-96657619D01*
X118175714Y-96657619D01*
X117985238Y-96610000D01*
X117890000Y-96514762D01*
X117842381Y-96419524D01*
X92042381Y-89464286D02*
X92042381Y-88892857D01*
X93042381Y-89178572D02*
X92042381Y-89178572D01*
X92042381Y-88702381D02*
X93042381Y-88369048D01*
X92042381Y-88035714D01*
X92994762Y-87750000D02*
X93042381Y-87607143D01*
X93042381Y-87369047D01*
X92994762Y-87273809D01*
X92947143Y-87226190D01*
X92851905Y-87178571D01*
X92756667Y-87178571D01*
X92661429Y-87226190D01*
X92613810Y-87273809D01*
X92566190Y-87369047D01*
X92518571Y-87559524D01*
X92470952Y-87654762D01*
X92423333Y-87702381D01*
X92328095Y-87750000D01*
X92232857Y-87750000D01*
X92137619Y-87702381D01*
X92090000Y-87654762D01*
X92042381Y-87559524D01*
X92042381Y-87321428D01*
X92090000Y-87178571D01*
X93137619Y-86988095D02*
X93137619Y-86226190D01*
X92375714Y-85559523D02*
X93042381Y-85559523D01*
X91994762Y-85797619D02*
X92709048Y-86035714D01*
X92709048Y-85416666D01*
X93137619Y-85273809D02*
X93137619Y-84511904D01*
X93042381Y-84273809D02*
X92042381Y-84273809D01*
X91994762Y-83083333D02*
X93280476Y-83940476D01*
X92042381Y-82559524D02*
X92042381Y-82369047D01*
X92090000Y-82273809D01*
X92185238Y-82178571D01*
X92375714Y-82130952D01*
X92709048Y-82130952D01*
X92899524Y-82178571D01*
X92994762Y-82273809D01*
X93042381Y-82369047D01*
X93042381Y-82559524D01*
X92994762Y-82654762D01*
X92899524Y-82750000D01*
X92709048Y-82797619D01*
X92375714Y-82797619D01*
X92185238Y-82750000D01*
X92090000Y-82654762D01*
X92042381Y-82559524D01*
X97606191Y-96527143D02*
X97558572Y-96574762D01*
X97415715Y-96622381D01*
X97320477Y-96622381D01*
X97177619Y-96574762D01*
X97082381Y-96479524D01*
X97034762Y-96384286D01*
X96987143Y-96193810D01*
X96987143Y-96050952D01*
X97034762Y-95860476D01*
X97082381Y-95765238D01*
X97177619Y-95670000D01*
X97320477Y-95622381D01*
X97415715Y-95622381D01*
X97558572Y-95670000D01*
X97606191Y-95717619D01*
X98225238Y-95622381D02*
X98415715Y-95622381D01*
X98510953Y-95670000D01*
X98606191Y-95765238D01*
X98653810Y-95955714D01*
X98653810Y-96289048D01*
X98606191Y-96479524D01*
X98510953Y-96574762D01*
X98415715Y-96622381D01*
X98225238Y-96622381D01*
X98130000Y-96574762D01*
X98034762Y-96479524D01*
X97987143Y-96289048D01*
X97987143Y-95955714D01*
X98034762Y-95765238D01*
X98130000Y-95670000D01*
X98225238Y-95622381D01*
X99082381Y-96622381D02*
X99082381Y-95622381D01*
X99653810Y-96622381D01*
X99653810Y-95622381D01*
X100130000Y-96622381D02*
X100130000Y-95622381D01*
X100701429Y-96622381D01*
X100701429Y-95622381D01*
X100939524Y-96717619D02*
X101701429Y-96717619D01*
X102130000Y-95622381D02*
X102225239Y-95622381D01*
X102320477Y-95670000D01*
X102368096Y-95717619D01*
X102415715Y-95812857D01*
X102463334Y-96003333D01*
X102463334Y-96241429D01*
X102415715Y-96431905D01*
X102368096Y-96527143D01*
X102320477Y-96574762D01*
X102225239Y-96622381D01*
X102130000Y-96622381D01*
X102034762Y-96574762D01*
X101987143Y-96527143D01*
X101939524Y-96431905D01*
X101891905Y-96241429D01*
X101891905Y-96003333D01*
X101939524Y-95812857D01*
X101987143Y-95717619D01*
X102034762Y-95670000D01*
X102130000Y-95622381D01*
X102844286Y-95717619D02*
X102891905Y-95670000D01*
X102987143Y-95622381D01*
X103225239Y-95622381D01*
X103320477Y-95670000D01*
X103368096Y-95717619D01*
X103415715Y-95812857D01*
X103415715Y-95908095D01*
X103368096Y-96050952D01*
X102796667Y-96622381D01*
X103415715Y-96622381D01*
X103749048Y-95622381D02*
X104415715Y-96622381D01*
X104415715Y-95622381D02*
X103749048Y-96622381D01*
X104987143Y-95622381D02*
X105082382Y-95622381D01*
X105177620Y-95670000D01*
X105225239Y-95717619D01*
X105272858Y-95812857D01*
X105320477Y-96003333D01*
X105320477Y-96241429D01*
X105272858Y-96431905D01*
X105225239Y-96527143D01*
X105177620Y-96574762D01*
X105082382Y-96622381D01*
X104987143Y-96622381D01*
X104891905Y-96574762D01*
X104844286Y-96527143D01*
X104796667Y-96431905D01*
X104749048Y-96241429D01*
X104749048Y-96003333D01*
X104796667Y-95812857D01*
X104844286Y-95717619D01*
X104891905Y-95670000D01*
X104987143Y-95622381D01*
X106272858Y-96622381D02*
X105701429Y-96622381D01*
X105987143Y-96622381D02*
X105987143Y-95622381D01*
X105891905Y-95765238D01*
X105796667Y-95860476D01*
X105701429Y-95908095D01*
X118184762Y-97112381D02*
X118184762Y-96112381D01*
X118565715Y-96112381D01*
X118660953Y-96160000D01*
X118708572Y-96207619D01*
X118756191Y-96302857D01*
X118756191Y-96445714D01*
X118708572Y-96540952D01*
X118660953Y-96588571D01*
X118565715Y-96636190D01*
X118184762Y-96636190D01*
X119756191Y-97017143D02*
X119708572Y-97064762D01*
X119565715Y-97112381D01*
X119470477Y-97112381D01*
X119327619Y-97064762D01*
X119232381Y-96969524D01*
X119184762Y-96874286D01*
X119137143Y-96683810D01*
X119137143Y-96540952D01*
X119184762Y-96350476D01*
X119232381Y-96255238D01*
X119327619Y-96160000D01*
X119470477Y-96112381D01*
X119565715Y-96112381D01*
X119708572Y-96160000D01*
X119756191Y-96207619D01*
X120137143Y-96826667D02*
X120613334Y-96826667D01*
X120041905Y-97112381D02*
X120375238Y-96112381D01*
X120708572Y-97112381D01*
X121089524Y-97112381D02*
X121280000Y-97112381D01*
X121375239Y-97064762D01*
X121422858Y-97017143D01*
X121518096Y-96874286D01*
X121565715Y-96683810D01*
X121565715Y-96302857D01*
X121518096Y-96207619D01*
X121470477Y-96160000D01*
X121375239Y-96112381D01*
X121184762Y-96112381D01*
X121089524Y-96160000D01*
X121041905Y-96207619D01*
X120994286Y-96302857D01*
X120994286Y-96540952D01*
X121041905Y-96636190D01*
X121089524Y-96683810D01*
X121184762Y-96731429D01*
X121375239Y-96731429D01*
X121470477Y-96683810D01*
X121518096Y-96636190D01*
X121565715Y-96540952D01*
X122470477Y-96112381D02*
X121994286Y-96112381D01*
X121946667Y-96588571D01*
X121994286Y-96540952D01*
X122089524Y-96493333D01*
X122327620Y-96493333D01*
X122422858Y-96540952D01*
X122470477Y-96588571D01*
X122518096Y-96683810D01*
X122518096Y-96921905D01*
X122470477Y-97017143D01*
X122422858Y-97064762D01*
X122327620Y-97112381D01*
X122089524Y-97112381D01*
X121994286Y-97064762D01*
X121946667Y-97017143D01*
X123470477Y-97112381D02*
X122899048Y-97112381D01*
X123184762Y-97112381D02*
X123184762Y-96112381D01*
X123089524Y-96255238D01*
X122994286Y-96350476D01*
X122899048Y-96398095D01*
X123803810Y-96112381D02*
X124470477Y-96112381D01*
X124041905Y-97112381D01*
X144446191Y-70195714D02*
X144446191Y-71005238D01*
X144398572Y-71100476D01*
X144350953Y-71148095D01*
X144255714Y-71195714D01*
X144112857Y-71195714D01*
X144017619Y-71148095D01*
X144446191Y-70814762D02*
X144350953Y-70862381D01*
X144160476Y-70862381D01*
X144065238Y-70814762D01*
X144017619Y-70767143D01*
X143970000Y-70671905D01*
X143970000Y-70386190D01*
X144017619Y-70290952D01*
X144065238Y-70243333D01*
X144160476Y-70195714D01*
X144350953Y-70195714D01*
X144446191Y-70243333D01*
X145350953Y-70862381D02*
X145350953Y-70338571D01*
X145303334Y-70243333D01*
X145208096Y-70195714D01*
X145017619Y-70195714D01*
X144922381Y-70243333D01*
X145350953Y-70814762D02*
X145255715Y-70862381D01*
X145017619Y-70862381D01*
X144922381Y-70814762D01*
X144874762Y-70719524D01*
X144874762Y-70624286D01*
X144922381Y-70529048D01*
X145017619Y-70481429D01*
X145255715Y-70481429D01*
X145350953Y-70433810D01*
X145684286Y-70195714D02*
X146065238Y-70195714D01*
X145827143Y-69862381D02*
X145827143Y-70719524D01*
X145874762Y-70814762D01*
X145970000Y-70862381D01*
X146065238Y-70862381D01*
X87616191Y-71457143D02*
X87568572Y-71504762D01*
X87425715Y-71552381D01*
X87330477Y-71552381D01*
X87187619Y-71504762D01*
X87092381Y-71409524D01*
X87044762Y-71314286D01*
X86997143Y-71123810D01*
X86997143Y-70980952D01*
X87044762Y-70790476D01*
X87092381Y-70695238D01*
X87187619Y-70600000D01*
X87330477Y-70552381D01*
X87425715Y-70552381D01*
X87568572Y-70600000D01*
X87616191Y-70647619D01*
X88235238Y-70552381D02*
X88425715Y-70552381D01*
X88520953Y-70600000D01*
X88616191Y-70695238D01*
X88663810Y-70885714D01*
X88663810Y-71219048D01*
X88616191Y-71409524D01*
X88520953Y-71504762D01*
X88425715Y-71552381D01*
X88235238Y-71552381D01*
X88140000Y-71504762D01*
X88044762Y-71409524D01*
X87997143Y-71219048D01*
X87997143Y-70885714D01*
X88044762Y-70695238D01*
X88140000Y-70600000D01*
X88235238Y-70552381D01*
X89092381Y-71552381D02*
X89092381Y-70552381D01*
X89663810Y-71552381D01*
X89663810Y-70552381D01*
X90140000Y-71552381D02*
X90140000Y-70552381D01*
X90711429Y-71552381D01*
X90711429Y-70552381D01*
X90949524Y-71647619D02*
X91711429Y-71647619D01*
X92140000Y-70552381D02*
X92235239Y-70552381D01*
X92330477Y-70600000D01*
X92378096Y-70647619D01*
X92425715Y-70742857D01*
X92473334Y-70933333D01*
X92473334Y-71171429D01*
X92425715Y-71361905D01*
X92378096Y-71457143D01*
X92330477Y-71504762D01*
X92235239Y-71552381D01*
X92140000Y-71552381D01*
X92044762Y-71504762D01*
X91997143Y-71457143D01*
X91949524Y-71361905D01*
X91901905Y-71171429D01*
X91901905Y-70933333D01*
X91949524Y-70742857D01*
X91997143Y-70647619D01*
X92044762Y-70600000D01*
X92140000Y-70552381D01*
X92854286Y-70647619D02*
X92901905Y-70600000D01*
X92997143Y-70552381D01*
X93235239Y-70552381D01*
X93330477Y-70600000D01*
X93378096Y-70647619D01*
X93425715Y-70742857D01*
X93425715Y-70838095D01*
X93378096Y-70980952D01*
X92806667Y-71552381D01*
X93425715Y-71552381D01*
X93759048Y-70552381D02*
X94425715Y-71552381D01*
X94425715Y-70552381D02*
X93759048Y-71552381D01*
X94997143Y-70552381D02*
X95092382Y-70552381D01*
X95187620Y-70600000D01*
X95235239Y-70647619D01*
X95282858Y-70742857D01*
X95330477Y-70933333D01*
X95330477Y-71171429D01*
X95282858Y-71361905D01*
X95235239Y-71457143D01*
X95187620Y-71504762D01*
X95092382Y-71552381D01*
X94997143Y-71552381D01*
X94901905Y-71504762D01*
X94854286Y-71457143D01*
X94806667Y-71361905D01*
X94759048Y-71171429D01*
X94759048Y-70933333D01*
X94806667Y-70742857D01*
X94854286Y-70647619D01*
X94901905Y-70600000D01*
X94997143Y-70552381D01*
X96187620Y-70885714D02*
X96187620Y-71552381D01*
X95949524Y-70504762D02*
X95711429Y-71219048D01*
X96330477Y-71219048D01*
X97586191Y-72477143D02*
X97538572Y-72524762D01*
X97395715Y-72572381D01*
X97300477Y-72572381D01*
X97157619Y-72524762D01*
X97062381Y-72429524D01*
X97014762Y-72334286D01*
X96967143Y-72143810D01*
X96967143Y-72000952D01*
X97014762Y-71810476D01*
X97062381Y-71715238D01*
X97157619Y-71620000D01*
X97300477Y-71572381D01*
X97395715Y-71572381D01*
X97538572Y-71620000D01*
X97586191Y-71667619D01*
X98205238Y-71572381D02*
X98395715Y-71572381D01*
X98490953Y-71620000D01*
X98586191Y-71715238D01*
X98633810Y-71905714D01*
X98633810Y-72239048D01*
X98586191Y-72429524D01*
X98490953Y-72524762D01*
X98395715Y-72572381D01*
X98205238Y-72572381D01*
X98110000Y-72524762D01*
X98014762Y-72429524D01*
X97967143Y-72239048D01*
X97967143Y-71905714D01*
X98014762Y-71715238D01*
X98110000Y-71620000D01*
X98205238Y-71572381D01*
X99062381Y-72572381D02*
X99062381Y-71572381D01*
X99633810Y-72572381D01*
X99633810Y-71572381D01*
X100110000Y-72572381D02*
X100110000Y-71572381D01*
X100681429Y-72572381D01*
X100681429Y-71572381D01*
X100919524Y-72667619D02*
X101681429Y-72667619D01*
X102110000Y-71572381D02*
X102205239Y-71572381D01*
X102300477Y-71620000D01*
X102348096Y-71667619D01*
X102395715Y-71762857D01*
X102443334Y-71953333D01*
X102443334Y-72191429D01*
X102395715Y-72381905D01*
X102348096Y-72477143D01*
X102300477Y-72524762D01*
X102205239Y-72572381D01*
X102110000Y-72572381D01*
X102014762Y-72524762D01*
X101967143Y-72477143D01*
X101919524Y-72381905D01*
X101871905Y-72191429D01*
X101871905Y-71953333D01*
X101919524Y-71762857D01*
X101967143Y-71667619D01*
X102014762Y-71620000D01*
X102110000Y-71572381D01*
X102824286Y-71667619D02*
X102871905Y-71620000D01*
X102967143Y-71572381D01*
X103205239Y-71572381D01*
X103300477Y-71620000D01*
X103348096Y-71667619D01*
X103395715Y-71762857D01*
X103395715Y-71858095D01*
X103348096Y-72000952D01*
X102776667Y-72572381D01*
X103395715Y-72572381D01*
X103729048Y-71572381D02*
X104395715Y-72572381D01*
X104395715Y-71572381D02*
X103729048Y-72572381D01*
X104967143Y-71572381D02*
X105062382Y-71572381D01*
X105157620Y-71620000D01*
X105205239Y-71667619D01*
X105252858Y-71762857D01*
X105300477Y-71953333D01*
X105300477Y-72191429D01*
X105252858Y-72381905D01*
X105205239Y-72477143D01*
X105157620Y-72524762D01*
X105062382Y-72572381D01*
X104967143Y-72572381D01*
X104871905Y-72524762D01*
X104824286Y-72477143D01*
X104776667Y-72381905D01*
X104729048Y-72191429D01*
X104729048Y-71953333D01*
X104776667Y-71762857D01*
X104824286Y-71667619D01*
X104871905Y-71620000D01*
X104967143Y-71572381D01*
X106252858Y-72572381D02*
X105681429Y-72572381D01*
X105967143Y-72572381D02*
X105967143Y-71572381D01*
X105871905Y-71715238D01*
X105776667Y-71810476D01*
X105681429Y-71858095D01*
X116907143Y-109353809D02*
X116954762Y-109401428D01*
X117002381Y-109544285D01*
X117002381Y-109639523D01*
X116954762Y-109782381D01*
X116859524Y-109877619D01*
X116764286Y-109925238D01*
X116573810Y-109972857D01*
X116430952Y-109972857D01*
X116240476Y-109925238D01*
X116145238Y-109877619D01*
X116050000Y-109782381D01*
X116002381Y-109639523D01*
X116002381Y-109544285D01*
X116050000Y-109401428D01*
X116097619Y-109353809D01*
X116002381Y-108734762D02*
X116002381Y-108544285D01*
X116050000Y-108449047D01*
X116145238Y-108353809D01*
X116335714Y-108306190D01*
X116669048Y-108306190D01*
X116859524Y-108353809D01*
X116954762Y-108449047D01*
X117002381Y-108544285D01*
X117002381Y-108734762D01*
X116954762Y-108830000D01*
X116859524Y-108925238D01*
X116669048Y-108972857D01*
X116335714Y-108972857D01*
X116145238Y-108925238D01*
X116050000Y-108830000D01*
X116002381Y-108734762D01*
X117002381Y-107877619D02*
X116002381Y-107877619D01*
X117002381Y-107306190D01*
X116002381Y-107306190D01*
X117002381Y-106830000D02*
X116002381Y-106830000D01*
X117002381Y-106258571D01*
X116002381Y-106258571D01*
X117097619Y-106020476D02*
X117097619Y-105258571D01*
X116002381Y-104830000D02*
X116002381Y-104734761D01*
X116050000Y-104639523D01*
X116097619Y-104591904D01*
X116192857Y-104544285D01*
X116383333Y-104496666D01*
X116621429Y-104496666D01*
X116811905Y-104544285D01*
X116907143Y-104591904D01*
X116954762Y-104639523D01*
X117002381Y-104734761D01*
X117002381Y-104830000D01*
X116954762Y-104925238D01*
X116907143Y-104972857D01*
X116811905Y-105020476D01*
X116621429Y-105068095D01*
X116383333Y-105068095D01*
X116192857Y-105020476D01*
X116097619Y-104972857D01*
X116050000Y-104925238D01*
X116002381Y-104830000D01*
X117002381Y-103544285D02*
X117002381Y-104115714D01*
X117002381Y-103830000D02*
X116002381Y-103830000D01*
X116145238Y-103925238D01*
X116240476Y-104020476D01*
X116288095Y-104115714D01*
X116002381Y-103210952D02*
X117002381Y-102544285D01*
X116002381Y-102544285D02*
X117002381Y-103210952D01*
X116002381Y-101972857D02*
X116002381Y-101877618D01*
X116050000Y-101782380D01*
X116097619Y-101734761D01*
X116192857Y-101687142D01*
X116383333Y-101639523D01*
X116621429Y-101639523D01*
X116811905Y-101687142D01*
X116907143Y-101734761D01*
X116954762Y-101782380D01*
X117002381Y-101877618D01*
X117002381Y-101972857D01*
X116954762Y-102068095D01*
X116907143Y-102115714D01*
X116811905Y-102163333D01*
X116621429Y-102210952D01*
X116383333Y-102210952D01*
X116192857Y-102163333D01*
X116097619Y-102115714D01*
X116050000Y-102068095D01*
X116002381Y-101972857D01*
X116335714Y-100782380D02*
X117002381Y-100782380D01*
X115954762Y-101020476D02*
X116669048Y-101258571D01*
X116669048Y-100639523D01*
X134783333Y-106697381D02*
X134783333Y-105697381D01*
X135116667Y-106411667D01*
X135450000Y-105697381D01*
X135450000Y-106697381D01*
X136069047Y-106697381D02*
X135973809Y-106649762D01*
X135926190Y-106602143D01*
X135878571Y-106506905D01*
X135878571Y-106221190D01*
X135926190Y-106125952D01*
X135973809Y-106078333D01*
X136069047Y-106030714D01*
X136211905Y-106030714D01*
X136307143Y-106078333D01*
X136354762Y-106125952D01*
X136402381Y-106221190D01*
X136402381Y-106506905D01*
X136354762Y-106602143D01*
X136307143Y-106649762D01*
X136211905Y-106697381D01*
X136069047Y-106697381D01*
X137259524Y-106030714D02*
X137259524Y-106697381D01*
X136830952Y-106030714D02*
X136830952Y-106554524D01*
X136878571Y-106649762D01*
X136973809Y-106697381D01*
X137116667Y-106697381D01*
X137211905Y-106649762D01*
X137259524Y-106602143D01*
X137735714Y-106030714D02*
X137735714Y-106697381D01*
X137735714Y-106125952D02*
X137783333Y-106078333D01*
X137878571Y-106030714D01*
X138021429Y-106030714D01*
X138116667Y-106078333D01*
X138164286Y-106173571D01*
X138164286Y-106697381D01*
X138497619Y-106030714D02*
X138878571Y-106030714D01*
X138640476Y-105697381D02*
X138640476Y-106554524D01*
X138688095Y-106649762D01*
X138783333Y-106697381D01*
X138878571Y-106697381D01*
X139211905Y-106697381D02*
X139211905Y-106030714D01*
X139211905Y-105697381D02*
X139164286Y-105745000D01*
X139211905Y-105792619D01*
X139259524Y-105745000D01*
X139211905Y-105697381D01*
X139211905Y-105792619D01*
X139688095Y-106030714D02*
X139688095Y-106697381D01*
X139688095Y-106125952D02*
X139735714Y-106078333D01*
X139830952Y-106030714D01*
X139973810Y-106030714D01*
X140069048Y-106078333D01*
X140116667Y-106173571D01*
X140116667Y-106697381D01*
X141021429Y-106030714D02*
X141021429Y-106840238D01*
X140973810Y-106935476D01*
X140926191Y-106983095D01*
X140830952Y-107030714D01*
X140688095Y-107030714D01*
X140592857Y-106983095D01*
X141021429Y-106649762D02*
X140926191Y-106697381D01*
X140735714Y-106697381D01*
X140640476Y-106649762D01*
X140592857Y-106602143D01*
X140545238Y-106506905D01*
X140545238Y-106221190D01*
X140592857Y-106125952D01*
X140640476Y-106078333D01*
X140735714Y-106030714D01*
X140926191Y-106030714D01*
X141021429Y-106078333D01*
X141259524Y-106792619D02*
X142021429Y-106792619D01*
X142259524Y-106697381D02*
X142259524Y-105697381D01*
X142259524Y-106173571D02*
X142830953Y-106173571D01*
X142830953Y-106697381D02*
X142830953Y-105697381D01*
X143450000Y-106697381D02*
X143354762Y-106649762D01*
X143307143Y-106602143D01*
X143259524Y-106506905D01*
X143259524Y-106221190D01*
X143307143Y-106125952D01*
X143354762Y-106078333D01*
X143450000Y-106030714D01*
X143592858Y-106030714D01*
X143688096Y-106078333D01*
X143735715Y-106125952D01*
X143783334Y-106221190D01*
X143783334Y-106506905D01*
X143735715Y-106602143D01*
X143688096Y-106649762D01*
X143592858Y-106697381D01*
X143450000Y-106697381D01*
X144354762Y-106697381D02*
X144259524Y-106649762D01*
X144211905Y-106554524D01*
X144211905Y-105697381D01*
X145116668Y-106649762D02*
X145021430Y-106697381D01*
X144830953Y-106697381D01*
X144735715Y-106649762D01*
X144688096Y-106554524D01*
X144688096Y-106173571D01*
X144735715Y-106078333D01*
X144830953Y-106030714D01*
X145021430Y-106030714D01*
X145116668Y-106078333D01*
X145164287Y-106173571D01*
X145164287Y-106268810D01*
X144688096Y-106364048D01*
X134783333Y-70697381D02*
X134783333Y-69697381D01*
X135116667Y-70411667D01*
X135450000Y-69697381D01*
X135450000Y-70697381D01*
X136069047Y-70697381D02*
X135973809Y-70649762D01*
X135926190Y-70602143D01*
X135878571Y-70506905D01*
X135878571Y-70221190D01*
X135926190Y-70125952D01*
X135973809Y-70078333D01*
X136069047Y-70030714D01*
X136211905Y-70030714D01*
X136307143Y-70078333D01*
X136354762Y-70125952D01*
X136402381Y-70221190D01*
X136402381Y-70506905D01*
X136354762Y-70602143D01*
X136307143Y-70649762D01*
X136211905Y-70697381D01*
X136069047Y-70697381D01*
X137259524Y-70030714D02*
X137259524Y-70697381D01*
X136830952Y-70030714D02*
X136830952Y-70554524D01*
X136878571Y-70649762D01*
X136973809Y-70697381D01*
X137116667Y-70697381D01*
X137211905Y-70649762D01*
X137259524Y-70602143D01*
X137735714Y-70030714D02*
X137735714Y-70697381D01*
X137735714Y-70125952D02*
X137783333Y-70078333D01*
X137878571Y-70030714D01*
X138021429Y-70030714D01*
X138116667Y-70078333D01*
X138164286Y-70173571D01*
X138164286Y-70697381D01*
X138497619Y-70030714D02*
X138878571Y-70030714D01*
X138640476Y-69697381D02*
X138640476Y-70554524D01*
X138688095Y-70649762D01*
X138783333Y-70697381D01*
X138878571Y-70697381D01*
X139211905Y-70697381D02*
X139211905Y-70030714D01*
X139211905Y-69697381D02*
X139164286Y-69745000D01*
X139211905Y-69792619D01*
X139259524Y-69745000D01*
X139211905Y-69697381D01*
X139211905Y-69792619D01*
X139688095Y-70030714D02*
X139688095Y-70697381D01*
X139688095Y-70125952D02*
X139735714Y-70078333D01*
X139830952Y-70030714D01*
X139973810Y-70030714D01*
X140069048Y-70078333D01*
X140116667Y-70173571D01*
X140116667Y-70697381D01*
X141021429Y-70030714D02*
X141021429Y-70840238D01*
X140973810Y-70935476D01*
X140926191Y-70983095D01*
X140830952Y-71030714D01*
X140688095Y-71030714D01*
X140592857Y-70983095D01*
X141021429Y-70649762D02*
X140926191Y-70697381D01*
X140735714Y-70697381D01*
X140640476Y-70649762D01*
X140592857Y-70602143D01*
X140545238Y-70506905D01*
X140545238Y-70221190D01*
X140592857Y-70125952D01*
X140640476Y-70078333D01*
X140735714Y-70030714D01*
X140926191Y-70030714D01*
X141021429Y-70078333D01*
X141259524Y-70792619D02*
X142021429Y-70792619D01*
X142259524Y-70697381D02*
X142259524Y-69697381D01*
X142259524Y-70173571D02*
X142830953Y-70173571D01*
X142830953Y-70697381D02*
X142830953Y-69697381D01*
X143450000Y-70697381D02*
X143354762Y-70649762D01*
X143307143Y-70602143D01*
X143259524Y-70506905D01*
X143259524Y-70221190D01*
X143307143Y-70125952D01*
X143354762Y-70078333D01*
X143450000Y-70030714D01*
X143592858Y-70030714D01*
X143688096Y-70078333D01*
X143735715Y-70125952D01*
X143783334Y-70221190D01*
X143783334Y-70506905D01*
X143735715Y-70602143D01*
X143688096Y-70649762D01*
X143592858Y-70697381D01*
X143450000Y-70697381D01*
X144354762Y-70697381D02*
X144259524Y-70649762D01*
X144211905Y-70554524D01*
X144211905Y-69697381D01*
X145116668Y-70649762D02*
X145021430Y-70697381D01*
X144830953Y-70697381D01*
X144735715Y-70649762D01*
X144688096Y-70554524D01*
X144688096Y-70173571D01*
X144735715Y-70078333D01*
X144830953Y-70030714D01*
X145021430Y-70030714D01*
X145116668Y-70078333D01*
X145164287Y-70173571D01*
X145164287Y-70268810D01*
X144688096Y-70364048D01*
X116770953Y-93812381D02*
X116199524Y-93812381D01*
X116485238Y-93812381D02*
X116485238Y-92812381D01*
X116390000Y-92955238D01*
X116294762Y-93050476D01*
X116199524Y-93098095D01*
X117390000Y-92812381D02*
X117485239Y-92812381D01*
X117580477Y-92860000D01*
X117628096Y-92907619D01*
X117675715Y-93002857D01*
X117723334Y-93193333D01*
X117723334Y-93431429D01*
X117675715Y-93621905D01*
X117628096Y-93717143D01*
X117580477Y-93764762D01*
X117485239Y-93812381D01*
X117390000Y-93812381D01*
X117294762Y-93764762D01*
X117247143Y-93717143D01*
X117199524Y-93621905D01*
X117151905Y-93431429D01*
X117151905Y-93193333D01*
X117199524Y-93002857D01*
X117247143Y-92907619D01*
X117294762Y-92860000D01*
X117390000Y-92812381D01*
X118342381Y-92812381D02*
X118437620Y-92812381D01*
X118532858Y-92860000D01*
X118580477Y-92907619D01*
X118628096Y-93002857D01*
X118675715Y-93193333D01*
X118675715Y-93431429D01*
X118628096Y-93621905D01*
X118580477Y-93717143D01*
X118532858Y-93764762D01*
X118437620Y-93812381D01*
X118342381Y-93812381D01*
X118247143Y-93764762D01*
X118199524Y-93717143D01*
X118151905Y-93621905D01*
X118104286Y-93431429D01*
X118104286Y-93193333D01*
X118151905Y-93002857D01*
X118199524Y-92907619D01*
X118247143Y-92860000D01*
X118342381Y-92812381D01*
X119104286Y-93145714D02*
X119104286Y-93812381D01*
X119104286Y-93240952D02*
X119151905Y-93193333D01*
X119247143Y-93145714D01*
X119390001Y-93145714D01*
X119485239Y-93193333D01*
X119532858Y-93288571D01*
X119532858Y-93812381D01*
X122610953Y-90292381D02*
X122039524Y-90292381D01*
X122325238Y-90292381D02*
X122325238Y-89292381D01*
X122230000Y-89435238D01*
X122134762Y-89530476D01*
X122039524Y-89578095D01*
X123230000Y-89292381D02*
X123325239Y-89292381D01*
X123420477Y-89340000D01*
X123468096Y-89387619D01*
X123515715Y-89482857D01*
X123563334Y-89673333D01*
X123563334Y-89911429D01*
X123515715Y-90101905D01*
X123468096Y-90197143D01*
X123420477Y-90244762D01*
X123325239Y-90292381D01*
X123230000Y-90292381D01*
X123134762Y-90244762D01*
X123087143Y-90197143D01*
X123039524Y-90101905D01*
X122991905Y-89911429D01*
X122991905Y-89673333D01*
X123039524Y-89482857D01*
X123087143Y-89387619D01*
X123134762Y-89340000D01*
X123230000Y-89292381D01*
X124182381Y-89292381D02*
X124277620Y-89292381D01*
X124372858Y-89340000D01*
X124420477Y-89387619D01*
X124468096Y-89482857D01*
X124515715Y-89673333D01*
X124515715Y-89911429D01*
X124468096Y-90101905D01*
X124420477Y-90197143D01*
X124372858Y-90244762D01*
X124277620Y-90292381D01*
X124182381Y-90292381D01*
X124087143Y-90244762D01*
X124039524Y-90197143D01*
X123991905Y-90101905D01*
X123944286Y-89911429D01*
X123944286Y-89673333D01*
X123991905Y-89482857D01*
X124039524Y-89387619D01*
X124087143Y-89340000D01*
X124182381Y-89292381D01*
X124944286Y-89625714D02*
X124944286Y-90292381D01*
X124944286Y-89720952D02*
X124991905Y-89673333D01*
X125087143Y-89625714D01*
X125230001Y-89625714D01*
X125325239Y-89673333D01*
X125372858Y-89768571D01*
X125372858Y-90292381D01*
X132538095Y-74672381D02*
X133204762Y-74672381D01*
X132538095Y-75672381D01*
X133204762Y-75672381D01*
X133585714Y-75148571D02*
X133919048Y-75148571D01*
X134061905Y-75672381D02*
X133585714Y-75672381D01*
X133585714Y-74672381D01*
X134061905Y-74672381D01*
X134490476Y-75672381D02*
X134490476Y-74672381D01*
X135061905Y-75672381D01*
X135061905Y-74672381D01*
X135538095Y-75148571D02*
X135871429Y-75148571D01*
X136014286Y-75672381D02*
X135538095Y-75672381D01*
X135538095Y-74672381D01*
X136014286Y-74672381D01*
X137014286Y-75672381D02*
X136680952Y-75196190D01*
X136442857Y-75672381D02*
X136442857Y-74672381D01*
X136823810Y-74672381D01*
X136919048Y-74720000D01*
X136966667Y-74767619D01*
X137014286Y-74862857D01*
X137014286Y-75005714D01*
X136966667Y-75100952D01*
X136919048Y-75148571D01*
X136823810Y-75196190D01*
X136442857Y-75196190D01*
X136187143Y-108033809D02*
X136234762Y-108081428D01*
X136282381Y-108224285D01*
X136282381Y-108319523D01*
X136234762Y-108462381D01*
X136139524Y-108557619D01*
X136044286Y-108605238D01*
X135853810Y-108652857D01*
X135710952Y-108652857D01*
X135520476Y-108605238D01*
X135425238Y-108557619D01*
X135330000Y-108462381D01*
X135282381Y-108319523D01*
X135282381Y-108224285D01*
X135330000Y-108081428D01*
X135377619Y-108033809D01*
X135282381Y-107414762D02*
X135282381Y-107224285D01*
X135330000Y-107129047D01*
X135425238Y-107033809D01*
X135615714Y-106986190D01*
X135949048Y-106986190D01*
X136139524Y-107033809D01*
X136234762Y-107129047D01*
X136282381Y-107224285D01*
X136282381Y-107414762D01*
X136234762Y-107510000D01*
X136139524Y-107605238D01*
X135949048Y-107652857D01*
X135615714Y-107652857D01*
X135425238Y-107605238D01*
X135330000Y-107510000D01*
X135282381Y-107414762D01*
X136282381Y-106557619D02*
X135282381Y-106557619D01*
X136282381Y-105986190D01*
X135282381Y-105986190D01*
X136282381Y-105510000D02*
X135282381Y-105510000D01*
X136282381Y-104938571D01*
X135282381Y-104938571D01*
X136377619Y-104700476D02*
X136377619Y-103938571D01*
X135282381Y-103510000D02*
X135282381Y-103414761D01*
X135330000Y-103319523D01*
X135377619Y-103271904D01*
X135472857Y-103224285D01*
X135663333Y-103176666D01*
X135901429Y-103176666D01*
X136091905Y-103224285D01*
X136187143Y-103271904D01*
X136234762Y-103319523D01*
X136282381Y-103414761D01*
X136282381Y-103510000D01*
X136234762Y-103605238D01*
X136187143Y-103652857D01*
X136091905Y-103700476D01*
X135901429Y-103748095D01*
X135663333Y-103748095D01*
X135472857Y-103700476D01*
X135377619Y-103652857D01*
X135330000Y-103605238D01*
X135282381Y-103510000D01*
X135377619Y-102795714D02*
X135330000Y-102748095D01*
X135282381Y-102652857D01*
X135282381Y-102414761D01*
X135330000Y-102319523D01*
X135377619Y-102271904D01*
X135472857Y-102224285D01*
X135568095Y-102224285D01*
X135710952Y-102271904D01*
X136282381Y-102843333D01*
X136282381Y-102224285D01*
X135282381Y-101890952D02*
X136282381Y-101224285D01*
X135282381Y-101224285D02*
X136282381Y-101890952D01*
X135282381Y-100652857D02*
X135282381Y-100557618D01*
X135330000Y-100462380D01*
X135377619Y-100414761D01*
X135472857Y-100367142D01*
X135663333Y-100319523D01*
X135901429Y-100319523D01*
X136091905Y-100367142D01*
X136187143Y-100414761D01*
X136234762Y-100462380D01*
X136282381Y-100557618D01*
X136282381Y-100652857D01*
X136234762Y-100748095D01*
X136187143Y-100795714D01*
X136091905Y-100843333D01*
X135901429Y-100890952D01*
X135663333Y-100890952D01*
X135472857Y-100843333D01*
X135377619Y-100795714D01*
X135330000Y-100748095D01*
X135282381Y-100652857D01*
X135282381Y-99986190D02*
X135282381Y-99367142D01*
X135663333Y-99700476D01*
X135663333Y-99557618D01*
X135710952Y-99462380D01*
X135758571Y-99414761D01*
X135853810Y-99367142D01*
X136091905Y-99367142D01*
X136187143Y-99414761D01*
X136234762Y-99462380D01*
X136282381Y-99557618D01*
X136282381Y-99843333D01*
X136234762Y-99938571D01*
X136187143Y-99986190D01*
X127827143Y-109353809D02*
X127874762Y-109401428D01*
X127922381Y-109544285D01*
X127922381Y-109639523D01*
X127874762Y-109782381D01*
X127779524Y-109877619D01*
X127684286Y-109925238D01*
X127493810Y-109972857D01*
X127350952Y-109972857D01*
X127160476Y-109925238D01*
X127065238Y-109877619D01*
X126970000Y-109782381D01*
X126922381Y-109639523D01*
X126922381Y-109544285D01*
X126970000Y-109401428D01*
X127017619Y-109353809D01*
X126922381Y-108734762D02*
X126922381Y-108544285D01*
X126970000Y-108449047D01*
X127065238Y-108353809D01*
X127255714Y-108306190D01*
X127589048Y-108306190D01*
X127779524Y-108353809D01*
X127874762Y-108449047D01*
X127922381Y-108544285D01*
X127922381Y-108734762D01*
X127874762Y-108830000D01*
X127779524Y-108925238D01*
X127589048Y-108972857D01*
X127255714Y-108972857D01*
X127065238Y-108925238D01*
X126970000Y-108830000D01*
X126922381Y-108734762D01*
X127922381Y-107877619D02*
X126922381Y-107877619D01*
X127922381Y-107306190D01*
X126922381Y-107306190D01*
X127922381Y-106830000D02*
X126922381Y-106830000D01*
X127922381Y-106258571D01*
X126922381Y-106258571D01*
X128017619Y-106020476D02*
X128017619Y-105258571D01*
X126922381Y-104830000D02*
X126922381Y-104734761D01*
X126970000Y-104639523D01*
X127017619Y-104591904D01*
X127112857Y-104544285D01*
X127303333Y-104496666D01*
X127541429Y-104496666D01*
X127731905Y-104544285D01*
X127827143Y-104591904D01*
X127874762Y-104639523D01*
X127922381Y-104734761D01*
X127922381Y-104830000D01*
X127874762Y-104925238D01*
X127827143Y-104972857D01*
X127731905Y-105020476D01*
X127541429Y-105068095D01*
X127303333Y-105068095D01*
X127112857Y-105020476D01*
X127017619Y-104972857D01*
X126970000Y-104925238D01*
X126922381Y-104830000D01*
X127922381Y-103544285D02*
X127922381Y-104115714D01*
X127922381Y-103830000D02*
X126922381Y-103830000D01*
X127065238Y-103925238D01*
X127160476Y-104020476D01*
X127208095Y-104115714D01*
X126922381Y-103210952D02*
X127922381Y-102544285D01*
X126922381Y-102544285D02*
X127922381Y-103210952D01*
X126922381Y-101972857D02*
X126922381Y-101877618D01*
X126970000Y-101782380D01*
X127017619Y-101734761D01*
X127112857Y-101687142D01*
X127303333Y-101639523D01*
X127541429Y-101639523D01*
X127731905Y-101687142D01*
X127827143Y-101734761D01*
X127874762Y-101782380D01*
X127922381Y-101877618D01*
X127922381Y-101972857D01*
X127874762Y-102068095D01*
X127827143Y-102115714D01*
X127731905Y-102163333D01*
X127541429Y-102210952D01*
X127303333Y-102210952D01*
X127112857Y-102163333D01*
X127017619Y-102115714D01*
X126970000Y-102068095D01*
X126922381Y-101972857D01*
X127255714Y-100782380D02*
X127922381Y-100782380D01*
X126874762Y-101020476D02*
X127589048Y-101258571D01*
X127589048Y-100639523D01*
X142322381Y-79509047D02*
X142322381Y-80080476D01*
X142322381Y-79794762D02*
X141322381Y-79794762D01*
X141465238Y-79890000D01*
X141560476Y-79985238D01*
X141608095Y-80080476D01*
X141322381Y-78604285D02*
X141322381Y-79080476D01*
X141798571Y-79128095D01*
X141750952Y-79080476D01*
X141703333Y-78985238D01*
X141703333Y-78747142D01*
X141750952Y-78651904D01*
X141798571Y-78604285D01*
X141893810Y-78556666D01*
X142131905Y-78556666D01*
X142227143Y-78604285D01*
X142274762Y-78651904D01*
X142322381Y-78747142D01*
X142322381Y-78985238D01*
X142274762Y-79080476D01*
X142227143Y-79128095D01*
X141322381Y-77937619D02*
X141322381Y-77842380D01*
X141370000Y-77747142D01*
X141417619Y-77699523D01*
X141512857Y-77651904D01*
X141703333Y-77604285D01*
X141941429Y-77604285D01*
X142131905Y-77651904D01*
X142227143Y-77699523D01*
X142274762Y-77747142D01*
X142322381Y-77842380D01*
X142322381Y-77937619D01*
X142274762Y-78032857D01*
X142227143Y-78080476D01*
X142131905Y-78128095D01*
X141941429Y-78175714D01*
X141703333Y-78175714D01*
X141512857Y-78128095D01*
X141417619Y-78080476D01*
X141370000Y-78032857D01*
X141322381Y-77937619D01*
X141798571Y-77175714D02*
X141798571Y-76842380D01*
X142322381Y-76699523D02*
X142322381Y-77175714D01*
X141322381Y-77175714D01*
X141322381Y-76699523D01*
X143382381Y-86429047D02*
X143382381Y-87000476D01*
X143382381Y-86714762D02*
X142382381Y-86714762D01*
X142525238Y-86810000D01*
X142620476Y-86905238D01*
X142668095Y-87000476D01*
X142382381Y-85524285D02*
X142382381Y-86000476D01*
X142858571Y-86048095D01*
X142810952Y-86000476D01*
X142763333Y-85905238D01*
X142763333Y-85667142D01*
X142810952Y-85571904D01*
X142858571Y-85524285D01*
X142953810Y-85476666D01*
X143191905Y-85476666D01*
X143287143Y-85524285D01*
X143334762Y-85571904D01*
X143382381Y-85667142D01*
X143382381Y-85905238D01*
X143334762Y-86000476D01*
X143287143Y-86048095D01*
X142382381Y-84857619D02*
X142382381Y-84762380D01*
X142430000Y-84667142D01*
X142477619Y-84619523D01*
X142572857Y-84571904D01*
X142763333Y-84524285D01*
X143001429Y-84524285D01*
X143191905Y-84571904D01*
X143287143Y-84619523D01*
X143334762Y-84667142D01*
X143382381Y-84762380D01*
X143382381Y-84857619D01*
X143334762Y-84952857D01*
X143287143Y-85000476D01*
X143191905Y-85048095D01*
X143001429Y-85095714D01*
X142763333Y-85095714D01*
X142572857Y-85048095D01*
X142477619Y-85000476D01*
X142430000Y-84952857D01*
X142382381Y-84857619D01*
X142858571Y-84095714D02*
X142858571Y-83762380D01*
X143382381Y-83619523D02*
X143382381Y-84095714D01*
X142382381Y-84095714D01*
X142382381Y-83619523D01*
X156647762Y-80685714D02*
X156695381Y-80542857D01*
X156695381Y-80304761D01*
X156647762Y-80209523D01*
X156600143Y-80161904D01*
X156504905Y-80114285D01*
X156409667Y-80114285D01*
X156314429Y-80161904D01*
X156266810Y-80209523D01*
X156219190Y-80304761D01*
X156171571Y-80495238D01*
X156123952Y-80590476D01*
X156076333Y-80638095D01*
X155981095Y-80685714D01*
X155885857Y-80685714D01*
X155790619Y-80638095D01*
X155743000Y-80590476D01*
X155695381Y-80495238D01*
X155695381Y-80257142D01*
X155743000Y-80114285D01*
X156695381Y-79685714D02*
X155695381Y-79685714D01*
X156409667Y-79352380D01*
X155695381Y-79019047D01*
X156695381Y-79019047D01*
X156028714Y-78114285D02*
X156695381Y-78114285D01*
X155647762Y-78352381D02*
X156362048Y-78590476D01*
X156362048Y-77971428D01*
X155695381Y-77114285D02*
X155695381Y-77590476D01*
X156171571Y-77638095D01*
X156123952Y-77590476D01*
X156076333Y-77495238D01*
X156076333Y-77257142D01*
X156123952Y-77161904D01*
X156171571Y-77114285D01*
X156266810Y-77066666D01*
X156504905Y-77066666D01*
X156600143Y-77114285D01*
X156647762Y-77161904D01*
X156695381Y-77257142D01*
X156695381Y-77495238D01*
X156647762Y-77590476D01*
X156600143Y-77638095D01*
X156695381Y-76114285D02*
X156695381Y-76685714D01*
X156695381Y-76400000D02*
X155695381Y-76400000D01*
X155838238Y-76495238D01*
X155933476Y-76590476D01*
X155981095Y-76685714D01*
M02*
