G04 #@! TF.FileFunction,Copper,L4,Bot,Signal*
%FSLAX46Y46*%
G04 Gerber Fmt 4.6, Leading zero omitted, Abs format (unit mm)*
G04 Created by KiCad (PCBNEW 4.0.4-stable) date 02/07/17 14:21:35*
%MOMM*%
%LPD*%
G01*
G04 APERTURE LIST*
%ADD10C,0.100000*%
%ADD11R,1.200000X0.900000*%
%ADD12R,0.750000X0.800000*%
%ADD13R,0.800000X0.750000*%
%ADD14C,6.000000*%
%ADD15R,0.900000X1.200000*%
%ADD16R,1.900000X0.700000*%
%ADD17R,1.900000X1.000000*%
%ADD18R,1.550000X0.600000*%
%ADD19C,1.700000*%
%ADD20R,1.700000X1.700000*%
%ADD21O,1.700000X1.700000*%
%ADD22O,1.501140X1.000000*%
%ADD23R,1.501140X1.000000*%
%ADD24C,0.900000*%
%ADD25C,0.500000*%
%ADD26C,0.300000*%
%ADD27C,0.400000*%
%ADD28C,0.200000*%
%ADD29C,0.254000*%
G04 APERTURE END LIST*
D10*
D11*
X124450000Y-84960000D03*
X122250000Y-84960000D03*
D12*
X144280000Y-77120000D03*
X144280000Y-78620000D03*
D13*
X111145000Y-80815000D03*
X112645000Y-80815000D03*
D12*
X96620000Y-102000000D03*
X96620000Y-103500000D03*
X97190000Y-66260000D03*
X97190000Y-64760000D03*
D14*
X91945000Y-102245000D03*
X91945000Y-66245000D03*
D15*
X96620000Y-100190000D03*
X96620000Y-97990000D03*
X97200000Y-68270000D03*
X97200000Y-70470000D03*
D16*
X149820000Y-85660000D03*
X149820000Y-82860000D03*
X154720000Y-82860000D03*
X154720000Y-85660000D03*
D17*
X149820000Y-84260000D03*
D16*
X154720000Y-84260000D03*
D18*
X116485000Y-82420000D03*
X116485000Y-83690000D03*
X116485000Y-84960000D03*
X116485000Y-86230000D03*
X111085000Y-86230000D03*
X111085000Y-84960000D03*
X111085000Y-83690000D03*
X111085000Y-82420000D03*
D19*
X102890000Y-100790000D03*
D20*
X100350000Y-100790000D03*
D19*
X100350000Y-67500000D03*
D20*
X102890000Y-67500000D03*
X106540000Y-105330000D03*
D21*
X109080000Y-105330000D03*
X111620000Y-105330000D03*
X114160000Y-105330000D03*
D12*
X137950000Y-97660000D03*
X137950000Y-96160000D03*
D13*
X140910000Y-70520000D03*
X142410000Y-70520000D03*
D14*
X139950000Y-102245000D03*
X139950000Y-66245000D03*
D15*
X140030000Y-97660000D03*
X140030000Y-95460000D03*
X138770000Y-70630000D03*
X138770000Y-72830000D03*
D13*
X149800000Y-87370000D03*
X148300000Y-87370000D03*
D12*
X154730000Y-87230000D03*
X154730000Y-88730000D03*
D20*
X128360000Y-105280000D03*
D21*
X128360000Y-102740000D03*
X130900000Y-105280000D03*
X130900000Y-102740000D03*
X133440000Y-105280000D03*
X133440000Y-102740000D03*
D20*
X117460000Y-105330000D03*
D21*
X120000000Y-105330000D03*
X122540000Y-105330000D03*
X125080000Y-105330000D03*
D11*
X147360000Y-82920000D03*
X145160000Y-82920000D03*
D22*
X146210000Y-78400000D03*
X146210000Y-79670000D03*
D23*
X146210000Y-77130000D03*
D24*
X119600000Y-91440000D03*
X119800000Y-85820000D03*
X121640000Y-91740000D03*
X120495000Y-67655000D03*
X123220000Y-64920000D03*
X89800000Y-96480000D03*
X91280000Y-93740000D03*
X88150000Y-93910000D03*
X89690000Y-91200000D03*
X121310000Y-96240000D03*
X128340000Y-74370000D03*
X107515000Y-83355000D03*
X115910000Y-96010000D03*
X98785000Y-76585000D03*
X96525000Y-74745000D03*
X98795000Y-72415000D03*
X105555000Y-98835000D03*
X116105000Y-74935000D03*
X132385000Y-93905000D03*
X142205000Y-82475000D03*
X139365000Y-82575000D03*
X135695000Y-89815000D03*
X131585000Y-87725000D03*
X96865000Y-78475000D03*
X125485000Y-74285000D03*
X115385000Y-67875000D03*
X110765000Y-95385000D03*
X113125000Y-88825000D03*
X111765000Y-85975000D03*
X110175000Y-79795000D03*
X113345000Y-77945000D03*
X114115000Y-73615000D03*
X111645000Y-75555000D03*
X111655000Y-74495000D03*
X111875000Y-72205000D03*
X102657500Y-80857500D03*
X103745000Y-80845000D03*
X98985000Y-82085000D03*
X103832500Y-82032500D03*
X102657500Y-82032500D03*
X126150000Y-68010000D03*
X129390000Y-64920000D03*
X132590000Y-67890000D03*
X135640000Y-64850000D03*
X125500000Y-91980000D03*
X153360000Y-87220000D03*
X149810000Y-88690000D03*
X89680000Y-82750000D03*
X121310000Y-102460000D03*
X125620000Y-75590000D03*
X118510000Y-97900000D03*
X108160000Y-98530000D03*
X126580000Y-84960000D03*
X115725000Y-79345000D03*
X111765000Y-78885000D03*
X121095000Y-86985000D03*
X137855000Y-82475000D03*
X131125000Y-92625000D03*
X129665000Y-95105000D03*
X110315000Y-90165000D03*
X112305000Y-94925000D03*
X120495000Y-73275000D03*
X110615000Y-76755000D03*
X118295000Y-75385000D03*
X96850000Y-77270000D03*
X115835000Y-92045000D03*
X115865000Y-94825000D03*
X89570000Y-77220000D03*
X94210000Y-77100000D03*
X115805000Y-93555000D03*
X120350000Y-89340000D03*
X120340000Y-96820000D03*
X124300000Y-77100000D03*
X129760000Y-75800000D03*
X125840000Y-85840000D03*
X88530000Y-89440000D03*
X88270000Y-79740000D03*
X125860000Y-87010000D03*
X93870000Y-79770000D03*
X96610000Y-73430000D03*
X108225000Y-80315000D03*
X114990000Y-100180000D03*
X119415000Y-83525000D03*
X126885000Y-83005000D03*
X128000000Y-87870000D03*
X118380000Y-82990000D03*
X128035000Y-82095000D03*
X122370000Y-87880000D03*
X122365000Y-82905000D03*
X129300000Y-91320000D03*
X125965000Y-96395000D03*
X154720000Y-81520000D03*
X152850000Y-84260000D03*
X134335000Y-75955000D03*
X108235000Y-91155000D03*
X115040000Y-86810000D03*
X115030000Y-83580000D03*
X133195000Y-87955000D03*
X124310000Y-97600000D03*
X106115000Y-84875000D03*
X113315000Y-85995000D03*
X127145000Y-91175000D03*
X120320000Y-102950000D03*
X122240000Y-103210000D03*
X138690000Y-81430000D03*
X109240000Y-95380000D03*
D25*
X100350000Y-67500000D02*
X100690000Y-67500000D01*
X100690000Y-67500000D02*
X101150000Y-67960000D01*
X101150000Y-66910000D02*
X101130000Y-66890000D01*
X101150000Y-67960000D02*
X101150000Y-66910000D01*
X98500000Y-67000000D02*
X98500000Y-68240000D01*
X99000000Y-67500000D02*
X98500000Y-67000000D01*
X100350000Y-67500000D02*
X99000000Y-67500000D01*
X99240000Y-67500000D02*
X98500000Y-68240000D01*
X100350000Y-67500000D02*
X99240000Y-67500000D01*
D26*
X91280000Y-95000000D02*
X89800000Y-96480000D01*
X91280000Y-93740000D02*
X91280000Y-95000000D01*
X88150000Y-92740000D02*
X88150000Y-93910000D01*
X89690000Y-91200000D02*
X88150000Y-92740000D01*
X121310000Y-96240000D02*
X121330000Y-96240000D01*
X128340000Y-74370000D02*
X128340000Y-74360000D01*
D27*
X100610000Y-70700000D02*
X101080000Y-71170000D01*
X101080000Y-71170000D02*
X107320000Y-71170000D01*
X107320000Y-71170000D02*
X108320000Y-72170000D01*
X108320000Y-72170000D02*
X108320000Y-76200000D01*
X108320000Y-76200000D02*
X107410000Y-77110000D01*
X107410000Y-77110000D02*
X105770000Y-77110000D01*
X105770000Y-77110000D02*
X104580000Y-78300000D01*
X104580000Y-78300000D02*
X104580000Y-82250000D01*
X104580000Y-82250000D02*
X105920000Y-83590000D01*
X105920000Y-83590000D02*
X107590000Y-83590000D01*
X107590000Y-83590000D02*
X108550000Y-84550000D01*
X108550000Y-84550000D02*
X108550000Y-88660000D01*
X108550000Y-88660000D02*
X107790000Y-89420000D01*
X107790000Y-89420000D02*
X105420000Y-89420000D01*
X105420000Y-89420000D02*
X104810000Y-90030000D01*
X104810000Y-90030000D02*
X104810000Y-93910000D01*
X104810000Y-93910000D02*
X106230000Y-95330000D01*
X106230000Y-95330000D02*
X107630000Y-95330000D01*
X107630000Y-95330000D02*
X109360000Y-97060000D01*
X109360000Y-97060000D02*
X109360000Y-100750000D01*
X109360000Y-100750000D02*
X107850000Y-102260000D01*
X107850000Y-102260000D02*
X105950000Y-102260000D01*
X105950000Y-102260000D02*
X104710000Y-103500000D01*
X104710000Y-103500000D02*
X96620000Y-103500000D01*
D28*
X114205000Y-73575000D02*
X114155000Y-73575000D01*
X114155000Y-73575000D02*
X114115000Y-73615000D01*
D26*
X102545000Y-80845000D02*
X102645000Y-80845000D01*
X102645000Y-80845000D02*
X102657500Y-80857500D01*
X103832500Y-82032500D02*
X103975000Y-82175000D01*
X103975000Y-82175000D02*
X103975000Y-82335000D01*
X102645000Y-82045000D02*
X102545000Y-82045000D01*
X102657500Y-82032500D02*
X102645000Y-82045000D01*
X123220000Y-64920000D02*
X126150000Y-67850000D01*
X126150000Y-67850000D02*
X126150000Y-68010000D01*
X129390000Y-64920000D02*
X132360000Y-67890000D01*
X132360000Y-67890000D02*
X132590000Y-67890000D01*
X154730000Y-87230000D02*
X154720000Y-87220000D01*
X154720000Y-87220000D02*
X153360000Y-87220000D01*
X154720000Y-87220000D02*
X154720000Y-85660000D01*
X149800000Y-87370000D02*
X149810000Y-87380000D01*
X149810000Y-87380000D02*
X149810000Y-88690000D01*
X149800000Y-87370000D02*
X149820000Y-87350000D01*
X149820000Y-87350000D02*
X149820000Y-85660000D01*
X144280000Y-77120000D02*
X146190000Y-77120000D01*
X121310000Y-102460000D02*
X121310000Y-102470000D01*
X125620000Y-75590000D02*
X125600000Y-75590000D01*
X126000000Y-84960000D02*
X126580000Y-84960000D01*
X124450000Y-84960000D02*
X126000000Y-84960000D01*
X111145000Y-80815000D02*
X111145000Y-80015000D01*
X111765000Y-79395000D02*
X111765000Y-78885000D01*
X111145000Y-80015000D02*
X111765000Y-79395000D01*
X111145000Y-80815000D02*
X111145000Y-82360000D01*
X111145000Y-82360000D02*
X111085000Y-82420000D01*
X146190000Y-77120000D02*
X146210000Y-77140000D01*
X96620000Y-100190000D02*
X96620000Y-102000000D01*
X91945000Y-100245000D02*
X96565000Y-100245000D01*
X96565000Y-100245000D02*
X96620000Y-100190000D01*
X91945000Y-68245000D02*
X97175000Y-68245000D01*
X97175000Y-68245000D02*
X97190000Y-68230000D01*
X97190000Y-68230000D02*
X97190000Y-66260000D01*
X116485000Y-83690000D02*
X117650000Y-83690000D01*
X118860000Y-84080000D02*
X119415000Y-83525000D01*
X118040000Y-84080000D02*
X118860000Y-84080000D01*
X117650000Y-83690000D02*
X118040000Y-84080000D01*
X119250000Y-83690000D02*
X119415000Y-83525000D01*
X116485000Y-82420000D02*
X117810000Y-82420000D01*
X117810000Y-82420000D02*
X118380000Y-82990000D01*
X122250000Y-84960000D02*
X116485000Y-84960000D01*
X122250000Y-84960000D02*
X122250000Y-83020000D01*
X122250000Y-83020000D02*
X122365000Y-82905000D01*
X154720000Y-81520000D02*
X154720000Y-82860000D01*
X154720000Y-84260000D02*
X152850000Y-84260000D01*
X140030000Y-97660000D02*
X137950000Y-97660000D01*
X139950000Y-102245000D02*
X139950000Y-97740000D01*
X139950000Y-97740000D02*
X140030000Y-97660000D01*
X140910000Y-70520000D02*
X138880000Y-70520000D01*
X138880000Y-70520000D02*
X138770000Y-70630000D01*
X140910000Y-70520000D02*
X140910000Y-67205000D01*
X140910000Y-67205000D02*
X139950000Y-66245000D01*
X147360000Y-82920000D02*
X147420000Y-82860000D01*
X147420000Y-82860000D02*
X149820000Y-82860000D01*
D29*
G36*
X144355338Y-71284903D02*
X144293118Y-71434746D01*
X144292883Y-71704073D01*
X144355646Y-71855972D01*
X144358000Y-76215069D01*
X144368033Y-76264473D01*
X144381825Y-76284635D01*
X143905000Y-76284635D01*
X143746763Y-76314409D01*
X143601433Y-76407927D01*
X143503936Y-76550619D01*
X143469635Y-76720000D01*
X143469635Y-77520000D01*
X143499409Y-77678237D01*
X143518723Y-77708251D01*
X143366673Y-77860302D01*
X143270000Y-78093691D01*
X143270000Y-78334250D01*
X143428750Y-78493000D01*
X144153000Y-78493000D01*
X144153000Y-78473000D01*
X144407000Y-78473000D01*
X144407000Y-78493000D01*
X144427000Y-78493000D01*
X144427000Y-78747000D01*
X144407000Y-78747000D01*
X144407000Y-79496250D01*
X144565750Y-79655000D01*
X144781310Y-79655000D01*
X145014699Y-79558327D01*
X145035763Y-79537263D01*
X145009360Y-79670000D01*
X145079924Y-80024748D01*
X145280872Y-80325488D01*
X145581612Y-80526436D01*
X145936360Y-80597000D01*
X146483640Y-80597000D01*
X146838388Y-80526436D01*
X147139128Y-80325488D01*
X147340076Y-80024748D01*
X147410640Y-79670000D01*
X147340076Y-79315252D01*
X147266311Y-79204855D01*
X147311738Y-79171151D01*
X147542053Y-78786723D01*
X147554689Y-78701874D01*
X147428524Y-78527000D01*
X146337000Y-78527000D01*
X146337000Y-78547000D01*
X146083000Y-78547000D01*
X146083000Y-78527000D01*
X146063000Y-78527000D01*
X146063000Y-78273000D01*
X146083000Y-78273000D01*
X146083000Y-78253000D01*
X146337000Y-78253000D01*
X146337000Y-78273000D01*
X147428524Y-78273000D01*
X147554689Y-78098126D01*
X147542053Y-78013277D01*
X147374839Y-77734173D01*
X147395935Y-77630000D01*
X147395935Y-76630000D01*
X147366161Y-76471763D01*
X147275902Y-76331497D01*
X155443000Y-76300761D01*
X155443000Y-81002914D01*
X155217429Y-80776949D01*
X154895211Y-80643153D01*
X154546319Y-80642849D01*
X154223869Y-80776082D01*
X153976949Y-81022571D01*
X153843153Y-81344789D01*
X153842849Y-81693681D01*
X153976082Y-82016131D01*
X154034484Y-82074635D01*
X153770000Y-82074635D01*
X153611763Y-82104409D01*
X153466433Y-82197927D01*
X153368936Y-82340619D01*
X153334635Y-82510000D01*
X153334635Y-83210000D01*
X153364409Y-83368237D01*
X153457927Y-83513567D01*
X153525636Y-83559831D01*
X153466433Y-83597927D01*
X153450924Y-83620625D01*
X153347429Y-83516949D01*
X153025211Y-83383153D01*
X152676319Y-83382849D01*
X152353869Y-83516082D01*
X152106949Y-83762571D01*
X151973153Y-84084789D01*
X151972849Y-84433681D01*
X152106082Y-84756131D01*
X152352571Y-85003051D01*
X152674789Y-85136847D01*
X153023681Y-85137151D01*
X153346131Y-85003918D01*
X153449601Y-84900628D01*
X153457927Y-84913567D01*
X153525636Y-84959831D01*
X153466433Y-84997927D01*
X153368936Y-85140619D01*
X153334635Y-85310000D01*
X153334635Y-86010000D01*
X153364409Y-86168237D01*
X153457927Y-86313567D01*
X153501184Y-86343123D01*
X153186319Y-86342849D01*
X152863869Y-86476082D01*
X152616949Y-86722571D01*
X152483153Y-87044789D01*
X152482849Y-87393681D01*
X152616082Y-87716131D01*
X152862571Y-87963051D01*
X153184789Y-88096847D01*
X153533681Y-88097151D01*
X153811716Y-87982270D01*
X153720000Y-88203691D01*
X153720000Y-88444250D01*
X153878750Y-88603000D01*
X154603000Y-88603000D01*
X154603000Y-88583000D01*
X154857000Y-88583000D01*
X154857000Y-88603000D01*
X154877000Y-88603000D01*
X154877000Y-88857000D01*
X154857000Y-88857000D01*
X154857000Y-89606250D01*
X155015750Y-89765000D01*
X155231310Y-89765000D01*
X155443000Y-89677315D01*
X155443000Y-92369723D01*
X144535136Y-92358000D01*
X144485716Y-92367953D01*
X144444061Y-92396349D01*
X144416735Y-92438714D01*
X144408000Y-92485063D01*
X144409989Y-96492482D01*
X144376402Y-96526010D01*
X144273118Y-96774746D01*
X144272883Y-97044073D01*
X144375733Y-97292989D01*
X144410403Y-97327720D01*
X144415076Y-106743000D01*
X120425641Y-106743000D01*
X120766924Y-106601645D01*
X121195183Y-106211358D01*
X121364691Y-105850417D01*
X121637025Y-106257993D01*
X122051313Y-106534812D01*
X122540000Y-106632018D01*
X123028687Y-106534812D01*
X123442975Y-106257993D01*
X123719794Y-105843705D01*
X123810000Y-105390209D01*
X123900206Y-105843705D01*
X124177025Y-106257993D01*
X124591313Y-106534812D01*
X125080000Y-106632018D01*
X125568687Y-106534812D01*
X125982975Y-106257993D01*
X126259794Y-105843705D01*
X126357000Y-105355018D01*
X126357000Y-105304982D01*
X126259794Y-104816295D01*
X126001680Y-104430000D01*
X127074635Y-104430000D01*
X127074635Y-106130000D01*
X127104409Y-106288237D01*
X127197927Y-106433567D01*
X127340619Y-106531064D01*
X127510000Y-106565365D01*
X129210000Y-106565365D01*
X129368237Y-106535591D01*
X129513567Y-106442073D01*
X129611064Y-106299381D01*
X129645365Y-106130000D01*
X129645365Y-105417454D01*
X129720206Y-105793705D01*
X129997025Y-106207993D01*
X130411313Y-106484812D01*
X130900000Y-106582018D01*
X131388687Y-106484812D01*
X131802975Y-106207993D01*
X132079794Y-105793705D01*
X132170000Y-105340209D01*
X132260206Y-105793705D01*
X132537025Y-106207993D01*
X132951313Y-106484812D01*
X133440000Y-106582018D01*
X133928687Y-106484812D01*
X134342975Y-106207993D01*
X134619794Y-105793705D01*
X134717000Y-105305018D01*
X134717000Y-105254982D01*
X134619794Y-104766295D01*
X134342975Y-104352007D01*
X133976452Y-104107104D01*
X134206924Y-104011645D01*
X134635183Y-103621358D01*
X134881486Y-103096892D01*
X134790571Y-102923682D01*
X136522406Y-102923682D01*
X137043037Y-104183704D01*
X138006226Y-105148575D01*
X139265337Y-105671404D01*
X140628682Y-105672594D01*
X141888704Y-105151963D01*
X142853575Y-104188774D01*
X143376404Y-102929663D01*
X143377594Y-101566318D01*
X142856963Y-100306296D01*
X141893774Y-99341425D01*
X140634663Y-98818596D01*
X140527000Y-98818502D01*
X140527000Y-98686521D01*
X140638237Y-98665591D01*
X140783567Y-98572073D01*
X140881064Y-98429381D01*
X140915365Y-98260000D01*
X140915365Y-97060000D01*
X140885591Y-96901763D01*
X140792073Y-96756433D01*
X140665986Y-96670281D01*
X140839699Y-96598327D01*
X141018327Y-96419698D01*
X141115000Y-96186309D01*
X141115000Y-95745750D01*
X140956250Y-95587000D01*
X140157000Y-95587000D01*
X140157000Y-95607000D01*
X139903000Y-95607000D01*
X139903000Y-95587000D01*
X139103750Y-95587000D01*
X138960000Y-95730750D01*
X138960000Y-95633691D01*
X138863327Y-95400302D01*
X138684699Y-95221673D01*
X138451310Y-95125000D01*
X138235750Y-95125000D01*
X138077000Y-95283750D01*
X138077000Y-96033000D01*
X138097000Y-96033000D01*
X138097000Y-96287000D01*
X138077000Y-96287000D01*
X138077000Y-96307000D01*
X137823000Y-96307000D01*
X137823000Y-96287000D01*
X137098750Y-96287000D01*
X136940000Y-96445750D01*
X136940000Y-96686309D01*
X137036673Y-96919698D01*
X137187598Y-97070624D01*
X137173936Y-97090619D01*
X137139635Y-97260000D01*
X137139635Y-98060000D01*
X137169409Y-98218237D01*
X137262927Y-98363567D01*
X137405619Y-98461064D01*
X137575000Y-98495365D01*
X138325000Y-98495365D01*
X138483237Y-98465591D01*
X138628567Y-98372073D01*
X138720858Y-98237000D01*
X139144635Y-98237000D01*
X139144635Y-98260000D01*
X139174409Y-98418237D01*
X139267927Y-98563567D01*
X139373000Y-98635360D01*
X139373000Y-98817495D01*
X139271318Y-98817406D01*
X138011296Y-99338037D01*
X137046425Y-100301226D01*
X136523596Y-101560337D01*
X136522406Y-102923682D01*
X134790571Y-102923682D01*
X134760819Y-102867000D01*
X133567000Y-102867000D01*
X133567000Y-102887000D01*
X133313000Y-102887000D01*
X133313000Y-102867000D01*
X133293000Y-102867000D01*
X133293000Y-102613000D01*
X133313000Y-102613000D01*
X133313000Y-101419845D01*
X133567000Y-101419845D01*
X133567000Y-102613000D01*
X134760819Y-102613000D01*
X134881486Y-102383108D01*
X134635183Y-101858642D01*
X134206924Y-101468355D01*
X133796890Y-101298524D01*
X133567000Y-101419845D01*
X133313000Y-101419845D01*
X133083110Y-101298524D01*
X132673076Y-101468355D01*
X132244817Y-101858642D01*
X132075309Y-102219583D01*
X131802975Y-101812007D01*
X131388687Y-101535188D01*
X130900000Y-101437982D01*
X130411313Y-101535188D01*
X129997025Y-101812007D01*
X129720206Y-102226295D01*
X129630000Y-102679791D01*
X129539794Y-102226295D01*
X129262975Y-101812007D01*
X128848687Y-101535188D01*
X128360000Y-101437982D01*
X127871313Y-101535188D01*
X127457025Y-101812007D01*
X127180206Y-102226295D01*
X127083000Y-102714982D01*
X127083000Y-102765018D01*
X127180206Y-103253705D01*
X127457025Y-103667993D01*
X127871313Y-103944812D01*
X128121790Y-103994635D01*
X127510000Y-103994635D01*
X127351763Y-104024409D01*
X127206433Y-104117927D01*
X127108936Y-104260619D01*
X127074635Y-104430000D01*
X126001680Y-104430000D01*
X125982975Y-104402007D01*
X125568687Y-104125188D01*
X125080000Y-104027982D01*
X124591313Y-104125188D01*
X124177025Y-104402007D01*
X123900206Y-104816295D01*
X123810000Y-105269791D01*
X123719794Y-104816295D01*
X123442975Y-104402007D01*
X123028687Y-104125188D01*
X122551396Y-104030249D01*
X122736131Y-103953918D01*
X122983051Y-103707429D01*
X123116847Y-103385211D01*
X123117151Y-103036319D01*
X122983918Y-102713869D01*
X122737429Y-102466949D01*
X122415211Y-102333153D01*
X122187110Y-102332954D01*
X122187151Y-102286319D01*
X122053918Y-101963869D01*
X121807429Y-101716949D01*
X121485211Y-101583153D01*
X121136319Y-101582849D01*
X120813869Y-101716082D01*
X120566949Y-101962571D01*
X120517234Y-102082298D01*
X120495211Y-102073153D01*
X120146319Y-102072849D01*
X119823869Y-102206082D01*
X119576949Y-102452571D01*
X119443153Y-102774789D01*
X119442849Y-103123681D01*
X119576082Y-103446131D01*
X119822571Y-103693051D01*
X120144789Y-103826847D01*
X120493681Y-103827151D01*
X120816131Y-103693918D01*
X121063051Y-103447429D01*
X121112766Y-103327702D01*
X121134789Y-103336847D01*
X121362890Y-103337046D01*
X121362849Y-103383681D01*
X121496082Y-103706131D01*
X121742571Y-103953051D01*
X122064789Y-104086847D01*
X122243284Y-104087003D01*
X122051313Y-104125188D01*
X121637025Y-104402007D01*
X121364691Y-104809583D01*
X121195183Y-104448642D01*
X120766924Y-104058355D01*
X120356890Y-103888524D01*
X120127000Y-104009845D01*
X120127000Y-105203000D01*
X120147000Y-105203000D01*
X120147000Y-105457000D01*
X120127000Y-105457000D01*
X120127000Y-105477000D01*
X119873000Y-105477000D01*
X119873000Y-105457000D01*
X119853000Y-105457000D01*
X119853000Y-105203000D01*
X119873000Y-105203000D01*
X119873000Y-104009845D01*
X119643110Y-103888524D01*
X119233076Y-104058355D01*
X118804817Y-104448642D01*
X118745365Y-104575236D01*
X118745365Y-104480000D01*
X118715591Y-104321763D01*
X118622073Y-104176433D01*
X118479381Y-104078936D01*
X118310000Y-104044635D01*
X116610000Y-104044635D01*
X116451763Y-104074409D01*
X116306433Y-104167927D01*
X116208936Y-104310619D01*
X116174635Y-104480000D01*
X116174635Y-106180000D01*
X116204409Y-106338237D01*
X116297927Y-106483567D01*
X116440619Y-106581064D01*
X116610000Y-106615365D01*
X118310000Y-106615365D01*
X118468237Y-106585591D01*
X118613567Y-106492073D01*
X118711064Y-106349381D01*
X118745365Y-106180000D01*
X118745365Y-106084764D01*
X118804817Y-106211358D01*
X119233076Y-106601645D01*
X119574359Y-106743000D01*
X109505641Y-106743000D01*
X109846924Y-106601645D01*
X110275183Y-106211358D01*
X110444691Y-105850417D01*
X110717025Y-106257993D01*
X111131313Y-106534812D01*
X111620000Y-106632018D01*
X112108687Y-106534812D01*
X112522975Y-106257993D01*
X112799794Y-105843705D01*
X112890000Y-105390209D01*
X112980206Y-105843705D01*
X113257025Y-106257993D01*
X113671313Y-106534812D01*
X114160000Y-106632018D01*
X114648687Y-106534812D01*
X115062975Y-106257993D01*
X115339794Y-105843705D01*
X115437000Y-105355018D01*
X115437000Y-105304982D01*
X115339794Y-104816295D01*
X115062975Y-104402007D01*
X114648687Y-104125188D01*
X114160000Y-104027982D01*
X113671313Y-104125188D01*
X113257025Y-104402007D01*
X112980206Y-104816295D01*
X112890000Y-105269791D01*
X112799794Y-104816295D01*
X112522975Y-104402007D01*
X112108687Y-104125188D01*
X111620000Y-104027982D01*
X111131313Y-104125188D01*
X110717025Y-104402007D01*
X110444691Y-104809583D01*
X110275183Y-104448642D01*
X109846924Y-104058355D01*
X109436890Y-103888524D01*
X109207000Y-104009845D01*
X109207000Y-105203000D01*
X109227000Y-105203000D01*
X109227000Y-105457000D01*
X109207000Y-105457000D01*
X109207000Y-105477000D01*
X108953000Y-105477000D01*
X108953000Y-105457000D01*
X108933000Y-105457000D01*
X108933000Y-105203000D01*
X108953000Y-105203000D01*
X108953000Y-104009845D01*
X108723110Y-103888524D01*
X108313076Y-104058355D01*
X107884817Y-104448642D01*
X107825365Y-104575236D01*
X107825365Y-104480000D01*
X107795591Y-104321763D01*
X107702073Y-104176433D01*
X107559381Y-104078936D01*
X107390000Y-104044635D01*
X107072000Y-104044635D01*
X107072000Y-100353681D01*
X114112849Y-100353681D01*
X114246082Y-100676131D01*
X114492571Y-100923051D01*
X114814789Y-101056847D01*
X115163681Y-101057151D01*
X115486131Y-100923918D01*
X115733051Y-100677429D01*
X115866847Y-100355211D01*
X115867151Y-100006319D01*
X115733918Y-99683869D01*
X115487429Y-99436949D01*
X115165211Y-99303153D01*
X114816319Y-99302849D01*
X114493869Y-99436082D01*
X114246949Y-99682571D01*
X114113153Y-100004789D01*
X114112849Y-100353681D01*
X107072000Y-100353681D01*
X107072000Y-98703681D01*
X107282849Y-98703681D01*
X107416082Y-99026131D01*
X107662571Y-99273051D01*
X107984789Y-99406847D01*
X108333681Y-99407151D01*
X108656131Y-99273918D01*
X108903051Y-99027429D01*
X109036847Y-98705211D01*
X109037151Y-98356319D01*
X108920368Y-98073681D01*
X117632849Y-98073681D01*
X117766082Y-98396131D01*
X118012571Y-98643051D01*
X118334789Y-98776847D01*
X118683681Y-98777151D01*
X119006131Y-98643918D01*
X119253051Y-98397429D01*
X119386847Y-98075211D01*
X119387109Y-97773681D01*
X123432849Y-97773681D01*
X123566082Y-98096131D01*
X123812571Y-98343051D01*
X124134789Y-98476847D01*
X124483681Y-98477151D01*
X124806131Y-98343918D01*
X125053051Y-98097429D01*
X125186847Y-97775211D01*
X125187151Y-97426319D01*
X125053918Y-97103869D01*
X124807429Y-96856949D01*
X124485211Y-96723153D01*
X124136319Y-96722849D01*
X123813869Y-96856082D01*
X123566949Y-97102571D01*
X123433153Y-97424789D01*
X123432849Y-97773681D01*
X119387109Y-97773681D01*
X119387151Y-97726319D01*
X119253918Y-97403869D01*
X119007429Y-97156949D01*
X118685211Y-97023153D01*
X118336319Y-97022849D01*
X118013869Y-97156082D01*
X117766949Y-97402571D01*
X117633153Y-97724789D01*
X117632849Y-98073681D01*
X108920368Y-98073681D01*
X108903918Y-98033869D01*
X108657429Y-97786949D01*
X108335211Y-97653153D01*
X107986319Y-97652849D01*
X107663869Y-97786082D01*
X107416949Y-98032571D01*
X107283153Y-98354789D01*
X107282849Y-98703681D01*
X107072000Y-98703681D01*
X107072000Y-96993681D01*
X119462849Y-96993681D01*
X119596082Y-97316131D01*
X119842571Y-97563051D01*
X120164789Y-97696847D01*
X120513681Y-97697151D01*
X120836131Y-97563918D01*
X121083051Y-97317429D01*
X121216847Y-96995211D01*
X121217151Y-96646319D01*
X121185072Y-96568681D01*
X125087849Y-96568681D01*
X125221082Y-96891131D01*
X125467571Y-97138051D01*
X125789789Y-97271847D01*
X126138681Y-97272151D01*
X126461131Y-97138918D01*
X126708051Y-96892429D01*
X126841847Y-96570211D01*
X126842151Y-96221319D01*
X126708918Y-95898869D01*
X126462429Y-95651949D01*
X126140211Y-95518153D01*
X125791319Y-95517849D01*
X125468869Y-95651082D01*
X125221949Y-95897571D01*
X125088153Y-96219789D01*
X125087849Y-96568681D01*
X121185072Y-96568681D01*
X121083918Y-96323869D01*
X120837429Y-96076949D01*
X120515211Y-95943153D01*
X120166319Y-95942849D01*
X119843869Y-96076082D01*
X119596949Y-96322571D01*
X119463153Y-96644789D01*
X119462849Y-96993681D01*
X107072000Y-96993681D01*
X107072000Y-95553681D01*
X108362849Y-95553681D01*
X108496082Y-95876131D01*
X108742571Y-96123051D01*
X109064789Y-96256847D01*
X109413681Y-96257151D01*
X109736131Y-96123918D01*
X109983051Y-95877429D01*
X110116847Y-95555211D01*
X110117151Y-95206319D01*
X110072677Y-95098681D01*
X111427849Y-95098681D01*
X111561082Y-95421131D01*
X111807571Y-95668051D01*
X112129789Y-95801847D01*
X112478681Y-95802151D01*
X112801131Y-95668918D01*
X113048051Y-95422429D01*
X113181847Y-95100211D01*
X113182151Y-94751319D01*
X113048918Y-94428869D01*
X112802429Y-94181949D01*
X112480211Y-94048153D01*
X112131319Y-94047849D01*
X111808869Y-94181082D01*
X111561949Y-94427571D01*
X111428153Y-94749789D01*
X111427849Y-95098681D01*
X110072677Y-95098681D01*
X109983918Y-94883869D01*
X109737429Y-94636949D01*
X109415211Y-94503153D01*
X109066319Y-94502849D01*
X108743869Y-94636082D01*
X108496949Y-94882571D01*
X108363153Y-95204789D01*
X108362849Y-95553681D01*
X107072000Y-95553681D01*
X107072000Y-93728681D01*
X114927849Y-93728681D01*
X115061082Y-94051131D01*
X115229682Y-94220026D01*
X115121949Y-94327571D01*
X114988153Y-94649789D01*
X114987849Y-94998681D01*
X115121082Y-95321131D01*
X115367571Y-95568051D01*
X115689789Y-95701847D01*
X116038681Y-95702151D01*
X116361131Y-95568918D01*
X116608051Y-95322429D01*
X116626216Y-95278681D01*
X128787849Y-95278681D01*
X128921082Y-95601131D01*
X129167571Y-95848051D01*
X129489789Y-95981847D01*
X129838681Y-95982151D01*
X130161131Y-95848918D01*
X130376734Y-95633691D01*
X136940000Y-95633691D01*
X136940000Y-95874250D01*
X137098750Y-96033000D01*
X137823000Y-96033000D01*
X137823000Y-95283750D01*
X137664250Y-95125000D01*
X137448690Y-95125000D01*
X137215301Y-95221673D01*
X137036673Y-95400302D01*
X136940000Y-95633691D01*
X130376734Y-95633691D01*
X130408051Y-95602429D01*
X130541847Y-95280211D01*
X130542151Y-94931319D01*
X130460494Y-94733691D01*
X138945000Y-94733691D01*
X138945000Y-95174250D01*
X139103750Y-95333000D01*
X139903000Y-95333000D01*
X139903000Y-94383750D01*
X140157000Y-94383750D01*
X140157000Y-95333000D01*
X140956250Y-95333000D01*
X141115000Y-95174250D01*
X141115000Y-94733691D01*
X141018327Y-94500302D01*
X140839699Y-94321673D01*
X140606310Y-94225000D01*
X140315750Y-94225000D01*
X140157000Y-94383750D01*
X139903000Y-94383750D01*
X139744250Y-94225000D01*
X139453690Y-94225000D01*
X139220301Y-94321673D01*
X139041673Y-94500302D01*
X138945000Y-94733691D01*
X130460494Y-94733691D01*
X130408918Y-94608869D01*
X130162429Y-94361949D01*
X129840211Y-94228153D01*
X129491319Y-94227849D01*
X129168869Y-94361082D01*
X128921949Y-94607571D01*
X128788153Y-94929789D01*
X128787849Y-95278681D01*
X116626216Y-95278681D01*
X116741847Y-95000211D01*
X116742151Y-94651319D01*
X116608918Y-94328869D01*
X116440318Y-94159974D01*
X116548051Y-94052429D01*
X116681847Y-93730211D01*
X116682151Y-93381319D01*
X116548918Y-93058869D01*
X116302429Y-92811949D01*
X116288944Y-92806349D01*
X116331131Y-92788918D01*
X116578051Y-92542429D01*
X116711847Y-92220211D01*
X116711904Y-92153681D01*
X124622849Y-92153681D01*
X124756082Y-92476131D01*
X125002571Y-92723051D01*
X125324789Y-92856847D01*
X125673681Y-92857151D01*
X125815189Y-92798681D01*
X130247849Y-92798681D01*
X130381082Y-93121131D01*
X130627571Y-93368051D01*
X130949789Y-93501847D01*
X131298681Y-93502151D01*
X131621131Y-93368918D01*
X131868051Y-93122429D01*
X132001847Y-92800211D01*
X132002151Y-92451319D01*
X131868918Y-92128869D01*
X131622429Y-91881949D01*
X131300211Y-91748153D01*
X130951319Y-91747849D01*
X130628869Y-91881082D01*
X130381949Y-92127571D01*
X130248153Y-92449789D01*
X130247849Y-92798681D01*
X125815189Y-92798681D01*
X125996131Y-92723918D01*
X126243051Y-92477429D01*
X126376847Y-92155211D01*
X126377151Y-91806319D01*
X126243918Y-91483869D01*
X126108966Y-91348681D01*
X126267849Y-91348681D01*
X126401082Y-91671131D01*
X126647571Y-91918051D01*
X126969789Y-92051847D01*
X127318681Y-92052151D01*
X127641131Y-91918918D01*
X127888051Y-91672429D01*
X127962273Y-91493681D01*
X128422849Y-91493681D01*
X128556082Y-91816131D01*
X128802571Y-92063051D01*
X129124789Y-92196847D01*
X129473681Y-92197151D01*
X129796131Y-92063918D01*
X130043051Y-91817429D01*
X130176847Y-91495211D01*
X130177151Y-91146319D01*
X130043918Y-90823869D01*
X129797429Y-90576949D01*
X129475211Y-90443153D01*
X129126319Y-90442849D01*
X128803869Y-90576082D01*
X128556949Y-90822571D01*
X128423153Y-91144789D01*
X128422849Y-91493681D01*
X127962273Y-91493681D01*
X128021847Y-91350211D01*
X128022151Y-91001319D01*
X127888918Y-90678869D01*
X127642429Y-90431949D01*
X127320211Y-90298153D01*
X126971319Y-90297849D01*
X126648869Y-90431082D01*
X126401949Y-90677571D01*
X126268153Y-90999789D01*
X126267849Y-91348681D01*
X126108966Y-91348681D01*
X125997429Y-91236949D01*
X125675211Y-91103153D01*
X125326319Y-91102849D01*
X125003869Y-91236082D01*
X124756949Y-91482571D01*
X124623153Y-91804789D01*
X124622849Y-92153681D01*
X116711904Y-92153681D01*
X116712151Y-91871319D01*
X116578918Y-91548869D01*
X116332429Y-91301949D01*
X116010211Y-91168153D01*
X115661319Y-91167849D01*
X115338869Y-91301082D01*
X115091949Y-91547571D01*
X114958153Y-91869789D01*
X114957849Y-92218681D01*
X115091082Y-92541131D01*
X115337571Y-92788051D01*
X115351056Y-92793651D01*
X115308869Y-92811082D01*
X115061949Y-93057571D01*
X114928153Y-93379789D01*
X114927849Y-93728681D01*
X107072000Y-93728681D01*
X107072000Y-91328681D01*
X107357849Y-91328681D01*
X107491082Y-91651131D01*
X107737571Y-91898051D01*
X108059789Y-92031847D01*
X108408681Y-92032151D01*
X108731131Y-91898918D01*
X108978051Y-91652429D01*
X109111847Y-91330211D01*
X109112151Y-90981319D01*
X108978918Y-90658869D01*
X108732429Y-90411949D01*
X108555980Y-90338681D01*
X109437849Y-90338681D01*
X109571082Y-90661131D01*
X109817571Y-90908051D01*
X110139789Y-91041847D01*
X110488681Y-91042151D01*
X110811131Y-90908918D01*
X111058051Y-90662429D01*
X111191847Y-90340211D01*
X111192151Y-89991319D01*
X111058918Y-89668869D01*
X110904001Y-89513681D01*
X119472849Y-89513681D01*
X119606082Y-89836131D01*
X119852571Y-90083051D01*
X120174789Y-90216847D01*
X120523681Y-90217151D01*
X120846131Y-90083918D01*
X121093051Y-89837429D01*
X121226847Y-89515211D01*
X121227151Y-89166319D01*
X121093918Y-88843869D01*
X120847429Y-88596949D01*
X120525211Y-88463153D01*
X120176319Y-88462849D01*
X119853869Y-88596082D01*
X119606949Y-88842571D01*
X119473153Y-89164789D01*
X119472849Y-89513681D01*
X110904001Y-89513681D01*
X110812429Y-89421949D01*
X110490211Y-89288153D01*
X110141319Y-89287849D01*
X109818869Y-89421082D01*
X109571949Y-89667571D01*
X109438153Y-89989789D01*
X109437849Y-90338681D01*
X108555980Y-90338681D01*
X108410211Y-90278153D01*
X108061319Y-90277849D01*
X107738869Y-90411082D01*
X107491949Y-90657571D01*
X107358153Y-90979789D01*
X107357849Y-91328681D01*
X107072000Y-91328681D01*
X107072000Y-86515750D01*
X109675000Y-86515750D01*
X109675000Y-86656310D01*
X109771673Y-86889699D01*
X109950302Y-87068327D01*
X110183691Y-87165000D01*
X110799250Y-87165000D01*
X110958000Y-87006250D01*
X110958000Y-86357000D01*
X109833750Y-86357000D01*
X109675000Y-86515750D01*
X107072000Y-86515750D01*
X107072000Y-85245750D01*
X109675000Y-85245750D01*
X109675000Y-85386310D01*
X109761442Y-85595000D01*
X109675000Y-85803690D01*
X109675000Y-85944250D01*
X109833750Y-86103000D01*
X110958000Y-86103000D01*
X110958000Y-85087000D01*
X111212000Y-85087000D01*
X111212000Y-86103000D01*
X111232000Y-86103000D01*
X111232000Y-86357000D01*
X111212000Y-86357000D01*
X111212000Y-87006250D01*
X111370750Y-87165000D01*
X111986309Y-87165000D01*
X112219698Y-87068327D01*
X112398327Y-86889699D01*
X112495000Y-86656310D01*
X112495000Y-86515750D01*
X112336252Y-86357002D01*
X112495000Y-86357002D01*
X112495000Y-86306998D01*
X112571082Y-86491131D01*
X112817571Y-86738051D01*
X113139789Y-86871847D01*
X113488681Y-86872151D01*
X113811131Y-86738918D01*
X114058051Y-86492429D01*
X114191847Y-86170211D01*
X114192151Y-85821319D01*
X114058918Y-85498869D01*
X113812429Y-85251949D01*
X113490211Y-85118153D01*
X113141319Y-85117849D01*
X112818869Y-85251082D01*
X112571949Y-85497571D01*
X112469950Y-85743213D01*
X112408558Y-85595000D01*
X112495000Y-85386310D01*
X112495000Y-85245750D01*
X112336250Y-85087000D01*
X111212000Y-85087000D01*
X110958000Y-85087000D01*
X109833750Y-85087000D01*
X109675000Y-85245750D01*
X107072000Y-85245750D01*
X107072000Y-83975750D01*
X109675000Y-83975750D01*
X109675000Y-84116310D01*
X109761442Y-84325000D01*
X109675000Y-84533690D01*
X109675000Y-84674250D01*
X109833750Y-84833000D01*
X110958000Y-84833000D01*
X110958000Y-83817000D01*
X111212000Y-83817000D01*
X111212000Y-84833000D01*
X112336250Y-84833000D01*
X112495000Y-84674250D01*
X112495000Y-84533690D01*
X112408558Y-84325000D01*
X112495000Y-84116310D01*
X112495000Y-83975750D01*
X112336250Y-83817000D01*
X111212000Y-83817000D01*
X110958000Y-83817000D01*
X109833750Y-83817000D01*
X109675000Y-83975750D01*
X107072000Y-83975750D01*
X107072000Y-83753681D01*
X114152849Y-83753681D01*
X114286082Y-84076131D01*
X114532571Y-84323051D01*
X114854789Y-84456847D01*
X115203681Y-84457151D01*
X115382204Y-84383387D01*
X115308936Y-84490619D01*
X115274635Y-84660000D01*
X115274635Y-85260000D01*
X115304409Y-85418237D01*
X115311977Y-85429998D01*
X115171673Y-85570301D01*
X115075000Y-85803690D01*
X115075000Y-85933031D01*
X114866319Y-85932849D01*
X114543869Y-86066082D01*
X114296949Y-86312571D01*
X114163153Y-86634789D01*
X114162849Y-86983681D01*
X114296082Y-87306131D01*
X114542571Y-87553051D01*
X114864789Y-87686847D01*
X115213681Y-87687151D01*
X115536131Y-87553918D01*
X115783051Y-87307429D01*
X115842192Y-87165000D01*
X116199250Y-87165000D01*
X116358000Y-87006250D01*
X116358000Y-86357000D01*
X116612000Y-86357000D01*
X116612000Y-87006250D01*
X116770750Y-87165000D01*
X117386309Y-87165000D01*
X117401564Y-87158681D01*
X120217849Y-87158681D01*
X120351082Y-87481131D01*
X120597571Y-87728051D01*
X120919789Y-87861847D01*
X121268681Y-87862151D01*
X121493097Y-87769425D01*
X121492849Y-88053681D01*
X121626082Y-88376131D01*
X121872571Y-88623051D01*
X122194789Y-88756847D01*
X122543681Y-88757151D01*
X122866131Y-88623918D01*
X123113051Y-88377429D01*
X123246847Y-88055211D01*
X123246857Y-88043681D01*
X127122849Y-88043681D01*
X127256082Y-88366131D01*
X127502571Y-88613051D01*
X127824789Y-88746847D01*
X128173681Y-88747151D01*
X128496131Y-88613918D01*
X128743051Y-88367429D01*
X128842187Y-88128681D01*
X132317849Y-88128681D01*
X132451082Y-88451131D01*
X132697571Y-88698051D01*
X133019789Y-88831847D01*
X133368681Y-88832151D01*
X133691131Y-88698918D01*
X133938051Y-88452429D01*
X134071847Y-88130211D01*
X134072151Y-87781319D01*
X134020268Y-87655750D01*
X147265000Y-87655750D01*
X147265000Y-87871310D01*
X147361673Y-88104699D01*
X147540302Y-88283327D01*
X147773691Y-88380000D01*
X148014250Y-88380000D01*
X148173000Y-88221250D01*
X148173000Y-87497000D01*
X147423750Y-87497000D01*
X147265000Y-87655750D01*
X134020268Y-87655750D01*
X133938918Y-87458869D01*
X133692429Y-87211949D01*
X133370211Y-87078153D01*
X133021319Y-87077849D01*
X132698869Y-87211082D01*
X132451949Y-87457571D01*
X132318153Y-87779789D01*
X132317849Y-88128681D01*
X128842187Y-88128681D01*
X128876847Y-88045211D01*
X128877151Y-87696319D01*
X128743918Y-87373869D01*
X128497429Y-87126949D01*
X128175211Y-86993153D01*
X127826319Y-86992849D01*
X127503869Y-87126082D01*
X127256949Y-87372571D01*
X127123153Y-87694789D01*
X127122849Y-88043681D01*
X123246857Y-88043681D01*
X123247151Y-87706319D01*
X123113918Y-87383869D01*
X122867429Y-87136949D01*
X122545211Y-87003153D01*
X122196319Y-87002849D01*
X121971903Y-87095575D01*
X121972151Y-86811319D01*
X121838918Y-86488869D01*
X121592429Y-86241949D01*
X121270211Y-86108153D01*
X120921319Y-86107849D01*
X120598869Y-86241082D01*
X120351949Y-86487571D01*
X120218153Y-86809789D01*
X120217849Y-87158681D01*
X117401564Y-87158681D01*
X117619698Y-87068327D01*
X117798327Y-86889699D01*
X117895000Y-86656310D01*
X117895000Y-86515750D01*
X117736250Y-86357000D01*
X116612000Y-86357000D01*
X116358000Y-86357000D01*
X116338000Y-86357000D01*
X116338000Y-86103000D01*
X116358000Y-86103000D01*
X116358000Y-86083000D01*
X116612000Y-86083000D01*
X116612000Y-86103000D01*
X117736250Y-86103000D01*
X117895000Y-85944250D01*
X117895000Y-85803690D01*
X117798327Y-85570301D01*
X117765026Y-85537000D01*
X121238531Y-85537000D01*
X121244409Y-85568237D01*
X121337927Y-85713567D01*
X121480619Y-85811064D01*
X121650000Y-85845365D01*
X122850000Y-85845365D01*
X123008237Y-85815591D01*
X123153567Y-85722073D01*
X123251064Y-85579381D01*
X123285365Y-85410000D01*
X123285365Y-84510000D01*
X123414635Y-84510000D01*
X123414635Y-85410000D01*
X123444409Y-85568237D01*
X123537927Y-85713567D01*
X123680619Y-85811064D01*
X123850000Y-85845365D01*
X124962996Y-85845365D01*
X124962849Y-86013681D01*
X125096082Y-86336131D01*
X125194717Y-86434939D01*
X125116949Y-86512571D01*
X124983153Y-86834789D01*
X124982849Y-87183681D01*
X125116082Y-87506131D01*
X125362571Y-87753051D01*
X125684789Y-87886847D01*
X126033681Y-87887151D01*
X126356131Y-87753918D01*
X126603051Y-87507429D01*
X126736847Y-87185211D01*
X126737122Y-86868690D01*
X147265000Y-86868690D01*
X147265000Y-87084250D01*
X147423750Y-87243000D01*
X148173000Y-87243000D01*
X148173000Y-86518750D01*
X148014250Y-86360000D01*
X147773691Y-86360000D01*
X147540302Y-86456673D01*
X147361673Y-86635301D01*
X147265000Y-86868690D01*
X126737122Y-86868690D01*
X126737151Y-86836319D01*
X126603918Y-86513869D01*
X126505283Y-86415061D01*
X126583051Y-86337429D01*
X126716847Y-86015211D01*
X126717002Y-85837119D01*
X126753681Y-85837151D01*
X127076131Y-85703918D01*
X127323051Y-85457429D01*
X127456847Y-85135211D01*
X127457151Y-84786319D01*
X127323918Y-84463869D01*
X127077429Y-84216949D01*
X126755211Y-84083153D01*
X126406319Y-84082849D01*
X126083869Y-84216082D01*
X125916659Y-84383000D01*
X125461469Y-84383000D01*
X125455591Y-84351763D01*
X125362073Y-84206433D01*
X125219381Y-84108936D01*
X125050000Y-84074635D01*
X123850000Y-84074635D01*
X123691763Y-84104409D01*
X123546433Y-84197927D01*
X123448936Y-84340619D01*
X123414635Y-84510000D01*
X123285365Y-84510000D01*
X123255591Y-84351763D01*
X123162073Y-84206433D01*
X123019381Y-84108936D01*
X122850000Y-84074635D01*
X122827000Y-84074635D01*
X122827000Y-83663021D01*
X122861131Y-83648918D01*
X123108051Y-83402429D01*
X123200958Y-83178681D01*
X126007849Y-83178681D01*
X126141082Y-83501131D01*
X126387571Y-83748051D01*
X126709789Y-83881847D01*
X127058681Y-83882151D01*
X127381131Y-83748918D01*
X127628051Y-83502429D01*
X127761847Y-83180211D01*
X127762064Y-82931268D01*
X127859789Y-82971847D01*
X128208681Y-82972151D01*
X128531131Y-82838918D01*
X128721700Y-82648681D01*
X136977849Y-82648681D01*
X137111082Y-82971131D01*
X137357571Y-83218051D01*
X137679789Y-83351847D01*
X138028681Y-83352151D01*
X138351131Y-83218918D01*
X138364322Y-83205750D01*
X143925000Y-83205750D01*
X143925000Y-83496310D01*
X144021673Y-83729699D01*
X144200302Y-83908327D01*
X144433691Y-84005000D01*
X144874250Y-84005000D01*
X145033000Y-83846250D01*
X145033000Y-83047000D01*
X144083750Y-83047000D01*
X143925000Y-83205750D01*
X138364322Y-83205750D01*
X138598051Y-82972429D01*
X138731847Y-82650211D01*
X138732114Y-82343690D01*
X143925000Y-82343690D01*
X143925000Y-82634250D01*
X144083750Y-82793000D01*
X145033000Y-82793000D01*
X145033000Y-81993750D01*
X145287000Y-81993750D01*
X145287000Y-82793000D01*
X145307000Y-82793000D01*
X145307000Y-83047000D01*
X145287000Y-83047000D01*
X145287000Y-83846250D01*
X145445750Y-84005000D01*
X145886309Y-84005000D01*
X146119698Y-83908327D01*
X146298327Y-83729699D01*
X146371058Y-83554110D01*
X146447927Y-83673567D01*
X146590619Y-83771064D01*
X146760000Y-83805365D01*
X147960000Y-83805365D01*
X148118237Y-83775591D01*
X148263567Y-83682073D01*
X148361064Y-83539381D01*
X148381797Y-83437000D01*
X148508657Y-83437000D01*
X148540300Y-83486174D01*
X148468936Y-83590619D01*
X148434635Y-83760000D01*
X148434635Y-84760000D01*
X148464409Y-84918237D01*
X148540300Y-85036174D01*
X148468936Y-85140619D01*
X148434635Y-85310000D01*
X148434635Y-86010000D01*
X148464409Y-86168237D01*
X148557927Y-86313567D01*
X148625884Y-86360000D01*
X148585750Y-86360000D01*
X148427000Y-86518750D01*
X148427000Y-87243000D01*
X148447000Y-87243000D01*
X148447000Y-87497000D01*
X148427000Y-87497000D01*
X148427000Y-88221250D01*
X148585750Y-88380000D01*
X148826309Y-88380000D01*
X149022942Y-88298552D01*
X148933153Y-88514789D01*
X148932849Y-88863681D01*
X149066082Y-89186131D01*
X149312571Y-89433051D01*
X149634789Y-89566847D01*
X149983681Y-89567151D01*
X150306131Y-89433918D01*
X150553051Y-89187429D01*
X150624338Y-89015750D01*
X153720000Y-89015750D01*
X153720000Y-89256309D01*
X153816673Y-89489698D01*
X153995301Y-89668327D01*
X154228690Y-89765000D01*
X154444250Y-89765000D01*
X154603000Y-89606250D01*
X154603000Y-88857000D01*
X153878750Y-88857000D01*
X153720000Y-89015750D01*
X150624338Y-89015750D01*
X150686847Y-88865211D01*
X150687151Y-88516319D01*
X150553918Y-88193869D01*
X150451078Y-88090849D01*
X150503567Y-88057073D01*
X150601064Y-87914381D01*
X150635365Y-87745000D01*
X150635365Y-86995000D01*
X150605591Y-86836763D01*
X150512073Y-86691433D01*
X150397000Y-86612807D01*
X150397000Y-86445365D01*
X150770000Y-86445365D01*
X150928237Y-86415591D01*
X151073567Y-86322073D01*
X151171064Y-86179381D01*
X151205365Y-86010000D01*
X151205365Y-85310000D01*
X151175591Y-85151763D01*
X151099700Y-85033826D01*
X151171064Y-84929381D01*
X151205365Y-84760000D01*
X151205365Y-83760000D01*
X151175591Y-83601763D01*
X151099700Y-83483826D01*
X151171064Y-83379381D01*
X151205365Y-83210000D01*
X151205365Y-82510000D01*
X151175591Y-82351763D01*
X151082073Y-82206433D01*
X150939381Y-82108936D01*
X150770000Y-82074635D01*
X148870000Y-82074635D01*
X148711763Y-82104409D01*
X148566433Y-82197927D01*
X148508305Y-82283000D01*
X148347082Y-82283000D01*
X148272073Y-82166433D01*
X148129381Y-82068936D01*
X147960000Y-82034635D01*
X146760000Y-82034635D01*
X146601763Y-82064409D01*
X146456433Y-82157927D01*
X146370281Y-82284014D01*
X146298327Y-82110301D01*
X146119698Y-81931673D01*
X145886309Y-81835000D01*
X145445750Y-81835000D01*
X145287000Y-81993750D01*
X145033000Y-81993750D01*
X144874250Y-81835000D01*
X144433691Y-81835000D01*
X144200302Y-81931673D01*
X144021673Y-82110301D01*
X143925000Y-82343690D01*
X138732114Y-82343690D01*
X138732146Y-82307036D01*
X138863681Y-82307151D01*
X139186131Y-82173918D01*
X139433051Y-81927429D01*
X139566847Y-81605211D01*
X139567151Y-81256319D01*
X139433918Y-80933869D01*
X139187429Y-80686949D01*
X138865211Y-80553153D01*
X138516319Y-80552849D01*
X138193869Y-80686082D01*
X137946949Y-80932571D01*
X137813153Y-81254789D01*
X137812854Y-81597964D01*
X137681319Y-81597849D01*
X137358869Y-81731082D01*
X137111949Y-81977571D01*
X136978153Y-82299789D01*
X136977849Y-82648681D01*
X128721700Y-82648681D01*
X128778051Y-82592429D01*
X128911847Y-82270211D01*
X128912151Y-81921319D01*
X128778918Y-81598869D01*
X128532429Y-81351949D01*
X128210211Y-81218153D01*
X127861319Y-81217849D01*
X127538869Y-81351082D01*
X127291949Y-81597571D01*
X127158153Y-81919789D01*
X127157936Y-82168732D01*
X127060211Y-82128153D01*
X126711319Y-82127849D01*
X126388869Y-82261082D01*
X126141949Y-82507571D01*
X126008153Y-82829789D01*
X126007849Y-83178681D01*
X123200958Y-83178681D01*
X123241847Y-83080211D01*
X123242151Y-82731319D01*
X123108918Y-82408869D01*
X122862429Y-82161949D01*
X122540211Y-82028153D01*
X122191319Y-82027849D01*
X121868869Y-82161082D01*
X121621949Y-82407571D01*
X121488153Y-82729789D01*
X121487849Y-83078681D01*
X121621082Y-83401131D01*
X121673000Y-83453140D01*
X121673000Y-84074635D01*
X121650000Y-84074635D01*
X121491763Y-84104409D01*
X121346433Y-84197927D01*
X121248936Y-84340619D01*
X121240354Y-84383000D01*
X119635030Y-84383000D01*
X119911131Y-84268918D01*
X120158051Y-84022429D01*
X120291847Y-83700211D01*
X120292151Y-83351319D01*
X120158918Y-83028869D01*
X119912429Y-82781949D01*
X119590211Y-82648153D01*
X119241319Y-82647849D01*
X119195383Y-82666829D01*
X119123918Y-82493869D01*
X118877429Y-82246949D01*
X118555211Y-82113153D01*
X118318949Y-82112947D01*
X118218001Y-82011999D01*
X118030808Y-81886922D01*
X117810000Y-81842999D01*
X117809995Y-81843000D01*
X117589169Y-81843000D01*
X117572073Y-81816433D01*
X117429381Y-81718936D01*
X117260000Y-81684635D01*
X115710000Y-81684635D01*
X115551763Y-81714409D01*
X115406433Y-81807927D01*
X115308936Y-81950619D01*
X115274635Y-82120000D01*
X115274635Y-82720000D01*
X115277080Y-82732996D01*
X115205211Y-82703153D01*
X114856319Y-82702849D01*
X114533869Y-82836082D01*
X114286949Y-83082571D01*
X114153153Y-83404789D01*
X114152849Y-83753681D01*
X107072000Y-83753681D01*
X107072000Y-83263690D01*
X109675000Y-83263690D01*
X109675000Y-83404250D01*
X109833750Y-83563000D01*
X110958000Y-83563000D01*
X110958000Y-83543000D01*
X111212000Y-83543000D01*
X111212000Y-83563000D01*
X112336250Y-83563000D01*
X112495000Y-83404250D01*
X112495000Y-83263690D01*
X112398327Y-83030301D01*
X112259579Y-82891554D01*
X112261064Y-82889381D01*
X112295365Y-82720000D01*
X112295365Y-82120000D01*
X112265591Y-81961763D01*
X112177586Y-81825000D01*
X112359250Y-81825000D01*
X112518000Y-81666250D01*
X112518000Y-80942000D01*
X112772000Y-80942000D01*
X112772000Y-81666250D01*
X112930750Y-81825000D01*
X113171309Y-81825000D01*
X113404698Y-81728327D01*
X113583327Y-81549699D01*
X113680000Y-81316310D01*
X113680000Y-81100750D01*
X113521250Y-80942000D01*
X112772000Y-80942000D01*
X112518000Y-80942000D01*
X112498000Y-80942000D01*
X112498000Y-80688000D01*
X112518000Y-80688000D01*
X112518000Y-79963750D01*
X112772000Y-79963750D01*
X112772000Y-80688000D01*
X113521250Y-80688000D01*
X113680000Y-80529250D01*
X113680000Y-80313690D01*
X113583327Y-80080301D01*
X113404698Y-79901673D01*
X113171309Y-79805000D01*
X112930750Y-79805000D01*
X112772000Y-79963750D01*
X112518000Y-79963750D01*
X112359250Y-79805000D01*
X112171001Y-79805000D01*
X112172998Y-79803003D01*
X112173001Y-79803001D01*
X112247979Y-79690787D01*
X112298078Y-79615809D01*
X112303979Y-79586145D01*
X112371560Y-79518681D01*
X114847849Y-79518681D01*
X114981082Y-79841131D01*
X115227571Y-80088051D01*
X115549789Y-80221847D01*
X115898681Y-80222151D01*
X116221131Y-80088918D01*
X116468051Y-79842429D01*
X116601847Y-79520211D01*
X116602151Y-79171319D01*
X116492421Y-78905750D01*
X143270000Y-78905750D01*
X143270000Y-79146309D01*
X143366673Y-79379698D01*
X143545301Y-79558327D01*
X143778690Y-79655000D01*
X143994250Y-79655000D01*
X144153000Y-79496250D01*
X144153000Y-78747000D01*
X143428750Y-78747000D01*
X143270000Y-78905750D01*
X116492421Y-78905750D01*
X116468918Y-78848869D01*
X116222429Y-78601949D01*
X115900211Y-78468153D01*
X115551319Y-78467849D01*
X115228869Y-78601082D01*
X114981949Y-78847571D01*
X114848153Y-79169789D01*
X114847849Y-79518681D01*
X112371560Y-79518681D01*
X112508051Y-79382429D01*
X112641847Y-79060211D01*
X112642151Y-78711319D01*
X112508918Y-78388869D01*
X112262429Y-78141949D01*
X111940211Y-78008153D01*
X111591319Y-78007849D01*
X111268869Y-78141082D01*
X111021949Y-78387571D01*
X110888153Y-78709789D01*
X110887849Y-79058681D01*
X111004061Y-79339937D01*
X110736999Y-79606999D01*
X110611922Y-79794192D01*
X110567999Y-80015000D01*
X110568000Y-80015005D01*
X110568000Y-80046483D01*
X110441433Y-80127927D01*
X110343936Y-80270619D01*
X110309635Y-80440000D01*
X110309635Y-81190000D01*
X110339409Y-81348237D01*
X110432927Y-81493567D01*
X110568000Y-81585858D01*
X110568000Y-81684635D01*
X110310000Y-81684635D01*
X110151763Y-81714409D01*
X110006433Y-81807927D01*
X109908936Y-81950619D01*
X109874635Y-82120000D01*
X109874635Y-82720000D01*
X109904409Y-82878237D01*
X109911977Y-82889998D01*
X109771673Y-83030301D01*
X109675000Y-83263690D01*
X107072000Y-83263690D01*
X107072000Y-80488681D01*
X107347849Y-80488681D01*
X107481082Y-80811131D01*
X107727571Y-81058051D01*
X108049789Y-81191847D01*
X108398681Y-81192151D01*
X108721131Y-81058918D01*
X108968051Y-80812429D01*
X109101847Y-80490211D01*
X109102151Y-80141319D01*
X108968918Y-79818869D01*
X108722429Y-79571949D01*
X108400211Y-79438153D01*
X108051319Y-79437849D01*
X107728869Y-79571082D01*
X107481949Y-79817571D01*
X107348153Y-80139789D01*
X107347849Y-80488681D01*
X107072000Y-80488681D01*
X107072000Y-76928681D01*
X109737849Y-76928681D01*
X109871082Y-77251131D01*
X110117571Y-77498051D01*
X110439789Y-77631847D01*
X110788681Y-77632151D01*
X111111131Y-77498918D01*
X111336761Y-77273681D01*
X123422849Y-77273681D01*
X123556082Y-77596131D01*
X123802571Y-77843051D01*
X124124789Y-77976847D01*
X124473681Y-77977151D01*
X124796131Y-77843918D01*
X125043051Y-77597429D01*
X125176847Y-77275211D01*
X125177151Y-76926319D01*
X125043918Y-76603869D01*
X124797429Y-76356949D01*
X124475211Y-76223153D01*
X124126319Y-76222849D01*
X123803869Y-76356082D01*
X123556949Y-76602571D01*
X123423153Y-76924789D01*
X123422849Y-77273681D01*
X111336761Y-77273681D01*
X111358051Y-77252429D01*
X111491847Y-76930211D01*
X111492151Y-76581319D01*
X111358918Y-76258869D01*
X111112429Y-76011949D01*
X110790211Y-75878153D01*
X110441319Y-75877849D01*
X110118869Y-76011082D01*
X109871949Y-76257571D01*
X109738153Y-76579789D01*
X109737849Y-76928681D01*
X107072000Y-76928681D01*
X107072000Y-75558681D01*
X117417849Y-75558681D01*
X117551082Y-75881131D01*
X117797571Y-76128051D01*
X118119789Y-76261847D01*
X118468681Y-76262151D01*
X118791131Y-76128918D01*
X119038051Y-75882429D01*
X119087359Y-75763681D01*
X124742849Y-75763681D01*
X124876082Y-76086131D01*
X125122571Y-76333051D01*
X125444789Y-76466847D01*
X125793681Y-76467151D01*
X126116131Y-76333918D01*
X126363051Y-76087429D01*
X126410283Y-75973681D01*
X128882849Y-75973681D01*
X129016082Y-76296131D01*
X129262571Y-76543051D01*
X129584789Y-76676847D01*
X129933681Y-76677151D01*
X130256131Y-76543918D01*
X130503051Y-76297429D01*
X130573120Y-76128681D01*
X133457849Y-76128681D01*
X133591082Y-76451131D01*
X133837571Y-76698051D01*
X134159789Y-76831847D01*
X134508681Y-76832151D01*
X134831131Y-76698918D01*
X135078051Y-76452429D01*
X135211847Y-76130211D01*
X135212151Y-75781319D01*
X135078918Y-75458869D01*
X134832429Y-75211949D01*
X134510211Y-75078153D01*
X134161319Y-75077849D01*
X133838869Y-75211082D01*
X133591949Y-75457571D01*
X133458153Y-75779789D01*
X133457849Y-76128681D01*
X130573120Y-76128681D01*
X130636847Y-75975211D01*
X130637151Y-75626319D01*
X130503918Y-75303869D01*
X130257429Y-75056949D01*
X129935211Y-74923153D01*
X129586319Y-74922849D01*
X129263869Y-75056082D01*
X129016949Y-75302571D01*
X128883153Y-75624789D01*
X128882849Y-75973681D01*
X126410283Y-75973681D01*
X126496847Y-75765211D01*
X126497151Y-75416319D01*
X126363918Y-75093869D01*
X126117429Y-74846949D01*
X125795211Y-74713153D01*
X125446319Y-74712849D01*
X125123869Y-74846082D01*
X124876949Y-75092571D01*
X124743153Y-75414789D01*
X124742849Y-75763681D01*
X119087359Y-75763681D01*
X119171847Y-75560211D01*
X119172151Y-75211319D01*
X119038918Y-74888869D01*
X118792429Y-74641949D01*
X118470211Y-74508153D01*
X118121319Y-74507849D01*
X117798869Y-74641082D01*
X117551949Y-74887571D01*
X117418153Y-75209789D01*
X117417849Y-75558681D01*
X107072000Y-75558681D01*
X107072000Y-73448681D01*
X119617849Y-73448681D01*
X119751082Y-73771131D01*
X119997571Y-74018051D01*
X120319789Y-74151847D01*
X120668681Y-74152151D01*
X120991131Y-74018918D01*
X121238051Y-73772429D01*
X121371847Y-73450211D01*
X121372138Y-73115750D01*
X137685000Y-73115750D01*
X137685000Y-73556309D01*
X137781673Y-73789698D01*
X137960301Y-73968327D01*
X138193690Y-74065000D01*
X138484250Y-74065000D01*
X138643000Y-73906250D01*
X138643000Y-72957000D01*
X138897000Y-72957000D01*
X138897000Y-73906250D01*
X139055750Y-74065000D01*
X139346310Y-74065000D01*
X139579699Y-73968327D01*
X139758327Y-73789698D01*
X139855000Y-73556309D01*
X139855000Y-73115750D01*
X139696250Y-72957000D01*
X138897000Y-72957000D01*
X138643000Y-72957000D01*
X137843750Y-72957000D01*
X137685000Y-73115750D01*
X121372138Y-73115750D01*
X121372151Y-73101319D01*
X121238918Y-72778869D01*
X120992429Y-72531949D01*
X120670211Y-72398153D01*
X120321319Y-72397849D01*
X119998869Y-72531082D01*
X119751949Y-72777571D01*
X119618153Y-73099789D01*
X119617849Y-73448681D01*
X107072000Y-73448681D01*
X107072000Y-67245000D01*
X107061994Y-67195590D01*
X107033553Y-67153965D01*
X106991159Y-67126685D01*
X106945000Y-67118000D01*
X104175365Y-67118000D01*
X104175365Y-66923682D01*
X136522406Y-66923682D01*
X137043037Y-68183704D01*
X138006226Y-69148575D01*
X139080457Y-69594635D01*
X138320000Y-69594635D01*
X138161763Y-69624409D01*
X138016433Y-69717927D01*
X137918936Y-69860619D01*
X137884635Y-70030000D01*
X137884635Y-71230000D01*
X137914409Y-71388237D01*
X138007927Y-71533567D01*
X138134014Y-71619719D01*
X137960301Y-71691673D01*
X137781673Y-71870302D01*
X137685000Y-72103691D01*
X137685000Y-72544250D01*
X137843750Y-72703000D01*
X138643000Y-72703000D01*
X138643000Y-72683000D01*
X138897000Y-72683000D01*
X138897000Y-72703000D01*
X139696250Y-72703000D01*
X139855000Y-72544250D01*
X139855000Y-72103691D01*
X139758327Y-71870302D01*
X139579699Y-71691673D01*
X139404110Y-71618942D01*
X139523567Y-71542073D01*
X139621064Y-71399381D01*
X139655365Y-71230000D01*
X139655365Y-71097000D01*
X140132570Y-71097000D01*
X140197927Y-71198567D01*
X140340619Y-71296064D01*
X140510000Y-71330365D01*
X141310000Y-71330365D01*
X141468237Y-71300591D01*
X141498251Y-71281277D01*
X141650302Y-71433327D01*
X141883691Y-71530000D01*
X142124250Y-71530000D01*
X142283000Y-71371250D01*
X142283000Y-70647000D01*
X142537000Y-70647000D01*
X142537000Y-71371250D01*
X142695750Y-71530000D01*
X142936309Y-71530000D01*
X143169698Y-71433327D01*
X143348327Y-71254699D01*
X143445000Y-71021310D01*
X143445000Y-70805750D01*
X143286250Y-70647000D01*
X142537000Y-70647000D01*
X142283000Y-70647000D01*
X142263000Y-70647000D01*
X142263000Y-70393000D01*
X142283000Y-70393000D01*
X142283000Y-69668750D01*
X142537000Y-69668750D01*
X142537000Y-70393000D01*
X143286250Y-70393000D01*
X143445000Y-70234250D01*
X143445000Y-70018690D01*
X143348327Y-69785301D01*
X143169698Y-69606673D01*
X142936309Y-69510000D01*
X142695750Y-69510000D01*
X142537000Y-69668750D01*
X142283000Y-69668750D01*
X142124250Y-69510000D01*
X141883691Y-69510000D01*
X141650302Y-69606673D01*
X141499376Y-69757598D01*
X141487000Y-69749142D01*
X141487000Y-69317944D01*
X141888704Y-69151963D01*
X142853575Y-68188774D01*
X143376404Y-66929663D01*
X143377594Y-65566318D01*
X142856963Y-64306296D01*
X141893774Y-63341425D01*
X140634663Y-62818596D01*
X139271318Y-62817406D01*
X138011296Y-63338037D01*
X137046425Y-64301226D01*
X136523596Y-65560337D01*
X136522406Y-66923682D01*
X104175365Y-66923682D01*
X104175365Y-66650000D01*
X104145591Y-66491763D01*
X104052073Y-66346433D01*
X103909381Y-66248936D01*
X103740000Y-66214635D01*
X102040000Y-66214635D01*
X101881763Y-66244409D01*
X101736433Y-66337927D01*
X101638936Y-66480619D01*
X101604635Y-66650000D01*
X101604635Y-67118000D01*
X97767000Y-67118000D01*
X97767000Y-67037430D01*
X97868567Y-66972073D01*
X97966064Y-66829381D01*
X98000365Y-66660000D01*
X98000365Y-65860000D01*
X97970591Y-65701763D01*
X97951277Y-65671749D01*
X98103327Y-65519698D01*
X98200000Y-65286309D01*
X98200000Y-65045750D01*
X98041250Y-64887000D01*
X97317000Y-64887000D01*
X97317000Y-64907000D01*
X97063000Y-64907000D01*
X97063000Y-64887000D01*
X96338750Y-64887000D01*
X96180000Y-65045750D01*
X96180000Y-65286309D01*
X96276673Y-65519698D01*
X96427598Y-65670624D01*
X96413936Y-65690619D01*
X96379635Y-65860000D01*
X96379635Y-66660000D01*
X96409409Y-66818237D01*
X96502927Y-66963567D01*
X96613000Y-67038776D01*
X96613000Y-67118000D01*
X95293200Y-67118000D01*
X95371404Y-66929663D01*
X95372594Y-65566318D01*
X94851963Y-64306296D01*
X94779485Y-64233691D01*
X96180000Y-64233691D01*
X96180000Y-64474250D01*
X96338750Y-64633000D01*
X97063000Y-64633000D01*
X97063000Y-63883750D01*
X97317000Y-63883750D01*
X97317000Y-64633000D01*
X98041250Y-64633000D01*
X98200000Y-64474250D01*
X98200000Y-64233691D01*
X98103327Y-64000302D01*
X97924699Y-63821673D01*
X97691310Y-63725000D01*
X97475750Y-63725000D01*
X97317000Y-63883750D01*
X97063000Y-63883750D01*
X96904250Y-63725000D01*
X96688690Y-63725000D01*
X96455301Y-63821673D01*
X96276673Y-64000302D01*
X96180000Y-64233691D01*
X94779485Y-64233691D01*
X93888774Y-63341425D01*
X92629663Y-62818596D01*
X91266318Y-62817406D01*
X90006296Y-63338037D01*
X89041425Y-64301226D01*
X88518596Y-65560337D01*
X88517406Y-66923682D01*
X88597697Y-67118000D01*
X87447000Y-67118000D01*
X87447000Y-61747000D01*
X144350188Y-61747000D01*
X144355338Y-71284903D01*
X144355338Y-71284903D01*
G37*
X144355338Y-71284903D02*
X144293118Y-71434746D01*
X144292883Y-71704073D01*
X144355646Y-71855972D01*
X144358000Y-76215069D01*
X144368033Y-76264473D01*
X144381825Y-76284635D01*
X143905000Y-76284635D01*
X143746763Y-76314409D01*
X143601433Y-76407927D01*
X143503936Y-76550619D01*
X143469635Y-76720000D01*
X143469635Y-77520000D01*
X143499409Y-77678237D01*
X143518723Y-77708251D01*
X143366673Y-77860302D01*
X143270000Y-78093691D01*
X143270000Y-78334250D01*
X143428750Y-78493000D01*
X144153000Y-78493000D01*
X144153000Y-78473000D01*
X144407000Y-78473000D01*
X144407000Y-78493000D01*
X144427000Y-78493000D01*
X144427000Y-78747000D01*
X144407000Y-78747000D01*
X144407000Y-79496250D01*
X144565750Y-79655000D01*
X144781310Y-79655000D01*
X145014699Y-79558327D01*
X145035763Y-79537263D01*
X145009360Y-79670000D01*
X145079924Y-80024748D01*
X145280872Y-80325488D01*
X145581612Y-80526436D01*
X145936360Y-80597000D01*
X146483640Y-80597000D01*
X146838388Y-80526436D01*
X147139128Y-80325488D01*
X147340076Y-80024748D01*
X147410640Y-79670000D01*
X147340076Y-79315252D01*
X147266311Y-79204855D01*
X147311738Y-79171151D01*
X147542053Y-78786723D01*
X147554689Y-78701874D01*
X147428524Y-78527000D01*
X146337000Y-78527000D01*
X146337000Y-78547000D01*
X146083000Y-78547000D01*
X146083000Y-78527000D01*
X146063000Y-78527000D01*
X146063000Y-78273000D01*
X146083000Y-78273000D01*
X146083000Y-78253000D01*
X146337000Y-78253000D01*
X146337000Y-78273000D01*
X147428524Y-78273000D01*
X147554689Y-78098126D01*
X147542053Y-78013277D01*
X147374839Y-77734173D01*
X147395935Y-77630000D01*
X147395935Y-76630000D01*
X147366161Y-76471763D01*
X147275902Y-76331497D01*
X155443000Y-76300761D01*
X155443000Y-81002914D01*
X155217429Y-80776949D01*
X154895211Y-80643153D01*
X154546319Y-80642849D01*
X154223869Y-80776082D01*
X153976949Y-81022571D01*
X153843153Y-81344789D01*
X153842849Y-81693681D01*
X153976082Y-82016131D01*
X154034484Y-82074635D01*
X153770000Y-82074635D01*
X153611763Y-82104409D01*
X153466433Y-82197927D01*
X153368936Y-82340619D01*
X153334635Y-82510000D01*
X153334635Y-83210000D01*
X153364409Y-83368237D01*
X153457927Y-83513567D01*
X153525636Y-83559831D01*
X153466433Y-83597927D01*
X153450924Y-83620625D01*
X153347429Y-83516949D01*
X153025211Y-83383153D01*
X152676319Y-83382849D01*
X152353869Y-83516082D01*
X152106949Y-83762571D01*
X151973153Y-84084789D01*
X151972849Y-84433681D01*
X152106082Y-84756131D01*
X152352571Y-85003051D01*
X152674789Y-85136847D01*
X153023681Y-85137151D01*
X153346131Y-85003918D01*
X153449601Y-84900628D01*
X153457927Y-84913567D01*
X153525636Y-84959831D01*
X153466433Y-84997927D01*
X153368936Y-85140619D01*
X153334635Y-85310000D01*
X153334635Y-86010000D01*
X153364409Y-86168237D01*
X153457927Y-86313567D01*
X153501184Y-86343123D01*
X153186319Y-86342849D01*
X152863869Y-86476082D01*
X152616949Y-86722571D01*
X152483153Y-87044789D01*
X152482849Y-87393681D01*
X152616082Y-87716131D01*
X152862571Y-87963051D01*
X153184789Y-88096847D01*
X153533681Y-88097151D01*
X153811716Y-87982270D01*
X153720000Y-88203691D01*
X153720000Y-88444250D01*
X153878750Y-88603000D01*
X154603000Y-88603000D01*
X154603000Y-88583000D01*
X154857000Y-88583000D01*
X154857000Y-88603000D01*
X154877000Y-88603000D01*
X154877000Y-88857000D01*
X154857000Y-88857000D01*
X154857000Y-89606250D01*
X155015750Y-89765000D01*
X155231310Y-89765000D01*
X155443000Y-89677315D01*
X155443000Y-92369723D01*
X144535136Y-92358000D01*
X144485716Y-92367953D01*
X144444061Y-92396349D01*
X144416735Y-92438714D01*
X144408000Y-92485063D01*
X144409989Y-96492482D01*
X144376402Y-96526010D01*
X144273118Y-96774746D01*
X144272883Y-97044073D01*
X144375733Y-97292989D01*
X144410403Y-97327720D01*
X144415076Y-106743000D01*
X120425641Y-106743000D01*
X120766924Y-106601645D01*
X121195183Y-106211358D01*
X121364691Y-105850417D01*
X121637025Y-106257993D01*
X122051313Y-106534812D01*
X122540000Y-106632018D01*
X123028687Y-106534812D01*
X123442975Y-106257993D01*
X123719794Y-105843705D01*
X123810000Y-105390209D01*
X123900206Y-105843705D01*
X124177025Y-106257993D01*
X124591313Y-106534812D01*
X125080000Y-106632018D01*
X125568687Y-106534812D01*
X125982975Y-106257993D01*
X126259794Y-105843705D01*
X126357000Y-105355018D01*
X126357000Y-105304982D01*
X126259794Y-104816295D01*
X126001680Y-104430000D01*
X127074635Y-104430000D01*
X127074635Y-106130000D01*
X127104409Y-106288237D01*
X127197927Y-106433567D01*
X127340619Y-106531064D01*
X127510000Y-106565365D01*
X129210000Y-106565365D01*
X129368237Y-106535591D01*
X129513567Y-106442073D01*
X129611064Y-106299381D01*
X129645365Y-106130000D01*
X129645365Y-105417454D01*
X129720206Y-105793705D01*
X129997025Y-106207993D01*
X130411313Y-106484812D01*
X130900000Y-106582018D01*
X131388687Y-106484812D01*
X131802975Y-106207993D01*
X132079794Y-105793705D01*
X132170000Y-105340209D01*
X132260206Y-105793705D01*
X132537025Y-106207993D01*
X132951313Y-106484812D01*
X133440000Y-106582018D01*
X133928687Y-106484812D01*
X134342975Y-106207993D01*
X134619794Y-105793705D01*
X134717000Y-105305018D01*
X134717000Y-105254982D01*
X134619794Y-104766295D01*
X134342975Y-104352007D01*
X133976452Y-104107104D01*
X134206924Y-104011645D01*
X134635183Y-103621358D01*
X134881486Y-103096892D01*
X134790571Y-102923682D01*
X136522406Y-102923682D01*
X137043037Y-104183704D01*
X138006226Y-105148575D01*
X139265337Y-105671404D01*
X140628682Y-105672594D01*
X141888704Y-105151963D01*
X142853575Y-104188774D01*
X143376404Y-102929663D01*
X143377594Y-101566318D01*
X142856963Y-100306296D01*
X141893774Y-99341425D01*
X140634663Y-98818596D01*
X140527000Y-98818502D01*
X140527000Y-98686521D01*
X140638237Y-98665591D01*
X140783567Y-98572073D01*
X140881064Y-98429381D01*
X140915365Y-98260000D01*
X140915365Y-97060000D01*
X140885591Y-96901763D01*
X140792073Y-96756433D01*
X140665986Y-96670281D01*
X140839699Y-96598327D01*
X141018327Y-96419698D01*
X141115000Y-96186309D01*
X141115000Y-95745750D01*
X140956250Y-95587000D01*
X140157000Y-95587000D01*
X140157000Y-95607000D01*
X139903000Y-95607000D01*
X139903000Y-95587000D01*
X139103750Y-95587000D01*
X138960000Y-95730750D01*
X138960000Y-95633691D01*
X138863327Y-95400302D01*
X138684699Y-95221673D01*
X138451310Y-95125000D01*
X138235750Y-95125000D01*
X138077000Y-95283750D01*
X138077000Y-96033000D01*
X138097000Y-96033000D01*
X138097000Y-96287000D01*
X138077000Y-96287000D01*
X138077000Y-96307000D01*
X137823000Y-96307000D01*
X137823000Y-96287000D01*
X137098750Y-96287000D01*
X136940000Y-96445750D01*
X136940000Y-96686309D01*
X137036673Y-96919698D01*
X137187598Y-97070624D01*
X137173936Y-97090619D01*
X137139635Y-97260000D01*
X137139635Y-98060000D01*
X137169409Y-98218237D01*
X137262927Y-98363567D01*
X137405619Y-98461064D01*
X137575000Y-98495365D01*
X138325000Y-98495365D01*
X138483237Y-98465591D01*
X138628567Y-98372073D01*
X138720858Y-98237000D01*
X139144635Y-98237000D01*
X139144635Y-98260000D01*
X139174409Y-98418237D01*
X139267927Y-98563567D01*
X139373000Y-98635360D01*
X139373000Y-98817495D01*
X139271318Y-98817406D01*
X138011296Y-99338037D01*
X137046425Y-100301226D01*
X136523596Y-101560337D01*
X136522406Y-102923682D01*
X134790571Y-102923682D01*
X134760819Y-102867000D01*
X133567000Y-102867000D01*
X133567000Y-102887000D01*
X133313000Y-102887000D01*
X133313000Y-102867000D01*
X133293000Y-102867000D01*
X133293000Y-102613000D01*
X133313000Y-102613000D01*
X133313000Y-101419845D01*
X133567000Y-101419845D01*
X133567000Y-102613000D01*
X134760819Y-102613000D01*
X134881486Y-102383108D01*
X134635183Y-101858642D01*
X134206924Y-101468355D01*
X133796890Y-101298524D01*
X133567000Y-101419845D01*
X133313000Y-101419845D01*
X133083110Y-101298524D01*
X132673076Y-101468355D01*
X132244817Y-101858642D01*
X132075309Y-102219583D01*
X131802975Y-101812007D01*
X131388687Y-101535188D01*
X130900000Y-101437982D01*
X130411313Y-101535188D01*
X129997025Y-101812007D01*
X129720206Y-102226295D01*
X129630000Y-102679791D01*
X129539794Y-102226295D01*
X129262975Y-101812007D01*
X128848687Y-101535188D01*
X128360000Y-101437982D01*
X127871313Y-101535188D01*
X127457025Y-101812007D01*
X127180206Y-102226295D01*
X127083000Y-102714982D01*
X127083000Y-102765018D01*
X127180206Y-103253705D01*
X127457025Y-103667993D01*
X127871313Y-103944812D01*
X128121790Y-103994635D01*
X127510000Y-103994635D01*
X127351763Y-104024409D01*
X127206433Y-104117927D01*
X127108936Y-104260619D01*
X127074635Y-104430000D01*
X126001680Y-104430000D01*
X125982975Y-104402007D01*
X125568687Y-104125188D01*
X125080000Y-104027982D01*
X124591313Y-104125188D01*
X124177025Y-104402007D01*
X123900206Y-104816295D01*
X123810000Y-105269791D01*
X123719794Y-104816295D01*
X123442975Y-104402007D01*
X123028687Y-104125188D01*
X122551396Y-104030249D01*
X122736131Y-103953918D01*
X122983051Y-103707429D01*
X123116847Y-103385211D01*
X123117151Y-103036319D01*
X122983918Y-102713869D01*
X122737429Y-102466949D01*
X122415211Y-102333153D01*
X122187110Y-102332954D01*
X122187151Y-102286319D01*
X122053918Y-101963869D01*
X121807429Y-101716949D01*
X121485211Y-101583153D01*
X121136319Y-101582849D01*
X120813869Y-101716082D01*
X120566949Y-101962571D01*
X120517234Y-102082298D01*
X120495211Y-102073153D01*
X120146319Y-102072849D01*
X119823869Y-102206082D01*
X119576949Y-102452571D01*
X119443153Y-102774789D01*
X119442849Y-103123681D01*
X119576082Y-103446131D01*
X119822571Y-103693051D01*
X120144789Y-103826847D01*
X120493681Y-103827151D01*
X120816131Y-103693918D01*
X121063051Y-103447429D01*
X121112766Y-103327702D01*
X121134789Y-103336847D01*
X121362890Y-103337046D01*
X121362849Y-103383681D01*
X121496082Y-103706131D01*
X121742571Y-103953051D01*
X122064789Y-104086847D01*
X122243284Y-104087003D01*
X122051313Y-104125188D01*
X121637025Y-104402007D01*
X121364691Y-104809583D01*
X121195183Y-104448642D01*
X120766924Y-104058355D01*
X120356890Y-103888524D01*
X120127000Y-104009845D01*
X120127000Y-105203000D01*
X120147000Y-105203000D01*
X120147000Y-105457000D01*
X120127000Y-105457000D01*
X120127000Y-105477000D01*
X119873000Y-105477000D01*
X119873000Y-105457000D01*
X119853000Y-105457000D01*
X119853000Y-105203000D01*
X119873000Y-105203000D01*
X119873000Y-104009845D01*
X119643110Y-103888524D01*
X119233076Y-104058355D01*
X118804817Y-104448642D01*
X118745365Y-104575236D01*
X118745365Y-104480000D01*
X118715591Y-104321763D01*
X118622073Y-104176433D01*
X118479381Y-104078936D01*
X118310000Y-104044635D01*
X116610000Y-104044635D01*
X116451763Y-104074409D01*
X116306433Y-104167927D01*
X116208936Y-104310619D01*
X116174635Y-104480000D01*
X116174635Y-106180000D01*
X116204409Y-106338237D01*
X116297927Y-106483567D01*
X116440619Y-106581064D01*
X116610000Y-106615365D01*
X118310000Y-106615365D01*
X118468237Y-106585591D01*
X118613567Y-106492073D01*
X118711064Y-106349381D01*
X118745365Y-106180000D01*
X118745365Y-106084764D01*
X118804817Y-106211358D01*
X119233076Y-106601645D01*
X119574359Y-106743000D01*
X109505641Y-106743000D01*
X109846924Y-106601645D01*
X110275183Y-106211358D01*
X110444691Y-105850417D01*
X110717025Y-106257993D01*
X111131313Y-106534812D01*
X111620000Y-106632018D01*
X112108687Y-106534812D01*
X112522975Y-106257993D01*
X112799794Y-105843705D01*
X112890000Y-105390209D01*
X112980206Y-105843705D01*
X113257025Y-106257993D01*
X113671313Y-106534812D01*
X114160000Y-106632018D01*
X114648687Y-106534812D01*
X115062975Y-106257993D01*
X115339794Y-105843705D01*
X115437000Y-105355018D01*
X115437000Y-105304982D01*
X115339794Y-104816295D01*
X115062975Y-104402007D01*
X114648687Y-104125188D01*
X114160000Y-104027982D01*
X113671313Y-104125188D01*
X113257025Y-104402007D01*
X112980206Y-104816295D01*
X112890000Y-105269791D01*
X112799794Y-104816295D01*
X112522975Y-104402007D01*
X112108687Y-104125188D01*
X111620000Y-104027982D01*
X111131313Y-104125188D01*
X110717025Y-104402007D01*
X110444691Y-104809583D01*
X110275183Y-104448642D01*
X109846924Y-104058355D01*
X109436890Y-103888524D01*
X109207000Y-104009845D01*
X109207000Y-105203000D01*
X109227000Y-105203000D01*
X109227000Y-105457000D01*
X109207000Y-105457000D01*
X109207000Y-105477000D01*
X108953000Y-105477000D01*
X108953000Y-105457000D01*
X108933000Y-105457000D01*
X108933000Y-105203000D01*
X108953000Y-105203000D01*
X108953000Y-104009845D01*
X108723110Y-103888524D01*
X108313076Y-104058355D01*
X107884817Y-104448642D01*
X107825365Y-104575236D01*
X107825365Y-104480000D01*
X107795591Y-104321763D01*
X107702073Y-104176433D01*
X107559381Y-104078936D01*
X107390000Y-104044635D01*
X107072000Y-104044635D01*
X107072000Y-100353681D01*
X114112849Y-100353681D01*
X114246082Y-100676131D01*
X114492571Y-100923051D01*
X114814789Y-101056847D01*
X115163681Y-101057151D01*
X115486131Y-100923918D01*
X115733051Y-100677429D01*
X115866847Y-100355211D01*
X115867151Y-100006319D01*
X115733918Y-99683869D01*
X115487429Y-99436949D01*
X115165211Y-99303153D01*
X114816319Y-99302849D01*
X114493869Y-99436082D01*
X114246949Y-99682571D01*
X114113153Y-100004789D01*
X114112849Y-100353681D01*
X107072000Y-100353681D01*
X107072000Y-98703681D01*
X107282849Y-98703681D01*
X107416082Y-99026131D01*
X107662571Y-99273051D01*
X107984789Y-99406847D01*
X108333681Y-99407151D01*
X108656131Y-99273918D01*
X108903051Y-99027429D01*
X109036847Y-98705211D01*
X109037151Y-98356319D01*
X108920368Y-98073681D01*
X117632849Y-98073681D01*
X117766082Y-98396131D01*
X118012571Y-98643051D01*
X118334789Y-98776847D01*
X118683681Y-98777151D01*
X119006131Y-98643918D01*
X119253051Y-98397429D01*
X119386847Y-98075211D01*
X119387109Y-97773681D01*
X123432849Y-97773681D01*
X123566082Y-98096131D01*
X123812571Y-98343051D01*
X124134789Y-98476847D01*
X124483681Y-98477151D01*
X124806131Y-98343918D01*
X125053051Y-98097429D01*
X125186847Y-97775211D01*
X125187151Y-97426319D01*
X125053918Y-97103869D01*
X124807429Y-96856949D01*
X124485211Y-96723153D01*
X124136319Y-96722849D01*
X123813869Y-96856082D01*
X123566949Y-97102571D01*
X123433153Y-97424789D01*
X123432849Y-97773681D01*
X119387109Y-97773681D01*
X119387151Y-97726319D01*
X119253918Y-97403869D01*
X119007429Y-97156949D01*
X118685211Y-97023153D01*
X118336319Y-97022849D01*
X118013869Y-97156082D01*
X117766949Y-97402571D01*
X117633153Y-97724789D01*
X117632849Y-98073681D01*
X108920368Y-98073681D01*
X108903918Y-98033869D01*
X108657429Y-97786949D01*
X108335211Y-97653153D01*
X107986319Y-97652849D01*
X107663869Y-97786082D01*
X107416949Y-98032571D01*
X107283153Y-98354789D01*
X107282849Y-98703681D01*
X107072000Y-98703681D01*
X107072000Y-96993681D01*
X119462849Y-96993681D01*
X119596082Y-97316131D01*
X119842571Y-97563051D01*
X120164789Y-97696847D01*
X120513681Y-97697151D01*
X120836131Y-97563918D01*
X121083051Y-97317429D01*
X121216847Y-96995211D01*
X121217151Y-96646319D01*
X121185072Y-96568681D01*
X125087849Y-96568681D01*
X125221082Y-96891131D01*
X125467571Y-97138051D01*
X125789789Y-97271847D01*
X126138681Y-97272151D01*
X126461131Y-97138918D01*
X126708051Y-96892429D01*
X126841847Y-96570211D01*
X126842151Y-96221319D01*
X126708918Y-95898869D01*
X126462429Y-95651949D01*
X126140211Y-95518153D01*
X125791319Y-95517849D01*
X125468869Y-95651082D01*
X125221949Y-95897571D01*
X125088153Y-96219789D01*
X125087849Y-96568681D01*
X121185072Y-96568681D01*
X121083918Y-96323869D01*
X120837429Y-96076949D01*
X120515211Y-95943153D01*
X120166319Y-95942849D01*
X119843869Y-96076082D01*
X119596949Y-96322571D01*
X119463153Y-96644789D01*
X119462849Y-96993681D01*
X107072000Y-96993681D01*
X107072000Y-95553681D01*
X108362849Y-95553681D01*
X108496082Y-95876131D01*
X108742571Y-96123051D01*
X109064789Y-96256847D01*
X109413681Y-96257151D01*
X109736131Y-96123918D01*
X109983051Y-95877429D01*
X110116847Y-95555211D01*
X110117151Y-95206319D01*
X110072677Y-95098681D01*
X111427849Y-95098681D01*
X111561082Y-95421131D01*
X111807571Y-95668051D01*
X112129789Y-95801847D01*
X112478681Y-95802151D01*
X112801131Y-95668918D01*
X113048051Y-95422429D01*
X113181847Y-95100211D01*
X113182151Y-94751319D01*
X113048918Y-94428869D01*
X112802429Y-94181949D01*
X112480211Y-94048153D01*
X112131319Y-94047849D01*
X111808869Y-94181082D01*
X111561949Y-94427571D01*
X111428153Y-94749789D01*
X111427849Y-95098681D01*
X110072677Y-95098681D01*
X109983918Y-94883869D01*
X109737429Y-94636949D01*
X109415211Y-94503153D01*
X109066319Y-94502849D01*
X108743869Y-94636082D01*
X108496949Y-94882571D01*
X108363153Y-95204789D01*
X108362849Y-95553681D01*
X107072000Y-95553681D01*
X107072000Y-93728681D01*
X114927849Y-93728681D01*
X115061082Y-94051131D01*
X115229682Y-94220026D01*
X115121949Y-94327571D01*
X114988153Y-94649789D01*
X114987849Y-94998681D01*
X115121082Y-95321131D01*
X115367571Y-95568051D01*
X115689789Y-95701847D01*
X116038681Y-95702151D01*
X116361131Y-95568918D01*
X116608051Y-95322429D01*
X116626216Y-95278681D01*
X128787849Y-95278681D01*
X128921082Y-95601131D01*
X129167571Y-95848051D01*
X129489789Y-95981847D01*
X129838681Y-95982151D01*
X130161131Y-95848918D01*
X130376734Y-95633691D01*
X136940000Y-95633691D01*
X136940000Y-95874250D01*
X137098750Y-96033000D01*
X137823000Y-96033000D01*
X137823000Y-95283750D01*
X137664250Y-95125000D01*
X137448690Y-95125000D01*
X137215301Y-95221673D01*
X137036673Y-95400302D01*
X136940000Y-95633691D01*
X130376734Y-95633691D01*
X130408051Y-95602429D01*
X130541847Y-95280211D01*
X130542151Y-94931319D01*
X130460494Y-94733691D01*
X138945000Y-94733691D01*
X138945000Y-95174250D01*
X139103750Y-95333000D01*
X139903000Y-95333000D01*
X139903000Y-94383750D01*
X140157000Y-94383750D01*
X140157000Y-95333000D01*
X140956250Y-95333000D01*
X141115000Y-95174250D01*
X141115000Y-94733691D01*
X141018327Y-94500302D01*
X140839699Y-94321673D01*
X140606310Y-94225000D01*
X140315750Y-94225000D01*
X140157000Y-94383750D01*
X139903000Y-94383750D01*
X139744250Y-94225000D01*
X139453690Y-94225000D01*
X139220301Y-94321673D01*
X139041673Y-94500302D01*
X138945000Y-94733691D01*
X130460494Y-94733691D01*
X130408918Y-94608869D01*
X130162429Y-94361949D01*
X129840211Y-94228153D01*
X129491319Y-94227849D01*
X129168869Y-94361082D01*
X128921949Y-94607571D01*
X128788153Y-94929789D01*
X128787849Y-95278681D01*
X116626216Y-95278681D01*
X116741847Y-95000211D01*
X116742151Y-94651319D01*
X116608918Y-94328869D01*
X116440318Y-94159974D01*
X116548051Y-94052429D01*
X116681847Y-93730211D01*
X116682151Y-93381319D01*
X116548918Y-93058869D01*
X116302429Y-92811949D01*
X116288944Y-92806349D01*
X116331131Y-92788918D01*
X116578051Y-92542429D01*
X116711847Y-92220211D01*
X116711904Y-92153681D01*
X124622849Y-92153681D01*
X124756082Y-92476131D01*
X125002571Y-92723051D01*
X125324789Y-92856847D01*
X125673681Y-92857151D01*
X125815189Y-92798681D01*
X130247849Y-92798681D01*
X130381082Y-93121131D01*
X130627571Y-93368051D01*
X130949789Y-93501847D01*
X131298681Y-93502151D01*
X131621131Y-93368918D01*
X131868051Y-93122429D01*
X132001847Y-92800211D01*
X132002151Y-92451319D01*
X131868918Y-92128869D01*
X131622429Y-91881949D01*
X131300211Y-91748153D01*
X130951319Y-91747849D01*
X130628869Y-91881082D01*
X130381949Y-92127571D01*
X130248153Y-92449789D01*
X130247849Y-92798681D01*
X125815189Y-92798681D01*
X125996131Y-92723918D01*
X126243051Y-92477429D01*
X126376847Y-92155211D01*
X126377151Y-91806319D01*
X126243918Y-91483869D01*
X126108966Y-91348681D01*
X126267849Y-91348681D01*
X126401082Y-91671131D01*
X126647571Y-91918051D01*
X126969789Y-92051847D01*
X127318681Y-92052151D01*
X127641131Y-91918918D01*
X127888051Y-91672429D01*
X127962273Y-91493681D01*
X128422849Y-91493681D01*
X128556082Y-91816131D01*
X128802571Y-92063051D01*
X129124789Y-92196847D01*
X129473681Y-92197151D01*
X129796131Y-92063918D01*
X130043051Y-91817429D01*
X130176847Y-91495211D01*
X130177151Y-91146319D01*
X130043918Y-90823869D01*
X129797429Y-90576949D01*
X129475211Y-90443153D01*
X129126319Y-90442849D01*
X128803869Y-90576082D01*
X128556949Y-90822571D01*
X128423153Y-91144789D01*
X128422849Y-91493681D01*
X127962273Y-91493681D01*
X128021847Y-91350211D01*
X128022151Y-91001319D01*
X127888918Y-90678869D01*
X127642429Y-90431949D01*
X127320211Y-90298153D01*
X126971319Y-90297849D01*
X126648869Y-90431082D01*
X126401949Y-90677571D01*
X126268153Y-90999789D01*
X126267849Y-91348681D01*
X126108966Y-91348681D01*
X125997429Y-91236949D01*
X125675211Y-91103153D01*
X125326319Y-91102849D01*
X125003869Y-91236082D01*
X124756949Y-91482571D01*
X124623153Y-91804789D01*
X124622849Y-92153681D01*
X116711904Y-92153681D01*
X116712151Y-91871319D01*
X116578918Y-91548869D01*
X116332429Y-91301949D01*
X116010211Y-91168153D01*
X115661319Y-91167849D01*
X115338869Y-91301082D01*
X115091949Y-91547571D01*
X114958153Y-91869789D01*
X114957849Y-92218681D01*
X115091082Y-92541131D01*
X115337571Y-92788051D01*
X115351056Y-92793651D01*
X115308869Y-92811082D01*
X115061949Y-93057571D01*
X114928153Y-93379789D01*
X114927849Y-93728681D01*
X107072000Y-93728681D01*
X107072000Y-91328681D01*
X107357849Y-91328681D01*
X107491082Y-91651131D01*
X107737571Y-91898051D01*
X108059789Y-92031847D01*
X108408681Y-92032151D01*
X108731131Y-91898918D01*
X108978051Y-91652429D01*
X109111847Y-91330211D01*
X109112151Y-90981319D01*
X108978918Y-90658869D01*
X108732429Y-90411949D01*
X108555980Y-90338681D01*
X109437849Y-90338681D01*
X109571082Y-90661131D01*
X109817571Y-90908051D01*
X110139789Y-91041847D01*
X110488681Y-91042151D01*
X110811131Y-90908918D01*
X111058051Y-90662429D01*
X111191847Y-90340211D01*
X111192151Y-89991319D01*
X111058918Y-89668869D01*
X110904001Y-89513681D01*
X119472849Y-89513681D01*
X119606082Y-89836131D01*
X119852571Y-90083051D01*
X120174789Y-90216847D01*
X120523681Y-90217151D01*
X120846131Y-90083918D01*
X121093051Y-89837429D01*
X121226847Y-89515211D01*
X121227151Y-89166319D01*
X121093918Y-88843869D01*
X120847429Y-88596949D01*
X120525211Y-88463153D01*
X120176319Y-88462849D01*
X119853869Y-88596082D01*
X119606949Y-88842571D01*
X119473153Y-89164789D01*
X119472849Y-89513681D01*
X110904001Y-89513681D01*
X110812429Y-89421949D01*
X110490211Y-89288153D01*
X110141319Y-89287849D01*
X109818869Y-89421082D01*
X109571949Y-89667571D01*
X109438153Y-89989789D01*
X109437849Y-90338681D01*
X108555980Y-90338681D01*
X108410211Y-90278153D01*
X108061319Y-90277849D01*
X107738869Y-90411082D01*
X107491949Y-90657571D01*
X107358153Y-90979789D01*
X107357849Y-91328681D01*
X107072000Y-91328681D01*
X107072000Y-86515750D01*
X109675000Y-86515750D01*
X109675000Y-86656310D01*
X109771673Y-86889699D01*
X109950302Y-87068327D01*
X110183691Y-87165000D01*
X110799250Y-87165000D01*
X110958000Y-87006250D01*
X110958000Y-86357000D01*
X109833750Y-86357000D01*
X109675000Y-86515750D01*
X107072000Y-86515750D01*
X107072000Y-85245750D01*
X109675000Y-85245750D01*
X109675000Y-85386310D01*
X109761442Y-85595000D01*
X109675000Y-85803690D01*
X109675000Y-85944250D01*
X109833750Y-86103000D01*
X110958000Y-86103000D01*
X110958000Y-85087000D01*
X111212000Y-85087000D01*
X111212000Y-86103000D01*
X111232000Y-86103000D01*
X111232000Y-86357000D01*
X111212000Y-86357000D01*
X111212000Y-87006250D01*
X111370750Y-87165000D01*
X111986309Y-87165000D01*
X112219698Y-87068327D01*
X112398327Y-86889699D01*
X112495000Y-86656310D01*
X112495000Y-86515750D01*
X112336252Y-86357002D01*
X112495000Y-86357002D01*
X112495000Y-86306998D01*
X112571082Y-86491131D01*
X112817571Y-86738051D01*
X113139789Y-86871847D01*
X113488681Y-86872151D01*
X113811131Y-86738918D01*
X114058051Y-86492429D01*
X114191847Y-86170211D01*
X114192151Y-85821319D01*
X114058918Y-85498869D01*
X113812429Y-85251949D01*
X113490211Y-85118153D01*
X113141319Y-85117849D01*
X112818869Y-85251082D01*
X112571949Y-85497571D01*
X112469950Y-85743213D01*
X112408558Y-85595000D01*
X112495000Y-85386310D01*
X112495000Y-85245750D01*
X112336250Y-85087000D01*
X111212000Y-85087000D01*
X110958000Y-85087000D01*
X109833750Y-85087000D01*
X109675000Y-85245750D01*
X107072000Y-85245750D01*
X107072000Y-83975750D01*
X109675000Y-83975750D01*
X109675000Y-84116310D01*
X109761442Y-84325000D01*
X109675000Y-84533690D01*
X109675000Y-84674250D01*
X109833750Y-84833000D01*
X110958000Y-84833000D01*
X110958000Y-83817000D01*
X111212000Y-83817000D01*
X111212000Y-84833000D01*
X112336250Y-84833000D01*
X112495000Y-84674250D01*
X112495000Y-84533690D01*
X112408558Y-84325000D01*
X112495000Y-84116310D01*
X112495000Y-83975750D01*
X112336250Y-83817000D01*
X111212000Y-83817000D01*
X110958000Y-83817000D01*
X109833750Y-83817000D01*
X109675000Y-83975750D01*
X107072000Y-83975750D01*
X107072000Y-83753681D01*
X114152849Y-83753681D01*
X114286082Y-84076131D01*
X114532571Y-84323051D01*
X114854789Y-84456847D01*
X115203681Y-84457151D01*
X115382204Y-84383387D01*
X115308936Y-84490619D01*
X115274635Y-84660000D01*
X115274635Y-85260000D01*
X115304409Y-85418237D01*
X115311977Y-85429998D01*
X115171673Y-85570301D01*
X115075000Y-85803690D01*
X115075000Y-85933031D01*
X114866319Y-85932849D01*
X114543869Y-86066082D01*
X114296949Y-86312571D01*
X114163153Y-86634789D01*
X114162849Y-86983681D01*
X114296082Y-87306131D01*
X114542571Y-87553051D01*
X114864789Y-87686847D01*
X115213681Y-87687151D01*
X115536131Y-87553918D01*
X115783051Y-87307429D01*
X115842192Y-87165000D01*
X116199250Y-87165000D01*
X116358000Y-87006250D01*
X116358000Y-86357000D01*
X116612000Y-86357000D01*
X116612000Y-87006250D01*
X116770750Y-87165000D01*
X117386309Y-87165000D01*
X117401564Y-87158681D01*
X120217849Y-87158681D01*
X120351082Y-87481131D01*
X120597571Y-87728051D01*
X120919789Y-87861847D01*
X121268681Y-87862151D01*
X121493097Y-87769425D01*
X121492849Y-88053681D01*
X121626082Y-88376131D01*
X121872571Y-88623051D01*
X122194789Y-88756847D01*
X122543681Y-88757151D01*
X122866131Y-88623918D01*
X123113051Y-88377429D01*
X123246847Y-88055211D01*
X123246857Y-88043681D01*
X127122849Y-88043681D01*
X127256082Y-88366131D01*
X127502571Y-88613051D01*
X127824789Y-88746847D01*
X128173681Y-88747151D01*
X128496131Y-88613918D01*
X128743051Y-88367429D01*
X128842187Y-88128681D01*
X132317849Y-88128681D01*
X132451082Y-88451131D01*
X132697571Y-88698051D01*
X133019789Y-88831847D01*
X133368681Y-88832151D01*
X133691131Y-88698918D01*
X133938051Y-88452429D01*
X134071847Y-88130211D01*
X134072151Y-87781319D01*
X134020268Y-87655750D01*
X147265000Y-87655750D01*
X147265000Y-87871310D01*
X147361673Y-88104699D01*
X147540302Y-88283327D01*
X147773691Y-88380000D01*
X148014250Y-88380000D01*
X148173000Y-88221250D01*
X148173000Y-87497000D01*
X147423750Y-87497000D01*
X147265000Y-87655750D01*
X134020268Y-87655750D01*
X133938918Y-87458869D01*
X133692429Y-87211949D01*
X133370211Y-87078153D01*
X133021319Y-87077849D01*
X132698869Y-87211082D01*
X132451949Y-87457571D01*
X132318153Y-87779789D01*
X132317849Y-88128681D01*
X128842187Y-88128681D01*
X128876847Y-88045211D01*
X128877151Y-87696319D01*
X128743918Y-87373869D01*
X128497429Y-87126949D01*
X128175211Y-86993153D01*
X127826319Y-86992849D01*
X127503869Y-87126082D01*
X127256949Y-87372571D01*
X127123153Y-87694789D01*
X127122849Y-88043681D01*
X123246857Y-88043681D01*
X123247151Y-87706319D01*
X123113918Y-87383869D01*
X122867429Y-87136949D01*
X122545211Y-87003153D01*
X122196319Y-87002849D01*
X121971903Y-87095575D01*
X121972151Y-86811319D01*
X121838918Y-86488869D01*
X121592429Y-86241949D01*
X121270211Y-86108153D01*
X120921319Y-86107849D01*
X120598869Y-86241082D01*
X120351949Y-86487571D01*
X120218153Y-86809789D01*
X120217849Y-87158681D01*
X117401564Y-87158681D01*
X117619698Y-87068327D01*
X117798327Y-86889699D01*
X117895000Y-86656310D01*
X117895000Y-86515750D01*
X117736250Y-86357000D01*
X116612000Y-86357000D01*
X116358000Y-86357000D01*
X116338000Y-86357000D01*
X116338000Y-86103000D01*
X116358000Y-86103000D01*
X116358000Y-86083000D01*
X116612000Y-86083000D01*
X116612000Y-86103000D01*
X117736250Y-86103000D01*
X117895000Y-85944250D01*
X117895000Y-85803690D01*
X117798327Y-85570301D01*
X117765026Y-85537000D01*
X121238531Y-85537000D01*
X121244409Y-85568237D01*
X121337927Y-85713567D01*
X121480619Y-85811064D01*
X121650000Y-85845365D01*
X122850000Y-85845365D01*
X123008237Y-85815591D01*
X123153567Y-85722073D01*
X123251064Y-85579381D01*
X123285365Y-85410000D01*
X123285365Y-84510000D01*
X123414635Y-84510000D01*
X123414635Y-85410000D01*
X123444409Y-85568237D01*
X123537927Y-85713567D01*
X123680619Y-85811064D01*
X123850000Y-85845365D01*
X124962996Y-85845365D01*
X124962849Y-86013681D01*
X125096082Y-86336131D01*
X125194717Y-86434939D01*
X125116949Y-86512571D01*
X124983153Y-86834789D01*
X124982849Y-87183681D01*
X125116082Y-87506131D01*
X125362571Y-87753051D01*
X125684789Y-87886847D01*
X126033681Y-87887151D01*
X126356131Y-87753918D01*
X126603051Y-87507429D01*
X126736847Y-87185211D01*
X126737122Y-86868690D01*
X147265000Y-86868690D01*
X147265000Y-87084250D01*
X147423750Y-87243000D01*
X148173000Y-87243000D01*
X148173000Y-86518750D01*
X148014250Y-86360000D01*
X147773691Y-86360000D01*
X147540302Y-86456673D01*
X147361673Y-86635301D01*
X147265000Y-86868690D01*
X126737122Y-86868690D01*
X126737151Y-86836319D01*
X126603918Y-86513869D01*
X126505283Y-86415061D01*
X126583051Y-86337429D01*
X126716847Y-86015211D01*
X126717002Y-85837119D01*
X126753681Y-85837151D01*
X127076131Y-85703918D01*
X127323051Y-85457429D01*
X127456847Y-85135211D01*
X127457151Y-84786319D01*
X127323918Y-84463869D01*
X127077429Y-84216949D01*
X126755211Y-84083153D01*
X126406319Y-84082849D01*
X126083869Y-84216082D01*
X125916659Y-84383000D01*
X125461469Y-84383000D01*
X125455591Y-84351763D01*
X125362073Y-84206433D01*
X125219381Y-84108936D01*
X125050000Y-84074635D01*
X123850000Y-84074635D01*
X123691763Y-84104409D01*
X123546433Y-84197927D01*
X123448936Y-84340619D01*
X123414635Y-84510000D01*
X123285365Y-84510000D01*
X123255591Y-84351763D01*
X123162073Y-84206433D01*
X123019381Y-84108936D01*
X122850000Y-84074635D01*
X122827000Y-84074635D01*
X122827000Y-83663021D01*
X122861131Y-83648918D01*
X123108051Y-83402429D01*
X123200958Y-83178681D01*
X126007849Y-83178681D01*
X126141082Y-83501131D01*
X126387571Y-83748051D01*
X126709789Y-83881847D01*
X127058681Y-83882151D01*
X127381131Y-83748918D01*
X127628051Y-83502429D01*
X127761847Y-83180211D01*
X127762064Y-82931268D01*
X127859789Y-82971847D01*
X128208681Y-82972151D01*
X128531131Y-82838918D01*
X128721700Y-82648681D01*
X136977849Y-82648681D01*
X137111082Y-82971131D01*
X137357571Y-83218051D01*
X137679789Y-83351847D01*
X138028681Y-83352151D01*
X138351131Y-83218918D01*
X138364322Y-83205750D01*
X143925000Y-83205750D01*
X143925000Y-83496310D01*
X144021673Y-83729699D01*
X144200302Y-83908327D01*
X144433691Y-84005000D01*
X144874250Y-84005000D01*
X145033000Y-83846250D01*
X145033000Y-83047000D01*
X144083750Y-83047000D01*
X143925000Y-83205750D01*
X138364322Y-83205750D01*
X138598051Y-82972429D01*
X138731847Y-82650211D01*
X138732114Y-82343690D01*
X143925000Y-82343690D01*
X143925000Y-82634250D01*
X144083750Y-82793000D01*
X145033000Y-82793000D01*
X145033000Y-81993750D01*
X145287000Y-81993750D01*
X145287000Y-82793000D01*
X145307000Y-82793000D01*
X145307000Y-83047000D01*
X145287000Y-83047000D01*
X145287000Y-83846250D01*
X145445750Y-84005000D01*
X145886309Y-84005000D01*
X146119698Y-83908327D01*
X146298327Y-83729699D01*
X146371058Y-83554110D01*
X146447927Y-83673567D01*
X146590619Y-83771064D01*
X146760000Y-83805365D01*
X147960000Y-83805365D01*
X148118237Y-83775591D01*
X148263567Y-83682073D01*
X148361064Y-83539381D01*
X148381797Y-83437000D01*
X148508657Y-83437000D01*
X148540300Y-83486174D01*
X148468936Y-83590619D01*
X148434635Y-83760000D01*
X148434635Y-84760000D01*
X148464409Y-84918237D01*
X148540300Y-85036174D01*
X148468936Y-85140619D01*
X148434635Y-85310000D01*
X148434635Y-86010000D01*
X148464409Y-86168237D01*
X148557927Y-86313567D01*
X148625884Y-86360000D01*
X148585750Y-86360000D01*
X148427000Y-86518750D01*
X148427000Y-87243000D01*
X148447000Y-87243000D01*
X148447000Y-87497000D01*
X148427000Y-87497000D01*
X148427000Y-88221250D01*
X148585750Y-88380000D01*
X148826309Y-88380000D01*
X149022942Y-88298552D01*
X148933153Y-88514789D01*
X148932849Y-88863681D01*
X149066082Y-89186131D01*
X149312571Y-89433051D01*
X149634789Y-89566847D01*
X149983681Y-89567151D01*
X150306131Y-89433918D01*
X150553051Y-89187429D01*
X150624338Y-89015750D01*
X153720000Y-89015750D01*
X153720000Y-89256309D01*
X153816673Y-89489698D01*
X153995301Y-89668327D01*
X154228690Y-89765000D01*
X154444250Y-89765000D01*
X154603000Y-89606250D01*
X154603000Y-88857000D01*
X153878750Y-88857000D01*
X153720000Y-89015750D01*
X150624338Y-89015750D01*
X150686847Y-88865211D01*
X150687151Y-88516319D01*
X150553918Y-88193869D01*
X150451078Y-88090849D01*
X150503567Y-88057073D01*
X150601064Y-87914381D01*
X150635365Y-87745000D01*
X150635365Y-86995000D01*
X150605591Y-86836763D01*
X150512073Y-86691433D01*
X150397000Y-86612807D01*
X150397000Y-86445365D01*
X150770000Y-86445365D01*
X150928237Y-86415591D01*
X151073567Y-86322073D01*
X151171064Y-86179381D01*
X151205365Y-86010000D01*
X151205365Y-85310000D01*
X151175591Y-85151763D01*
X151099700Y-85033826D01*
X151171064Y-84929381D01*
X151205365Y-84760000D01*
X151205365Y-83760000D01*
X151175591Y-83601763D01*
X151099700Y-83483826D01*
X151171064Y-83379381D01*
X151205365Y-83210000D01*
X151205365Y-82510000D01*
X151175591Y-82351763D01*
X151082073Y-82206433D01*
X150939381Y-82108936D01*
X150770000Y-82074635D01*
X148870000Y-82074635D01*
X148711763Y-82104409D01*
X148566433Y-82197927D01*
X148508305Y-82283000D01*
X148347082Y-82283000D01*
X148272073Y-82166433D01*
X148129381Y-82068936D01*
X147960000Y-82034635D01*
X146760000Y-82034635D01*
X146601763Y-82064409D01*
X146456433Y-82157927D01*
X146370281Y-82284014D01*
X146298327Y-82110301D01*
X146119698Y-81931673D01*
X145886309Y-81835000D01*
X145445750Y-81835000D01*
X145287000Y-81993750D01*
X145033000Y-81993750D01*
X144874250Y-81835000D01*
X144433691Y-81835000D01*
X144200302Y-81931673D01*
X144021673Y-82110301D01*
X143925000Y-82343690D01*
X138732114Y-82343690D01*
X138732146Y-82307036D01*
X138863681Y-82307151D01*
X139186131Y-82173918D01*
X139433051Y-81927429D01*
X139566847Y-81605211D01*
X139567151Y-81256319D01*
X139433918Y-80933869D01*
X139187429Y-80686949D01*
X138865211Y-80553153D01*
X138516319Y-80552849D01*
X138193869Y-80686082D01*
X137946949Y-80932571D01*
X137813153Y-81254789D01*
X137812854Y-81597964D01*
X137681319Y-81597849D01*
X137358869Y-81731082D01*
X137111949Y-81977571D01*
X136978153Y-82299789D01*
X136977849Y-82648681D01*
X128721700Y-82648681D01*
X128778051Y-82592429D01*
X128911847Y-82270211D01*
X128912151Y-81921319D01*
X128778918Y-81598869D01*
X128532429Y-81351949D01*
X128210211Y-81218153D01*
X127861319Y-81217849D01*
X127538869Y-81351082D01*
X127291949Y-81597571D01*
X127158153Y-81919789D01*
X127157936Y-82168732D01*
X127060211Y-82128153D01*
X126711319Y-82127849D01*
X126388869Y-82261082D01*
X126141949Y-82507571D01*
X126008153Y-82829789D01*
X126007849Y-83178681D01*
X123200958Y-83178681D01*
X123241847Y-83080211D01*
X123242151Y-82731319D01*
X123108918Y-82408869D01*
X122862429Y-82161949D01*
X122540211Y-82028153D01*
X122191319Y-82027849D01*
X121868869Y-82161082D01*
X121621949Y-82407571D01*
X121488153Y-82729789D01*
X121487849Y-83078681D01*
X121621082Y-83401131D01*
X121673000Y-83453140D01*
X121673000Y-84074635D01*
X121650000Y-84074635D01*
X121491763Y-84104409D01*
X121346433Y-84197927D01*
X121248936Y-84340619D01*
X121240354Y-84383000D01*
X119635030Y-84383000D01*
X119911131Y-84268918D01*
X120158051Y-84022429D01*
X120291847Y-83700211D01*
X120292151Y-83351319D01*
X120158918Y-83028869D01*
X119912429Y-82781949D01*
X119590211Y-82648153D01*
X119241319Y-82647849D01*
X119195383Y-82666829D01*
X119123918Y-82493869D01*
X118877429Y-82246949D01*
X118555211Y-82113153D01*
X118318949Y-82112947D01*
X118218001Y-82011999D01*
X118030808Y-81886922D01*
X117810000Y-81842999D01*
X117809995Y-81843000D01*
X117589169Y-81843000D01*
X117572073Y-81816433D01*
X117429381Y-81718936D01*
X117260000Y-81684635D01*
X115710000Y-81684635D01*
X115551763Y-81714409D01*
X115406433Y-81807927D01*
X115308936Y-81950619D01*
X115274635Y-82120000D01*
X115274635Y-82720000D01*
X115277080Y-82732996D01*
X115205211Y-82703153D01*
X114856319Y-82702849D01*
X114533869Y-82836082D01*
X114286949Y-83082571D01*
X114153153Y-83404789D01*
X114152849Y-83753681D01*
X107072000Y-83753681D01*
X107072000Y-83263690D01*
X109675000Y-83263690D01*
X109675000Y-83404250D01*
X109833750Y-83563000D01*
X110958000Y-83563000D01*
X110958000Y-83543000D01*
X111212000Y-83543000D01*
X111212000Y-83563000D01*
X112336250Y-83563000D01*
X112495000Y-83404250D01*
X112495000Y-83263690D01*
X112398327Y-83030301D01*
X112259579Y-82891554D01*
X112261064Y-82889381D01*
X112295365Y-82720000D01*
X112295365Y-82120000D01*
X112265591Y-81961763D01*
X112177586Y-81825000D01*
X112359250Y-81825000D01*
X112518000Y-81666250D01*
X112518000Y-80942000D01*
X112772000Y-80942000D01*
X112772000Y-81666250D01*
X112930750Y-81825000D01*
X113171309Y-81825000D01*
X113404698Y-81728327D01*
X113583327Y-81549699D01*
X113680000Y-81316310D01*
X113680000Y-81100750D01*
X113521250Y-80942000D01*
X112772000Y-80942000D01*
X112518000Y-80942000D01*
X112498000Y-80942000D01*
X112498000Y-80688000D01*
X112518000Y-80688000D01*
X112518000Y-79963750D01*
X112772000Y-79963750D01*
X112772000Y-80688000D01*
X113521250Y-80688000D01*
X113680000Y-80529250D01*
X113680000Y-80313690D01*
X113583327Y-80080301D01*
X113404698Y-79901673D01*
X113171309Y-79805000D01*
X112930750Y-79805000D01*
X112772000Y-79963750D01*
X112518000Y-79963750D01*
X112359250Y-79805000D01*
X112171001Y-79805000D01*
X112172998Y-79803003D01*
X112173001Y-79803001D01*
X112247979Y-79690787D01*
X112298078Y-79615809D01*
X112303979Y-79586145D01*
X112371560Y-79518681D01*
X114847849Y-79518681D01*
X114981082Y-79841131D01*
X115227571Y-80088051D01*
X115549789Y-80221847D01*
X115898681Y-80222151D01*
X116221131Y-80088918D01*
X116468051Y-79842429D01*
X116601847Y-79520211D01*
X116602151Y-79171319D01*
X116492421Y-78905750D01*
X143270000Y-78905750D01*
X143270000Y-79146309D01*
X143366673Y-79379698D01*
X143545301Y-79558327D01*
X143778690Y-79655000D01*
X143994250Y-79655000D01*
X144153000Y-79496250D01*
X144153000Y-78747000D01*
X143428750Y-78747000D01*
X143270000Y-78905750D01*
X116492421Y-78905750D01*
X116468918Y-78848869D01*
X116222429Y-78601949D01*
X115900211Y-78468153D01*
X115551319Y-78467849D01*
X115228869Y-78601082D01*
X114981949Y-78847571D01*
X114848153Y-79169789D01*
X114847849Y-79518681D01*
X112371560Y-79518681D01*
X112508051Y-79382429D01*
X112641847Y-79060211D01*
X112642151Y-78711319D01*
X112508918Y-78388869D01*
X112262429Y-78141949D01*
X111940211Y-78008153D01*
X111591319Y-78007849D01*
X111268869Y-78141082D01*
X111021949Y-78387571D01*
X110888153Y-78709789D01*
X110887849Y-79058681D01*
X111004061Y-79339937D01*
X110736999Y-79606999D01*
X110611922Y-79794192D01*
X110567999Y-80015000D01*
X110568000Y-80015005D01*
X110568000Y-80046483D01*
X110441433Y-80127927D01*
X110343936Y-80270619D01*
X110309635Y-80440000D01*
X110309635Y-81190000D01*
X110339409Y-81348237D01*
X110432927Y-81493567D01*
X110568000Y-81585858D01*
X110568000Y-81684635D01*
X110310000Y-81684635D01*
X110151763Y-81714409D01*
X110006433Y-81807927D01*
X109908936Y-81950619D01*
X109874635Y-82120000D01*
X109874635Y-82720000D01*
X109904409Y-82878237D01*
X109911977Y-82889998D01*
X109771673Y-83030301D01*
X109675000Y-83263690D01*
X107072000Y-83263690D01*
X107072000Y-80488681D01*
X107347849Y-80488681D01*
X107481082Y-80811131D01*
X107727571Y-81058051D01*
X108049789Y-81191847D01*
X108398681Y-81192151D01*
X108721131Y-81058918D01*
X108968051Y-80812429D01*
X109101847Y-80490211D01*
X109102151Y-80141319D01*
X108968918Y-79818869D01*
X108722429Y-79571949D01*
X108400211Y-79438153D01*
X108051319Y-79437849D01*
X107728869Y-79571082D01*
X107481949Y-79817571D01*
X107348153Y-80139789D01*
X107347849Y-80488681D01*
X107072000Y-80488681D01*
X107072000Y-76928681D01*
X109737849Y-76928681D01*
X109871082Y-77251131D01*
X110117571Y-77498051D01*
X110439789Y-77631847D01*
X110788681Y-77632151D01*
X111111131Y-77498918D01*
X111336761Y-77273681D01*
X123422849Y-77273681D01*
X123556082Y-77596131D01*
X123802571Y-77843051D01*
X124124789Y-77976847D01*
X124473681Y-77977151D01*
X124796131Y-77843918D01*
X125043051Y-77597429D01*
X125176847Y-77275211D01*
X125177151Y-76926319D01*
X125043918Y-76603869D01*
X124797429Y-76356949D01*
X124475211Y-76223153D01*
X124126319Y-76222849D01*
X123803869Y-76356082D01*
X123556949Y-76602571D01*
X123423153Y-76924789D01*
X123422849Y-77273681D01*
X111336761Y-77273681D01*
X111358051Y-77252429D01*
X111491847Y-76930211D01*
X111492151Y-76581319D01*
X111358918Y-76258869D01*
X111112429Y-76011949D01*
X110790211Y-75878153D01*
X110441319Y-75877849D01*
X110118869Y-76011082D01*
X109871949Y-76257571D01*
X109738153Y-76579789D01*
X109737849Y-76928681D01*
X107072000Y-76928681D01*
X107072000Y-75558681D01*
X117417849Y-75558681D01*
X117551082Y-75881131D01*
X117797571Y-76128051D01*
X118119789Y-76261847D01*
X118468681Y-76262151D01*
X118791131Y-76128918D01*
X119038051Y-75882429D01*
X119087359Y-75763681D01*
X124742849Y-75763681D01*
X124876082Y-76086131D01*
X125122571Y-76333051D01*
X125444789Y-76466847D01*
X125793681Y-76467151D01*
X126116131Y-76333918D01*
X126363051Y-76087429D01*
X126410283Y-75973681D01*
X128882849Y-75973681D01*
X129016082Y-76296131D01*
X129262571Y-76543051D01*
X129584789Y-76676847D01*
X129933681Y-76677151D01*
X130256131Y-76543918D01*
X130503051Y-76297429D01*
X130573120Y-76128681D01*
X133457849Y-76128681D01*
X133591082Y-76451131D01*
X133837571Y-76698051D01*
X134159789Y-76831847D01*
X134508681Y-76832151D01*
X134831131Y-76698918D01*
X135078051Y-76452429D01*
X135211847Y-76130211D01*
X135212151Y-75781319D01*
X135078918Y-75458869D01*
X134832429Y-75211949D01*
X134510211Y-75078153D01*
X134161319Y-75077849D01*
X133838869Y-75211082D01*
X133591949Y-75457571D01*
X133458153Y-75779789D01*
X133457849Y-76128681D01*
X130573120Y-76128681D01*
X130636847Y-75975211D01*
X130637151Y-75626319D01*
X130503918Y-75303869D01*
X130257429Y-75056949D01*
X129935211Y-74923153D01*
X129586319Y-74922849D01*
X129263869Y-75056082D01*
X129016949Y-75302571D01*
X128883153Y-75624789D01*
X128882849Y-75973681D01*
X126410283Y-75973681D01*
X126496847Y-75765211D01*
X126497151Y-75416319D01*
X126363918Y-75093869D01*
X126117429Y-74846949D01*
X125795211Y-74713153D01*
X125446319Y-74712849D01*
X125123869Y-74846082D01*
X124876949Y-75092571D01*
X124743153Y-75414789D01*
X124742849Y-75763681D01*
X119087359Y-75763681D01*
X119171847Y-75560211D01*
X119172151Y-75211319D01*
X119038918Y-74888869D01*
X118792429Y-74641949D01*
X118470211Y-74508153D01*
X118121319Y-74507849D01*
X117798869Y-74641082D01*
X117551949Y-74887571D01*
X117418153Y-75209789D01*
X117417849Y-75558681D01*
X107072000Y-75558681D01*
X107072000Y-73448681D01*
X119617849Y-73448681D01*
X119751082Y-73771131D01*
X119997571Y-74018051D01*
X120319789Y-74151847D01*
X120668681Y-74152151D01*
X120991131Y-74018918D01*
X121238051Y-73772429D01*
X121371847Y-73450211D01*
X121372138Y-73115750D01*
X137685000Y-73115750D01*
X137685000Y-73556309D01*
X137781673Y-73789698D01*
X137960301Y-73968327D01*
X138193690Y-74065000D01*
X138484250Y-74065000D01*
X138643000Y-73906250D01*
X138643000Y-72957000D01*
X138897000Y-72957000D01*
X138897000Y-73906250D01*
X139055750Y-74065000D01*
X139346310Y-74065000D01*
X139579699Y-73968327D01*
X139758327Y-73789698D01*
X139855000Y-73556309D01*
X139855000Y-73115750D01*
X139696250Y-72957000D01*
X138897000Y-72957000D01*
X138643000Y-72957000D01*
X137843750Y-72957000D01*
X137685000Y-73115750D01*
X121372138Y-73115750D01*
X121372151Y-73101319D01*
X121238918Y-72778869D01*
X120992429Y-72531949D01*
X120670211Y-72398153D01*
X120321319Y-72397849D01*
X119998869Y-72531082D01*
X119751949Y-72777571D01*
X119618153Y-73099789D01*
X119617849Y-73448681D01*
X107072000Y-73448681D01*
X107072000Y-67245000D01*
X107061994Y-67195590D01*
X107033553Y-67153965D01*
X106991159Y-67126685D01*
X106945000Y-67118000D01*
X104175365Y-67118000D01*
X104175365Y-66923682D01*
X136522406Y-66923682D01*
X137043037Y-68183704D01*
X138006226Y-69148575D01*
X139080457Y-69594635D01*
X138320000Y-69594635D01*
X138161763Y-69624409D01*
X138016433Y-69717927D01*
X137918936Y-69860619D01*
X137884635Y-70030000D01*
X137884635Y-71230000D01*
X137914409Y-71388237D01*
X138007927Y-71533567D01*
X138134014Y-71619719D01*
X137960301Y-71691673D01*
X137781673Y-71870302D01*
X137685000Y-72103691D01*
X137685000Y-72544250D01*
X137843750Y-72703000D01*
X138643000Y-72703000D01*
X138643000Y-72683000D01*
X138897000Y-72683000D01*
X138897000Y-72703000D01*
X139696250Y-72703000D01*
X139855000Y-72544250D01*
X139855000Y-72103691D01*
X139758327Y-71870302D01*
X139579699Y-71691673D01*
X139404110Y-71618942D01*
X139523567Y-71542073D01*
X139621064Y-71399381D01*
X139655365Y-71230000D01*
X139655365Y-71097000D01*
X140132570Y-71097000D01*
X140197927Y-71198567D01*
X140340619Y-71296064D01*
X140510000Y-71330365D01*
X141310000Y-71330365D01*
X141468237Y-71300591D01*
X141498251Y-71281277D01*
X141650302Y-71433327D01*
X141883691Y-71530000D01*
X142124250Y-71530000D01*
X142283000Y-71371250D01*
X142283000Y-70647000D01*
X142537000Y-70647000D01*
X142537000Y-71371250D01*
X142695750Y-71530000D01*
X142936309Y-71530000D01*
X143169698Y-71433327D01*
X143348327Y-71254699D01*
X143445000Y-71021310D01*
X143445000Y-70805750D01*
X143286250Y-70647000D01*
X142537000Y-70647000D01*
X142283000Y-70647000D01*
X142263000Y-70647000D01*
X142263000Y-70393000D01*
X142283000Y-70393000D01*
X142283000Y-69668750D01*
X142537000Y-69668750D01*
X142537000Y-70393000D01*
X143286250Y-70393000D01*
X143445000Y-70234250D01*
X143445000Y-70018690D01*
X143348327Y-69785301D01*
X143169698Y-69606673D01*
X142936309Y-69510000D01*
X142695750Y-69510000D01*
X142537000Y-69668750D01*
X142283000Y-69668750D01*
X142124250Y-69510000D01*
X141883691Y-69510000D01*
X141650302Y-69606673D01*
X141499376Y-69757598D01*
X141487000Y-69749142D01*
X141487000Y-69317944D01*
X141888704Y-69151963D01*
X142853575Y-68188774D01*
X143376404Y-66929663D01*
X143377594Y-65566318D01*
X142856963Y-64306296D01*
X141893774Y-63341425D01*
X140634663Y-62818596D01*
X139271318Y-62817406D01*
X138011296Y-63338037D01*
X137046425Y-64301226D01*
X136523596Y-65560337D01*
X136522406Y-66923682D01*
X104175365Y-66923682D01*
X104175365Y-66650000D01*
X104145591Y-66491763D01*
X104052073Y-66346433D01*
X103909381Y-66248936D01*
X103740000Y-66214635D01*
X102040000Y-66214635D01*
X101881763Y-66244409D01*
X101736433Y-66337927D01*
X101638936Y-66480619D01*
X101604635Y-66650000D01*
X101604635Y-67118000D01*
X97767000Y-67118000D01*
X97767000Y-67037430D01*
X97868567Y-66972073D01*
X97966064Y-66829381D01*
X98000365Y-66660000D01*
X98000365Y-65860000D01*
X97970591Y-65701763D01*
X97951277Y-65671749D01*
X98103327Y-65519698D01*
X98200000Y-65286309D01*
X98200000Y-65045750D01*
X98041250Y-64887000D01*
X97317000Y-64887000D01*
X97317000Y-64907000D01*
X97063000Y-64907000D01*
X97063000Y-64887000D01*
X96338750Y-64887000D01*
X96180000Y-65045750D01*
X96180000Y-65286309D01*
X96276673Y-65519698D01*
X96427598Y-65670624D01*
X96413936Y-65690619D01*
X96379635Y-65860000D01*
X96379635Y-66660000D01*
X96409409Y-66818237D01*
X96502927Y-66963567D01*
X96613000Y-67038776D01*
X96613000Y-67118000D01*
X95293200Y-67118000D01*
X95371404Y-66929663D01*
X95372594Y-65566318D01*
X94851963Y-64306296D01*
X94779485Y-64233691D01*
X96180000Y-64233691D01*
X96180000Y-64474250D01*
X96338750Y-64633000D01*
X97063000Y-64633000D01*
X97063000Y-63883750D01*
X97317000Y-63883750D01*
X97317000Y-64633000D01*
X98041250Y-64633000D01*
X98200000Y-64474250D01*
X98200000Y-64233691D01*
X98103327Y-64000302D01*
X97924699Y-63821673D01*
X97691310Y-63725000D01*
X97475750Y-63725000D01*
X97317000Y-63883750D01*
X97063000Y-63883750D01*
X96904250Y-63725000D01*
X96688690Y-63725000D01*
X96455301Y-63821673D01*
X96276673Y-64000302D01*
X96180000Y-64233691D01*
X94779485Y-64233691D01*
X93888774Y-63341425D01*
X92629663Y-62818596D01*
X91266318Y-62817406D01*
X90006296Y-63338037D01*
X89041425Y-64301226D01*
X88518596Y-65560337D01*
X88517406Y-66923682D01*
X88597697Y-67118000D01*
X87447000Y-67118000D01*
X87447000Y-61747000D01*
X144350188Y-61747000D01*
X144355338Y-71284903D01*
G36*
X89038037Y-68183704D02*
X90001226Y-69148575D01*
X91260337Y-69671404D01*
X92623682Y-69672594D01*
X93883704Y-69151963D01*
X94214243Y-68822000D01*
X96314635Y-68822000D01*
X96314635Y-68870000D01*
X96344409Y-69028237D01*
X96437927Y-69173567D01*
X96564014Y-69259719D01*
X96390301Y-69331673D01*
X96211673Y-69510302D01*
X96115000Y-69743691D01*
X96115000Y-70184250D01*
X96273750Y-70343000D01*
X97073000Y-70343000D01*
X97073000Y-70323000D01*
X97327000Y-70323000D01*
X97327000Y-70343000D01*
X98126250Y-70343000D01*
X98285000Y-70184250D01*
X98285000Y-69743691D01*
X98188327Y-69510302D01*
X98009699Y-69331673D01*
X97834110Y-69258942D01*
X97953567Y-69182073D01*
X98051064Y-69039381D01*
X98085365Y-68870000D01*
X98085365Y-67872000D01*
X101604635Y-67872000D01*
X101604635Y-68350000D01*
X101634409Y-68508237D01*
X101727927Y-68653567D01*
X101870619Y-68751064D01*
X102040000Y-68785365D01*
X103740000Y-68785365D01*
X103898237Y-68755591D01*
X104043567Y-68662073D01*
X104141064Y-68519381D01*
X104175365Y-68350000D01*
X104175365Y-67872000D01*
X106318000Y-67872000D01*
X106318000Y-84009692D01*
X106290211Y-83998153D01*
X105941319Y-83997849D01*
X105618869Y-84131082D01*
X105371949Y-84377571D01*
X105238153Y-84699789D01*
X105237849Y-85048681D01*
X105371082Y-85371131D01*
X105617571Y-85618051D01*
X105939789Y-85751847D01*
X106288681Y-85752151D01*
X106318000Y-85740037D01*
X106318000Y-104044635D01*
X105690000Y-104044635D01*
X105531763Y-104074409D01*
X105386433Y-104167927D01*
X105288936Y-104310619D01*
X105254635Y-104480000D01*
X105254635Y-106180000D01*
X105284409Y-106338237D01*
X105377927Y-106483567D01*
X105520619Y-106581064D01*
X105690000Y-106615365D01*
X106318000Y-106615365D01*
X106318000Y-106743000D01*
X87447000Y-106743000D01*
X87447000Y-102923682D01*
X88517406Y-102923682D01*
X89038037Y-104183704D01*
X90001226Y-105148575D01*
X91260337Y-105671404D01*
X92623682Y-105672594D01*
X93883704Y-105151963D01*
X94848575Y-104188774D01*
X95015925Y-103785750D01*
X95610000Y-103785750D01*
X95610000Y-104026309D01*
X95706673Y-104259698D01*
X95885301Y-104438327D01*
X96118690Y-104535000D01*
X96334250Y-104535000D01*
X96493000Y-104376250D01*
X96493000Y-103627000D01*
X96747000Y-103627000D01*
X96747000Y-104376250D01*
X96905750Y-104535000D01*
X97121310Y-104535000D01*
X97354699Y-104438327D01*
X97533327Y-104259698D01*
X97630000Y-104026309D01*
X97630000Y-103785750D01*
X97471250Y-103627000D01*
X96747000Y-103627000D01*
X96493000Y-103627000D01*
X95768750Y-103627000D01*
X95610000Y-103785750D01*
X95015925Y-103785750D01*
X95371404Y-102929663D01*
X95372594Y-101566318D01*
X95065048Y-100822000D01*
X95740656Y-100822000D01*
X95764409Y-100948237D01*
X95857927Y-101093567D01*
X96000619Y-101191064D01*
X96043000Y-101199646D01*
X96043000Y-101222570D01*
X95941433Y-101287927D01*
X95843936Y-101430619D01*
X95809635Y-101600000D01*
X95809635Y-102400000D01*
X95839409Y-102558237D01*
X95858723Y-102588251D01*
X95706673Y-102740302D01*
X95610000Y-102973691D01*
X95610000Y-103214250D01*
X95768750Y-103373000D01*
X96493000Y-103373000D01*
X96493000Y-103353000D01*
X96747000Y-103353000D01*
X96747000Y-103373000D01*
X97471250Y-103373000D01*
X97630000Y-103214250D01*
X97630000Y-102973691D01*
X97533327Y-102740302D01*
X97382402Y-102589376D01*
X97396064Y-102569381D01*
X97430365Y-102400000D01*
X97430365Y-101600000D01*
X97400591Y-101441763D01*
X97307073Y-101296433D01*
X97197000Y-101221224D01*
X97197000Y-101201469D01*
X97228237Y-101195591D01*
X97373567Y-101102073D01*
X97471064Y-100959381D01*
X97505365Y-100790000D01*
X97505365Y-99940000D01*
X99064635Y-99940000D01*
X99064635Y-101640000D01*
X99094409Y-101798237D01*
X99187927Y-101943567D01*
X99330619Y-102041064D01*
X99500000Y-102075365D01*
X101200000Y-102075365D01*
X101358237Y-102045591D01*
X101503567Y-101952073D01*
X101601064Y-101809381D01*
X101635365Y-101640000D01*
X101635365Y-101097559D01*
X101806781Y-101512417D01*
X102165693Y-101871957D01*
X102634875Y-102066778D01*
X103142897Y-102067221D01*
X103612417Y-101873219D01*
X103971957Y-101514307D01*
X104166778Y-101045125D01*
X104167221Y-100537103D01*
X103973219Y-100067583D01*
X103614307Y-99708043D01*
X103145125Y-99513222D01*
X102637103Y-99512779D01*
X102167583Y-99706781D01*
X101808043Y-100065693D01*
X101635365Y-100481549D01*
X101635365Y-99940000D01*
X101605591Y-99781763D01*
X101512073Y-99636433D01*
X101369381Y-99538936D01*
X101200000Y-99504635D01*
X99500000Y-99504635D01*
X99341763Y-99534409D01*
X99196433Y-99627927D01*
X99098936Y-99770619D01*
X99064635Y-99940000D01*
X97505365Y-99940000D01*
X97505365Y-99590000D01*
X97475591Y-99431763D01*
X97382073Y-99286433D01*
X97255986Y-99200281D01*
X97429699Y-99128327D01*
X97608327Y-98949698D01*
X97705000Y-98716309D01*
X97705000Y-98275750D01*
X97546250Y-98117000D01*
X96747000Y-98117000D01*
X96747000Y-98137000D01*
X96493000Y-98137000D01*
X96493000Y-98117000D01*
X95693750Y-98117000D01*
X95535000Y-98275750D01*
X95535000Y-98716309D01*
X95631673Y-98949698D01*
X95810301Y-99128327D01*
X95985890Y-99201058D01*
X95866433Y-99277927D01*
X95768936Y-99420619D01*
X95734635Y-99590000D01*
X95734635Y-99668000D01*
X94214780Y-99668000D01*
X93888774Y-99341425D01*
X92629663Y-98818596D01*
X91266318Y-98817406D01*
X90006296Y-99338037D01*
X89041425Y-100301226D01*
X88518596Y-101560337D01*
X88517406Y-102923682D01*
X87447000Y-102923682D01*
X87447000Y-97263691D01*
X95535000Y-97263691D01*
X95535000Y-97704250D01*
X95693750Y-97863000D01*
X96493000Y-97863000D01*
X96493000Y-96913750D01*
X96747000Y-96913750D01*
X96747000Y-97863000D01*
X97546250Y-97863000D01*
X97705000Y-97704250D01*
X97705000Y-97263691D01*
X97608327Y-97030302D01*
X97429699Y-96851673D01*
X97196310Y-96755000D01*
X96905750Y-96755000D01*
X96747000Y-96913750D01*
X96493000Y-96913750D01*
X96334250Y-96755000D01*
X96043690Y-96755000D01*
X95810301Y-96851673D01*
X95631673Y-97030302D01*
X95535000Y-97263691D01*
X87447000Y-97263691D01*
X87447000Y-89613681D01*
X87652849Y-89613681D01*
X87786082Y-89936131D01*
X88032571Y-90183051D01*
X88354789Y-90316847D01*
X88703681Y-90317151D01*
X89026131Y-90183918D01*
X89273051Y-89937429D01*
X89406847Y-89615211D01*
X89407151Y-89266319D01*
X89273918Y-88943869D01*
X89027429Y-88696949D01*
X88705211Y-88563153D01*
X88356319Y-88562849D01*
X88033869Y-88696082D01*
X87786949Y-88942571D01*
X87653153Y-89264789D01*
X87652849Y-89613681D01*
X87447000Y-89613681D01*
X87447000Y-82923681D01*
X88802849Y-82923681D01*
X88936082Y-83246131D01*
X89182571Y-83493051D01*
X89504789Y-83626847D01*
X89853681Y-83627151D01*
X90176131Y-83493918D01*
X90423051Y-83247429D01*
X90556847Y-82925211D01*
X90557151Y-82576319D01*
X90423918Y-82253869D01*
X90177429Y-82006949D01*
X89855211Y-81873153D01*
X89506319Y-81872849D01*
X89183869Y-82006082D01*
X88936949Y-82252571D01*
X88803153Y-82574789D01*
X88802849Y-82923681D01*
X87447000Y-82923681D01*
X87447000Y-80044737D01*
X87526082Y-80236131D01*
X87772571Y-80483051D01*
X88094789Y-80616847D01*
X88443681Y-80617151D01*
X88766131Y-80483918D01*
X89013051Y-80237429D01*
X89135025Y-79943681D01*
X92992849Y-79943681D01*
X93126082Y-80266131D01*
X93372571Y-80513051D01*
X93694789Y-80646847D01*
X94043681Y-80647151D01*
X94366131Y-80513918D01*
X94613051Y-80267429D01*
X94746847Y-79945211D01*
X94747151Y-79596319D01*
X94613918Y-79273869D01*
X94367429Y-79026949D01*
X94045211Y-78893153D01*
X93696319Y-78892849D01*
X93373869Y-79026082D01*
X93126949Y-79272571D01*
X92993153Y-79594789D01*
X92992849Y-79943681D01*
X89135025Y-79943681D01*
X89146847Y-79915211D01*
X89147151Y-79566319D01*
X89013918Y-79243869D01*
X88767429Y-78996949D01*
X88445211Y-78863153D01*
X88096319Y-78862849D01*
X87773869Y-78996082D01*
X87526949Y-79242571D01*
X87447000Y-79435110D01*
X87447000Y-77393681D01*
X88692849Y-77393681D01*
X88826082Y-77716131D01*
X89072571Y-77963051D01*
X89394789Y-78096847D01*
X89743681Y-78097151D01*
X90066131Y-77963918D01*
X90313051Y-77717429D01*
X90446847Y-77395211D01*
X90446952Y-77273681D01*
X93332849Y-77273681D01*
X93466082Y-77596131D01*
X93712571Y-77843051D01*
X94034789Y-77976847D01*
X94383681Y-77977151D01*
X94706131Y-77843918D01*
X94953051Y-77597429D01*
X95016892Y-77443681D01*
X95972849Y-77443681D01*
X96106082Y-77766131D01*
X96352571Y-78013051D01*
X96674789Y-78146847D01*
X97023681Y-78147151D01*
X97346131Y-78013918D01*
X97593051Y-77767429D01*
X97726847Y-77445211D01*
X97727151Y-77096319D01*
X97593918Y-76773869D01*
X97347429Y-76526949D01*
X97025211Y-76393153D01*
X96676319Y-76392849D01*
X96353869Y-76526082D01*
X96106949Y-76772571D01*
X95973153Y-77094789D01*
X95972849Y-77443681D01*
X95016892Y-77443681D01*
X95086847Y-77275211D01*
X95087151Y-76926319D01*
X94953918Y-76603869D01*
X94707429Y-76356949D01*
X94385211Y-76223153D01*
X94036319Y-76222849D01*
X93713869Y-76356082D01*
X93466949Y-76602571D01*
X93333153Y-76924789D01*
X93332849Y-77273681D01*
X90446952Y-77273681D01*
X90447151Y-77046319D01*
X90313918Y-76723869D01*
X90067429Y-76476949D01*
X89745211Y-76343153D01*
X89396319Y-76342849D01*
X89073869Y-76476082D01*
X88826949Y-76722571D01*
X88693153Y-77044789D01*
X88692849Y-77393681D01*
X87447000Y-77393681D01*
X87447000Y-73603681D01*
X95732849Y-73603681D01*
X95866082Y-73926131D01*
X96112571Y-74173051D01*
X96434789Y-74306847D01*
X96783681Y-74307151D01*
X97106131Y-74173918D01*
X97353051Y-73927429D01*
X97486847Y-73605211D01*
X97487151Y-73256319D01*
X97353918Y-72933869D01*
X97107429Y-72686949D01*
X96785211Y-72553153D01*
X96436319Y-72552849D01*
X96113869Y-72686082D01*
X95866949Y-72932571D01*
X95733153Y-73254789D01*
X95732849Y-73603681D01*
X87447000Y-73603681D01*
X87447000Y-70755750D01*
X96115000Y-70755750D01*
X96115000Y-71196309D01*
X96211673Y-71429698D01*
X96390301Y-71608327D01*
X96623690Y-71705000D01*
X96914250Y-71705000D01*
X97073000Y-71546250D01*
X97073000Y-70597000D01*
X97327000Y-70597000D01*
X97327000Y-71546250D01*
X97485750Y-71705000D01*
X97776310Y-71705000D01*
X98009699Y-71608327D01*
X98188327Y-71429698D01*
X98285000Y-71196309D01*
X98285000Y-70755750D01*
X98126250Y-70597000D01*
X97327000Y-70597000D01*
X97073000Y-70597000D01*
X96273750Y-70597000D01*
X96115000Y-70755750D01*
X87447000Y-70755750D01*
X87447000Y-67872000D01*
X88909243Y-67872000D01*
X89038037Y-68183704D01*
X89038037Y-68183704D01*
G37*
X89038037Y-68183704D02*
X90001226Y-69148575D01*
X91260337Y-69671404D01*
X92623682Y-69672594D01*
X93883704Y-69151963D01*
X94214243Y-68822000D01*
X96314635Y-68822000D01*
X96314635Y-68870000D01*
X96344409Y-69028237D01*
X96437927Y-69173567D01*
X96564014Y-69259719D01*
X96390301Y-69331673D01*
X96211673Y-69510302D01*
X96115000Y-69743691D01*
X96115000Y-70184250D01*
X96273750Y-70343000D01*
X97073000Y-70343000D01*
X97073000Y-70323000D01*
X97327000Y-70323000D01*
X97327000Y-70343000D01*
X98126250Y-70343000D01*
X98285000Y-70184250D01*
X98285000Y-69743691D01*
X98188327Y-69510302D01*
X98009699Y-69331673D01*
X97834110Y-69258942D01*
X97953567Y-69182073D01*
X98051064Y-69039381D01*
X98085365Y-68870000D01*
X98085365Y-67872000D01*
X101604635Y-67872000D01*
X101604635Y-68350000D01*
X101634409Y-68508237D01*
X101727927Y-68653567D01*
X101870619Y-68751064D01*
X102040000Y-68785365D01*
X103740000Y-68785365D01*
X103898237Y-68755591D01*
X104043567Y-68662073D01*
X104141064Y-68519381D01*
X104175365Y-68350000D01*
X104175365Y-67872000D01*
X106318000Y-67872000D01*
X106318000Y-84009692D01*
X106290211Y-83998153D01*
X105941319Y-83997849D01*
X105618869Y-84131082D01*
X105371949Y-84377571D01*
X105238153Y-84699789D01*
X105237849Y-85048681D01*
X105371082Y-85371131D01*
X105617571Y-85618051D01*
X105939789Y-85751847D01*
X106288681Y-85752151D01*
X106318000Y-85740037D01*
X106318000Y-104044635D01*
X105690000Y-104044635D01*
X105531763Y-104074409D01*
X105386433Y-104167927D01*
X105288936Y-104310619D01*
X105254635Y-104480000D01*
X105254635Y-106180000D01*
X105284409Y-106338237D01*
X105377927Y-106483567D01*
X105520619Y-106581064D01*
X105690000Y-106615365D01*
X106318000Y-106615365D01*
X106318000Y-106743000D01*
X87447000Y-106743000D01*
X87447000Y-102923682D01*
X88517406Y-102923682D01*
X89038037Y-104183704D01*
X90001226Y-105148575D01*
X91260337Y-105671404D01*
X92623682Y-105672594D01*
X93883704Y-105151963D01*
X94848575Y-104188774D01*
X95015925Y-103785750D01*
X95610000Y-103785750D01*
X95610000Y-104026309D01*
X95706673Y-104259698D01*
X95885301Y-104438327D01*
X96118690Y-104535000D01*
X96334250Y-104535000D01*
X96493000Y-104376250D01*
X96493000Y-103627000D01*
X96747000Y-103627000D01*
X96747000Y-104376250D01*
X96905750Y-104535000D01*
X97121310Y-104535000D01*
X97354699Y-104438327D01*
X97533327Y-104259698D01*
X97630000Y-104026309D01*
X97630000Y-103785750D01*
X97471250Y-103627000D01*
X96747000Y-103627000D01*
X96493000Y-103627000D01*
X95768750Y-103627000D01*
X95610000Y-103785750D01*
X95015925Y-103785750D01*
X95371404Y-102929663D01*
X95372594Y-101566318D01*
X95065048Y-100822000D01*
X95740656Y-100822000D01*
X95764409Y-100948237D01*
X95857927Y-101093567D01*
X96000619Y-101191064D01*
X96043000Y-101199646D01*
X96043000Y-101222570D01*
X95941433Y-101287927D01*
X95843936Y-101430619D01*
X95809635Y-101600000D01*
X95809635Y-102400000D01*
X95839409Y-102558237D01*
X95858723Y-102588251D01*
X95706673Y-102740302D01*
X95610000Y-102973691D01*
X95610000Y-103214250D01*
X95768750Y-103373000D01*
X96493000Y-103373000D01*
X96493000Y-103353000D01*
X96747000Y-103353000D01*
X96747000Y-103373000D01*
X97471250Y-103373000D01*
X97630000Y-103214250D01*
X97630000Y-102973691D01*
X97533327Y-102740302D01*
X97382402Y-102589376D01*
X97396064Y-102569381D01*
X97430365Y-102400000D01*
X97430365Y-101600000D01*
X97400591Y-101441763D01*
X97307073Y-101296433D01*
X97197000Y-101221224D01*
X97197000Y-101201469D01*
X97228237Y-101195591D01*
X97373567Y-101102073D01*
X97471064Y-100959381D01*
X97505365Y-100790000D01*
X97505365Y-99940000D01*
X99064635Y-99940000D01*
X99064635Y-101640000D01*
X99094409Y-101798237D01*
X99187927Y-101943567D01*
X99330619Y-102041064D01*
X99500000Y-102075365D01*
X101200000Y-102075365D01*
X101358237Y-102045591D01*
X101503567Y-101952073D01*
X101601064Y-101809381D01*
X101635365Y-101640000D01*
X101635365Y-101097559D01*
X101806781Y-101512417D01*
X102165693Y-101871957D01*
X102634875Y-102066778D01*
X103142897Y-102067221D01*
X103612417Y-101873219D01*
X103971957Y-101514307D01*
X104166778Y-101045125D01*
X104167221Y-100537103D01*
X103973219Y-100067583D01*
X103614307Y-99708043D01*
X103145125Y-99513222D01*
X102637103Y-99512779D01*
X102167583Y-99706781D01*
X101808043Y-100065693D01*
X101635365Y-100481549D01*
X101635365Y-99940000D01*
X101605591Y-99781763D01*
X101512073Y-99636433D01*
X101369381Y-99538936D01*
X101200000Y-99504635D01*
X99500000Y-99504635D01*
X99341763Y-99534409D01*
X99196433Y-99627927D01*
X99098936Y-99770619D01*
X99064635Y-99940000D01*
X97505365Y-99940000D01*
X97505365Y-99590000D01*
X97475591Y-99431763D01*
X97382073Y-99286433D01*
X97255986Y-99200281D01*
X97429699Y-99128327D01*
X97608327Y-98949698D01*
X97705000Y-98716309D01*
X97705000Y-98275750D01*
X97546250Y-98117000D01*
X96747000Y-98117000D01*
X96747000Y-98137000D01*
X96493000Y-98137000D01*
X96493000Y-98117000D01*
X95693750Y-98117000D01*
X95535000Y-98275750D01*
X95535000Y-98716309D01*
X95631673Y-98949698D01*
X95810301Y-99128327D01*
X95985890Y-99201058D01*
X95866433Y-99277927D01*
X95768936Y-99420619D01*
X95734635Y-99590000D01*
X95734635Y-99668000D01*
X94214780Y-99668000D01*
X93888774Y-99341425D01*
X92629663Y-98818596D01*
X91266318Y-98817406D01*
X90006296Y-99338037D01*
X89041425Y-100301226D01*
X88518596Y-101560337D01*
X88517406Y-102923682D01*
X87447000Y-102923682D01*
X87447000Y-97263691D01*
X95535000Y-97263691D01*
X95535000Y-97704250D01*
X95693750Y-97863000D01*
X96493000Y-97863000D01*
X96493000Y-96913750D01*
X96747000Y-96913750D01*
X96747000Y-97863000D01*
X97546250Y-97863000D01*
X97705000Y-97704250D01*
X97705000Y-97263691D01*
X97608327Y-97030302D01*
X97429699Y-96851673D01*
X97196310Y-96755000D01*
X96905750Y-96755000D01*
X96747000Y-96913750D01*
X96493000Y-96913750D01*
X96334250Y-96755000D01*
X96043690Y-96755000D01*
X95810301Y-96851673D01*
X95631673Y-97030302D01*
X95535000Y-97263691D01*
X87447000Y-97263691D01*
X87447000Y-89613681D01*
X87652849Y-89613681D01*
X87786082Y-89936131D01*
X88032571Y-90183051D01*
X88354789Y-90316847D01*
X88703681Y-90317151D01*
X89026131Y-90183918D01*
X89273051Y-89937429D01*
X89406847Y-89615211D01*
X89407151Y-89266319D01*
X89273918Y-88943869D01*
X89027429Y-88696949D01*
X88705211Y-88563153D01*
X88356319Y-88562849D01*
X88033869Y-88696082D01*
X87786949Y-88942571D01*
X87653153Y-89264789D01*
X87652849Y-89613681D01*
X87447000Y-89613681D01*
X87447000Y-82923681D01*
X88802849Y-82923681D01*
X88936082Y-83246131D01*
X89182571Y-83493051D01*
X89504789Y-83626847D01*
X89853681Y-83627151D01*
X90176131Y-83493918D01*
X90423051Y-83247429D01*
X90556847Y-82925211D01*
X90557151Y-82576319D01*
X90423918Y-82253869D01*
X90177429Y-82006949D01*
X89855211Y-81873153D01*
X89506319Y-81872849D01*
X89183869Y-82006082D01*
X88936949Y-82252571D01*
X88803153Y-82574789D01*
X88802849Y-82923681D01*
X87447000Y-82923681D01*
X87447000Y-80044737D01*
X87526082Y-80236131D01*
X87772571Y-80483051D01*
X88094789Y-80616847D01*
X88443681Y-80617151D01*
X88766131Y-80483918D01*
X89013051Y-80237429D01*
X89135025Y-79943681D01*
X92992849Y-79943681D01*
X93126082Y-80266131D01*
X93372571Y-80513051D01*
X93694789Y-80646847D01*
X94043681Y-80647151D01*
X94366131Y-80513918D01*
X94613051Y-80267429D01*
X94746847Y-79945211D01*
X94747151Y-79596319D01*
X94613918Y-79273869D01*
X94367429Y-79026949D01*
X94045211Y-78893153D01*
X93696319Y-78892849D01*
X93373869Y-79026082D01*
X93126949Y-79272571D01*
X92993153Y-79594789D01*
X92992849Y-79943681D01*
X89135025Y-79943681D01*
X89146847Y-79915211D01*
X89147151Y-79566319D01*
X89013918Y-79243869D01*
X88767429Y-78996949D01*
X88445211Y-78863153D01*
X88096319Y-78862849D01*
X87773869Y-78996082D01*
X87526949Y-79242571D01*
X87447000Y-79435110D01*
X87447000Y-77393681D01*
X88692849Y-77393681D01*
X88826082Y-77716131D01*
X89072571Y-77963051D01*
X89394789Y-78096847D01*
X89743681Y-78097151D01*
X90066131Y-77963918D01*
X90313051Y-77717429D01*
X90446847Y-77395211D01*
X90446952Y-77273681D01*
X93332849Y-77273681D01*
X93466082Y-77596131D01*
X93712571Y-77843051D01*
X94034789Y-77976847D01*
X94383681Y-77977151D01*
X94706131Y-77843918D01*
X94953051Y-77597429D01*
X95016892Y-77443681D01*
X95972849Y-77443681D01*
X96106082Y-77766131D01*
X96352571Y-78013051D01*
X96674789Y-78146847D01*
X97023681Y-78147151D01*
X97346131Y-78013918D01*
X97593051Y-77767429D01*
X97726847Y-77445211D01*
X97727151Y-77096319D01*
X97593918Y-76773869D01*
X97347429Y-76526949D01*
X97025211Y-76393153D01*
X96676319Y-76392849D01*
X96353869Y-76526082D01*
X96106949Y-76772571D01*
X95973153Y-77094789D01*
X95972849Y-77443681D01*
X95016892Y-77443681D01*
X95086847Y-77275211D01*
X95087151Y-76926319D01*
X94953918Y-76603869D01*
X94707429Y-76356949D01*
X94385211Y-76223153D01*
X94036319Y-76222849D01*
X93713869Y-76356082D01*
X93466949Y-76602571D01*
X93333153Y-76924789D01*
X93332849Y-77273681D01*
X90446952Y-77273681D01*
X90447151Y-77046319D01*
X90313918Y-76723869D01*
X90067429Y-76476949D01*
X89745211Y-76343153D01*
X89396319Y-76342849D01*
X89073869Y-76476082D01*
X88826949Y-76722571D01*
X88693153Y-77044789D01*
X88692849Y-77393681D01*
X87447000Y-77393681D01*
X87447000Y-73603681D01*
X95732849Y-73603681D01*
X95866082Y-73926131D01*
X96112571Y-74173051D01*
X96434789Y-74306847D01*
X96783681Y-74307151D01*
X97106131Y-74173918D01*
X97353051Y-73927429D01*
X97486847Y-73605211D01*
X97487151Y-73256319D01*
X97353918Y-72933869D01*
X97107429Y-72686949D01*
X96785211Y-72553153D01*
X96436319Y-72552849D01*
X96113869Y-72686082D01*
X95866949Y-72932571D01*
X95733153Y-73254789D01*
X95732849Y-73603681D01*
X87447000Y-73603681D01*
X87447000Y-70755750D01*
X96115000Y-70755750D01*
X96115000Y-71196309D01*
X96211673Y-71429698D01*
X96390301Y-71608327D01*
X96623690Y-71705000D01*
X96914250Y-71705000D01*
X97073000Y-71546250D01*
X97073000Y-70597000D01*
X97327000Y-70597000D01*
X97327000Y-71546250D01*
X97485750Y-71705000D01*
X97776310Y-71705000D01*
X98009699Y-71608327D01*
X98188327Y-71429698D01*
X98285000Y-71196309D01*
X98285000Y-70755750D01*
X98126250Y-70597000D01*
X97327000Y-70597000D01*
X97073000Y-70597000D01*
X96273750Y-70597000D01*
X96115000Y-70755750D01*
X87447000Y-70755750D01*
X87447000Y-67872000D01*
X88909243Y-67872000D01*
X89038037Y-68183704D01*
M02*
