G04 #@! TF.FileFunction,Other,User*
%FSLAX46Y46*%
G04 Gerber Fmt 4.6, Leading zero omitted, Abs format (unit mm)*
G04 Created by KiCad (PCBNEW 4.0.4-stable) date 02/07/17 14:21:35*
%MOMM*%
%LPD*%
G01*
G04 APERTURE LIST*
%ADD10C,0.100000*%
%ADD11C,0.200000*%
%ADD12C,0.050000*%
G04 APERTURE END LIST*
D10*
D11*
X149445000Y-71745000D02*
X145445000Y-75745000D01*
X151445000Y-71745000D02*
X147445000Y-75745000D01*
X153445000Y-71745000D02*
X149445000Y-75745000D01*
X154445000Y-72745000D02*
X151445000Y-75745000D01*
X154445000Y-74745000D02*
X153445000Y-75745000D01*
X145445000Y-92745000D02*
X144945000Y-93245000D01*
X147445000Y-92745000D02*
X144945000Y-95245000D01*
X149945000Y-92745000D02*
X145945000Y-96745000D01*
X151945000Y-92745000D02*
X147945000Y-96745000D01*
X154445000Y-92745000D02*
X150445000Y-96745000D01*
X154445000Y-94745000D02*
X152445000Y-96745000D01*
X144945000Y-92745000D02*
X155945000Y-92745000D01*
X144945000Y-75745000D02*
X155945000Y-75745000D01*
D12*
X125350000Y-84160000D02*
X121350000Y-84160000D01*
X125350000Y-85760000D02*
X121350000Y-85760000D01*
X125350000Y-84160000D02*
X125350000Y-85760000D01*
X121350000Y-84160000D02*
X121350000Y-85760000D01*
X143530000Y-76420000D02*
X143530000Y-79320000D01*
X145030000Y-76420000D02*
X145030000Y-79320000D01*
X143530000Y-76420000D02*
X145030000Y-76420000D01*
X143530000Y-79320000D02*
X145030000Y-79320000D01*
X110445000Y-81565000D02*
X113345000Y-81565000D01*
X110445000Y-80065000D02*
X113345000Y-80065000D01*
X110445000Y-81565000D02*
X110445000Y-80065000D01*
X113345000Y-81565000D02*
X113345000Y-80065000D01*
X95870000Y-101300000D02*
X95870000Y-104200000D01*
X97370000Y-101300000D02*
X97370000Y-104200000D01*
X95870000Y-101300000D02*
X97370000Y-101300000D01*
X95870000Y-104200000D02*
X97370000Y-104200000D01*
X97940000Y-66960000D02*
X97940000Y-64060000D01*
X96440000Y-66960000D02*
X96440000Y-64060000D01*
X97940000Y-66960000D02*
X96440000Y-66960000D01*
X97940000Y-64060000D02*
X96440000Y-64060000D01*
X95195000Y-102245000D02*
G75*
G03X95195000Y-102245000I-3250000J0D01*
G01*
X95195000Y-66245000D02*
G75*
G03X95195000Y-66245000I-3250000J0D01*
G01*
X97420000Y-101090000D02*
X97420000Y-97090000D01*
X95820000Y-101090000D02*
X95820000Y-97090000D01*
X97420000Y-101090000D02*
X95820000Y-101090000D01*
X97420000Y-97090000D02*
X95820000Y-97090000D01*
X96400000Y-67370000D02*
X96400000Y-71370000D01*
X98000000Y-67370000D02*
X98000000Y-71370000D01*
X96400000Y-67370000D02*
X98000000Y-67370000D01*
X96400000Y-71370000D02*
X98000000Y-71370000D01*
X117535000Y-81575000D02*
X117535000Y-87075000D01*
X110035000Y-81575000D02*
X110035000Y-87075000D01*
X117535000Y-81575000D02*
X110035000Y-81575000D01*
X117535000Y-87075000D02*
X110035000Y-87075000D01*
X138700000Y-98360000D02*
X138700000Y-95460000D01*
X137200000Y-98360000D02*
X137200000Y-95460000D01*
X138700000Y-98360000D02*
X137200000Y-98360000D01*
X138700000Y-95460000D02*
X137200000Y-95460000D01*
X140210000Y-71270000D02*
X143110000Y-71270000D01*
X140210000Y-69770000D02*
X143110000Y-69770000D01*
X140210000Y-71270000D02*
X140210000Y-69770000D01*
X143110000Y-71270000D02*
X143110000Y-69770000D01*
X140830000Y-98560000D02*
X140830000Y-94560000D01*
X139230000Y-98560000D02*
X139230000Y-94560000D01*
X140830000Y-98560000D02*
X139230000Y-98560000D01*
X140830000Y-94560000D02*
X139230000Y-94560000D01*
X137970000Y-69730000D02*
X137970000Y-73730000D01*
X139570000Y-69730000D02*
X139570000Y-73730000D01*
X137970000Y-69730000D02*
X139570000Y-69730000D01*
X137970000Y-73730000D02*
X139570000Y-73730000D01*
X150500000Y-86620000D02*
X147600000Y-86620000D01*
X150500000Y-88120000D02*
X147600000Y-88120000D01*
X150500000Y-86620000D02*
X150500000Y-88120000D01*
X147600000Y-86620000D02*
X147600000Y-88120000D01*
X153980000Y-86530000D02*
X153980000Y-89430000D01*
X155480000Y-86530000D02*
X155480000Y-89430000D01*
X153980000Y-86530000D02*
X155480000Y-86530000D01*
X153980000Y-89430000D02*
X155480000Y-89430000D01*
X148260000Y-82120000D02*
X144260000Y-82120000D01*
X148260000Y-83720000D02*
X144260000Y-83720000D01*
X148260000Y-82120000D02*
X148260000Y-83720000D01*
X144260000Y-82120000D02*
X144260000Y-83720000D01*
M02*
