G04 #@! TF.FileFunction,Other,User*
%FSLAX46Y46*%
G04 Gerber Fmt 4.6, Leading zero omitted, Abs format (unit mm)*
G04 Created by KiCad (PCBNEW 4.0.4-stable) date 02/07/17 14:21:35*
%MOMM*%
%LPD*%
G01*
G04 APERTURE LIST*
%ADD10C,0.100000*%
%ADD11C,0.050000*%
G04 APERTURE END LIST*
D10*
D11*
X136890000Y-76825000D02*
X123090000Y-76825000D01*
X136890000Y-90625000D02*
X123090000Y-90625000D01*
X136890000Y-76825000D02*
X136890000Y-90625000D01*
X123090000Y-76825000D02*
X123090000Y-90625000D01*
X97045000Y-77775000D02*
X104945000Y-77775000D01*
X104945000Y-77775000D02*
X104945000Y-71775000D01*
X104945000Y-71775000D02*
X97045000Y-71775000D01*
X97045000Y-71775000D02*
X97045000Y-77775000D01*
X99070000Y-80295000D02*
X96170000Y-80295000D01*
X99070000Y-78795000D02*
X96170000Y-78795000D01*
X99070000Y-80295000D02*
X99070000Y-78795000D01*
X96170000Y-80295000D02*
X96170000Y-78795000D01*
X111145000Y-76005000D02*
X114045000Y-76005000D01*
X111145000Y-77505000D02*
X114045000Y-77505000D01*
X111145000Y-76005000D02*
X111145000Y-77505000D01*
X114045000Y-76005000D02*
X114045000Y-77505000D01*
X119345000Y-72855000D02*
X119345000Y-68255000D01*
X121645000Y-72855000D02*
X121645000Y-68255000D01*
X119345000Y-72855000D02*
X121645000Y-72855000D01*
X119345000Y-68255000D02*
X121645000Y-68255000D01*
X109615000Y-88075000D02*
X112515000Y-88075000D01*
X109615000Y-89575000D02*
X112515000Y-89575000D01*
X109615000Y-88075000D02*
X109615000Y-89575000D01*
X112515000Y-88075000D02*
X112515000Y-89575000D01*
X108575000Y-91855000D02*
X111475000Y-91855000D01*
X108575000Y-93355000D02*
X111475000Y-93355000D01*
X108575000Y-91855000D02*
X108575000Y-93355000D01*
X111475000Y-91855000D02*
X111475000Y-93355000D01*
X108585000Y-93405000D02*
X111485000Y-93405000D01*
X108585000Y-94905000D02*
X111485000Y-94905000D01*
X108585000Y-93405000D02*
X108585000Y-94905000D01*
X111485000Y-93405000D02*
X111485000Y-94905000D01*
X129040000Y-76340000D02*
X126140000Y-76340000D01*
X129040000Y-74840000D02*
X126140000Y-74840000D01*
X129040000Y-76340000D02*
X129040000Y-74840000D01*
X126140000Y-76340000D02*
X126140000Y-74840000D01*
X131635000Y-93535000D02*
X131635000Y-90635000D01*
X133135000Y-93535000D02*
X133135000Y-90635000D01*
X131635000Y-93535000D02*
X133135000Y-93535000D01*
X131635000Y-90635000D02*
X133135000Y-90635000D01*
X120175000Y-85015000D02*
X123075000Y-85015000D01*
X120175000Y-86515000D02*
X123075000Y-86515000D01*
X120175000Y-85015000D02*
X120175000Y-86515000D01*
X123075000Y-85015000D02*
X123075000Y-86515000D01*
X140065000Y-84465000D02*
X137165000Y-84465000D01*
X140065000Y-82965000D02*
X137165000Y-82965000D01*
X140065000Y-84465000D02*
X140065000Y-82965000D01*
X137165000Y-84465000D02*
X137165000Y-82965000D01*
X136495000Y-90665000D02*
X136495000Y-94665000D01*
X134895000Y-90665000D02*
X134895000Y-94665000D01*
X136495000Y-90665000D02*
X134895000Y-90665000D01*
X136495000Y-94665000D02*
X134895000Y-94665000D01*
X143005000Y-83015000D02*
X143005000Y-87015000D01*
X141405000Y-83015000D02*
X141405000Y-87015000D01*
X143005000Y-83015000D02*
X141405000Y-83015000D01*
X143005000Y-87015000D02*
X141405000Y-87015000D01*
X110745000Y-66920000D02*
X114745000Y-66920000D01*
X114745000Y-66920000D02*
X114745000Y-68820000D01*
X110745000Y-68820000D02*
X114745000Y-68820000D01*
X110745000Y-66920000D02*
X110745000Y-68820000D01*
X111075000Y-79395000D02*
X107075000Y-79395000D01*
X111075000Y-77795000D02*
X107075000Y-77795000D01*
X111075000Y-79395000D02*
X111075000Y-77795000D01*
X107075000Y-79395000D02*
X107075000Y-77795000D01*
X116445000Y-80245000D02*
X116445000Y-76245000D01*
X118045000Y-80245000D02*
X118045000Y-76245000D01*
X116445000Y-80245000D02*
X118045000Y-80245000D01*
X116445000Y-76245000D02*
X118045000Y-76245000D01*
X111200000Y-88330000D02*
X107200000Y-88330000D01*
X111200000Y-86730000D02*
X107200000Y-86730000D01*
X111200000Y-88330000D02*
X111200000Y-86730000D01*
X107200000Y-88330000D02*
X107200000Y-86730000D01*
X107200000Y-85180000D02*
X111200000Y-85180000D01*
X107200000Y-86780000D02*
X111200000Y-86780000D01*
X107200000Y-85180000D02*
X107200000Y-86780000D01*
X111200000Y-85180000D02*
X111200000Y-86780000D01*
X111505000Y-94195000D02*
X111505000Y-90195000D01*
X113105000Y-94195000D02*
X113105000Y-90195000D01*
X111505000Y-94195000D02*
X113105000Y-94195000D01*
X111505000Y-90195000D02*
X113105000Y-90195000D01*
X134785000Y-90665000D02*
X134785000Y-94665000D01*
X133185000Y-90665000D02*
X133185000Y-94665000D01*
X134785000Y-90665000D02*
X133185000Y-90665000D01*
X134785000Y-94665000D02*
X133185000Y-94665000D01*
X137295000Y-85320000D02*
X141295000Y-85320000D01*
X137295000Y-86920000D02*
X141295000Y-86920000D01*
X137295000Y-85320000D02*
X137295000Y-86920000D01*
X141295000Y-85320000D02*
X141295000Y-86920000D01*
X129115000Y-95915000D02*
X125115000Y-95915000D01*
X129115000Y-94315000D02*
X125115000Y-94315000D01*
X129115000Y-95915000D02*
X129115000Y-94315000D01*
X125115000Y-95915000D02*
X125115000Y-94315000D01*
X129125000Y-94255000D02*
X125125000Y-94255000D01*
X129125000Y-92655000D02*
X125125000Y-92655000D01*
X129125000Y-94255000D02*
X129125000Y-92655000D01*
X125125000Y-94255000D02*
X125125000Y-92655000D01*
X121065000Y-73485000D02*
X125065000Y-73485000D01*
X121065000Y-75085000D02*
X125065000Y-75085000D01*
X121065000Y-73485000D02*
X121065000Y-75085000D01*
X125065000Y-73485000D02*
X125065000Y-75085000D01*
X118860000Y-75150000D02*
X122860000Y-75150000D01*
X118860000Y-76750000D02*
X122860000Y-76750000D01*
X118860000Y-75150000D02*
X118860000Y-76750000D01*
X122860000Y-75150000D02*
X122860000Y-76750000D01*
X109280000Y-97090000D02*
X113280000Y-97090000D01*
X109280000Y-98690000D02*
X113280000Y-98690000D01*
X109280000Y-97090000D02*
X109280000Y-98690000D01*
X113280000Y-97090000D02*
X113280000Y-98690000D01*
X118050000Y-98700000D02*
X114050000Y-98700000D01*
X118050000Y-97100000D02*
X114050000Y-97100000D01*
X118050000Y-98700000D02*
X118050000Y-97100000D01*
X114050000Y-98700000D02*
X114050000Y-97100000D01*
X106995000Y-84195000D02*
X106995000Y-78695000D01*
X99495000Y-84195000D02*
X99495000Y-78695000D01*
X106995000Y-84195000D02*
X99495000Y-84195000D01*
X106995000Y-78695000D02*
X99495000Y-78695000D01*
X95810000Y-85200000D02*
X95810000Y-96200000D01*
X107110000Y-85200000D02*
X107110000Y-96200000D01*
X95810000Y-85200000D02*
X107110000Y-85200000D01*
X95810000Y-96200000D02*
X107110000Y-96200000D01*
X119490000Y-97210000D02*
X123090000Y-97210000D01*
X119490000Y-102010000D02*
X119490000Y-97210000D01*
X123090000Y-102010000D02*
X119490000Y-102010000D01*
X123090000Y-97210000D02*
X123090000Y-102010000D01*
X91490000Y-88150000D02*
X87890000Y-88150000D01*
X91490000Y-83350000D02*
X91490000Y-88150000D01*
X87890000Y-83350000D02*
X91490000Y-83350000D01*
X87890000Y-88150000D02*
X87890000Y-83350000D01*
X112615000Y-71865000D02*
X112615000Y-75365000D01*
X112615000Y-75365000D02*
X115615000Y-75365000D01*
X115615000Y-75365000D02*
X115615000Y-71865000D01*
X112615000Y-71865000D02*
X115615000Y-71865000D01*
X118330000Y-92310000D02*
X118330000Y-95910000D01*
X124230000Y-92310000D02*
X124230000Y-95910000D01*
X118330000Y-92310000D02*
X124230000Y-92310000D01*
X118330000Y-95910000D02*
X124230000Y-95910000D01*
X95940000Y-82590000D02*
X95940000Y-71890000D01*
X95940000Y-71890000D02*
X87340000Y-71890000D01*
X87340000Y-71890000D02*
X87340000Y-82590000D01*
X87340000Y-82590000D02*
X95940000Y-82590000D01*
X104940000Y-106930000D02*
X115740000Y-106930000D01*
X115740000Y-106930000D02*
X115740000Y-103730000D01*
X115740000Y-103730000D02*
X104940000Y-103730000D01*
X104940000Y-103730000D02*
X104940000Y-106930000D01*
X143200000Y-102245000D02*
G75*
G03X143200000Y-102245000I-3250000J0D01*
G01*
X143200000Y-66245000D02*
G75*
G03X143200000Y-66245000I-3250000J0D01*
G01*
X116440000Y-90710000D02*
X119340000Y-90710000D01*
X116440000Y-92210000D02*
X119340000Y-92210000D01*
X116440000Y-90710000D02*
X116440000Y-92210000D01*
X119340000Y-90710000D02*
X119340000Y-92210000D01*
X125180000Y-92490000D02*
X122280000Y-92490000D01*
X125180000Y-90990000D02*
X122280000Y-90990000D01*
X125180000Y-92490000D02*
X125180000Y-90990000D01*
X122280000Y-92490000D02*
X122280000Y-90990000D01*
X132450000Y-71970000D02*
X137150000Y-71970000D01*
X137150000Y-71970000D02*
X137150000Y-74270000D01*
X137150000Y-74270000D02*
X132450000Y-74270000D01*
X132450000Y-71970000D02*
X132450000Y-74270000D01*
X126760000Y-106880000D02*
X134960000Y-106880000D01*
X134960000Y-106880000D02*
X134960000Y-101180000D01*
X134960000Y-101180000D02*
X126760000Y-101180000D01*
X126760000Y-101180000D02*
X126760000Y-106880000D01*
X115860000Y-106930000D02*
X126660000Y-106930000D01*
X126660000Y-106930000D02*
X126660000Y-103730000D01*
X126660000Y-103730000D02*
X115860000Y-103730000D01*
X115860000Y-103730000D02*
X115860000Y-106930000D01*
X139170000Y-80390000D02*
X139170000Y-76390000D01*
X140770000Y-80390000D02*
X140770000Y-76390000D01*
X139170000Y-80390000D02*
X140770000Y-80390000D01*
X139170000Y-76390000D02*
X140770000Y-76390000D01*
X145630000Y-83310000D02*
X145630000Y-87310000D01*
X144030000Y-83310000D02*
X144030000Y-87310000D01*
X145630000Y-83310000D02*
X144030000Y-83310000D01*
X145630000Y-87310000D02*
X144030000Y-87310000D01*
X155460000Y-75730000D02*
X145210000Y-75730000D01*
X155460000Y-75730000D02*
X155460000Y-81080000D01*
X155460000Y-81080000D02*
X145210000Y-81080000D01*
X145210000Y-75730000D02*
X145210000Y-81080000D01*
M02*
