M48
;DRILL file {KiCad 4.0.4-stable} date 02/07/17 14:21:37
;FORMAT={3:3/ absolute / metric / suppress leading zeros}
FMAT,2
METRIC,TZ
T1C0.500
T2C0.600
T3C1.000
T4C1.100
T5C3.000
%
G90
G05
M71
T1
X88150Y-93910
X88270Y-79740
X88530Y-89440
X89570Y-77220
X89680Y-82750
X89690Y-91200
X89800Y-96480
X91280Y-93740
X93870Y-79770
X94210Y-77100
X96525Y-74745
X96610Y-73430
X96850Y-77270
X96865Y-78475
X98785Y-76585
X98795Y-72415
X98985Y-82085
X102658Y-80858
X102658Y-82033
X103745Y-80845
X103833Y-82033
X105555Y-98835
X106115Y-84875
X107515Y-83355
X108160Y-98530
X108225Y-80315
X108235Y-91155
X109240Y-95380
X110175Y-79795
X110315Y-90165
X110615Y-76755
X110765Y-95385
X111645Y-75555
X111655Y-74495
X111765Y-78885
X111765Y-85975
X111875Y-72205
X112305Y-94925
X113125Y-88825
X113315Y-85995
X113345Y-77945
X114115Y-73615
X114990Y-100180
X115030Y-83580
X115040Y-86810
X115385Y-67875
X115725Y-79345
X115805Y-93555
X115835Y-92045
X115865Y-94825
X115910Y-96010
X116105Y-74935
X118295Y-75385
X118380Y-82990
X118510Y-97900
X119415Y-83525
X119600Y-91440
X119800Y-85820
X120320Y-102950
X120340Y-96820
X120350Y-89340
X120495Y-67655
X120495Y-73275
X121095Y-86985
X121310Y-96240
X121310Y-102460
X121640Y-91740
X122240Y-103210
X122365Y-82905
X122370Y-87880
X123220Y-64920
X124300Y-77100
X124310Y-97600
X125485Y-74285
X125500Y-91980
X125620Y-75590
X125840Y-85840
X125860Y-87010
X125965Y-96395
X126150Y-68010
X126580Y-84960
X126885Y-83005
X127145Y-91175
X128000Y-87870
X128035Y-82095
X128340Y-74370
X129300Y-91320
X129390Y-64920
X129665Y-95105
X129760Y-75800
X131125Y-92625
X131585Y-87725
X132385Y-93905
X132590Y-67890
X133195Y-87955
X134335Y-75955
X135640Y-64850
X135695Y-89815
X137855Y-82475
X138690Y-81430
X139365Y-82575
X142205Y-82475
X149810Y-88690
X152850Y-84260
X153360Y-87220
X154720Y-81520
T2
X146210Y-77130
X146210Y-78400
X146210Y-79670
T3
X106540Y-105330
X109080Y-105330
X111620Y-105330
X114160Y-105330
X117460Y-105330
X120000Y-105330
X122540Y-105330
X125080Y-105330
X128360Y-102740
X128360Y-105280
X130900Y-102740
X130900Y-105280
X133440Y-102740
X133440Y-105280
T4
X100350Y-67500
X100350Y-100790
X102890Y-67500
X102890Y-100790
T5
X91945Y-66245
X91945Y-102245
X139950Y-66245
X139950Y-102245
T0
M30
