G04 #@! TF.FileFunction,Soldermask,Bot*
%FSLAX46Y46*%
G04 Gerber Fmt 4.6, Leading zero omitted, Abs format (unit mm)*
G04 Created by KiCad (PCBNEW 4.0.4-stable) date 02/07/17 14:21:35*
%MOMM*%
%LPD*%
G01*
G04 APERTURE LIST*
%ADD10C,0.100000*%
%ADD11C,0.900000*%
%ADD12R,1.600000X1.300000*%
%ADD13R,1.150000X1.200000*%
%ADD14R,1.200000X1.150000*%
%ADD15C,6.400000*%
%ADD16R,1.300000X1.600000*%
%ADD17R,2.300000X1.100000*%
%ADD18R,2.300000X1.400000*%
%ADD19R,1.950000X1.000000*%
%ADD20C,2.100000*%
%ADD21R,2.100000X2.100000*%
%ADD22O,2.100000X2.100000*%
%ADD23O,1.901140X1.400000*%
%ADD24R,1.901140X1.400000*%
G04 APERTURE END LIST*
D10*
D11*
X144950000Y-96910000D03*
D12*
X124450000Y-84960000D03*
X122250000Y-84960000D03*
D13*
X144280000Y-77120000D03*
X144280000Y-78620000D03*
D14*
X111145000Y-80815000D03*
X112645000Y-80815000D03*
D13*
X96620000Y-102000000D03*
X96620000Y-103500000D03*
X97190000Y-66260000D03*
X97190000Y-64760000D03*
D15*
X91945000Y-102245000D03*
X91945000Y-66245000D03*
D16*
X96620000Y-100190000D03*
X96620000Y-97990000D03*
X97200000Y-68270000D03*
X97200000Y-70470000D03*
D17*
X149820000Y-85660000D03*
X149820000Y-82860000D03*
X154720000Y-82860000D03*
X154720000Y-85660000D03*
D18*
X149820000Y-84260000D03*
D17*
X154720000Y-84260000D03*
D19*
X116485000Y-82420000D03*
X116485000Y-83690000D03*
X116485000Y-84960000D03*
X116485000Y-86230000D03*
X111085000Y-86230000D03*
X111085000Y-84960000D03*
X111085000Y-83690000D03*
X111085000Y-82420000D03*
D20*
X102890000Y-100790000D03*
D21*
X100350000Y-100790000D03*
D11*
X144970000Y-71570000D03*
D20*
X100350000Y-67500000D03*
D21*
X102890000Y-67500000D03*
X106540000Y-105330000D03*
D22*
X109080000Y-105330000D03*
X111620000Y-105330000D03*
X114160000Y-105330000D03*
D13*
X137950000Y-97660000D03*
X137950000Y-96160000D03*
D14*
X140910000Y-70520000D03*
X142410000Y-70520000D03*
D15*
X139950000Y-102245000D03*
X139950000Y-66245000D03*
D16*
X140030000Y-97660000D03*
X140030000Y-95460000D03*
X138770000Y-70630000D03*
X138770000Y-72830000D03*
D14*
X149800000Y-87370000D03*
X148300000Y-87370000D03*
D13*
X154730000Y-87230000D03*
X154730000Y-88730000D03*
D21*
X128360000Y-105280000D03*
D22*
X128360000Y-102740000D03*
X130900000Y-105280000D03*
X130900000Y-102740000D03*
X133440000Y-105280000D03*
X133440000Y-102740000D03*
D21*
X117460000Y-105330000D03*
D22*
X120000000Y-105330000D03*
X122540000Y-105330000D03*
X125080000Y-105330000D03*
D12*
X147360000Y-82920000D03*
X145160000Y-82920000D03*
D23*
X146210000Y-78400000D03*
X146210000Y-79670000D03*
D24*
X146210000Y-77130000D03*
M02*
