G04 #@! TF.FileFunction,Legend,Bot*
%FSLAX46Y46*%
G04 Gerber Fmt 4.6, Leading zero omitted, Abs format (unit mm)*
G04 Created by KiCad (PCBNEW 4.0.4-stable) date 02/07/17 14:21:35*
%MOMM*%
%LPD*%
G01*
G04 APERTURE LIST*
%ADD10C,0.100000*%
%ADD11C,0.250000*%
%ADD12C,0.200000*%
%ADD13C,0.150000*%
%ADD14C,0.120000*%
%ADD15C,0.010000*%
G04 APERTURE END LIST*
D10*
D11*
X149949048Y-76322381D02*
X149330000Y-76322381D01*
X149663334Y-76703333D01*
X149520476Y-76703333D01*
X149425238Y-76750952D01*
X149377619Y-76798571D01*
X149330000Y-76893810D01*
X149330000Y-77131905D01*
X149377619Y-77227143D01*
X149425238Y-77274762D01*
X149520476Y-77322381D01*
X149806191Y-77322381D01*
X149901429Y-77274762D01*
X149949048Y-77227143D01*
X149044286Y-76322381D02*
X148710953Y-77322381D01*
X148377619Y-76322381D01*
X148139524Y-76322381D02*
X147520476Y-76322381D01*
X147853810Y-76703333D01*
X147710952Y-76703333D01*
X147615714Y-76750952D01*
X147568095Y-76798571D01*
X147520476Y-76893810D01*
X147520476Y-77131905D01*
X147568095Y-77227143D01*
X147615714Y-77274762D01*
X147710952Y-77322381D01*
X147996667Y-77322381D01*
X148091905Y-77274762D01*
X148139524Y-77227143D01*
X149615714Y-78120000D02*
X149710952Y-78072381D01*
X149853809Y-78072381D01*
X149996667Y-78120000D01*
X150091905Y-78215238D01*
X150139524Y-78310476D01*
X150187143Y-78500952D01*
X150187143Y-78643810D01*
X150139524Y-78834286D01*
X150091905Y-78929524D01*
X149996667Y-79024762D01*
X149853809Y-79072381D01*
X149758571Y-79072381D01*
X149615714Y-79024762D01*
X149568095Y-78977143D01*
X149568095Y-78643810D01*
X149758571Y-78643810D01*
X149139524Y-79072381D02*
X149139524Y-78072381D01*
X148568095Y-79072381D01*
X148568095Y-78072381D01*
X148091905Y-79072381D02*
X148091905Y-78072381D01*
X147853810Y-78072381D01*
X147710952Y-78120000D01*
X147615714Y-78215238D01*
X147568095Y-78310476D01*
X147520476Y-78500952D01*
X147520476Y-78643810D01*
X147568095Y-78834286D01*
X147615714Y-78929524D01*
X147710952Y-79024762D01*
X147853810Y-79072381D01*
X148091905Y-79072381D01*
X150615715Y-80822381D02*
X150615715Y-79822381D01*
X150615715Y-80298571D02*
X150044286Y-80298571D01*
X150044286Y-80822381D02*
X150044286Y-79822381D01*
X149615715Y-80536667D02*
X149139524Y-80536667D01*
X149710953Y-80822381D02*
X149377620Y-79822381D01*
X149044286Y-80822381D01*
X148234762Y-80822381D02*
X148710953Y-80822381D01*
X148710953Y-79822381D01*
X147425238Y-80822381D02*
X147901429Y-80822381D01*
X147901429Y-79822381D01*
D12*
X118492982Y-81800000D02*
G75*
G03X118492982Y-81800000I-252982J0D01*
G01*
X156695000Y-85245000D02*
X144695000Y-85245000D01*
X156695000Y-83245000D02*
X156695000Y-85245000D01*
X144695000Y-83245000D02*
X156695000Y-83245000D01*
X121945000Y-71495000D02*
X121945000Y-96745000D01*
X87695000Y-71745000D02*
X144695000Y-71745000D01*
X87695000Y-96745000D02*
X87695000Y-71745000D01*
X144695000Y-96745000D02*
X87695000Y-96745000D01*
X144695000Y-84245000D02*
X144695000Y-96745000D01*
X144695000Y-84245000D02*
X144695000Y-71745000D01*
D13*
X122850000Y-85635000D02*
X123850000Y-85635000D01*
X123850000Y-84285000D02*
X122850000Y-84285000D01*
D14*
X143680000Y-77520000D02*
X143680000Y-78220000D01*
X144880000Y-78220000D02*
X144880000Y-77520000D01*
X111545000Y-81415000D02*
X112245000Y-81415000D01*
X112245000Y-80215000D02*
X111545000Y-80215000D01*
X96020000Y-102400000D02*
X96020000Y-103100000D01*
X97220000Y-103100000D02*
X97220000Y-102400000D01*
X97790000Y-65860000D02*
X97790000Y-65160000D01*
X96590000Y-65160000D02*
X96590000Y-65860000D01*
D13*
X95945000Y-98590000D02*
X95945000Y-99590000D01*
X97295000Y-99590000D02*
X97295000Y-98590000D01*
X97875000Y-69870000D02*
X97875000Y-68870000D01*
X96525000Y-68870000D02*
X96525000Y-69870000D01*
X153770000Y-86760000D02*
X153770000Y-81760000D01*
X150770000Y-86760000D02*
X150770000Y-81760000D01*
X148270000Y-86260000D02*
G75*
G03X148270000Y-86260000I-500000J0D01*
G01*
X149770000Y-86760000D02*
X149770000Y-81760000D01*
X149770000Y-81760000D02*
X154770000Y-81760000D01*
X154770000Y-81760000D02*
X154770000Y-86760000D01*
X154770000Y-86760000D02*
X149770000Y-86760000D01*
X115860000Y-81750000D02*
X115860000Y-81800000D01*
X111710000Y-81750000D02*
X111710000Y-81895000D01*
X111710000Y-86900000D02*
X111710000Y-86755000D01*
X115860000Y-86900000D02*
X115860000Y-86755000D01*
X115860000Y-81750000D02*
X111710000Y-81750000D01*
X115860000Y-86900000D02*
X111710000Y-86900000D01*
X115860000Y-81800000D02*
X117260000Y-81800000D01*
D15*
G36*
X134946342Y-90537448D02*
X134920334Y-92280228D01*
X134643831Y-92527114D01*
X134301779Y-92728856D01*
X133921781Y-92771116D01*
X133535613Y-92653350D01*
X133395852Y-92566911D01*
X133289329Y-92455890D01*
X133211621Y-92297843D01*
X133158309Y-92070324D01*
X133124971Y-91750891D01*
X133107188Y-91317099D01*
X133100538Y-90746505D01*
X133100000Y-90441683D01*
X133100000Y-88794667D01*
X131649027Y-88794667D01*
X131676014Y-90692625D01*
X131703000Y-92590583D01*
X131957775Y-92952832D01*
X132256053Y-93273749D01*
X132628778Y-93529559D01*
X132632288Y-93531374D01*
X132852343Y-93633235D01*
X133069023Y-93699421D01*
X133330836Y-93738630D01*
X133686290Y-93759558D01*
X133943847Y-93766525D01*
X134525238Y-93761936D01*
X134945037Y-93719918D01*
X135145141Y-93667902D01*
X135564813Y-93470610D01*
X135871578Y-93223961D01*
X136121824Y-92882159D01*
X136130304Y-92867822D01*
X136205492Y-92735864D01*
X136262501Y-92613050D01*
X136304259Y-92473918D01*
X136333689Y-92293007D01*
X136353719Y-92044856D01*
X136367274Y-91704002D01*
X136377280Y-91244984D01*
X136386663Y-90642341D01*
X136386754Y-90636167D01*
X136413840Y-88794667D01*
X134972351Y-88794667D01*
X134946342Y-90537448D01*
X134946342Y-90537448D01*
G37*
X134946342Y-90537448D02*
X134920334Y-92280228D01*
X134643831Y-92527114D01*
X134301779Y-92728856D01*
X133921781Y-92771116D01*
X133535613Y-92653350D01*
X133395852Y-92566911D01*
X133289329Y-92455890D01*
X133211621Y-92297843D01*
X133158309Y-92070324D01*
X133124971Y-91750891D01*
X133107188Y-91317099D01*
X133100538Y-90746505D01*
X133100000Y-90441683D01*
X133100000Y-88794667D01*
X131649027Y-88794667D01*
X131676014Y-90692625D01*
X131703000Y-92590583D01*
X131957775Y-92952832D01*
X132256053Y-93273749D01*
X132628778Y-93529559D01*
X132632288Y-93531374D01*
X132852343Y-93633235D01*
X133069023Y-93699421D01*
X133330836Y-93738630D01*
X133686290Y-93759558D01*
X133943847Y-93766525D01*
X134525238Y-93761936D01*
X134945037Y-93719918D01*
X135145141Y-93667902D01*
X135564813Y-93470610D01*
X135871578Y-93223961D01*
X136121824Y-92882159D01*
X136130304Y-92867822D01*
X136205492Y-92735864D01*
X136262501Y-92613050D01*
X136304259Y-92473918D01*
X136333689Y-92293007D01*
X136353719Y-92044856D01*
X136367274Y-91704002D01*
X136377280Y-91244984D01*
X136386663Y-90642341D01*
X136386754Y-90636167D01*
X136413840Y-88794667D01*
X134972351Y-88794667D01*
X134946342Y-90537448D01*
G36*
X123880604Y-90186974D02*
X123444774Y-90339834D01*
X123077496Y-90615655D01*
X122825826Y-91005816D01*
X122699433Y-91492552D01*
X122686000Y-91733607D01*
X122686000Y-92181334D01*
X125078823Y-92181334D01*
X125028352Y-92498834D01*
X124914332Y-92803063D01*
X124701687Y-93064084D01*
X124436285Y-93237045D01*
X124227504Y-93282000D01*
X123913796Y-93206470D01*
X123652337Y-93008541D01*
X123529419Y-92807789D01*
X123455404Y-92680105D01*
X123325983Y-92620326D01*
X123086703Y-92604719D01*
X123063391Y-92604667D01*
X122828467Y-92611351D01*
X122724791Y-92645934D01*
X122714390Y-92730215D01*
X122731511Y-92795167D01*
X122917052Y-93221691D01*
X123189947Y-93521549D01*
X123566981Y-93705667D01*
X124064934Y-93784970D01*
X124259659Y-93790000D01*
X124620671Y-93777954D01*
X124872448Y-93733339D01*
X125073921Y-93643442D01*
X125142615Y-93599500D01*
X125439658Y-93332092D01*
X125637117Y-92988229D01*
X125745708Y-92541070D01*
X125776334Y-92012000D01*
X125769518Y-91635101D01*
X125759721Y-91543614D01*
X125056667Y-91543614D01*
X124978136Y-91562974D01*
X124767056Y-91578166D01*
X124460201Y-91587132D01*
X124252334Y-91588667D01*
X123871467Y-91584502D01*
X123630528Y-91568792D01*
X123500242Y-91536711D01*
X123451337Y-91483435D01*
X123448000Y-91456101D01*
X123507262Y-91224480D01*
X123652130Y-90980866D01*
X123779330Y-90850526D01*
X123992181Y-90768143D01*
X124278936Y-90749355D01*
X124555907Y-90795807D01*
X124646068Y-90833482D01*
X124776260Y-90960895D01*
X124916397Y-91174915D01*
X125023542Y-91401286D01*
X125056667Y-91543614D01*
X125759721Y-91543614D01*
X125741115Y-91369890D01*
X125679194Y-91158996D01*
X125571821Y-90945049D01*
X125544697Y-90898299D01*
X125233013Y-90522983D01*
X124830939Y-90273784D01*
X124369721Y-90159011D01*
X123880604Y-90186974D01*
X123880604Y-90186974D01*
G37*
X123880604Y-90186974D02*
X123444774Y-90339834D01*
X123077496Y-90615655D01*
X122825826Y-91005816D01*
X122699433Y-91492552D01*
X122686000Y-91733607D01*
X122686000Y-92181334D01*
X125078823Y-92181334D01*
X125028352Y-92498834D01*
X124914332Y-92803063D01*
X124701687Y-93064084D01*
X124436285Y-93237045D01*
X124227504Y-93282000D01*
X123913796Y-93206470D01*
X123652337Y-93008541D01*
X123529419Y-92807789D01*
X123455404Y-92680105D01*
X123325983Y-92620326D01*
X123086703Y-92604719D01*
X123063391Y-92604667D01*
X122828467Y-92611351D01*
X122724791Y-92645934D01*
X122714390Y-92730215D01*
X122731511Y-92795167D01*
X122917052Y-93221691D01*
X123189947Y-93521549D01*
X123566981Y-93705667D01*
X124064934Y-93784970D01*
X124259659Y-93790000D01*
X124620671Y-93777954D01*
X124872448Y-93733339D01*
X125073921Y-93643442D01*
X125142615Y-93599500D01*
X125439658Y-93332092D01*
X125637117Y-92988229D01*
X125745708Y-92541070D01*
X125776334Y-92012000D01*
X125769518Y-91635101D01*
X125759721Y-91543614D01*
X125056667Y-91543614D01*
X124978136Y-91562974D01*
X124767056Y-91578166D01*
X124460201Y-91587132D01*
X124252334Y-91588667D01*
X123871467Y-91584502D01*
X123630528Y-91568792D01*
X123500242Y-91536711D01*
X123451337Y-91483435D01*
X123448000Y-91456101D01*
X123507262Y-91224480D01*
X123652130Y-90980866D01*
X123779330Y-90850526D01*
X123992181Y-90768143D01*
X124278936Y-90749355D01*
X124555907Y-90795807D01*
X124646068Y-90833482D01*
X124776260Y-90960895D01*
X124916397Y-91174915D01*
X125023542Y-91401286D01*
X125056667Y-91543614D01*
X125759721Y-91543614D01*
X125741115Y-91369890D01*
X125679194Y-91158996D01*
X125571821Y-90945049D01*
X125544697Y-90898299D01*
X125233013Y-90522983D01*
X124830939Y-90273784D01*
X124369721Y-90159011D01*
X123880604Y-90186974D01*
G36*
X116869364Y-89370475D02*
X116847476Y-89514131D01*
X116844000Y-89762628D01*
X116844000Y-90234000D01*
X116463000Y-90234000D01*
X116228897Y-90240326D01*
X116118042Y-90283200D01*
X116084351Y-90398464D01*
X116082000Y-90530334D01*
X116090134Y-90712414D01*
X116145257Y-90798634D01*
X116293454Y-90824839D01*
X116463000Y-90826667D01*
X116844000Y-90826667D01*
X116844000Y-91966688D01*
X116841843Y-92431247D01*
X116832972Y-92754792D01*
X116813787Y-92965614D01*
X116780689Y-93092005D01*
X116730078Y-93162255D01*
X116688355Y-93190008D01*
X116479962Y-93237836D01*
X116349689Y-93225445D01*
X116228352Y-93213530D01*
X116176931Y-93291581D01*
X116166667Y-93483792D01*
X116166667Y-93790000D01*
X116678516Y-93790000D01*
X116989083Y-93778335D01*
X117191007Y-93731831D01*
X117344064Y-93633226D01*
X117398182Y-93582182D01*
X117478044Y-93495678D01*
X117534288Y-93402606D01*
X117571050Y-93273481D01*
X117592464Y-93078818D01*
X117602668Y-92789129D01*
X117605797Y-92374929D01*
X117606000Y-92100515D01*
X117606000Y-90826667D01*
X117902334Y-90826667D01*
X118100946Y-90813560D01*
X118182398Y-90739614D01*
X118198630Y-90552889D01*
X118198667Y-90530334D01*
X118185561Y-90331722D01*
X118111614Y-90250269D01*
X117924889Y-90234037D01*
X117902334Y-90234000D01*
X117713007Y-90223867D01*
X117628575Y-90161017D01*
X117606710Y-89996776D01*
X117606000Y-89893238D01*
X117597486Y-89700393D01*
X117548375Y-89576079D01*
X117423317Y-89486730D01*
X117186962Y-89398780D01*
X117034500Y-89350600D01*
X116926197Y-89327877D01*
X116869364Y-89370475D01*
X116869364Y-89370475D01*
G37*
X116869364Y-89370475D02*
X116847476Y-89514131D01*
X116844000Y-89762628D01*
X116844000Y-90234000D01*
X116463000Y-90234000D01*
X116228897Y-90240326D01*
X116118042Y-90283200D01*
X116084351Y-90398464D01*
X116082000Y-90530334D01*
X116090134Y-90712414D01*
X116145257Y-90798634D01*
X116293454Y-90824839D01*
X116463000Y-90826667D01*
X116844000Y-90826667D01*
X116844000Y-91966688D01*
X116841843Y-92431247D01*
X116832972Y-92754792D01*
X116813787Y-92965614D01*
X116780689Y-93092005D01*
X116730078Y-93162255D01*
X116688355Y-93190008D01*
X116479962Y-93237836D01*
X116349689Y-93225445D01*
X116228352Y-93213530D01*
X116176931Y-93291581D01*
X116166667Y-93483792D01*
X116166667Y-93790000D01*
X116678516Y-93790000D01*
X116989083Y-93778335D01*
X117191007Y-93731831D01*
X117344064Y-93633226D01*
X117398182Y-93582182D01*
X117478044Y-93495678D01*
X117534288Y-93402606D01*
X117571050Y-93273481D01*
X117592464Y-93078818D01*
X117602668Y-92789129D01*
X117605797Y-92374929D01*
X117606000Y-92100515D01*
X117606000Y-90826667D01*
X117902334Y-90826667D01*
X118100946Y-90813560D01*
X118182398Y-90739614D01*
X118198630Y-90552889D01*
X118198667Y-90530334D01*
X118185561Y-90331722D01*
X118111614Y-90250269D01*
X117924889Y-90234037D01*
X117902334Y-90234000D01*
X117713007Y-90223867D01*
X117628575Y-90161017D01*
X117606710Y-89996776D01*
X117606000Y-89893238D01*
X117597486Y-89700393D01*
X117548375Y-89576079D01*
X117423317Y-89486730D01*
X117186962Y-89398780D01*
X117034500Y-89350600D01*
X116926197Y-89327877D01*
X116869364Y-89370475D01*
G36*
X136910000Y-89810667D02*
X138434000Y-89810667D01*
X138434000Y-93705334D01*
X139873334Y-93705334D01*
X139873334Y-89810667D01*
X141397334Y-89810667D01*
X141397334Y-88794667D01*
X136910000Y-88794667D01*
X136910000Y-89810667D01*
X136910000Y-89810667D01*
G37*
X136910000Y-89810667D02*
X138434000Y-89810667D01*
X138434000Y-93705334D01*
X139873334Y-93705334D01*
X139873334Y-89810667D01*
X141397334Y-89810667D01*
X141397334Y-88794667D01*
X136910000Y-88794667D01*
X136910000Y-89810667D01*
G36*
X129099500Y-88808235D02*
X128601570Y-88820739D01*
X128239414Y-88836079D01*
X127979492Y-88859565D01*
X127788262Y-88896504D01*
X127632185Y-88952203D01*
X127477719Y-89031972D01*
X127399597Y-89077253D01*
X126967263Y-89423489D01*
X126649254Y-89889019D01*
X126442194Y-90479222D01*
X126404356Y-90663532D01*
X126348461Y-91340008D01*
X126421723Y-91973587D01*
X126615609Y-92540613D01*
X126921586Y-93017431D01*
X127331122Y-93380386D01*
X127399597Y-93422748D01*
X127564314Y-93515111D01*
X127715512Y-93581011D01*
X127886732Y-93625755D01*
X128111514Y-93654653D01*
X128423399Y-93673011D01*
X128855929Y-93686137D01*
X129099500Y-93691766D01*
X130390667Y-93720531D01*
X130390667Y-93028000D01*
X129628667Y-93028000D01*
X128942963Y-93028000D01*
X128421478Y-93002175D01*
X128049491Y-92923561D01*
X127961741Y-92887768D01*
X127729822Y-92727168D01*
X127503927Y-92493343D01*
X127440945Y-92407242D01*
X127331385Y-92224542D01*
X127264272Y-92048502D01*
X127229469Y-91829239D01*
X127216838Y-91516867D01*
X127215667Y-91298641D01*
X127242565Y-90745748D01*
X127330759Y-90323782D01*
X127491499Y-90001899D01*
X127736033Y-89749257D01*
X127797605Y-89703166D01*
X127961030Y-89607592D01*
X128157291Y-89545717D01*
X128431309Y-89508190D01*
X128828005Y-89485657D01*
X128845500Y-89484994D01*
X129628667Y-89455654D01*
X129628667Y-93028000D01*
X130390667Y-93028000D01*
X130390667Y-88779469D01*
X129099500Y-88808235D01*
X129099500Y-88808235D01*
G37*
X129099500Y-88808235D02*
X128601570Y-88820739D01*
X128239414Y-88836079D01*
X127979492Y-88859565D01*
X127788262Y-88896504D01*
X127632185Y-88952203D01*
X127477719Y-89031972D01*
X127399597Y-89077253D01*
X126967263Y-89423489D01*
X126649254Y-89889019D01*
X126442194Y-90479222D01*
X126404356Y-90663532D01*
X126348461Y-91340008D01*
X126421723Y-91973587D01*
X126615609Y-92540613D01*
X126921586Y-93017431D01*
X127331122Y-93380386D01*
X127399597Y-93422748D01*
X127564314Y-93515111D01*
X127715512Y-93581011D01*
X127886732Y-93625755D01*
X128111514Y-93654653D01*
X128423399Y-93673011D01*
X128855929Y-93686137D01*
X129099500Y-93691766D01*
X130390667Y-93720531D01*
X130390667Y-93028000D01*
X129628667Y-93028000D01*
X128942963Y-93028000D01*
X128421478Y-93002175D01*
X128049491Y-92923561D01*
X127961741Y-92887768D01*
X127729822Y-92727168D01*
X127503927Y-92493343D01*
X127440945Y-92407242D01*
X127331385Y-92224542D01*
X127264272Y-92048502D01*
X127229469Y-91829239D01*
X127216838Y-91516867D01*
X127215667Y-91298641D01*
X127242565Y-90745748D01*
X127330759Y-90323782D01*
X127491499Y-90001899D01*
X127736033Y-89749257D01*
X127797605Y-89703166D01*
X127961030Y-89607592D01*
X128157291Y-89545717D01*
X128431309Y-89508190D01*
X128828005Y-89485657D01*
X128845500Y-89484994D01*
X129628667Y-89455654D01*
X129628667Y-93028000D01*
X130390667Y-93028000D01*
X130390667Y-88779469D01*
X129099500Y-88808235D01*
G36*
X121246667Y-93705334D02*
X122008667Y-93705334D01*
X122008667Y-88794667D01*
X121246667Y-88794667D01*
X121246667Y-93705334D01*
X121246667Y-93705334D01*
G37*
X121246667Y-93705334D02*
X122008667Y-93705334D01*
X122008667Y-88794667D01*
X121246667Y-88794667D01*
X121246667Y-93705334D01*
G36*
X118368000Y-89057845D02*
X118376178Y-89276140D01*
X118419274Y-89365328D01*
X118525135Y-89365486D01*
X118573791Y-89354040D01*
X118813310Y-89344556D01*
X118997125Y-89385100D01*
X119133932Y-89460125D01*
X119197637Y-89584253D01*
X119214536Y-89813791D01*
X119214667Y-89850905D01*
X119214667Y-90234000D01*
X118833667Y-90234000D01*
X118599564Y-90240326D01*
X118488709Y-90283200D01*
X118455017Y-90398464D01*
X118452667Y-90530334D01*
X118460801Y-90712414D01*
X118515924Y-90798634D01*
X118664121Y-90824839D01*
X118833667Y-90826667D01*
X119214667Y-90826667D01*
X119214667Y-93705334D01*
X119976667Y-93705334D01*
X119976667Y-90826667D01*
X120315334Y-90826667D01*
X120532170Y-90817696D01*
X120628533Y-90762304D01*
X120653243Y-90617774D01*
X120654000Y-90530334D01*
X120643748Y-90340602D01*
X120580443Y-90256284D01*
X120415266Y-90234663D01*
X120315334Y-90234000D01*
X119976667Y-90234000D01*
X119976667Y-89806462D01*
X119930524Y-89356252D01*
X119783588Y-89034311D01*
X119523094Y-88828438D01*
X119136281Y-88726433D01*
X118829683Y-88710000D01*
X118368000Y-88710000D01*
X118368000Y-89057845D01*
X118368000Y-89057845D01*
G37*
X118368000Y-89057845D02*
X118376178Y-89276140D01*
X118419274Y-89365328D01*
X118525135Y-89365486D01*
X118573791Y-89354040D01*
X118813310Y-89344556D01*
X118997125Y-89385100D01*
X119133932Y-89460125D01*
X119197637Y-89584253D01*
X119214536Y-89813791D01*
X119214667Y-89850905D01*
X119214667Y-90234000D01*
X118833667Y-90234000D01*
X118599564Y-90240326D01*
X118488709Y-90283200D01*
X118455017Y-90398464D01*
X118452667Y-90530334D01*
X118460801Y-90712414D01*
X118515924Y-90798634D01*
X118664121Y-90824839D01*
X118833667Y-90826667D01*
X119214667Y-90826667D01*
X119214667Y-93705334D01*
X119976667Y-93705334D01*
X119976667Y-90826667D01*
X120315334Y-90826667D01*
X120532170Y-90817696D01*
X120628533Y-90762304D01*
X120653243Y-90617774D01*
X120654000Y-90530334D01*
X120643748Y-90340602D01*
X120580443Y-90256284D01*
X120415266Y-90234663D01*
X120315334Y-90234000D01*
X119976667Y-90234000D01*
X119976667Y-89806462D01*
X119930524Y-89356252D01*
X119783588Y-89034311D01*
X119523094Y-88828438D01*
X119136281Y-88726433D01*
X118829683Y-88710000D01*
X118368000Y-88710000D01*
X118368000Y-89057845D01*
G36*
X135411358Y-83928731D02*
X135386000Y-84048612D01*
X135439570Y-84234063D01*
X135608015Y-84459816D01*
X135902945Y-84738436D01*
X136335966Y-85082487D01*
X136352858Y-85095187D01*
X136755663Y-85412842D01*
X137024885Y-85666297D01*
X137174511Y-85874393D01*
X137218531Y-86055970D01*
X137180521Y-86209887D01*
X137023499Y-86381810D01*
X136783729Y-86418861D01*
X136481037Y-86320897D01*
X136304874Y-86216225D01*
X136110111Y-86099817D01*
X135977572Y-86049915D01*
X135953010Y-86054547D01*
X135948294Y-86163226D01*
X136006132Y-86374912D01*
X136109363Y-86643215D01*
X136240825Y-86921745D01*
X136336806Y-87092043D01*
X136675948Y-87556048D01*
X137074591Y-87961905D01*
X137487032Y-88265463D01*
X137629667Y-88341002D01*
X137923503Y-88455870D01*
X138195991Y-88524299D01*
X138406121Y-88540143D01*
X138512882Y-88497253D01*
X138518667Y-88474255D01*
X138453059Y-88390601D01*
X138292897Y-88274739D01*
X138270884Y-88261474D01*
X137993215Y-88019157D01*
X137759870Y-87671993D01*
X137622909Y-87317514D01*
X137560618Y-87068028D01*
X137797060Y-87254014D01*
X138062181Y-87395733D01*
X138333685Y-87435464D01*
X138552770Y-87366923D01*
X138586400Y-87338400D01*
X138673643Y-87147834D01*
X138672647Y-86892147D01*
X138584796Y-86649894D01*
X138573984Y-86633339D01*
X138382655Y-86347240D01*
X138287822Y-86182621D01*
X138296320Y-86137247D01*
X138414981Y-86208878D01*
X138650637Y-86395277D01*
X138834949Y-86547869D01*
X139233038Y-86903686D01*
X139507133Y-87216270D01*
X139681693Y-87523845D01*
X139781178Y-87864634D01*
X139812192Y-88075000D01*
X139840665Y-88329000D01*
X139941666Y-88090655D01*
X140036319Y-87693377D01*
X140035319Y-87224798D01*
X139943383Y-86750002D01*
X139821895Y-86437550D01*
X139549169Y-86022897D01*
X139163240Y-85659022D01*
X138650368Y-85337353D01*
X137996810Y-85049315D01*
X137188825Y-84786336D01*
X137164000Y-84779293D01*
X136652413Y-84615978D01*
X136211368Y-84438865D01*
X135867280Y-84260905D01*
X135646560Y-84095046D01*
X135583414Y-84004387D01*
X135494455Y-83891711D01*
X135411358Y-83928731D01*
X135411358Y-83928731D01*
G37*
X135411358Y-83928731D02*
X135386000Y-84048612D01*
X135439570Y-84234063D01*
X135608015Y-84459816D01*
X135902945Y-84738436D01*
X136335966Y-85082487D01*
X136352858Y-85095187D01*
X136755663Y-85412842D01*
X137024885Y-85666297D01*
X137174511Y-85874393D01*
X137218531Y-86055970D01*
X137180521Y-86209887D01*
X137023499Y-86381810D01*
X136783729Y-86418861D01*
X136481037Y-86320897D01*
X136304874Y-86216225D01*
X136110111Y-86099817D01*
X135977572Y-86049915D01*
X135953010Y-86054547D01*
X135948294Y-86163226D01*
X136006132Y-86374912D01*
X136109363Y-86643215D01*
X136240825Y-86921745D01*
X136336806Y-87092043D01*
X136675948Y-87556048D01*
X137074591Y-87961905D01*
X137487032Y-88265463D01*
X137629667Y-88341002D01*
X137923503Y-88455870D01*
X138195991Y-88524299D01*
X138406121Y-88540143D01*
X138512882Y-88497253D01*
X138518667Y-88474255D01*
X138453059Y-88390601D01*
X138292897Y-88274739D01*
X138270884Y-88261474D01*
X137993215Y-88019157D01*
X137759870Y-87671993D01*
X137622909Y-87317514D01*
X137560618Y-87068028D01*
X137797060Y-87254014D01*
X138062181Y-87395733D01*
X138333685Y-87435464D01*
X138552770Y-87366923D01*
X138586400Y-87338400D01*
X138673643Y-87147834D01*
X138672647Y-86892147D01*
X138584796Y-86649894D01*
X138573984Y-86633339D01*
X138382655Y-86347240D01*
X138287822Y-86182621D01*
X138296320Y-86137247D01*
X138414981Y-86208878D01*
X138650637Y-86395277D01*
X138834949Y-86547869D01*
X139233038Y-86903686D01*
X139507133Y-87216270D01*
X139681693Y-87523845D01*
X139781178Y-87864634D01*
X139812192Y-88075000D01*
X139840665Y-88329000D01*
X139941666Y-88090655D01*
X140036319Y-87693377D01*
X140035319Y-87224798D01*
X139943383Y-86750002D01*
X139821895Y-86437550D01*
X139549169Y-86022897D01*
X139163240Y-85659022D01*
X138650368Y-85337353D01*
X137996810Y-85049315D01*
X137188825Y-84786336D01*
X137164000Y-84779293D01*
X136652413Y-84615978D01*
X136211368Y-84438865D01*
X135867280Y-84260905D01*
X135646560Y-84095046D01*
X135583414Y-84004387D01*
X135494455Y-83891711D01*
X135411358Y-83928731D01*
D14*
X138550000Y-97260000D02*
X138550000Y-96560000D01*
X137350000Y-96560000D02*
X137350000Y-97260000D01*
X141310000Y-71120000D02*
X142010000Y-71120000D01*
X142010000Y-69920000D02*
X141310000Y-69920000D01*
D13*
X139355000Y-96060000D02*
X139355000Y-97060000D01*
X140705000Y-97060000D02*
X140705000Y-96060000D01*
X139445000Y-72230000D02*
X139445000Y-71230000D01*
X138095000Y-71230000D02*
X138095000Y-72230000D01*
D14*
X149400000Y-86770000D02*
X148700000Y-86770000D01*
X148700000Y-87970000D02*
X149400000Y-87970000D01*
X154130000Y-87630000D02*
X154130000Y-88330000D01*
X155330000Y-88330000D02*
X155330000Y-87630000D01*
D13*
X145760000Y-83595000D02*
X146760000Y-83595000D01*
X146760000Y-82245000D02*
X145760000Y-82245000D01*
X124026666Y-84032381D02*
X124360000Y-83556190D01*
X124598095Y-84032381D02*
X124598095Y-83032381D01*
X124217142Y-83032381D01*
X124121904Y-83080000D01*
X124074285Y-83127619D01*
X124026666Y-83222857D01*
X124026666Y-83365714D01*
X124074285Y-83460952D01*
X124121904Y-83508571D01*
X124217142Y-83556190D01*
X124598095Y-83556190D01*
X123169523Y-83032381D02*
X123360000Y-83032381D01*
X123455238Y-83080000D01*
X123502857Y-83127619D01*
X123598095Y-83270476D01*
X123645714Y-83460952D01*
X123645714Y-83841905D01*
X123598095Y-83937143D01*
X123550476Y-83984762D01*
X123455238Y-84032381D01*
X123264761Y-84032381D01*
X123169523Y-83984762D01*
X123121904Y-83937143D01*
X123074285Y-83841905D01*
X123074285Y-83603810D01*
X123121904Y-83508571D01*
X123169523Y-83460952D01*
X123264761Y-83413333D01*
X123455238Y-83413333D01*
X123550476Y-83460952D01*
X123598095Y-83508571D01*
X123645714Y-83603810D01*
X143122143Y-77728334D02*
X143169762Y-77680715D01*
X143217381Y-77537858D01*
X143217381Y-77442620D01*
X143169762Y-77299762D01*
X143074524Y-77204524D01*
X142979286Y-77156905D01*
X142788810Y-77109286D01*
X142645952Y-77109286D01*
X142455476Y-77156905D01*
X142360238Y-77204524D01*
X142265000Y-77299762D01*
X142217381Y-77442620D01*
X142217381Y-77537858D01*
X142265000Y-77680715D01*
X142312619Y-77728334D01*
X142217381Y-78633096D02*
X142217381Y-78156905D01*
X142693571Y-78109286D01*
X142645952Y-78156905D01*
X142598333Y-78252143D01*
X142598333Y-78490239D01*
X142645952Y-78585477D01*
X142693571Y-78633096D01*
X142788810Y-78680715D01*
X143026905Y-78680715D01*
X143122143Y-78633096D01*
X143169762Y-78585477D01*
X143217381Y-78490239D01*
X143217381Y-78252143D01*
X143169762Y-78156905D01*
X143122143Y-78109286D01*
X109606666Y-81207143D02*
X109654285Y-81254762D01*
X109797142Y-81302381D01*
X109892380Y-81302381D01*
X110035238Y-81254762D01*
X110130476Y-81159524D01*
X110178095Y-81064286D01*
X110225714Y-80873810D01*
X110225714Y-80730952D01*
X110178095Y-80540476D01*
X110130476Y-80445238D01*
X110035238Y-80350000D01*
X109892380Y-80302381D01*
X109797142Y-80302381D01*
X109654285Y-80350000D01*
X109606666Y-80397619D01*
X109130476Y-81302381D02*
X108940000Y-81302381D01*
X108844761Y-81254762D01*
X108797142Y-81207143D01*
X108701904Y-81064286D01*
X108654285Y-80873810D01*
X108654285Y-80492857D01*
X108701904Y-80397619D01*
X108749523Y-80350000D01*
X108844761Y-80302381D01*
X109035238Y-80302381D01*
X109130476Y-80350000D01*
X109178095Y-80397619D01*
X109225714Y-80492857D01*
X109225714Y-80730952D01*
X109178095Y-80826190D01*
X109130476Y-80873810D01*
X109035238Y-80921429D01*
X108844761Y-80921429D01*
X108749523Y-80873810D01*
X108701904Y-80826190D01*
X108654285Y-80730952D01*
X98567143Y-102107143D02*
X98614762Y-102059524D01*
X98662381Y-101916667D01*
X98662381Y-101821429D01*
X98614762Y-101678571D01*
X98519524Y-101583333D01*
X98424286Y-101535714D01*
X98233810Y-101488095D01*
X98090952Y-101488095D01*
X97900476Y-101535714D01*
X97805238Y-101583333D01*
X97710000Y-101678571D01*
X97662381Y-101821429D01*
X97662381Y-101916667D01*
X97710000Y-102059524D01*
X97757619Y-102107143D01*
X98662381Y-103059524D02*
X98662381Y-102488095D01*
X98662381Y-102773809D02*
X97662381Y-102773809D01*
X97805238Y-102678571D01*
X97900476Y-102583333D01*
X97948095Y-102488095D01*
X97662381Y-103964286D02*
X97662381Y-103488095D01*
X98138571Y-103440476D01*
X98090952Y-103488095D01*
X98043333Y-103583333D01*
X98043333Y-103821429D01*
X98090952Y-103916667D01*
X98138571Y-103964286D01*
X98233810Y-104011905D01*
X98471905Y-104011905D01*
X98567143Y-103964286D01*
X98614762Y-103916667D01*
X98662381Y-103821429D01*
X98662381Y-103583333D01*
X98614762Y-103488095D01*
X98567143Y-103440476D01*
X96112143Y-64577143D02*
X96159762Y-64529524D01*
X96207381Y-64386667D01*
X96207381Y-64291429D01*
X96159762Y-64148571D01*
X96064524Y-64053333D01*
X95969286Y-64005714D01*
X95778810Y-63958095D01*
X95635952Y-63958095D01*
X95445476Y-64005714D01*
X95350238Y-64053333D01*
X95255000Y-64148571D01*
X95207381Y-64291429D01*
X95207381Y-64386667D01*
X95255000Y-64529524D01*
X95302619Y-64577143D01*
X96207381Y-65529524D02*
X96207381Y-64958095D01*
X96207381Y-65243809D02*
X95207381Y-65243809D01*
X95350238Y-65148571D01*
X95445476Y-65053333D01*
X95493095Y-64958095D01*
X95207381Y-66386667D02*
X95207381Y-66196190D01*
X95255000Y-66100952D01*
X95302619Y-66053333D01*
X95445476Y-65958095D01*
X95635952Y-65910476D01*
X96016905Y-65910476D01*
X96112143Y-65958095D01*
X96159762Y-66005714D01*
X96207381Y-66100952D01*
X96207381Y-66291429D01*
X96159762Y-66386667D01*
X96112143Y-66434286D01*
X96016905Y-66481905D01*
X95778810Y-66481905D01*
X95683571Y-66434286D01*
X95635952Y-66386667D01*
X95588333Y-66291429D01*
X95588333Y-66100952D01*
X95635952Y-66005714D01*
X95683571Y-65958095D01*
X95778810Y-65910476D01*
X91204286Y-106772381D02*
X91204286Y-105772381D01*
X90870952Y-106486667D01*
X90537619Y-105772381D01*
X90537619Y-106772381D01*
X90299524Y-106867619D02*
X89537619Y-106867619D01*
X89299524Y-106772381D02*
X89299524Y-105772381D01*
X89299524Y-106248571D02*
X88728095Y-106248571D01*
X88728095Y-106772381D02*
X88728095Y-105772381D01*
X87728095Y-106772381D02*
X88299524Y-106772381D01*
X88013810Y-106772381D02*
X88013810Y-105772381D01*
X88109048Y-105915238D01*
X88204286Y-106010476D01*
X88299524Y-106058095D01*
X91204286Y-62742381D02*
X91204286Y-61742381D01*
X90870952Y-62456667D01*
X90537619Y-61742381D01*
X90537619Y-62742381D01*
X90299524Y-62837619D02*
X89537619Y-62837619D01*
X89299524Y-62742381D02*
X89299524Y-61742381D01*
X89299524Y-62218571D02*
X88728095Y-62218571D01*
X88728095Y-62742381D02*
X88728095Y-61742381D01*
X88299524Y-61837619D02*
X88251905Y-61790000D01*
X88156667Y-61742381D01*
X87918571Y-61742381D01*
X87823333Y-61790000D01*
X87775714Y-61837619D01*
X87728095Y-61932857D01*
X87728095Y-62028095D01*
X87775714Y-62170952D01*
X88347143Y-62742381D01*
X87728095Y-62742381D01*
X98742381Y-98377143D02*
X98266190Y-98043809D01*
X98742381Y-97805714D02*
X97742381Y-97805714D01*
X97742381Y-98186667D01*
X97790000Y-98281905D01*
X97837619Y-98329524D01*
X97932857Y-98377143D01*
X98075714Y-98377143D01*
X98170952Y-98329524D01*
X98218571Y-98281905D01*
X98266190Y-98186667D01*
X98266190Y-97805714D01*
X98742381Y-99329524D02*
X98742381Y-98758095D01*
X98742381Y-99043809D02*
X97742381Y-99043809D01*
X97885238Y-98948571D01*
X97980476Y-98853333D01*
X98028095Y-98758095D01*
X97742381Y-100186667D02*
X97742381Y-99996190D01*
X97790000Y-99900952D01*
X97837619Y-99853333D01*
X97980476Y-99758095D01*
X98170952Y-99710476D01*
X98551905Y-99710476D01*
X98647143Y-99758095D01*
X98694762Y-99805714D01*
X98742381Y-99900952D01*
X98742381Y-100091429D01*
X98694762Y-100186667D01*
X98647143Y-100234286D01*
X98551905Y-100281905D01*
X98313810Y-100281905D01*
X98218571Y-100234286D01*
X98170952Y-100186667D01*
X98123333Y-100091429D01*
X98123333Y-99900952D01*
X98170952Y-99805714D01*
X98218571Y-99758095D01*
X98313810Y-99710476D01*
X99307381Y-69257143D02*
X98831190Y-68923809D01*
X99307381Y-68685714D02*
X98307381Y-68685714D01*
X98307381Y-69066667D01*
X98355000Y-69161905D01*
X98402619Y-69209524D01*
X98497857Y-69257143D01*
X98640714Y-69257143D01*
X98735952Y-69209524D01*
X98783571Y-69161905D01*
X98831190Y-69066667D01*
X98831190Y-68685714D01*
X99307381Y-70209524D02*
X99307381Y-69638095D01*
X99307381Y-69923809D02*
X98307381Y-69923809D01*
X98450238Y-69828571D01*
X98545476Y-69733333D01*
X98593095Y-69638095D01*
X98307381Y-70542857D02*
X98307381Y-71209524D01*
X99307381Y-70780952D01*
X152631905Y-86892381D02*
X152631905Y-87701905D01*
X152584286Y-87797143D01*
X152536667Y-87844762D01*
X152441429Y-87892381D01*
X152250952Y-87892381D01*
X152155714Y-87844762D01*
X152108095Y-87797143D01*
X152060476Y-87701905D01*
X152060476Y-86892381D01*
X151679524Y-86892381D02*
X151060476Y-86892381D01*
X151393810Y-87273333D01*
X151250952Y-87273333D01*
X151155714Y-87320952D01*
X151108095Y-87368571D01*
X151060476Y-87463810D01*
X151060476Y-87701905D01*
X151108095Y-87797143D01*
X151155714Y-87844762D01*
X151250952Y-87892381D01*
X151536667Y-87892381D01*
X151631905Y-87844762D01*
X151679524Y-87797143D01*
X112461905Y-87412381D02*
X112461905Y-88221905D01*
X112414286Y-88317143D01*
X112366667Y-88364762D01*
X112271429Y-88412381D01*
X112080952Y-88412381D01*
X111985714Y-88364762D01*
X111938095Y-88317143D01*
X111890476Y-88221905D01*
X111890476Y-87412381D01*
X110985714Y-87412381D02*
X111176191Y-87412381D01*
X111271429Y-87460000D01*
X111319048Y-87507619D01*
X111414286Y-87650476D01*
X111461905Y-87840952D01*
X111461905Y-88221905D01*
X111414286Y-88317143D01*
X111366667Y-88364762D01*
X111271429Y-88412381D01*
X111080952Y-88412381D01*
X110985714Y-88364762D01*
X110938095Y-88317143D01*
X110890476Y-88221905D01*
X110890476Y-87983810D01*
X110938095Y-87888571D01*
X110985714Y-87840952D01*
X111080952Y-87793333D01*
X111271429Y-87793333D01*
X111366667Y-87840952D01*
X111414286Y-87888571D01*
X111461905Y-87983810D01*
X136442857Y-96407143D02*
X136490476Y-96454762D01*
X136633333Y-96502381D01*
X136728571Y-96502381D01*
X136871429Y-96454762D01*
X136966667Y-96359524D01*
X137014286Y-96264286D01*
X137061905Y-96073810D01*
X137061905Y-95930952D01*
X137014286Y-95740476D01*
X136966667Y-95645238D01*
X136871429Y-95550000D01*
X136728571Y-95502381D01*
X136633333Y-95502381D01*
X136490476Y-95550000D01*
X136442857Y-95597619D01*
X135490476Y-96502381D02*
X136061905Y-96502381D01*
X135776191Y-96502381D02*
X135776191Y-95502381D01*
X135871429Y-95645238D01*
X135966667Y-95740476D01*
X136061905Y-95788095D01*
X134871429Y-95502381D02*
X134776190Y-95502381D01*
X134680952Y-95550000D01*
X134633333Y-95597619D01*
X134585714Y-95692857D01*
X134538095Y-95883333D01*
X134538095Y-96121429D01*
X134585714Y-96311905D01*
X134633333Y-96407143D01*
X134680952Y-96454762D01*
X134776190Y-96502381D01*
X134871429Y-96502381D01*
X134966667Y-96454762D01*
X135014286Y-96407143D01*
X135061905Y-96311905D01*
X135109524Y-96121429D01*
X135109524Y-95883333D01*
X135061905Y-95692857D01*
X135014286Y-95597619D01*
X134966667Y-95550000D01*
X134871429Y-95502381D01*
X142292857Y-73017143D02*
X142340476Y-73064762D01*
X142483333Y-73112381D01*
X142578571Y-73112381D01*
X142721429Y-73064762D01*
X142816667Y-72969524D01*
X142864286Y-72874286D01*
X142911905Y-72683810D01*
X142911905Y-72540952D01*
X142864286Y-72350476D01*
X142816667Y-72255238D01*
X142721429Y-72160000D01*
X142578571Y-72112381D01*
X142483333Y-72112381D01*
X142340476Y-72160000D01*
X142292857Y-72207619D01*
X141340476Y-73112381D02*
X141911905Y-73112381D01*
X141626191Y-73112381D02*
X141626191Y-72112381D01*
X141721429Y-72255238D01*
X141816667Y-72350476D01*
X141911905Y-72398095D01*
X141007143Y-72112381D02*
X140340476Y-72112381D01*
X140769048Y-73112381D01*
X142842857Y-96102381D02*
X143176191Y-95626190D01*
X143414286Y-96102381D02*
X143414286Y-95102381D01*
X143033333Y-95102381D01*
X142938095Y-95150000D01*
X142890476Y-95197619D01*
X142842857Y-95292857D01*
X142842857Y-95435714D01*
X142890476Y-95530952D01*
X142938095Y-95578571D01*
X143033333Y-95626190D01*
X143414286Y-95626190D01*
X141890476Y-96102381D02*
X142461905Y-96102381D01*
X142176191Y-96102381D02*
X142176191Y-95102381D01*
X142271429Y-95245238D01*
X142366667Y-95340476D01*
X142461905Y-95388095D01*
X140938095Y-96102381D02*
X141509524Y-96102381D01*
X141223810Y-96102381D02*
X141223810Y-95102381D01*
X141319048Y-95245238D01*
X141414286Y-95340476D01*
X141509524Y-95388095D01*
X137132857Y-71082381D02*
X137466191Y-70606190D01*
X137704286Y-71082381D02*
X137704286Y-70082381D01*
X137323333Y-70082381D01*
X137228095Y-70130000D01*
X137180476Y-70177619D01*
X137132857Y-70272857D01*
X137132857Y-70415714D01*
X137180476Y-70510952D01*
X137228095Y-70558571D01*
X137323333Y-70606190D01*
X137704286Y-70606190D01*
X136180476Y-71082381D02*
X136751905Y-71082381D01*
X136466191Y-71082381D02*
X136466191Y-70082381D01*
X136561429Y-70225238D01*
X136656667Y-70320476D01*
X136751905Y-70368095D01*
X135609048Y-70510952D02*
X135704286Y-70463333D01*
X135751905Y-70415714D01*
X135799524Y-70320476D01*
X135799524Y-70272857D01*
X135751905Y-70177619D01*
X135704286Y-70130000D01*
X135609048Y-70082381D01*
X135418571Y-70082381D01*
X135323333Y-70130000D01*
X135275714Y-70177619D01*
X135228095Y-70272857D01*
X135228095Y-70320476D01*
X135275714Y-70415714D01*
X135323333Y-70463333D01*
X135418571Y-70510952D01*
X135609048Y-70510952D01*
X135704286Y-70558571D01*
X135751905Y-70606190D01*
X135799524Y-70701429D01*
X135799524Y-70891905D01*
X135751905Y-70987143D01*
X135704286Y-71034762D01*
X135609048Y-71082381D01*
X135418571Y-71082381D01*
X135323333Y-71034762D01*
X135275714Y-70987143D01*
X135228095Y-70891905D01*
X135228095Y-70701429D01*
X135275714Y-70606190D01*
X135323333Y-70558571D01*
X135418571Y-70510952D01*
X148382857Y-89317143D02*
X148430476Y-89364762D01*
X148573333Y-89412381D01*
X148668571Y-89412381D01*
X148811429Y-89364762D01*
X148906667Y-89269524D01*
X148954286Y-89174286D01*
X149001905Y-88983810D01*
X149001905Y-88840952D01*
X148954286Y-88650476D01*
X148906667Y-88555238D01*
X148811429Y-88460000D01*
X148668571Y-88412381D01*
X148573333Y-88412381D01*
X148430476Y-88460000D01*
X148382857Y-88507619D01*
X147430476Y-89412381D02*
X148001905Y-89412381D01*
X147716191Y-89412381D02*
X147716191Y-88412381D01*
X147811429Y-88555238D01*
X147906667Y-88650476D01*
X148001905Y-88698095D01*
X146859048Y-88840952D02*
X146954286Y-88793333D01*
X147001905Y-88745714D01*
X147049524Y-88650476D01*
X147049524Y-88602857D01*
X147001905Y-88507619D01*
X146954286Y-88460000D01*
X146859048Y-88412381D01*
X146668571Y-88412381D01*
X146573333Y-88460000D01*
X146525714Y-88507619D01*
X146478095Y-88602857D01*
X146478095Y-88650476D01*
X146525714Y-88745714D01*
X146573333Y-88793333D01*
X146668571Y-88840952D01*
X146859048Y-88840952D01*
X146954286Y-88888571D01*
X147001905Y-88936190D01*
X147049524Y-89031429D01*
X147049524Y-89221905D01*
X147001905Y-89317143D01*
X146954286Y-89364762D01*
X146859048Y-89412381D01*
X146668571Y-89412381D01*
X146573333Y-89364762D01*
X146525714Y-89317143D01*
X146478095Y-89221905D01*
X146478095Y-89031429D01*
X146525714Y-88936190D01*
X146573333Y-88888571D01*
X146668571Y-88840952D01*
X155077143Y-90297143D02*
X155124762Y-90249524D01*
X155172381Y-90106667D01*
X155172381Y-90011429D01*
X155124762Y-89868571D01*
X155029524Y-89773333D01*
X154934286Y-89725714D01*
X154743810Y-89678095D01*
X154600952Y-89678095D01*
X154410476Y-89725714D01*
X154315238Y-89773333D01*
X154220000Y-89868571D01*
X154172381Y-90011429D01*
X154172381Y-90106667D01*
X154220000Y-90249524D01*
X154267619Y-90297143D01*
X155172381Y-91249524D02*
X155172381Y-90678095D01*
X155172381Y-90963809D02*
X154172381Y-90963809D01*
X154315238Y-90868571D01*
X154410476Y-90773333D01*
X154458095Y-90678095D01*
X155172381Y-91725714D02*
X155172381Y-91916190D01*
X155124762Y-92011429D01*
X155077143Y-92059048D01*
X154934286Y-92154286D01*
X154743810Y-92201905D01*
X154362857Y-92201905D01*
X154267619Y-92154286D01*
X154220000Y-92106667D01*
X154172381Y-92011429D01*
X154172381Y-91820952D01*
X154220000Y-91725714D01*
X154267619Y-91678095D01*
X154362857Y-91630476D01*
X154600952Y-91630476D01*
X154696190Y-91678095D01*
X154743810Y-91725714D01*
X154791429Y-91820952D01*
X154791429Y-92011429D01*
X154743810Y-92106667D01*
X154696190Y-92154286D01*
X154600952Y-92201905D01*
X143192857Y-84162381D02*
X143526191Y-83686190D01*
X143764286Y-84162381D02*
X143764286Y-83162381D01*
X143383333Y-83162381D01*
X143288095Y-83210000D01*
X143240476Y-83257619D01*
X143192857Y-83352857D01*
X143192857Y-83495714D01*
X143240476Y-83590952D01*
X143288095Y-83638571D01*
X143383333Y-83686190D01*
X143764286Y-83686190D01*
X142240476Y-84162381D02*
X142811905Y-84162381D01*
X142526191Y-84162381D02*
X142526191Y-83162381D01*
X142621429Y-83305238D01*
X142716667Y-83400476D01*
X142811905Y-83448095D01*
X141764286Y-84162381D02*
X141573810Y-84162381D01*
X141478571Y-84114762D01*
X141430952Y-84067143D01*
X141335714Y-83924286D01*
X141288095Y-83733810D01*
X141288095Y-83352857D01*
X141335714Y-83257619D01*
X141383333Y-83210000D01*
X141478571Y-83162381D01*
X141669048Y-83162381D01*
X141764286Y-83210000D01*
X141811905Y-83257619D01*
X141859524Y-83352857D01*
X141859524Y-83590952D01*
X141811905Y-83686190D01*
X141764286Y-83733810D01*
X141669048Y-83781429D01*
X141478571Y-83781429D01*
X141383333Y-83733810D01*
X141335714Y-83686190D01*
X141288095Y-83590952D01*
M02*
