G04 #@! TF.FileFunction,Paste,Top*
%FSLAX46Y46*%
G04 Gerber Fmt 4.6, Leading zero omitted, Abs format (unit mm)*
G04 Created by KiCad (PCBNEW 4.0.4-stable) date 02/07/17 14:21:35*
%MOMM*%
%LPD*%
G01*
G04 APERTURE LIST*
%ADD10C,0.100000*%
%ADD11R,0.560000X1.600000*%
%ADD12R,1.600000X0.560000*%
%ADD13R,3.000000X1.600000*%
%ADD14R,0.800000X0.750000*%
%ADD15R,1.600000X1.000000*%
%ADD16R,0.750000X0.800000*%
%ADD17R,0.900000X1.200000*%
%ADD18R,1.000000X1.000000*%
%ADD19R,3.810000X4.240000*%
%ADD20R,1.000000X0.700000*%
%ADD21R,1.200000X0.900000*%
%ADD22R,1.550000X0.600000*%
%ADD23R,0.705000X0.705000*%
%ADD24R,1.500000X0.600000*%
%ADD25R,0.650000X1.560000*%
%ADD26R,0.840000X1.000000*%
%ADD27R,0.500000X0.250000*%
%ADD28R,1.100000X0.400000*%
G04 APERTURE END LIST*
D10*
D11*
X133990000Y-77875000D03*
X133190000Y-77875000D03*
X132390000Y-77875000D03*
X131590000Y-77875000D03*
X130790000Y-77875000D03*
X129990000Y-77875000D03*
X129190000Y-77875000D03*
X128390000Y-77875000D03*
X127590000Y-77875000D03*
X126790000Y-77875000D03*
X125990000Y-77875000D03*
D12*
X124140000Y-79725000D03*
X124140000Y-80525000D03*
X124140000Y-81325000D03*
X124140000Y-82125000D03*
X124140000Y-82925000D03*
X124140000Y-83725000D03*
X124140000Y-84525000D03*
X124140000Y-85325000D03*
X124140000Y-86125000D03*
X124140000Y-86925000D03*
X124140000Y-87725000D03*
D11*
X125990000Y-89575000D03*
X126790000Y-89575000D03*
X127590000Y-89575000D03*
X128390000Y-89575000D03*
X129190000Y-89575000D03*
X129990000Y-89575000D03*
X130790000Y-89575000D03*
X131590000Y-89575000D03*
X132390000Y-89575000D03*
X133190000Y-89575000D03*
X133990000Y-89575000D03*
D12*
X135840000Y-87725000D03*
X135840000Y-86925000D03*
X135840000Y-86125000D03*
X135840000Y-85325000D03*
X135840000Y-84525000D03*
X135840000Y-83725000D03*
X135840000Y-82925000D03*
X135840000Y-82125000D03*
X135840000Y-81325000D03*
X135840000Y-80525000D03*
X135840000Y-79725000D03*
D13*
X103195000Y-74745000D03*
X98795000Y-74745000D03*
D14*
X98370000Y-79545000D03*
X96870000Y-79545000D03*
X111845000Y-76755000D03*
X113345000Y-76755000D03*
D15*
X120495000Y-72055000D03*
X120495000Y-69055000D03*
D14*
X110315000Y-88825000D03*
X111815000Y-88825000D03*
X109275000Y-92605000D03*
X110775000Y-92605000D03*
X109285000Y-94155000D03*
X110785000Y-94155000D03*
X128340000Y-75590000D03*
X126840000Y-75590000D03*
D16*
X132385000Y-92835000D03*
X132385000Y-91335000D03*
D14*
X120875000Y-85765000D03*
X122375000Y-85765000D03*
X139365000Y-83715000D03*
X137865000Y-83715000D03*
D17*
X135695000Y-91565000D03*
X135695000Y-93765000D03*
X142205000Y-83915000D03*
X142205000Y-86115000D03*
D18*
X111495000Y-67870000D03*
X113995000Y-67870000D03*
D19*
X107820000Y-74740000D03*
X107820000Y-67200000D03*
D20*
X118305000Y-73755000D03*
X118305000Y-72055000D03*
D21*
X110175000Y-78595000D03*
X107975000Y-78595000D03*
D17*
X117245000Y-79345000D03*
X117245000Y-77145000D03*
D21*
X110300000Y-87530000D03*
X108100000Y-87530000D03*
X108100000Y-85980000D03*
X110300000Y-85980000D03*
D17*
X112305000Y-93295000D03*
X112305000Y-91095000D03*
X133985000Y-91565000D03*
X133985000Y-93765000D03*
D21*
X138195000Y-86120000D03*
X140395000Y-86120000D03*
X128215000Y-95115000D03*
X126015000Y-95115000D03*
X128225000Y-93455000D03*
X126025000Y-93455000D03*
X121965000Y-74285000D03*
X124165000Y-74285000D03*
X119760000Y-75950000D03*
X121960000Y-75950000D03*
X110180000Y-97890000D03*
X112380000Y-97890000D03*
X117150000Y-97900000D03*
X114950000Y-97900000D03*
D22*
X105945000Y-83350000D03*
X105945000Y-82080000D03*
X105945000Y-80810000D03*
X105945000Y-79540000D03*
X100545000Y-79540000D03*
X100545000Y-80810000D03*
X100545000Y-82080000D03*
X100545000Y-83350000D03*
D23*
X102657500Y-80857500D03*
X102657500Y-82032500D03*
X103832500Y-80857500D03*
X103832500Y-82032500D03*
D24*
X96810000Y-86255000D03*
X96810000Y-87525000D03*
X96810000Y-88795000D03*
X96810000Y-90065000D03*
X96810000Y-91335000D03*
X96810000Y-92605000D03*
X96810000Y-93875000D03*
X96810000Y-95145000D03*
X106110000Y-95145000D03*
X106110000Y-93875000D03*
X106110000Y-92605000D03*
X106110000Y-91335000D03*
X106110000Y-90065000D03*
X106110000Y-88795000D03*
X106110000Y-87525000D03*
X106110000Y-86255000D03*
D25*
X122240000Y-98260000D03*
X121290000Y-98260000D03*
X120340000Y-98260000D03*
X120340000Y-100960000D03*
X122240000Y-100960000D03*
X121290000Y-100960000D03*
X88740000Y-87100000D03*
X89690000Y-87100000D03*
X90640000Y-87100000D03*
X90640000Y-84400000D03*
X88740000Y-84400000D03*
X89690000Y-84400000D03*
D26*
X114115000Y-74215000D03*
D27*
X115065000Y-72615000D03*
X115065000Y-73115000D03*
X115065000Y-74615000D03*
X115065000Y-74115000D03*
X115065000Y-73615000D03*
X113165000Y-74615000D03*
X113165000Y-74115000D03*
X113165000Y-72615000D03*
X113165000Y-73115000D03*
X113165000Y-73615000D03*
D26*
X114115000Y-73015000D03*
D28*
X119130000Y-93135000D03*
X119130000Y-93785000D03*
X119130000Y-94435000D03*
X119130000Y-95085000D03*
X123430000Y-95085000D03*
X123430000Y-94435000D03*
X123430000Y-93785000D03*
X123430000Y-93135000D03*
D14*
X117140000Y-91460000D03*
X118640000Y-91460000D03*
X124480000Y-91740000D03*
X122980000Y-91740000D03*
D17*
X133150000Y-73120000D03*
X136450000Y-73120000D03*
X139970000Y-79490000D03*
X139970000Y-77290000D03*
X144830000Y-84210000D03*
X144830000Y-86410000D03*
M02*
